%TF.GenerationSoftware,KiCad,Pcbnew,8.0.5*%
%TF.CreationDate,2024-10-11T13:06:57+01:00*%
%TF.ProjectId,esquema_eletronico,65737175-656d-4615-9f65-6c6574726f6e,rev?*%
%TF.SameCoordinates,Original*%
%TF.FileFunction,Profile,NP*%
%FSLAX46Y46*%
G04 Gerber Fmt 4.6, Leading zero omitted, Abs format (unit mm)*
G04 Created by KiCad (PCBNEW 8.0.5) date 2024-10-11 13:06:57*
%MOMM*%
%LPD*%
G01*
G04 APERTURE LIST*
%TA.AperFunction,Profile*%
%ADD10C,0.100000*%
%TD*%
%TA.AperFunction,Profile*%
%ADD11C,0.050000*%
%TD*%
G04 APERTURE END LIST*
D10*
X127950000Y-140000000D02*
X166000000Y-140000000D01*
X165668389Y-80075000D02*
G75*
G02*
X158249999Y-80075000I-3709195J0D01*
G01*
X158249999Y-80075000D02*
G75*
G02*
X165668389Y-80075000I3709195J0D01*
G01*
X116375000Y-67000000D02*
X78000000Y-67000000D01*
X128010000Y-70250000D02*
G75*
G02*
X116370040Y-70228485I-5820000J0D01*
G01*
X78000000Y-67000000D02*
X78030378Y-136550000D01*
X116375000Y-67000000D02*
X116370040Y-70228485D01*
X127950000Y-140000000D02*
X127961588Y-136473747D01*
X166000000Y-140000000D02*
X166000000Y-67000000D01*
X128014980Y-67005758D02*
X128010000Y-70250000D01*
X125909195Y-127490806D02*
G75*
G02*
X118490805Y-127490806I-3709195J0D01*
G01*
X118490805Y-127490806D02*
G75*
G02*
X125909195Y-127490806I3709195J0D01*
G01*
X166000000Y-67000000D02*
X128014980Y-67005758D01*
X78030378Y-136550000D02*
X116564585Y-136626717D01*
X86125001Y-80125000D02*
G75*
G02*
X78706611Y-80125000I-3709195J0D01*
G01*
X78706611Y-80125000D02*
G75*
G02*
X86125001Y-80125000I3709195J0D01*
G01*
X116564585Y-136626717D02*
G75*
G02*
X127961573Y-136473750I5713315J-1027783D01*
G01*
D11*
%TO.C,U4*%
X133997500Y-70355000D02*
G75*
G02*
X130997500Y-70355000I-1500000J0D01*
G01*
X130997500Y-70355000D02*
G75*
G02*
X133997500Y-70355000I1500000J0D01*
G01*
X154997500Y-70355000D02*
G75*
G02*
X151997500Y-70355000I-1500000J0D01*
G01*
X151997500Y-70355000D02*
G75*
G02*
X154997500Y-70355000I1500000J0D01*
G01*
%TD*%
M02*
