%TF.GenerationSoftware,KiCad,Pcbnew,8.0.5*%
%TF.CreationDate,2024-10-11T13:06:57+01:00*%
%TF.ProjectId,esquema_eletronico,65737175-656d-4615-9f65-6c6574726f6e,rev?*%
%TF.SameCoordinates,Original*%
%TF.FileFunction,Copper,L6,Bot*%
%TF.FilePolarity,Positive*%
%FSLAX46Y46*%
G04 Gerber Fmt 4.6, Leading zero omitted, Abs format (unit mm)*
G04 Created by KiCad (PCBNEW 8.0.5) date 2024-10-11 13:06:57*
%MOMM*%
%LPD*%
G01*
G04 APERTURE LIST*
G04 Aperture macros list*
%AMRoundRect*
0 Rectangle with rounded corners*
0 $1 Rounding radius*
0 $2 $3 $4 $5 $6 $7 $8 $9 X,Y pos of 4 corners*
0 Add a 4 corners polygon primitive as box body*
4,1,4,$2,$3,$4,$5,$6,$7,$8,$9,$2,$3,0*
0 Add four circle primitives for the rounded corners*
1,1,$1+$1,$2,$3*
1,1,$1+$1,$4,$5*
1,1,$1+$1,$6,$7*
1,1,$1+$1,$8,$9*
0 Add four rect primitives between the rounded corners*
20,1,$1+$1,$2,$3,$4,$5,0*
20,1,$1+$1,$4,$5,$6,$7,0*
20,1,$1+$1,$6,$7,$8,$9,0*
20,1,$1+$1,$8,$9,$2,$3,0*%
G04 Aperture macros list end*
%TA.AperFunction,SMDPad,CuDef*%
%ADD10RoundRect,0.225000X0.250000X-0.225000X0.250000X0.225000X-0.250000X0.225000X-0.250000X-0.225000X0*%
%TD*%
%TA.AperFunction,SMDPad,CuDef*%
%ADD11RoundRect,0.225000X-0.250000X0.225000X-0.250000X-0.225000X0.250000X-0.225000X0.250000X0.225000X0*%
%TD*%
%TA.AperFunction,ComponentPad*%
%ADD12R,1.700000X1.700000*%
%TD*%
%TA.AperFunction,ComponentPad*%
%ADD13O,1.700000X1.700000*%
%TD*%
%TA.AperFunction,ComponentPad*%
%ADD14C,1.700000*%
%TD*%
%TA.AperFunction,HeatsinkPad*%
%ADD15C,0.600000*%
%TD*%
%TA.AperFunction,ComponentPad*%
%ADD16RoundRect,0.249900X-0.275100X-0.400100X0.275100X-0.400100X0.275100X0.400100X-0.275100X0.400100X0*%
%TD*%
%TA.AperFunction,ComponentPad*%
%ADD17O,1.050000X1.300000*%
%TD*%
%TA.AperFunction,SMDPad,CuDef*%
%ADD18RoundRect,0.225000X0.225000X0.250000X-0.225000X0.250000X-0.225000X-0.250000X0.225000X-0.250000X0*%
%TD*%
%TA.AperFunction,SMDPad,CuDef*%
%ADD19R,3.000000X3.000000*%
%TD*%
%TA.AperFunction,SMDPad,CuDef*%
%ADD20R,1.500000X2.600000*%
%TD*%
%TA.AperFunction,SMDPad,CuDef*%
%ADD21R,4.200000X1.500000*%
%TD*%
%TA.AperFunction,SMDPad,CuDef*%
%ADD22RoundRect,0.200000X0.200000X0.275000X-0.200000X0.275000X-0.200000X-0.275000X0.200000X-0.275000X0*%
%TD*%
%TA.AperFunction,SMDPad,CuDef*%
%ADD23RoundRect,0.200000X-0.200000X-0.275000X0.200000X-0.275000X0.200000X0.275000X-0.200000X0.275000X0*%
%TD*%
%TA.AperFunction,SMDPad,CuDef*%
%ADD24RoundRect,0.093750X0.093750X0.106250X-0.093750X0.106250X-0.093750X-0.106250X0.093750X-0.106250X0*%
%TD*%
%TA.AperFunction,ComponentPad*%
%ADD25C,0.600000*%
%TD*%
%TA.AperFunction,SMDPad,CuDef*%
%ADD26R,1.000000X1.600000*%
%TD*%
%TA.AperFunction,SMDPad,CuDef*%
%ADD27R,0.300000X0.800000*%
%TD*%
%TA.AperFunction,SMDPad,CuDef*%
%ADD28R,0.800000X0.300000*%
%TD*%
%TA.AperFunction,SMDPad,CuDef*%
%ADD29R,2.800000X2.800000*%
%TD*%
%TA.AperFunction,SMDPad,CuDef*%
%ADD30RoundRect,0.150000X0.150000X-0.587500X0.150000X0.587500X-0.150000X0.587500X-0.150000X-0.587500X0*%
%TD*%
%TA.AperFunction,SMDPad,CuDef*%
%ADD31RoundRect,0.200000X0.275000X-0.200000X0.275000X0.200000X-0.275000X0.200000X-0.275000X-0.200000X0*%
%TD*%
%TA.AperFunction,ComponentPad*%
%ADD32C,2.286000*%
%TD*%
%TA.AperFunction,SMDPad,CuDef*%
%ADD33RoundRect,0.225000X-0.225000X-0.250000X0.225000X-0.250000X0.225000X0.250000X-0.225000X0.250000X0*%
%TD*%
%TA.AperFunction,SMDPad,CuDef*%
%ADD34R,0.590000X1.750000*%
%TD*%
%TA.AperFunction,SMDPad,CuDef*%
%ADD35RoundRect,0.150000X0.150000X0.500000X-0.150000X0.500000X-0.150000X-0.500000X0.150000X-0.500000X0*%
%TD*%
%TA.AperFunction,SMDPad,CuDef*%
%ADD36RoundRect,0.075000X0.075000X0.575000X-0.075000X0.575000X-0.075000X-0.575000X0.075000X-0.575000X0*%
%TD*%
%TA.AperFunction,ComponentPad*%
%ADD37O,1.000000X1.600000*%
%TD*%
%TA.AperFunction,ComponentPad*%
%ADD38O,1.000000X2.100000*%
%TD*%
%TA.AperFunction,SMDPad,CuDef*%
%ADD39RoundRect,0.150000X-0.200000X0.150000X-0.200000X-0.150000X0.200000X-0.150000X0.200000X0.150000X0*%
%TD*%
%TA.AperFunction,SMDPad,CuDef*%
%ADD40RoundRect,0.135000X0.185000X-0.135000X0.185000X0.135000X-0.185000X0.135000X-0.185000X-0.135000X0*%
%TD*%
%TA.AperFunction,SMDPad,CuDef*%
%ADD41R,0.600000X0.240000*%
%TD*%
%TA.AperFunction,SMDPad,CuDef*%
%ADD42R,0.240000X0.600000*%
%TD*%
%TA.AperFunction,SMDPad,CuDef*%
%ADD43R,3.050000X2.050000*%
%TD*%
%TA.AperFunction,SMDPad,CuDef*%
%ADD44R,0.270000X0.990000*%
%TD*%
%TA.AperFunction,SMDPad,CuDef*%
%ADD45R,0.990000X0.270000*%
%TD*%
%TA.AperFunction,SMDPad,CuDef*%
%ADD46R,3.250000X3.250000*%
%TD*%
%TA.AperFunction,SMDPad,CuDef*%
%ADD47RoundRect,0.200000X-0.275000X0.200000X-0.275000X-0.200000X0.275000X-0.200000X0.275000X0.200000X0*%
%TD*%
%TA.AperFunction,SMDPad,CuDef*%
%ADD48RoundRect,0.135000X0.135000X0.185000X-0.135000X0.185000X-0.135000X-0.185000X0.135000X-0.185000X0*%
%TD*%
%TA.AperFunction,SMDPad,CuDef*%
%ADD49R,0.480000X0.400000*%
%TD*%
%TA.AperFunction,SMDPad,CuDef*%
%ADD50RoundRect,0.150000X-0.587500X-0.150000X0.587500X-0.150000X0.587500X0.150000X-0.587500X0.150000X0*%
%TD*%
%TA.AperFunction,ViaPad*%
%ADD51C,0.800000*%
%TD*%
%TA.AperFunction,Conductor*%
%ADD52C,0.204000*%
%TD*%
%TA.AperFunction,Conductor*%
%ADD53C,0.200000*%
%TD*%
%TA.AperFunction,Conductor*%
%ADD54C,0.300000*%
%TD*%
%TA.AperFunction,Conductor*%
%ADD55C,0.400000*%
%TD*%
%TA.AperFunction,Conductor*%
%ADD56C,0.600000*%
%TD*%
%TA.AperFunction,Conductor*%
%ADD57C,0.250000*%
%TD*%
%TA.AperFunction,Conductor*%
%ADD58C,0.350000*%
%TD*%
%TA.AperFunction,Conductor*%
%ADD59C,0.500000*%
%TD*%
%TA.AperFunction,Conductor*%
%ADD60C,1.000000*%
%TD*%
G04 APERTURE END LIST*
D10*
%TO.P,C39,1*%
%TO.N,/wireless_charging/CLAMP2*%
X149000000Y-116075000D03*
%TO.P,C39,2*%
%TO.N,/wireless_charging/COIL-*%
X149000000Y-114525000D03*
%TD*%
D11*
%TO.P,C10,1*%
%TO.N,/wireless_charging/CLAMP1*%
X150350000Y-124600000D03*
%TO.P,C10,2*%
%TO.N,/wireless_charging/AC1*%
X150350000Y-126150000D03*
%TD*%
D12*
%TO.P,U9,1,GND*%
%TO.N,GNDREF*%
X161850000Y-109130000D03*
D13*
%TO.P,U9,2,VIN*%
%TO.N,unconnected-(U9-VIN-Pad2)*%
X161850000Y-106590000D03*
%TO.P,U9,3,3V3*%
%TO.N,/VREF_3V3*%
X161850000Y-104050000D03*
%TO.P,U9,4,ON_OFF*%
%TO.N,unconnected-(U9-ON_OFF-Pad4)*%
X161850000Y-101510000D03*
%TO.P,U9,5,VBACKUP*%
%TO.N,/VREF_3V3*%
X161850000Y-98970000D03*
%TO.P,U9,6,GPS_TXD*%
%TO.N,/GPS_TXD*%
X145070000Y-98960000D03*
%TO.P,U9,7,GPS_RXD*%
%TO.N,/GPS_RXD*%
X145070000Y-101500000D03*
%TO.P,U9,8,NC*%
%TO.N,unconnected-(U9-NC-Pad8)*%
X145070000Y-104040000D03*
%TO.P,U9,9,MODE*%
%TO.N,unconnected-(U9-MODE-Pad9)*%
X145070000Y-106580000D03*
D14*
%TO.P,U9,10,1PPS*%
%TO.N,unconnected-(U9-1PPS-Pad10)*%
X145070000Y-109120000D03*
%TD*%
D12*
%TO.P,J1_TMP1,1,Pin_1*%
%TO.N,/TMP_DATA*%
X117220000Y-118250000D03*
D13*
%TO.P,J1_TMP1,2,Pin_2*%
%TO.N,/VREF_TMP_3V3*%
X119760000Y-118250000D03*
%TO.P,J1_TMP1,3,Pin_3*%
%TO.N,GNDREF*%
X122300000Y-118250000D03*
%TD*%
D12*
%TO.P,U4,1,VCC*%
%TO.N,/VREF_3V3*%
X131457500Y-81855000D03*
D13*
%TO.P,U4,2,GND*%
%TO.N,GNDREF*%
X133997500Y-81855000D03*
%TO.P,U4,3,SCL*%
%TO.N,/IIC_SCL*%
X136537500Y-81855000D03*
%TO.P,U4,4,SDA*%
%TO.N,/IIC_SDA*%
X139077500Y-81855000D03*
%TO.P,U4,5,EDA*%
%TO.N,unconnected-(U4-EDA-Pad5)*%
X141617500Y-81855000D03*
%TO.P,U4,6,ECL*%
%TO.N,unconnected-(U4-ECL-Pad6)*%
X144157500Y-81855000D03*
%TO.P,U4,7,ADO*%
%TO.N,/VREF_3V3*%
X146697500Y-81855000D03*
%TO.P,U4,8,INT*%
%TO.N,unconnected-(U4-INT-Pad8)*%
X149237500Y-81855000D03*
%TO.P,U4,9,NCS*%
%TO.N,unconnected-(U4-NCS-Pad9)*%
X151777500Y-81855000D03*
%TO.P,U4,10,FSYNC*%
%TO.N,unconnected-(U4-FSYNC-Pad10)*%
X154317500Y-81855000D03*
%TD*%
D15*
%TO.P,U7,39,GND*%
%TO.N,GNDREF*%
X98560000Y-128540000D03*
X98560000Y-127140000D03*
X97860000Y-129240000D03*
X97860000Y-127840000D03*
X97860000Y-126440000D03*
X97185000Y-128540000D03*
X97185000Y-127140000D03*
X96460000Y-129240000D03*
X96460000Y-127840000D03*
X96460000Y-126440000D03*
X95760000Y-128540000D03*
X95760000Y-127140000D03*
%TD*%
D16*
%TO.P,U2,1,IN*%
%TO.N,/PRE_VCC*%
X127795000Y-130260000D03*
D17*
%TO.P,U2,2*%
%TO.N,GNDREF*%
X129065000Y-130260000D03*
%TO.P,U2,3,OUT*%
%TO.N,Net-(Q4-G)*%
X130335000Y-130260000D03*
%TD*%
D18*
%TO.P,C31,1*%
%TO.N,/PRE_VCC*%
X130375000Y-134060000D03*
%TO.P,C31,2*%
%TO.N,GNDREF*%
X128825000Y-134060000D03*
%TD*%
D10*
%TO.P,C19,1*%
%TO.N,Net-(U6-COMM2)*%
X147425000Y-116050000D03*
%TO.P,C19,2*%
%TO.N,/wireless_charging/COIL-*%
X147425000Y-114500000D03*
%TD*%
D19*
%TO.P,TP4,1,1*%
%TO.N,/batery_module/VIN*%
X137500000Y-124075000D03*
%TD*%
D20*
%TO.P,D7,1,K*%
%TO.N,/STAT*%
X135700000Y-109450000D03*
%TO.P,D7,2,A*%
%TO.N,Net-(D7-A)*%
X132700000Y-109450000D03*
%TD*%
D21*
%TO.P,L1,1,1*%
%TO.N,Net-(IC2-SW_1)*%
X134000000Y-131125000D03*
%TO.P,L1,2,2*%
%TO.N,/PRE_VCC*%
X134000000Y-133825000D03*
%TD*%
D12*
%TO.P,J1,1,Pin_1*%
%TO.N,GNDREF*%
X139000000Y-137625000D03*
D13*
%TO.P,J1,2,Pin_2*%
%TO.N,/BATT*%
X141540000Y-137625000D03*
%TD*%
D22*
%TO.P,R36,1*%
%TO.N,/USB5V*%
X142400000Y-118710000D03*
%TO.P,R36,2*%
%TO.N,Net-(U8-VBUS)*%
X140750000Y-118710000D03*
%TD*%
D23*
%TO.P,R32,1*%
%TO.N,Net-(IC2-REGN)*%
X139280000Y-134200000D03*
%TO.P,R32,2*%
%TO.N,Net-(IC2-TS)*%
X140930000Y-134200000D03*
%TD*%
D10*
%TO.P,C22,1*%
%TO.N,Net-(U6-BOOT2)*%
X150525000Y-116075000D03*
%TO.P,C22,2*%
%TO.N,/wireless_charging/COIL-*%
X150525000Y-114525000D03*
%TD*%
D24*
%TO.P,U3,1,OUT*%
%TO.N,/VREF_3V3*%
X131457500Y-122400000D03*
%TO.P,U3,2,NC*%
%TO.N,unconnected-(U3-NC-Pad2)*%
X131457500Y-123050000D03*
%TO.P,U3,3,PG*%
%TO.N,unconnected-(U3-PG-Pad3)*%
X131457500Y-123700000D03*
%TO.P,U3,4,EN*%
%TO.N,/VCC_RAW*%
X129682500Y-123700000D03*
%TO.P,U3,5,GND*%
%TO.N,GNDREF*%
X129682500Y-123050000D03*
%TO.P,U3,6,IN*%
%TO.N,/VCC_RAW*%
X129682500Y-122400000D03*
D25*
%TO.P,U3,7,EP*%
%TO.N,GNDREF*%
X130570000Y-123600000D03*
D26*
X130570000Y-123050000D03*
D25*
X130570000Y-122500000D03*
%TD*%
D23*
%TO.P,R31,1*%
%TO.N,Net-(IC2-ICHG)*%
X144275000Y-129925000D03*
%TO.P,R31,2*%
%TO.N,GNDREF*%
X145925000Y-129925000D03*
%TD*%
D11*
%TO.P,C1,1*%
%TO.N,/VCC_RAW*%
X129275000Y-113325000D03*
%TO.P,C1,2*%
%TO.N,GNDREF*%
X129275000Y-114875000D03*
%TD*%
D23*
%TO.P,R30,1*%
%TO.N,Net-(IC2-VSET)*%
X143930000Y-134605000D03*
%TO.P,R30,2*%
%TO.N,GNDREF*%
X145580000Y-134605000D03*
%TD*%
D27*
%TO.P,IC2,1,VAC*%
%TO.N,/USB5V*%
X138880000Y-128325000D03*
%TO.P,IC2,2,ACDRV*%
%TO.N,/batery_module/ACDRV*%
X139380000Y-128325000D03*
%TO.P,IC2,3,D+*%
%TO.N,/USBD+*%
X139880000Y-128325000D03*
%TO.P,IC2,4,D-*%
%TO.N,/USBD-*%
X140380000Y-128325000D03*
%TO.P,IC2,5,STAT*%
%TO.N,Net-(IC2-STAT)*%
X140880000Y-128325000D03*
%TO.P,IC2,6,OTG*%
%TO.N,unconnected-(IC2-OTG-Pad6)*%
X141380000Y-128325000D03*
D28*
%TO.P,IC2,7,~{PG}*%
%TO.N,unconnected-(IC2-~{PG}-Pad7)*%
X142130000Y-129075000D03*
%TO.P,IC2,8,ILIM*%
%TO.N,Net-(IC2-ILIM)*%
X142130000Y-129575000D03*
%TO.P,IC2,9,~{CE}*%
%TO.N,/WRL_EN*%
X142130000Y-130075000D03*
%TO.P,IC2,10,ICHG*%
%TO.N,Net-(IC2-ICHG)*%
X142130000Y-130575000D03*
%TO.P,IC2,11,TS*%
%TO.N,Net-(IC2-TS)*%
X142130000Y-131075000D03*
%TO.P,IC2,12,VSET*%
%TO.N,Net-(IC2-VSET)*%
X142130000Y-131575000D03*
D27*
%TO.P,IC2,13,BAT_1*%
%TO.N,/BATT*%
X141380000Y-132325000D03*
%TO.P,IC2,14,BAT_2*%
X140880000Y-132325000D03*
%TO.P,IC2,15,SYS_1*%
%TO.N,/PRE_VCC*%
X140380000Y-132325000D03*
%TO.P,IC2,16,SYS_2*%
X139880000Y-132325000D03*
%TO.P,IC2,17,GND_1*%
%TO.N,GNDREF*%
X139380000Y-132325000D03*
%TO.P,IC2,18,GND_2*%
X138880000Y-132325000D03*
D28*
%TO.P,IC2,19,SW_1*%
%TO.N,Net-(IC2-SW_1)*%
X138130000Y-131575000D03*
%TO.P,IC2,20,SW_2*%
X138130000Y-131075000D03*
%TO.P,IC2,21,BTST*%
%TO.N,Net-(IC2-BTST)*%
X138130000Y-130575000D03*
%TO.P,IC2,22,REGN*%
%TO.N,Net-(IC2-REGN)*%
X138130000Y-130075000D03*
%TO.P,IC2,23,PMID*%
%TO.N,Net-(IC2-PMID)*%
X138130000Y-129575000D03*
%TO.P,IC2,24,VBUS*%
%TO.N,/batery_module/VIN*%
X138130000Y-129075000D03*
D29*
%TO.P,IC2,25,EP*%
%TO.N,GNDREF*%
X140130000Y-130325000D03*
%TD*%
D18*
%TO.P,C6,1*%
%TO.N,/VREF_3V3*%
X131225000Y-120775000D03*
%TO.P,C6,2*%
%TO.N,GNDREF*%
X129675000Y-120775000D03*
%TD*%
D19*
%TO.P,TP3,1,1*%
%TO.N,/USB5V*%
X145675000Y-125050000D03*
%TD*%
D30*
%TO.P,Q4,1,G*%
%TO.N,Net-(Q4-G)*%
X130405000Y-127765000D03*
%TO.P,Q4,2,S*%
%TO.N,/PRE_VCC*%
X128505000Y-127765000D03*
%TO.P,Q4,3,D*%
%TO.N,/VCC_RAW*%
X129455000Y-125890000D03*
%TD*%
D19*
%TO.P,TP7,1,1*%
%TO.N,/VCC_RAW*%
X126425000Y-117950000D03*
%TD*%
D10*
%TO.P,C25,1*%
%TO.N,/wireless_charging/RECT*%
X152100000Y-116075000D03*
%TO.P,C25,2*%
%TO.N,GNDREF*%
X152100000Y-114525000D03*
%TD*%
D31*
%TO.P,R6,1*%
%TO.N,/wireless_charging/NTC*%
X145850000Y-116050000D03*
%TO.P,R6,2*%
%TO.N,GNDREF*%
X145850000Y-114400000D03*
%TD*%
D22*
%TO.P,R34,1*%
%TO.N,GNDREF*%
X145580000Y-133055000D03*
%TO.P,R34,2*%
%TO.N,Net-(IC2-TS)*%
X143930000Y-133055000D03*
%TD*%
D32*
%TO.P,BT1,1,+*%
%TO.N,/rtc_ds3231/BAT_CELL+*%
X105500000Y-75887500D03*
%TO.P,BT1,2,-*%
%TO.N,GNDREF*%
X90300000Y-75887500D03*
%TD*%
D33*
%TO.P,C15,1*%
%TO.N,/wireless_charging/AC1*%
X155125000Y-122850000D03*
%TO.P,C15,2*%
%TO.N,/wireless_charging/COIL+*%
X156675000Y-122850000D03*
%TD*%
%TO.P,C14,1*%
%TO.N,/wireless_charging/AC1*%
X153625000Y-121300000D03*
%TO.P,C14,2*%
%TO.N,/wireless_charging/COIL+*%
X155175000Y-121300000D03*
%TD*%
D34*
%TO.P,U1,1,DNC\u002A*%
%TO.N,unconnected-(U1-DNC\u002A-Pad1)*%
X127600000Y-114500000D03*
%TO.P,U1,2,VIN*%
%TO.N,/VCC_RAW*%
X126330000Y-114500000D03*
%TO.P,U1,3,SHDN*%
%TO.N,/CTRL_GPIO*%
X125060000Y-114500000D03*
%TO.P,U1,4,GND*%
%TO.N,GNDREF*%
X123790000Y-114500000D03*
%TO.P,U1,5,DNC\u002A*%
%TO.N,unconnected-(U1-DNC\u002A-Pad5)*%
X123790000Y-109330000D03*
%TO.P,U1,6,VOUT*%
%TO.N,/VREF_TMP_3V3*%
X125060000Y-109330000D03*
%TO.P,U1,7,DNC\u002A*%
%TO.N,unconnected-(U1-DNC\u002A-Pad7)*%
X126330000Y-109330000D03*
%TO.P,U1,8,DNC\u002A*%
%TO.N,unconnected-(U1-DNC\u002A-Pad8)*%
X127600000Y-109330000D03*
%TD*%
D19*
%TO.P,TP5,1,1*%
%TO.N,/wireless_charging/COIL-*%
X159675000Y-115700000D03*
%TD*%
D18*
%TO.P,C16,1*%
%TO.N,/wireless_charging/COIL+*%
X156650000Y-124400000D03*
%TO.P,C16,2*%
%TO.N,/wireless_charging/AC1*%
X155100000Y-124400000D03*
%TD*%
%TO.P,C18,1*%
%TO.N,Net-(C18-Pad1)*%
X155175000Y-119700000D03*
%TO.P,C18,2*%
%TO.N,/wireless_charging/AC1*%
X153625000Y-119700000D03*
%TD*%
D35*
%TO.P,J2,A1,GND*%
%TO.N,GNDREF*%
X155750000Y-130530000D03*
%TO.P,J2,A4,VBUS*%
%TO.N,/USB5V*%
X154950000Y-130530000D03*
D36*
%TO.P,J2,A5,CC1*%
%TO.N,Net-(J2-CC1)*%
X153800000Y-130530000D03*
%TO.P,J2,A6,D+*%
%TO.N,/USBD+*%
X152800000Y-130530000D03*
%TO.P,J2,A7,D-*%
%TO.N,/USBD-*%
X152300000Y-130530000D03*
%TO.P,J2,A8*%
%TO.N,N/C*%
X151300000Y-130530000D03*
D35*
%TO.P,J2,A9,VBUS*%
%TO.N,/USB5V*%
X150150000Y-130530000D03*
%TO.P,J2,A12,GND*%
%TO.N,GNDREF*%
X149350000Y-130530000D03*
%TO.P,J2,B1,GND*%
X149350000Y-130530000D03*
%TO.P,J2,B4,VBUS*%
%TO.N,/USB5V*%
X150150000Y-130530000D03*
D36*
%TO.P,J2,B5,CC2*%
%TO.N,Net-(J2-CC2)*%
X150800000Y-130530000D03*
%TO.P,J2,B6,D+*%
%TO.N,/USBD+*%
X151800000Y-130530000D03*
%TO.P,J2,B7,D-*%
%TO.N,/USBD-*%
X153300000Y-130530000D03*
%TO.P,J2,B8*%
%TO.N,N/C*%
X154300000Y-130530000D03*
D35*
%TO.P,J2,B9,VBUS*%
%TO.N,/USB5V*%
X154950000Y-130530000D03*
%TO.P,J2,B12,GND*%
%TO.N,GNDREF*%
X155750000Y-130530000D03*
D37*
%TO.P,J2,S1,SHIELD*%
X156870000Y-135350000D03*
D38*
X156870000Y-131170000D03*
D37*
X148230000Y-135350000D03*
D38*
X148230000Y-131170000D03*
%TD*%
D22*
%TO.P,R22,1*%
%TO.N,Net-(U6-ILIM)*%
X146350000Y-118900000D03*
%TO.P,R22,2*%
%TO.N,Net-(U6-FOD)*%
X144700000Y-118900000D03*
%TD*%
D39*
%TO.P,D5,1,A1*%
%TO.N,/USB5V*%
X140350000Y-125675000D03*
%TO.P,D5,2,A2*%
%TO.N,GNDREF*%
X140350000Y-124275000D03*
%TD*%
D40*
%TO.P,R25,1*%
%TO.N,/wireless_charging/NTC*%
X144575000Y-116135000D03*
%TO.P,R25,2*%
%TO.N,GNDREF*%
X144575000Y-115115000D03*
%TD*%
D23*
%TO.P,R24,1*%
%TO.N,GNDREF*%
X144725000Y-121975000D03*
%TO.P,R24,2*%
%TO.N,/wireless_charging/TERM*%
X146375000Y-121975000D03*
%TD*%
D22*
%TO.P,R8,1*%
%TO.N,Net-(Q4-G)*%
X130435000Y-132370000D03*
%TO.P,R8,2*%
%TO.N,/PRE_VCC*%
X128785000Y-132370000D03*
%TD*%
D41*
%TO.P,U6,1,PGND*%
%TO.N,GNDREF*%
X152125000Y-121100000D03*
D42*
%TO.P,U6,2,AC1*%
%TO.N,/wireless_charging/AC1*%
X151725000Y-122000000D03*
%TO.P,U6,3,BOOT1*%
%TO.N,Net-(U6-BOOT1)*%
X151225000Y-122000000D03*
%TO.P,U6,4,BAT*%
%TO.N,/BATT*%
X150725000Y-122000000D03*
%TO.P,U6,5,CLAMP1*%
%TO.N,/wireless_charging/CLAMP1*%
X150225000Y-122000000D03*
%TO.P,U6,6,COMM1*%
%TO.N,Net-(U6-COMM1)*%
X149725000Y-122000000D03*
%TO.P,U6,7,~{CHG}*%
%TO.N,/wireless_charging/~{CHG_PIN}*%
X149225000Y-122000000D03*
%TO.P,U6,8,~{AD-EN}*%
%TO.N,/WRL_EN*%
X148725000Y-122000000D03*
%TO.P,U6,9,AD*%
%TO.N,/USB5V*%
X148225000Y-122000000D03*
D41*
%TO.P,U6,10,TERM*%
%TO.N,/wireless_charging/TERM*%
X147825000Y-121100000D03*
%TO.P,U6,11,EN2*%
%TO.N,GNDREF*%
X147825000Y-119600000D03*
D42*
%TO.P,U6,12,ILIM*%
%TO.N,Net-(U6-ILIM)*%
X148225000Y-118700000D03*
%TO.P,U6,13,TS/CTRL*%
%TO.N,/wireless_charging/NTC*%
X148725000Y-118700000D03*
%TO.P,U6,14,FOD*%
%TO.N,Net-(U6-FOD)*%
X149225000Y-118700000D03*
%TO.P,U6,15,COMM2*%
%TO.N,Net-(U6-COMM2)*%
X149725000Y-118700000D03*
%TO.P,U6,16,CLAMP2*%
%TO.N,/wireless_charging/CLAMP2*%
X150225000Y-118700000D03*
%TO.P,U6,17,BOOT2*%
%TO.N,Net-(U6-BOOT2)*%
X150725000Y-118700000D03*
%TO.P,U6,18,RECT*%
%TO.N,/wireless_charging/RECT*%
X151225000Y-118700000D03*
%TO.P,U6,19,AC2*%
%TO.N,/wireless_charging/COIL-*%
X151725000Y-118700000D03*
D41*
%TO.P,U6,20,PGND*%
%TO.N,GNDREF*%
X152125000Y-119600000D03*
D43*
%TO.P,U6,21,PGND*%
X149975000Y-120350000D03*
%TD*%
D20*
%TO.P,D6,1,K*%
%TO.N,/wireless_charging/~{CHG_PIN}*%
X133150000Y-104075000D03*
%TO.P,D6,2,A*%
%TO.N,Net-(D6-A)*%
X136150000Y-104075000D03*
%TD*%
D44*
%TO.P,U8,1,DCD*%
%TO.N,unconnected-(U8-DCD-Pad1)*%
X134625000Y-116200000D03*
%TO.P,U8,2,RI/CLK*%
%TO.N,unconnected-(U8-RI{slash}CLK-Pad2)*%
X135125000Y-116200000D03*
%TO.P,U8,3,GND*%
%TO.N,GNDREF*%
X135625000Y-116200000D03*
%TO.P,U8,4,D+*%
%TO.N,/USBD+*%
X136125000Y-116200000D03*
%TO.P,U8,5,D-*%
%TO.N,/USBD-*%
X136625000Y-116200000D03*
%TO.P,U8,6,VDD*%
%TO.N,/VREF_3V3*%
X137125000Y-116200000D03*
%TO.P,U8,7,VREGIN*%
X137625000Y-116200000D03*
D45*
%TO.P,U8,8,VBUS*%
%TO.N,Net-(U8-VBUS)*%
X138485000Y-117060000D03*
%TO.P,U8,9,~{RST}*%
%TO.N,Net-(U8-~{RST})*%
X138485000Y-117560000D03*
%TO.P,U8,10,NC*%
%TO.N,unconnected-(U8-NC-Pad10)*%
X138485000Y-118060000D03*
%TO.P,U8,11,~{SUSPEND}*%
%TO.N,Net-(U8-~{SUSPEND})*%
X138485000Y-118560000D03*
%TO.P,U8,12,SUSPEND*%
%TO.N,unconnected-(U8-SUSPEND-Pad12)*%
X138485000Y-119060000D03*
%TO.P,U8,13,CHREN*%
%TO.N,unconnected-(U8-CHREN-Pad13)*%
X138485000Y-119560000D03*
%TO.P,U8,14,CHR1*%
%TO.N,unconnected-(U8-CHR1-Pad14)*%
X138485000Y-120060000D03*
D44*
%TO.P,U8,15,CHR0*%
%TO.N,unconnected-(U8-CHR0-Pad15)*%
X137625000Y-120920000D03*
%TO.P,U8,16,GPIO.3/WAKEUP*%
%TO.N,unconnected-(U8-GPIO.3{slash}WAKEUP-Pad16)*%
X137125000Y-120920000D03*
%TO.P,U8,17,GPIO.2/RS485*%
%TO.N,unconnected-(U8-GPIO.2{slash}RS485-Pad17)*%
X136625000Y-120920000D03*
%TO.P,U8,18,GPIO.1/RXT*%
%TO.N,unconnected-(U8-GPIO.1{slash}RXT-Pad18)*%
X136125000Y-120920000D03*
%TO.P,U8,19,GPIO.0/TXT*%
%TO.N,unconnected-(U8-GPIO.0{slash}TXT-Pad19)*%
X135625000Y-120920000D03*
%TO.P,U8,20,GPIO.6*%
%TO.N,unconnected-(U8-GPIO.6-Pad20)*%
X135125000Y-120920000D03*
%TO.P,U8,21,GPIO.5*%
%TO.N,unconnected-(U8-GPIO.5-Pad21)*%
X134625000Y-120920000D03*
D45*
%TO.P,U8,22,GPIO.4*%
%TO.N,unconnected-(U8-GPIO.4-Pad22)*%
X133765000Y-120060000D03*
%TO.P,U8,23,CTS*%
%TO.N,unconnected-(U8-CTS-Pad23)*%
X133765000Y-119560000D03*
%TO.P,U8,24,RTS*%
%TO.N,/RTS*%
X133765000Y-119060000D03*
%TO.P,U8,25,RXD*%
%TO.N,/UART_PROG_RX*%
X133765000Y-118560000D03*
%TO.P,U8,26,TXD*%
%TO.N,/UART_PROG_TX*%
X133765000Y-118060000D03*
%TO.P,U8,27,DSR*%
%TO.N,unconnected-(U8-DSR-Pad27)*%
X133765000Y-117560000D03*
%TO.P,U8,28,DTR*%
%TO.N,/DTR*%
X133765000Y-117060000D03*
D46*
%TO.P,U8,29,GND*%
%TO.N,GNDREF*%
X136125000Y-118560000D03*
%TD*%
D18*
%TO.P,C27,1*%
%TO.N,Net-(IC2-PMID)*%
X134580000Y-125100000D03*
%TO.P,C27,2*%
%TO.N,GNDREF*%
X133030000Y-125100000D03*
%TD*%
%TO.P,C26,1*%
%TO.N,/batery_module/VIN*%
X134605000Y-123350000D03*
%TO.P,C26,2*%
%TO.N,GNDREF*%
X133055000Y-123350000D03*
%TD*%
D19*
%TO.P,TP6,1,1*%
%TO.N,/wireless_charging/COIL+*%
X159675000Y-119825000D03*
%TD*%
D11*
%TO.P,C13,1*%
%TO.N,/BATT*%
X152000000Y-124325000D03*
%TO.P,C13,2*%
%TO.N,GNDREF*%
X152000000Y-125875000D03*
%TD*%
D47*
%TO.P,R28,1*%
%TO.N,/STAT*%
X142750000Y-124725000D03*
%TO.P,R28,2*%
%TO.N,Net-(IC2-STAT)*%
X142750000Y-126375000D03*
%TD*%
D23*
%TO.P,R39,1*%
%TO.N,Net-(U8-~{SUSPEND})*%
X140775000Y-115585000D03*
%TO.P,R39,2*%
%TO.N,GNDREF*%
X142425000Y-115585000D03*
%TD*%
D33*
%TO.P,C20,1*%
%TO.N,/wireless_charging/COIL-*%
X154575000Y-118100000D03*
%TO.P,C20,2*%
%TO.N,Net-(C18-Pad1)*%
X156125000Y-118100000D03*
%TD*%
D48*
%TO.P,R27,1*%
%TO.N,Net-(R26-Pad2)*%
X145525000Y-117575000D03*
%TO.P,R27,2*%
%TO.N,Net-(U6-FOD)*%
X144505000Y-117575000D03*
%TD*%
D23*
%TO.P,R9,1*%
%TO.N,Net-(D7-A)*%
X133900000Y-112800000D03*
%TO.P,R9,2*%
%TO.N,/VREF_3V3*%
X135550000Y-112800000D03*
%TD*%
D49*
%TO.P,D4,1*%
%TO.N,/USB5V*%
X154842500Y-128300000D03*
%TO.P,D4,2*%
%TO.N,GNDREF*%
X156162500Y-128300000D03*
%TD*%
D18*
%TO.P,C28,1*%
%TO.N,Net-(IC2-BTST)*%
X135555000Y-129225000D03*
%TO.P,C28,2*%
%TO.N,Net-(IC2-SW_1)*%
X134005000Y-129225000D03*
%TD*%
D22*
%TO.P,R23,1*%
%TO.N,GNDREF*%
X146350000Y-120425000D03*
%TO.P,R23,2*%
%TO.N,Net-(U6-FOD)*%
X144700000Y-120425000D03*
%TD*%
D10*
%TO.P,C23,1*%
%TO.N,/wireless_charging/RECT*%
X155175000Y-116075000D03*
%TO.P,C23,2*%
%TO.N,GNDREF*%
X155175000Y-114525000D03*
%TD*%
D33*
%TO.P,C38,1*%
%TO.N,/VREF_3V3*%
X137675000Y-112960000D03*
%TO.P,C38,2*%
%TO.N,GNDREF*%
X139225000Y-112960000D03*
%TD*%
D10*
%TO.P,C24,1*%
%TO.N,/wireless_charging/RECT*%
X153650000Y-116075000D03*
%TO.P,C24,2*%
%TO.N,GNDREF*%
X153650000Y-114525000D03*
%TD*%
D23*
%TO.P,R38,1*%
%TO.N,/VREF_3V3*%
X137625000Y-114510000D03*
%TO.P,R38,2*%
%TO.N,Net-(U8-~{RST})*%
X139275000Y-114510000D03*
%TD*%
D18*
%TO.P,C29,1*%
%TO.N,Net-(IC2-REGN)*%
X135580000Y-127675000D03*
%TO.P,C29,2*%
%TO.N,GNDREF*%
X134030000Y-127675000D03*
%TD*%
D10*
%TO.P,C5,1*%
%TO.N,/VCC_RAW*%
X128100000Y-123475000D03*
%TO.P,C5,2*%
%TO.N,GNDREF*%
X128100000Y-121925000D03*
%TD*%
D48*
%TO.P,R26,1*%
%TO.N,/wireless_charging/RECT*%
X153110000Y-117450000D03*
%TO.P,R26,2*%
%TO.N,Net-(R26-Pad2)*%
X152090000Y-117450000D03*
%TD*%
D11*
%TO.P,C30,1*%
%TO.N,/PRE_VCC*%
X135575000Y-136650000D03*
%TO.P,C30,2*%
%TO.N,GNDREF*%
X135575000Y-138200000D03*
%TD*%
D23*
%TO.P,R29,1*%
%TO.N,Net-(IC2-ILIM)*%
X143980000Y-128205000D03*
%TO.P,R29,2*%
%TO.N,GNDREF*%
X145630000Y-128205000D03*
%TD*%
D50*
%TO.P,Q3,1,G*%
%TO.N,/batery_module/ACDRV*%
X140580000Y-122850000D03*
%TO.P,Q3,2,S*%
%TO.N,/batery_module/VIN*%
X140580000Y-120950000D03*
%TO.P,Q3,3,D*%
%TO.N,/USB5V*%
X142455000Y-121900000D03*
%TD*%
D49*
%TO.P,D3,1*%
%TO.N,/USBD-*%
X149825000Y-128300000D03*
%TO.P,D3,2*%
%TO.N,GNDREF*%
X148505000Y-128300000D03*
%TD*%
D11*
%TO.P,C17,1*%
%TO.N,Net-(U6-COMM1)*%
X148750000Y-124600000D03*
%TO.P,C17,2*%
%TO.N,/wireless_charging/AC1*%
X148750000Y-126150000D03*
%TD*%
D23*
%TO.P,R37,1*%
%TO.N,Net-(U8-VBUS)*%
X140750000Y-117160000D03*
%TO.P,R37,2*%
%TO.N,GNDREF*%
X142400000Y-117160000D03*
%TD*%
D22*
%TO.P,R33,1*%
%TO.N,GNDREF*%
X145900000Y-131475000D03*
%TO.P,R33,2*%
%TO.N,Net-(IC2-TS)*%
X144250000Y-131475000D03*
%TD*%
D49*
%TO.P,D2,1*%
%TO.N,/USBD+*%
X151942500Y-128300000D03*
%TO.P,D2,2*%
%TO.N,GNDREF*%
X153262500Y-128300000D03*
%TD*%
D19*
%TO.P,TP8,1,1*%
%TO.N,/VREF_3V3*%
X130575000Y-117725000D03*
%TD*%
D47*
%TO.P,R7,1*%
%TO.N,Net-(D6-A)*%
X139550000Y-107875000D03*
%TO.P,R7,2*%
%TO.N,/VREF_3V3*%
X139550000Y-109525000D03*
%TD*%
D33*
%TO.P,C2,1*%
%TO.N,/VREF_TMP_3V3*%
X125100000Y-107325000D03*
%TO.P,C2,2*%
%TO.N,GNDREF*%
X126650000Y-107325000D03*
%TD*%
%TO.P,C37,1*%
%TO.N,/VREF_3V3*%
X137675000Y-111410000D03*
%TO.P,C37,2*%
%TO.N,GNDREF*%
X139225000Y-111410000D03*
%TD*%
D11*
%TO.P,C21,1*%
%TO.N,Net-(U6-BOOT1)*%
X153525000Y-123925000D03*
%TO.P,C21,2*%
%TO.N,/wireless_charging/AC1*%
X153525000Y-125475000D03*
%TD*%
D51*
%TO.N,GNDREF*%
X135000000Y-90000000D03*
X85000000Y-100000000D03*
X114950000Y-79900000D03*
X135000000Y-75000000D03*
X125000000Y-95000000D03*
X155000000Y-85000000D03*
X95000000Y-100000000D03*
X150000000Y-100000000D03*
X127900000Y-107225000D03*
X83800000Y-130850000D03*
X130000000Y-100000000D03*
X100000000Y-125000000D03*
X150000000Y-80000000D03*
X160000000Y-70000000D03*
X160000000Y-85000000D03*
X155145225Y-94984133D03*
X144825000Y-127325000D03*
X95000000Y-75000000D03*
X115000000Y-110000000D03*
X150000000Y-110000000D03*
X155000000Y-100000000D03*
X95000000Y-90000000D03*
X134400000Y-137525000D03*
X80000000Y-110000000D03*
X120000000Y-105000000D03*
X145000000Y-95000000D03*
X152250000Y-126950000D03*
X80000000Y-105000000D03*
X80000000Y-90000000D03*
X155000000Y-110000000D03*
X130000000Y-90000000D03*
X160000000Y-75000000D03*
X125000000Y-90000000D03*
X80000000Y-95000000D03*
X135000000Y-95000000D03*
X110000000Y-75000000D03*
X115000000Y-75000000D03*
X152200000Y-136250000D03*
X95000000Y-125000000D03*
X140000000Y-85000000D03*
X140000000Y-90000000D03*
X80000000Y-100000000D03*
X135000000Y-70000000D03*
X147000000Y-133250000D03*
X90000000Y-100000000D03*
X85000000Y-90000000D03*
X105000000Y-85000000D03*
X145000000Y-80000000D03*
X134498000Y-115003415D03*
X95800000Y-87900000D03*
X145000000Y-90000000D03*
X144750000Y-114225000D03*
X120000000Y-79850000D03*
X150042224Y-95058090D03*
X160000000Y-95000000D03*
X95250000Y-79900000D03*
X80000000Y-85000000D03*
X152175000Y-120350000D03*
X143850000Y-122725000D03*
X140300000Y-111375000D03*
X133075000Y-126200000D03*
X150000000Y-75000000D03*
X85000000Y-105000000D03*
X101500000Y-116250000D03*
X120000000Y-95000000D03*
X125000000Y-105000000D03*
X114000000Y-135450000D03*
X140000000Y-75000000D03*
X90000000Y-70000000D03*
X155000000Y-80000000D03*
X90000000Y-90000000D03*
X130775000Y-114325000D03*
X108450000Y-95200000D03*
X130000000Y-70000000D03*
X80000000Y-70000000D03*
X85000000Y-75000000D03*
X145000000Y-75000000D03*
X150000000Y-85000000D03*
X80000000Y-115000000D03*
X110000000Y-80000000D03*
X89600000Y-103650000D03*
X126975000Y-122225000D03*
X88350000Y-135600000D03*
X156100000Y-129250000D03*
X100000000Y-70000000D03*
X85000000Y-110000000D03*
X96500000Y-92750000D03*
X141826106Y-124050000D03*
X110213936Y-69999999D03*
X105000000Y-110000000D03*
X115000000Y-90000000D03*
X85000000Y-85000000D03*
X155000000Y-105000000D03*
X122875000Y-114500000D03*
X105450000Y-93700000D03*
X140000000Y-70000000D03*
X115000000Y-85000000D03*
X101750000Y-95850000D03*
X150000000Y-105000000D03*
X113550000Y-78625000D03*
X120000000Y-100000000D03*
X148500000Y-129450000D03*
X150000000Y-90000000D03*
X90000000Y-85000000D03*
X100000000Y-85000000D03*
X90000000Y-95000000D03*
X95000000Y-70000000D03*
X130000000Y-85000000D03*
X110000000Y-115000000D03*
X106200000Y-91150000D03*
X115000000Y-70000000D03*
X140000000Y-80000000D03*
X130000000Y-75000000D03*
X150000000Y-70000000D03*
X95000000Y-135000000D03*
X125050000Y-79900000D03*
X145000000Y-70000000D03*
X110000000Y-85000000D03*
X100000000Y-135000000D03*
X138075000Y-132375000D03*
X140000000Y-100000000D03*
X130000000Y-110000000D03*
X143340605Y-118059396D03*
X153800000Y-127500000D03*
X130000000Y-105000000D03*
X110000000Y-95000000D03*
X125000000Y-100000000D03*
X89650000Y-88200000D03*
X135000000Y-80000000D03*
X153750000Y-113425000D03*
X80000000Y-75000000D03*
X109500000Y-135500000D03*
X109650000Y-130450000D03*
X128825000Y-135175000D03*
X110000000Y-105000000D03*
X103350000Y-87800000D03*
X90000000Y-80000000D03*
X125000000Y-85000000D03*
X120450000Y-90500000D03*
X160000000Y-90000000D03*
X95750000Y-102750000D03*
X102700000Y-135550000D03*
X149050000Y-136600000D03*
X155000000Y-75000000D03*
X128925000Y-120175000D03*
X123925000Y-78500000D03*
X130000000Y-80000000D03*
X155000000Y-90000000D03*
X114950000Y-127450000D03*
X103000000Y-74300000D03*
X85000000Y-95000000D03*
X140000000Y-95000000D03*
X120000000Y-85000000D03*
X105000000Y-70000000D03*
X145000000Y-85000000D03*
X146775000Y-130725000D03*
X130000000Y-95000000D03*
X90000000Y-135000000D03*
%TO.N,/rtc_ds3231/BAT_CELL+*%
X100500000Y-72350000D03*
%TO.N,/VCC_RAW*%
X126150000Y-120750000D03*
X126150000Y-123450000D03*
%TO.N,/VREF_TMP_3V3*%
X121625000Y-109475000D03*
X123725000Y-107375000D03*
%TO.N,/TMP_DATA*%
X91100000Y-120300000D03*
%TO.N,/ESP32_WROOM_32D/IO14*%
X150457298Y-136033194D03*
X109500000Y-117900000D03*
%TO.N,/VREF_3V3*%
X98800000Y-84650000D03*
X81375000Y-134450000D03*
X117050000Y-131850000D03*
X130825000Y-115575000D03*
X147250000Y-84600000D03*
X95625000Y-94925000D03*
X136575000Y-112775000D03*
X95050000Y-84650000D03*
X101975000Y-88075000D03*
X137700000Y-109500000D03*
X132148000Y-121492891D03*
%TO.N,/BATT*%
X147750000Y-138950000D03*
X141850000Y-133300000D03*
X143050000Y-137650000D03*
X151900000Y-123400000D03*
%TO.N,/IIC_SCL*%
X84350000Y-115350000D03*
X114037500Y-94287500D03*
%TO.N,/batery_module/VIN*%
X139078611Y-122221389D03*
X134643030Y-122205347D03*
X137800000Y-122100000D03*
%TO.N,/IIC_SDA*%
X115433889Y-93883889D03*
X82435000Y-116700000D03*
X84700000Y-128225000D03*
X83003000Y-127675000D03*
%TO.N,/SPI_MISO*%
X104980001Y-90641751D03*
X85118000Y-125832000D03*
%TO.N,/SPI_SCK*%
X105250000Y-99750000D03*
X92750000Y-112500000D03*
%TO.N,Net-(IC2-REGN)*%
X138225000Y-133925000D03*
X136675000Y-128500000D03*
%TO.N,/PRE_VCC*%
X140013820Y-133324528D03*
X127750000Y-131750000D03*
X131250000Y-133200000D03*
X136850000Y-135400000D03*
X127225000Y-128425000D03*
%TO.N,/EN*%
X108750000Y-119925000D03*
X106750000Y-126700000D03*
%TO.N,/IO0*%
X106750000Y-122950000D03*
X88375000Y-119225000D03*
%TO.N,/SPI_CS*%
X93950000Y-103950000D03*
X93950000Y-101100000D03*
%TO.N,/USBD+*%
X152200000Y-131825000D03*
X150950000Y-128200000D03*
X140077609Y-126655652D03*
X135200000Y-114225000D03*
%TO.N,/USBD-*%
X141124106Y-126599106D03*
X136325000Y-114150000D03*
X149700000Y-127350000D03*
%TO.N,/USB5V*%
X141826106Y-125625000D03*
X143550000Y-123850000D03*
X146700000Y-127200000D03*
X154850000Y-129150000D03*
X142450000Y-121000000D03*
X137737500Y-126337500D03*
X149750000Y-129250000D03*
X142400000Y-119800000D03*
%TO.N,/wireless_charging/~{CHG_PIN}*%
X149300000Y-123329948D03*
X142375000Y-113800000D03*
%TO.N,Net-(IC2-VSET)*%
X142897113Y-134916280D03*
X142275000Y-132325000D03*
%TO.N,/WRL_EN*%
X148125000Y-127300000D03*
X148253097Y-122971888D03*
%TO.N,Net-(J2-CC1)*%
X153075000Y-132525000D03*
%TO.N,Net-(J2-CC2)*%
X151325000Y-132800000D03*
%TO.N,/sd_card/CS_LLS*%
X99350000Y-97050000D03*
X102550000Y-93037000D03*
%TO.N,/GPS_RXD*%
X115150000Y-102325000D03*
%TO.N,/GPS_TXD*%
X114125000Y-100675000D03*
%TO.N,/RTS*%
X110600000Y-128200000D03*
X127600000Y-124650000D03*
X133000000Y-122200000D03*
X121000000Y-121250000D03*
%TO.N,/DTR*%
X115100000Y-116050000D03*
X133250000Y-115100000D03*
%TO.N,Net-(U6-FOD)*%
X143606457Y-119023413D03*
X148980602Y-117611340D03*
%TO.N,Net-(R26-Pad2)*%
X151250000Y-117000000D03*
X146428611Y-117721389D03*
%TO.N,Net-(U8-~{RST})*%
X139675000Y-115450000D03*
X139575000Y-117762000D03*
%TO.N,Net-(U8-~{SUSPEND})*%
X140775000Y-114425000D03*
X140550000Y-119950000D03*
%TO.N,/CTRL_GPIO*%
X93300000Y-121400000D03*
%TO.N,/STAT*%
X100100000Y-116150000D03*
X137025000Y-107100000D03*
X141917487Y-123018824D03*
%TO.N,/UART_PROG_TX*%
X89250000Y-125250000D03*
%TO.N,/UART_PROG_RX*%
X90300000Y-125250000D03*
%TD*%
D52*
%TO.N,/wireless_charging/COIL-*%
X150525000Y-114525000D02*
X149000000Y-114525000D01*
D53*
X148975000Y-114500000D02*
X149000000Y-114525000D01*
X147425000Y-114500000D02*
X148975000Y-114500000D01*
D52*
%TO.N,/wireless_charging/CLAMP2*%
X149000000Y-116100000D02*
X149000000Y-116075000D01*
X149500000Y-116600000D02*
X149000000Y-116100000D01*
%TO.N,/wireless_charging/CLAMP1*%
X150425000Y-122866684D02*
X150425000Y-124525000D01*
X150425000Y-124525000D02*
X150350000Y-124600000D01*
%TO.N,/wireless_charging/AC1*%
X150425000Y-126225000D02*
X150350000Y-126150000D01*
X150425000Y-126575000D02*
X150425000Y-126225000D01*
D54*
%TO.N,GNDREF*%
X145645000Y-134605000D02*
X145580000Y-134605000D01*
X142425000Y-115585000D02*
X142425000Y-117135000D01*
X135625000Y-116200000D02*
X135625000Y-115370000D01*
X123790000Y-114500000D02*
X122875000Y-114500000D01*
X149350000Y-130300000D02*
X149350000Y-130530000D01*
D55*
X135575000Y-138200000D02*
X135075000Y-138200000D01*
D54*
X128825000Y-134060000D02*
X128825000Y-135175000D01*
X135258415Y-115003415D02*
X134498000Y-115003415D01*
X148500000Y-129450000D02*
X148505000Y-129445000D01*
X145900000Y-131475000D02*
X146025000Y-131475000D01*
X133055000Y-123350000D02*
X133055000Y-125075000D01*
X142441209Y-117160000D02*
X143340605Y-118059396D01*
X146805000Y-133055000D02*
X145580000Y-133055000D01*
X140265000Y-111410000D02*
X140300000Y-111375000D01*
X146025000Y-131475000D02*
X146775000Y-130725000D01*
D52*
X152000000Y-125875000D02*
X152000000Y-126700000D01*
D54*
X140130000Y-130325000D02*
X139380000Y-131075000D01*
X135625000Y-115370000D02*
X135258415Y-115003415D01*
X133055000Y-125075000D02*
X133030000Y-125100000D01*
X145925000Y-129925000D02*
X145975000Y-129925000D01*
D52*
X150725000Y-119600000D02*
X149975000Y-120350000D01*
D54*
X135625000Y-116200000D02*
X135625000Y-118060000D01*
X156162500Y-128300000D02*
X156162500Y-129187500D01*
D52*
X144725000Y-121975000D02*
X144600000Y-121975000D01*
D54*
X152125000Y-119600000D02*
X152125000Y-120300000D01*
X140275000Y-130325000D02*
X140525000Y-130075000D01*
D52*
X141601106Y-124275000D02*
X141826106Y-124050000D01*
D54*
X153650000Y-114525000D02*
X153650000Y-113525000D01*
X152125000Y-120400000D02*
X152175000Y-120350000D01*
D52*
X147825000Y-119600000D02*
X149225000Y-119600000D01*
D54*
X148505000Y-129445000D02*
X148505000Y-128300000D01*
X129225000Y-123050000D02*
X128100000Y-121925000D01*
X129675000Y-120775000D02*
X129525000Y-120775000D01*
X155750000Y-129600000D02*
X156100000Y-129250000D01*
D52*
X144800000Y-121975000D02*
X146350000Y-120425000D01*
D54*
X134030000Y-127205000D02*
X133350000Y-126525000D01*
D52*
X147000000Y-120425000D02*
X147825000Y-119600000D01*
D56*
X129275000Y-114875000D02*
X130225000Y-114875000D01*
D54*
X148500000Y-129450000D02*
X149350000Y-130300000D01*
X128100000Y-121925000D02*
X127275000Y-121925000D01*
X153650000Y-114525000D02*
X155175000Y-114525000D01*
X147000000Y-133250000D02*
X146805000Y-133055000D01*
X138880000Y-132325000D02*
X138125000Y-132325000D01*
X155750000Y-130530000D02*
X155750000Y-129600000D01*
X145630000Y-128130000D02*
X144825000Y-127325000D01*
X139380000Y-132325000D02*
X138880000Y-132325000D01*
X144575000Y-114400000D02*
X144575000Y-115115000D01*
X138185000Y-132265000D02*
X138075000Y-132375000D01*
X153650000Y-114525000D02*
X152100000Y-114525000D01*
X142400000Y-117160000D02*
X142441209Y-117160000D01*
X145975000Y-129925000D02*
X146775000Y-130725000D01*
X140130000Y-130325000D02*
X140275000Y-130325000D01*
X133030000Y-125100000D02*
X133030000Y-126155000D01*
X152125000Y-120300000D02*
X152175000Y-120350000D01*
X153262500Y-128037500D02*
X153800000Y-127500000D01*
X139225000Y-112960000D02*
X139225000Y-111410000D01*
X153262500Y-128300000D02*
X153262500Y-128037500D01*
D52*
X152125000Y-119600000D02*
X150725000Y-119600000D01*
D54*
X127275000Y-121925000D02*
X126975000Y-122225000D01*
X129682500Y-123050000D02*
X130570000Y-123050000D01*
X134030000Y-127675000D02*
X134030000Y-127205000D01*
D52*
X149225000Y-119600000D02*
X149975000Y-120350000D01*
D54*
X138125000Y-132325000D02*
X138075000Y-132375000D01*
X144750000Y-114225000D02*
X144925000Y-114400000D01*
D52*
X144725000Y-121975000D02*
X144800000Y-121975000D01*
D54*
X135625000Y-118060000D02*
X136125000Y-118560000D01*
X156162500Y-129187500D02*
X156100000Y-129250000D01*
X144925000Y-114400000D02*
X145850000Y-114400000D01*
D52*
X140350000Y-124275000D02*
X141601106Y-124275000D01*
D54*
X139380000Y-131075000D02*
X139380000Y-132325000D01*
D52*
X146350000Y-120425000D02*
X147000000Y-120425000D01*
D54*
X126650000Y-107325000D02*
X127800000Y-107325000D01*
X144750000Y-114225000D02*
X144575000Y-114400000D01*
X145630000Y-128205000D02*
X145630000Y-128130000D01*
X139225000Y-111410000D02*
X140265000Y-111410000D01*
D55*
X135075000Y-138200000D02*
X134400000Y-137525000D01*
D54*
X127800000Y-107325000D02*
X127900000Y-107225000D01*
D52*
X152000000Y-126700000D02*
X152250000Y-126950000D01*
D54*
X152125000Y-121100000D02*
X152125000Y-120400000D01*
X147000000Y-133250000D02*
X145645000Y-134605000D01*
D52*
X144600000Y-121975000D02*
X143850000Y-122725000D01*
D54*
X133030000Y-126155000D02*
X133075000Y-126200000D01*
X129525000Y-120775000D02*
X128925000Y-120175000D01*
X142425000Y-117135000D02*
X142400000Y-117160000D01*
X129682500Y-123050000D02*
X129225000Y-123050000D01*
D56*
X130225000Y-114875000D02*
X130775000Y-114325000D01*
D54*
X153650000Y-113525000D02*
X153750000Y-113425000D01*
D55*
%TO.N,/VCC_RAW*%
X128950000Y-113000000D02*
X126700000Y-113000000D01*
D57*
X126425000Y-117950000D02*
X126425000Y-118350000D01*
D55*
X126425000Y-117950000D02*
X126425000Y-120475000D01*
X126425000Y-120475000D02*
X126150000Y-120750000D01*
X126425000Y-114595000D02*
X126330000Y-114500000D01*
D54*
X128325000Y-123700000D02*
X128100000Y-123475000D01*
D55*
X126700000Y-113000000D02*
X126330000Y-113370000D01*
D54*
X126175000Y-123475000D02*
X126150000Y-123450000D01*
D55*
X126330000Y-113370000D02*
X126330000Y-114500000D01*
X126425000Y-117950000D02*
X126425000Y-114595000D01*
D54*
X129682500Y-123700000D02*
X128325000Y-123700000D01*
D57*
X126425000Y-118350000D02*
X126150000Y-118625000D01*
D54*
X129455000Y-125890000D02*
X129455000Y-123927500D01*
X128100000Y-123475000D02*
X126175000Y-123475000D01*
X126150000Y-120750000D02*
X128219408Y-120750000D01*
X129682500Y-122213092D02*
X129682500Y-122400000D01*
X128219408Y-120750000D02*
X129682500Y-122213092D01*
D55*
X126425000Y-117950000D02*
X126330000Y-117855000D01*
X129275000Y-113325000D02*
X128950000Y-113000000D01*
D54*
X129455000Y-123927500D02*
X129682500Y-123700000D01*
D58*
%TO.N,/VREF_TMP_3V3*%
X123775000Y-107325000D02*
X123725000Y-107375000D01*
D52*
X125060000Y-109330000D02*
X125060000Y-107365000D01*
D58*
X125100000Y-107325000D02*
X123775000Y-107325000D01*
D52*
X125060000Y-107365000D02*
X125100000Y-107325000D01*
D55*
%TO.N,/VREF_3V3*%
X137625000Y-116200000D02*
X137625000Y-114510000D01*
D59*
X139550000Y-109525000D02*
X137725000Y-109525000D01*
D55*
X137675000Y-114460000D02*
X137625000Y-114510000D01*
D60*
X131225000Y-120775000D02*
X131225000Y-118375000D01*
D54*
X130575000Y-117725000D02*
X130575000Y-118775000D01*
D56*
X136760000Y-112960000D02*
X136575000Y-112775000D01*
D54*
X131457500Y-122400000D02*
X131457500Y-122183391D01*
D60*
X131225000Y-118375000D02*
X130575000Y-117725000D01*
D55*
X137675000Y-112960000D02*
X137675000Y-114460000D01*
X131225000Y-120775000D02*
X131430109Y-120775000D01*
D56*
X137675000Y-112960000D02*
X136760000Y-112960000D01*
D54*
X131457500Y-122183391D02*
X132148000Y-121492891D01*
D56*
X135550000Y-112800000D02*
X136550000Y-112800000D01*
X130575000Y-117725000D02*
X130575000Y-115825000D01*
D54*
X130575000Y-117725000D02*
X130575000Y-118477000D01*
D56*
X130575000Y-115825000D02*
X130825000Y-115575000D01*
D55*
X137675000Y-112960000D02*
X137675000Y-111410000D01*
D56*
X137675000Y-111410000D02*
X137675000Y-109525000D01*
D55*
X131430109Y-120775000D02*
X132148000Y-121492891D01*
D56*
X136550000Y-112800000D02*
X136575000Y-112775000D01*
D54*
X137725000Y-109525000D02*
X137700000Y-109500000D01*
D56*
X137675000Y-109525000D02*
X137700000Y-109500000D01*
D52*
X137125000Y-116200000D02*
X137625000Y-116200000D01*
%TO.N,/BATT*%
X150725000Y-122000000D02*
X150725000Y-122595342D01*
X142002000Y-137163000D02*
X141540000Y-137625000D01*
D54*
X151900000Y-123375390D02*
X151900000Y-123400000D01*
D52*
X150725000Y-122595342D02*
X151135658Y-123006000D01*
D55*
X152000000Y-124325000D02*
X152000000Y-123500000D01*
D54*
X151900000Y-123400000D02*
X151461775Y-123400000D01*
X140880000Y-132325000D02*
X141380000Y-132325000D01*
X141380000Y-132325000D02*
X141380000Y-132830000D01*
D55*
X152000000Y-123500000D02*
X151900000Y-123400000D01*
D54*
X151461775Y-123400000D02*
X151055887Y-122994112D01*
X151897999Y-123373389D02*
X151900000Y-123375390D01*
X151900000Y-123400000D02*
X151924610Y-123400000D01*
X141380000Y-132830000D02*
X141850000Y-133300000D01*
D52*
%TO.N,/wireless_charging/COIL+*%
X156675000Y-122850000D02*
X156675000Y-122800000D01*
X156675000Y-122800000D02*
X155175000Y-121300000D01*
X156675000Y-122850000D02*
X156675000Y-124375000D01*
X157950000Y-121300000D02*
X159425000Y-119825000D01*
X156675000Y-124375000D02*
X156650000Y-124400000D01*
X155175000Y-121300000D02*
X157950000Y-121300000D01*
X159425000Y-119825000D02*
X159675000Y-119825000D01*
%TO.N,/wireless_charging/AC1*%
X151725000Y-122000000D02*
X152925000Y-122000000D01*
X150425000Y-126150000D02*
X148750000Y-126150000D01*
X155100000Y-122875000D02*
X155125000Y-122850000D01*
X154025000Y-125475000D02*
X155100000Y-124400000D01*
X151502000Y-127652000D02*
X152548000Y-127652000D01*
X153625000Y-121350000D02*
X155125000Y-122850000D01*
X153625000Y-121300000D02*
X153625000Y-121350000D01*
X150425000Y-126575000D02*
X151502000Y-127652000D01*
X155100000Y-124400000D02*
X155100000Y-122875000D01*
X152925000Y-122000000D02*
X153625000Y-121300000D01*
X153625000Y-121300000D02*
X153625000Y-119700000D01*
X153525000Y-126675000D02*
X153525000Y-125475000D01*
X153525000Y-125475000D02*
X154025000Y-125475000D01*
X152548000Y-127652000D02*
X153525000Y-126675000D01*
%TO.N,Net-(U6-COMM1)*%
X149725000Y-122650000D02*
X149725000Y-122000000D01*
X148750000Y-124600000D02*
X149022726Y-124600000D01*
X150002000Y-123039170D02*
X149725000Y-122762170D01*
X150002000Y-123620726D02*
X150002000Y-123039170D01*
X149022726Y-124600000D02*
X150002000Y-123620726D01*
X149725000Y-122762170D02*
X149725000Y-122650000D01*
%TO.N,Net-(C18-Pad1)*%
X156125000Y-118100000D02*
X156125000Y-118750000D01*
X156125000Y-118750000D02*
X155175000Y-119700000D01*
%TO.N,Net-(U6-COMM2)*%
X149656132Y-117004000D02*
X149332658Y-117004000D01*
X149725000Y-117610462D02*
X149717000Y-117602462D01*
X149178658Y-116850000D02*
X148225000Y-116850000D01*
X149717000Y-117602462D02*
X149717000Y-117064868D01*
X149725000Y-118700000D02*
X149725000Y-117610462D01*
X148225000Y-116850000D02*
X147425000Y-116050000D01*
X149332658Y-117004000D02*
X149178658Y-116850000D01*
X149717000Y-117064868D02*
X149656132Y-117004000D01*
%TO.N,Net-(U6-BOOT1)*%
X151225000Y-122524000D02*
X151225000Y-122000000D01*
X151303000Y-122602000D02*
X151225000Y-122524000D01*
X152202000Y-122602000D02*
X151303000Y-122602000D01*
X153525000Y-123925000D02*
X152202000Y-122602000D01*
%TO.N,Net-(U6-BOOT2)*%
X150525000Y-117267778D02*
X150525000Y-116075000D01*
X150725000Y-118700000D02*
X150725000Y-117467778D01*
X150725000Y-117467778D02*
X150525000Y-117267778D01*
%TO.N,/wireless_charging/RECT*%
X152488000Y-118072000D02*
X153110000Y-117450000D01*
X151225000Y-118176000D02*
X151329000Y-118072000D01*
X153650000Y-116075000D02*
X155175000Y-116075000D01*
X152100000Y-116075000D02*
X153650000Y-116075000D01*
X151225000Y-118700000D02*
X151225000Y-118176000D01*
X151329000Y-118072000D02*
X152488000Y-118072000D01*
X153110000Y-117450000D02*
X153110000Y-116615000D01*
X153110000Y-116615000D02*
X153650000Y-116075000D01*
D54*
%TO.N,/batery_module/VIN*%
X138130000Y-128300000D02*
X138130000Y-128257943D01*
X136475000Y-125100000D02*
X137500000Y-124075000D01*
D59*
X137500000Y-122400000D02*
X137800000Y-122100000D01*
D57*
X136850000Y-124650000D02*
X136325000Y-125175000D01*
D54*
X138130000Y-129075000D02*
X138130000Y-128300000D01*
D59*
X140350000Y-120950000D02*
X139078611Y-122221389D01*
X134605000Y-123350000D02*
X134605000Y-122243377D01*
D57*
X137500000Y-124650000D02*
X137525000Y-124675000D01*
D55*
X134605000Y-122243377D02*
X134643030Y-122205347D01*
D54*
X136475000Y-126602943D02*
X136475000Y-125100000D01*
D57*
X137480851Y-124669149D02*
X137500000Y-124650000D01*
D54*
X138130000Y-128257943D02*
X136475000Y-126602943D01*
D59*
X137500000Y-124075000D02*
X137500000Y-122400000D01*
X140580000Y-120950000D02*
X140350000Y-120950000D01*
D57*
%TO.N,Net-(IC2-PMID)*%
X134580000Y-125379695D02*
X134580000Y-125100000D01*
X137425000Y-129372208D02*
X137400000Y-129347208D01*
X137450000Y-129575000D02*
X137425000Y-129550000D01*
X137425000Y-129550000D02*
X137425000Y-129372208D01*
X138130000Y-129575000D02*
X137450000Y-129575000D01*
X137400000Y-128199695D02*
X134580000Y-125379695D01*
X137400000Y-129347208D02*
X137400000Y-128199695D01*
D52*
%TO.N,Net-(IC2-SW_1)*%
X134000000Y-129230000D02*
X134005000Y-129225000D01*
D57*
X138190000Y-131075000D02*
X138025000Y-131075000D01*
X134050000Y-131075000D02*
X134000000Y-131125000D01*
D52*
X134000000Y-131125000D02*
X134000000Y-129230000D01*
D57*
X138130000Y-131575000D02*
X138130000Y-131075000D01*
X138130000Y-131075000D02*
X134050000Y-131075000D01*
%TO.N,Net-(IC2-BTST)*%
X138130000Y-130575000D02*
X136675000Y-130575000D01*
X135555000Y-129225000D02*
X136005000Y-129225000D01*
X136005000Y-129225000D02*
X136525000Y-129745000D01*
X136525000Y-129745000D02*
X136525000Y-130425000D01*
X136525000Y-130425000D02*
X136675000Y-130575000D01*
%TO.N,Net-(IC2-REGN)*%
X136975000Y-129900000D02*
X136975000Y-129558604D01*
X136675000Y-128675000D02*
X136675000Y-128500000D01*
X138130000Y-130075000D02*
X137150000Y-130075000D01*
X139280000Y-134200000D02*
X138500000Y-134200000D01*
X136675000Y-128500000D02*
X136405000Y-128500000D01*
X136405000Y-128500000D02*
X135580000Y-127675000D01*
X138500000Y-134200000D02*
X138225000Y-133925000D01*
X136975000Y-129558604D02*
X136950000Y-129533604D01*
X136950000Y-128950000D02*
X136675000Y-128675000D01*
X136950000Y-129533604D02*
X136950000Y-128950000D01*
X137150000Y-130075000D02*
X136975000Y-129900000D01*
D59*
%TO.N,/PRE_VCC*%
X130390000Y-134060000D02*
X131250000Y-133200000D01*
D55*
X135575000Y-136650000D02*
X135575000Y-136120000D01*
X135575000Y-136120000D02*
X135330000Y-135875000D01*
D59*
X136375000Y-135875000D02*
X136850000Y-135400000D01*
X131875000Y-133825000D02*
X131250000Y-133200000D01*
X128785000Y-132370000D02*
X128370000Y-132370000D01*
X134000000Y-133825000D02*
X134000000Y-134545000D01*
X127885000Y-127765000D02*
X128505000Y-127765000D01*
D54*
X139880000Y-133190708D02*
X140013820Y-133324528D01*
X139880000Y-132325000D02*
X140380000Y-132325000D01*
D59*
X134000000Y-133825000D02*
X131875000Y-133825000D01*
X128370000Y-132370000D02*
X127750000Y-131750000D01*
X135330000Y-135875000D02*
X136375000Y-135875000D01*
X134000000Y-134545000D02*
X135330000Y-135875000D01*
D54*
X139880000Y-132325000D02*
X139880000Y-133190708D01*
D59*
X127225000Y-128425000D02*
X127885000Y-127765000D01*
X130375000Y-134060000D02*
X130390000Y-134060000D01*
D52*
%TO.N,/wireless_charging/CLAMP1*%
X150225000Y-122666684D02*
X150425000Y-122866684D01*
X150225000Y-122000000D02*
X150225000Y-122666684D01*
%TO.N,/wireless_charging/CLAMP2*%
X150121000Y-117435120D02*
X150225000Y-117539120D01*
X149823474Y-116600000D02*
X150121000Y-116897526D01*
X150121000Y-116897526D02*
X150121000Y-117435120D01*
X150225000Y-117539120D02*
X150225000Y-118700000D01*
X149500000Y-116600000D02*
X149823474Y-116600000D01*
%TO.N,/USBD+*%
X136125000Y-115150000D02*
X135200000Y-114225000D01*
X136125000Y-116200000D02*
X136125000Y-115150000D01*
X151800000Y-131425000D02*
X152200000Y-131825000D01*
X151800000Y-130530000D02*
X151800000Y-131425000D01*
D54*
X139880000Y-128325000D02*
X139880000Y-126853261D01*
D52*
X150950000Y-128200000D02*
X151050000Y-128300000D01*
X152800000Y-130530000D02*
X152800000Y-131225000D01*
X151050000Y-128300000D02*
X151942500Y-128300000D01*
X152800000Y-131225000D02*
X152200000Y-131825000D01*
D54*
X139880000Y-126853261D02*
X140077609Y-126655652D01*
D53*
%TO.N,/USBD-*%
X151105000Y-129580000D02*
X152225000Y-129580000D01*
X149825000Y-127475000D02*
X149700000Y-127350000D01*
X152300000Y-129655000D02*
X152225000Y-129580000D01*
X153300000Y-130530000D02*
X153300000Y-130425000D01*
X149825000Y-128300000D02*
X151105000Y-129580000D01*
X136625000Y-114450000D02*
X136625000Y-116200000D01*
D52*
X140380000Y-127343212D02*
X140450000Y-127273212D01*
D53*
X141124106Y-126599106D02*
X140450000Y-127273212D01*
X149825000Y-128300000D02*
X149825000Y-127475000D01*
X136325000Y-114150000D02*
X136625000Y-114450000D01*
X152300000Y-130530000D02*
X152300000Y-129655000D01*
X152225000Y-129580000D02*
X153155000Y-129580000D01*
X153300000Y-130425000D02*
X153325000Y-130400000D01*
D52*
X140380000Y-128325000D02*
X140380000Y-127343212D01*
D53*
X153155000Y-129580000D02*
X153300000Y-129725000D01*
X153300000Y-129725000D02*
X153300000Y-130530000D01*
D55*
%TO.N,/USB5V*%
X143875000Y-125050000D02*
X143875000Y-124175000D01*
D54*
X142455000Y-121900000D02*
X142455000Y-121005000D01*
D55*
X154842500Y-129142500D02*
X154850000Y-129150000D01*
X143875000Y-125050000D02*
X143375000Y-125550000D01*
D52*
X148225000Y-122000000D02*
X145675000Y-124550000D01*
D57*
X145675000Y-125250000D02*
X145300000Y-125625000D01*
D54*
X145675000Y-126175000D02*
X146700000Y-127200000D01*
D55*
X143875000Y-124175000D02*
X143550000Y-123850000D01*
X154950000Y-130530000D02*
X154950000Y-129250000D01*
D57*
X145675000Y-125050000D02*
X145675000Y-125650000D01*
D55*
X143875000Y-125050000D02*
X145675000Y-125050000D01*
X140350000Y-125675000D02*
X141776106Y-125675000D01*
D54*
X142400000Y-118710000D02*
X142400000Y-119800000D01*
D52*
X145675000Y-124550000D02*
X145675000Y-125050000D01*
D54*
X142455000Y-121005000D02*
X142450000Y-121000000D01*
D55*
X154842500Y-128300000D02*
X154842500Y-129142500D01*
X141901106Y-125550000D02*
X141826106Y-125625000D01*
D57*
X137737500Y-126337500D02*
X138880000Y-127480000D01*
D54*
X145675000Y-125050000D02*
X145675000Y-126175000D01*
D55*
X143375000Y-125550000D02*
X141901106Y-125550000D01*
D54*
X150150000Y-130530000D02*
X150150000Y-129650000D01*
D52*
X141776106Y-125675000D02*
X141826106Y-125625000D01*
D57*
X145675000Y-125650000D02*
X145500000Y-125825000D01*
D54*
X150150000Y-129650000D02*
X149750000Y-129250000D01*
D57*
X138880000Y-128325000D02*
X138880000Y-127480000D01*
X145675000Y-125050000D02*
X145675000Y-125250000D01*
D55*
X154950000Y-129250000D02*
X154850000Y-129150000D01*
D52*
%TO.N,/wireless_charging/~{CHG_PIN}*%
X149225000Y-123254948D02*
X149225000Y-122000000D01*
X142350000Y-113775000D02*
X142375000Y-113800000D01*
X142375000Y-113800000D02*
X142375000Y-106946000D01*
X142375000Y-106946000D02*
X136354000Y-100925000D01*
X133150000Y-101400000D02*
X133150000Y-104075000D01*
X133625000Y-100925000D02*
X133150000Y-101400000D01*
X149300000Y-123329948D02*
X149225000Y-123254948D01*
X136354000Y-100925000D02*
X133625000Y-100925000D01*
%TO.N,Net-(D6-A)*%
X138025000Y-104075000D02*
X139550000Y-105600000D01*
X139550000Y-105600000D02*
X139550000Y-107875000D01*
X136150000Y-104075000D02*
X138025000Y-104075000D01*
D55*
%TO.N,Net-(D7-A)*%
X133900000Y-110650000D02*
X132700000Y-109450000D01*
X133900000Y-112800000D02*
X133900000Y-110650000D01*
D52*
X133887500Y-112787500D02*
X133900000Y-112800000D01*
D57*
%TO.N,Net-(IC2-ILIM)*%
X142950000Y-128500000D02*
X143245000Y-128205000D01*
X142765600Y-129575000D02*
X142950000Y-129390600D01*
X142130000Y-129575000D02*
X142765600Y-129575000D01*
X143245000Y-128205000D02*
X143980000Y-128205000D01*
X142950000Y-129390600D02*
X142950000Y-128500000D01*
%TO.N,Net-(IC2-STAT)*%
X140880000Y-128325000D02*
X140880000Y-127625000D01*
X142373518Y-126375000D02*
X142750000Y-126375000D01*
X140880000Y-127625000D02*
X141180894Y-127324106D01*
X141800894Y-127324106D02*
X142750000Y-126375000D01*
X141180894Y-127324106D02*
X141800894Y-127324106D01*
D52*
%TO.N,Net-(IC2-TS)*%
X143930000Y-133055000D02*
X143930000Y-131795000D01*
D57*
X142130000Y-131075000D02*
X143850000Y-131075000D01*
D52*
X143930000Y-131795000D02*
X144250000Y-131475000D01*
D57*
X143850000Y-131075000D02*
X144250000Y-131475000D01*
X140930000Y-134200000D02*
X142785000Y-134200000D01*
X142785000Y-134200000D02*
X143930000Y-133055000D01*
D52*
%TO.N,/batery_module/ACDRV*%
X139375609Y-126946430D02*
X139375609Y-124054391D01*
X139380000Y-128325000D02*
X139380000Y-126950821D01*
X139375609Y-124054391D02*
X140580000Y-122850000D01*
X139380000Y-126950821D02*
X139375609Y-126946430D01*
%TO.N,Net-(IC2-ICHG)*%
X142130000Y-130575000D02*
X143625000Y-130575000D01*
X143625000Y-130575000D02*
X144275000Y-129925000D01*
D57*
%TO.N,Net-(IC2-VSET)*%
X142070000Y-132120000D02*
X142275000Y-132325000D01*
X143930000Y-134605000D02*
X143208393Y-134605000D01*
X143208393Y-134605000D02*
X142897113Y-134916280D01*
X142070000Y-131575000D02*
X142070000Y-132120000D01*
%TO.N,/WRL_EN*%
X148125000Y-127300000D02*
X147825000Y-127300000D01*
X148725000Y-122000000D02*
X148725000Y-122499985D01*
X147825000Y-127300000D02*
X146120000Y-129005000D01*
X148725000Y-122499985D02*
X148253097Y-122971888D01*
X146120000Y-129005000D02*
X143971996Y-129005000D01*
X142130000Y-130075000D02*
X142901996Y-130075000D01*
X143971996Y-129005000D02*
X142901996Y-130075000D01*
D52*
%TO.N,Net-(J2-CC1)*%
X153800000Y-130530000D02*
X153800000Y-131800000D01*
X153800000Y-131800000D02*
X153075000Y-132525000D01*
%TO.N,Net-(J2-CC2)*%
X151325000Y-132800000D02*
X150800000Y-132275000D01*
X150800000Y-132275000D02*
X150800000Y-130530000D01*
%TO.N,/RTS*%
X133000000Y-122200000D02*
X132850000Y-122050000D01*
X122957222Y-121250000D02*
X126357222Y-124650000D01*
X126357222Y-124650000D02*
X127600000Y-124650000D01*
X133190000Y-119060000D02*
X133765000Y-119060000D01*
X121000000Y-121250000D02*
X122957222Y-121250000D01*
X132850000Y-122050000D02*
X132850000Y-119400000D01*
X132850000Y-119400000D02*
X133190000Y-119060000D01*
%TO.N,/DTR*%
X133765000Y-115615000D02*
X133250000Y-115100000D01*
X133765000Y-117060000D02*
X133765000Y-115615000D01*
%TO.N,Net-(Q4-G)*%
X130405000Y-130190000D02*
X130335000Y-130260000D01*
X130405000Y-127765000D02*
X130405000Y-130190000D01*
X130435000Y-132370000D02*
X130435000Y-130360000D01*
X130435000Y-130360000D02*
X130335000Y-130260000D01*
%TO.N,/wireless_charging/NTC*%
X148725000Y-118700000D02*
X148725000Y-118348516D01*
X144660000Y-116050000D02*
X144575000Y-116135000D01*
X148725000Y-118348516D02*
X148276484Y-117900000D01*
X148276484Y-117900000D02*
X147600000Y-117900000D01*
X145850000Y-116150000D02*
X147600000Y-117900000D01*
X145850000Y-116050000D02*
X145850000Y-116150000D01*
X145850000Y-116050000D02*
X144660000Y-116050000D01*
X144590000Y-116150000D02*
X144575000Y-116135000D01*
%TO.N,Net-(U6-ILIM)*%
X146350000Y-118900000D02*
X148025000Y-118900000D01*
X148025000Y-118900000D02*
X148225000Y-118700000D01*
%TO.N,Net-(U6-FOD)*%
X143729870Y-118900000D02*
X143606457Y-119023413D01*
X149225000Y-117855738D02*
X149225000Y-118700000D01*
X144700000Y-118900000D02*
X144700000Y-120425000D01*
X148980602Y-117611340D02*
X149225000Y-117855738D01*
X144700000Y-118900000D02*
X143729870Y-118900000D01*
X144505000Y-117575000D02*
X144505000Y-118705000D01*
X144505000Y-118705000D02*
X144700000Y-118900000D01*
%TO.N,/wireless_charging/TERM*%
X146375000Y-121975000D02*
X146950000Y-121975000D01*
X146950000Y-121975000D02*
X147825000Y-121100000D01*
%TO.N,Net-(R26-Pad2)*%
X152090000Y-117450000D02*
X151700000Y-117450000D01*
X146428611Y-117721389D02*
X146282222Y-117575000D01*
X146282222Y-117575000D02*
X145525000Y-117575000D01*
X151700000Y-117450000D02*
X151250000Y-117000000D01*
%TO.N,Net-(U8-VBUS)*%
X140650000Y-117060000D02*
X140750000Y-117160000D01*
X140750000Y-117160000D02*
X140750000Y-118710000D01*
X138485000Y-117060000D02*
X140650000Y-117060000D01*
%TO.N,Net-(U8-~{RST})*%
X139275000Y-115050000D02*
X139675000Y-115450000D01*
X139373000Y-117560000D02*
X139575000Y-117762000D01*
X139275000Y-114510000D02*
X139275000Y-115050000D01*
X138485000Y-117560000D02*
X139373000Y-117560000D01*
%TO.N,Net-(U8-~{SUSPEND})*%
X139160000Y-118560000D02*
X138485000Y-118560000D01*
X140775000Y-115585000D02*
X140775000Y-114425000D01*
X140550000Y-119950000D02*
X139160000Y-118560000D01*
%TO.N,/CTRL_GPIO*%
X101325000Y-121400000D02*
X110000000Y-112725000D01*
X125060000Y-113160000D02*
X125060000Y-114500000D01*
X93300000Y-121400000D02*
X101325000Y-121400000D01*
X110000000Y-112725000D02*
X124625000Y-112725000D01*
X124625000Y-112725000D02*
X125060000Y-113160000D01*
%TO.N,/STAT*%
X141917487Y-123018824D02*
X142750000Y-123851337D01*
X142750000Y-123851337D02*
X142750000Y-124725000D01*
D55*
X135700000Y-109450000D02*
X135700000Y-108425000D01*
X135700000Y-108425000D02*
X137025000Y-107100000D01*
D57*
%TO.N,/UART_PROG_TX*%
X132985000Y-118060000D02*
X132862347Y-117937347D01*
X132985000Y-118100000D02*
X133550000Y-118100000D01*
D59*
X89250000Y-125250000D02*
X89250000Y-119622793D01*
D57*
X132300000Y-115175305D02*
X132300000Y-111777207D01*
D59*
X131472793Y-110950000D02*
X132300000Y-111777207D01*
X97922793Y-110950000D02*
X131472793Y-110950000D01*
D57*
X132985000Y-118060000D02*
X132985000Y-118100000D01*
X132862347Y-117937347D02*
X132862347Y-115737652D01*
X133765000Y-118060000D02*
X132985000Y-118060000D01*
X132862347Y-115737652D02*
X132300000Y-115175305D01*
D59*
X89250000Y-119622793D02*
X97922793Y-110950000D01*
%TO.N,/UART_PROG_RX*%
X92450000Y-122350000D02*
X92450000Y-121047918D01*
X90300000Y-124500000D02*
X92450000Y-122350000D01*
D57*
X132808604Y-118560000D02*
X132400000Y-118151396D01*
X133765000Y-118560000D02*
X132808604Y-118560000D01*
D59*
X101647918Y-111850000D02*
X131100000Y-111850000D01*
X92450000Y-121047918D02*
X101647918Y-111850000D01*
X90300000Y-125250000D02*
X90300000Y-124500000D01*
D57*
X131500000Y-112250000D02*
X131100000Y-111850000D01*
X132400000Y-118151396D02*
X132400000Y-116000000D01*
X131500000Y-115100000D02*
X131500000Y-112250000D01*
X132400000Y-116000000D02*
X131500000Y-115100000D01*
D52*
%TO.N,/wireless_charging/COIL-*%
X152375000Y-112675000D02*
X156650000Y-112675000D01*
X158002000Y-117373000D02*
X159675000Y-115700000D01*
X155352000Y-117323000D02*
X157952000Y-117323000D01*
X154575000Y-118100000D02*
X155352000Y-117323000D01*
X157952000Y-117323000D02*
X158002000Y-117373000D01*
X153975000Y-118700000D02*
X154575000Y-118100000D01*
X151725000Y-118700000D02*
X153975000Y-118700000D01*
X156650000Y-112675000D02*
X159675000Y-115700000D01*
X148975000Y-114525000D02*
X148950000Y-114500000D01*
X150525000Y-114525000D02*
X152375000Y-112675000D01*
%TD*%
M02*
