%TF.GenerationSoftware,KiCad,Pcbnew,8.0.5*%
%TF.CreationDate,2024-10-11T13:06:57+01:00*%
%TF.ProjectId,esquema_eletronico,65737175-656d-4615-9f65-6c6574726f6e,rev?*%
%TF.SameCoordinates,Original*%
%TF.FileFunction,Copper,L4,Inr*%
%TF.FilePolarity,Positive*%
%FSLAX46Y46*%
G04 Gerber Fmt 4.6, Leading zero omitted, Abs format (unit mm)*
G04 Created by KiCad (PCBNEW 8.0.5) date 2024-10-11 13:06:57*
%MOMM*%
%LPD*%
G01*
G04 APERTURE LIST*
G04 Aperture macros list*
%AMRoundRect*
0 Rectangle with rounded corners*
0 $1 Rounding radius*
0 $2 $3 $4 $5 $6 $7 $8 $9 X,Y pos of 4 corners*
0 Add a 4 corners polygon primitive as box body*
4,1,4,$2,$3,$4,$5,$6,$7,$8,$9,$2,$3,0*
0 Add four circle primitives for the rounded corners*
1,1,$1+$1,$2,$3*
1,1,$1+$1,$4,$5*
1,1,$1+$1,$6,$7*
1,1,$1+$1,$8,$9*
0 Add four rect primitives between the rounded corners*
20,1,$1+$1,$2,$3,$4,$5,0*
20,1,$1+$1,$4,$5,$6,$7,0*
20,1,$1+$1,$6,$7,$8,$9,0*
20,1,$1+$1,$8,$9,$2,$3,0*%
G04 Aperture macros list end*
%TA.AperFunction,ComponentPad*%
%ADD10R,1.700000X1.700000*%
%TD*%
%TA.AperFunction,ComponentPad*%
%ADD11O,1.700000X1.700000*%
%TD*%
%TA.AperFunction,ComponentPad*%
%ADD12C,1.700000*%
%TD*%
%TA.AperFunction,HeatsinkPad*%
%ADD13C,0.600000*%
%TD*%
%TA.AperFunction,ComponentPad*%
%ADD14RoundRect,0.249900X-0.275100X-0.400100X0.275100X-0.400100X0.275100X0.400100X-0.275100X0.400100X0*%
%TD*%
%TA.AperFunction,ComponentPad*%
%ADD15O,1.050000X1.300000*%
%TD*%
%TA.AperFunction,ComponentPad*%
%ADD16C,0.600000*%
%TD*%
%TA.AperFunction,ComponentPad*%
%ADD17C,2.286000*%
%TD*%
%TA.AperFunction,ComponentPad*%
%ADD18O,1.000000X1.600000*%
%TD*%
%TA.AperFunction,ComponentPad*%
%ADD19O,1.000000X2.100000*%
%TD*%
%TA.AperFunction,ViaPad*%
%ADD20C,0.800000*%
%TD*%
%TA.AperFunction,Conductor*%
%ADD21C,0.204000*%
%TD*%
%TA.AperFunction,Conductor*%
%ADD22C,0.250000*%
%TD*%
%TA.AperFunction,Conductor*%
%ADD23C,0.200000*%
%TD*%
G04 APERTURE END LIST*
D10*
%TO.N,GNDREF*%
%TO.C,U9*%
X161850000Y-109130000D03*
D11*
%TO.N,unconnected-(U9-VIN-Pad2)*%
X161850000Y-106590000D03*
%TO.N,/VREF_3V3*%
X161850000Y-104050000D03*
%TO.N,unconnected-(U9-ON_OFF-Pad4)*%
X161850000Y-101510000D03*
%TO.N,/VREF_3V3*%
X161850000Y-98970000D03*
%TO.N,/GPS_TXD*%
X145070000Y-98960000D03*
%TO.N,/GPS_RXD*%
X145070000Y-101500000D03*
%TO.N,unconnected-(U9-NC-Pad8)*%
X145070000Y-104040000D03*
%TO.N,unconnected-(U9-MODE-Pad9)*%
X145070000Y-106580000D03*
D12*
%TO.N,unconnected-(U9-1PPS-Pad10)*%
X145070000Y-109120000D03*
%TD*%
D10*
%TO.N,/TMP_DATA*%
%TO.C,J1_TMP1*%
X117220000Y-118250000D03*
D11*
%TO.N,/VREF_TMP_3V3*%
X119760000Y-118250000D03*
%TO.N,GNDREF*%
X122300000Y-118250000D03*
%TD*%
D10*
%TO.N,/VREF_3V3*%
%TO.C,U4*%
X131457500Y-81855000D03*
D11*
%TO.N,GNDREF*%
X133997500Y-81855000D03*
%TO.N,/IIC_SCL*%
X136537500Y-81855000D03*
%TO.N,/IIC_SDA*%
X139077500Y-81855000D03*
%TO.N,unconnected-(U4-EDA-Pad5)*%
X141617500Y-81855000D03*
%TO.N,unconnected-(U4-ECL-Pad6)*%
X144157500Y-81855000D03*
%TO.N,/VREF_3V3*%
X146697500Y-81855000D03*
%TO.N,unconnected-(U4-INT-Pad8)*%
X149237500Y-81855000D03*
%TO.N,unconnected-(U4-NCS-Pad9)*%
X151777500Y-81855000D03*
%TO.N,unconnected-(U4-FSYNC-Pad10)*%
X154317500Y-81855000D03*
%TD*%
D13*
%TO.N,GNDREF*%
%TO.C,U7*%
X98560000Y-128540000D03*
X98560000Y-127140000D03*
X97860000Y-129240000D03*
X97860000Y-127840000D03*
X97860000Y-126440000D03*
X97185000Y-128540000D03*
X97185000Y-127140000D03*
X96460000Y-129240000D03*
X96460000Y-127840000D03*
X96460000Y-126440000D03*
X95760000Y-128540000D03*
X95760000Y-127140000D03*
%TD*%
D14*
%TO.N,/PRE_VCC*%
%TO.C,U2*%
X127795000Y-130260000D03*
D15*
%TO.N,GNDREF*%
X129065000Y-130260000D03*
%TO.N,Net-(Q4-G)*%
X130335000Y-130260000D03*
%TD*%
D10*
%TO.N,GNDREF*%
%TO.C,J1*%
X139000000Y-137625000D03*
D11*
%TO.N,/BATT*%
X141540000Y-137625000D03*
%TD*%
D16*
%TO.N,GNDREF*%
%TO.C,U3*%
X130570000Y-123600000D03*
X130570000Y-122500000D03*
%TD*%
D17*
%TO.N,/rtc_ds3231/BAT_CELL+*%
%TO.C,BT1*%
X105500000Y-75887500D03*
%TO.N,GNDREF*%
X90300000Y-75887500D03*
%TD*%
D18*
%TO.N,GNDREF*%
%TO.C,J2*%
X156870000Y-135350000D03*
D19*
X156870000Y-131170000D03*
D18*
X148230000Y-135350000D03*
D19*
X148230000Y-131170000D03*
%TD*%
D20*
%TO.N,GNDREF*%
X135000000Y-90000000D03*
X85000000Y-100000000D03*
X114950000Y-79900000D03*
X135000000Y-75000000D03*
X125000000Y-95000000D03*
X155000000Y-85000000D03*
X95000000Y-100000000D03*
X150000000Y-100000000D03*
X127900000Y-107225000D03*
X83800000Y-130850000D03*
X130000000Y-100000000D03*
X100000000Y-125000000D03*
X150000000Y-80000000D03*
X160000000Y-70000000D03*
X160000000Y-85000000D03*
X155145225Y-94984133D03*
X144825000Y-127325000D03*
X95000000Y-75000000D03*
X115000000Y-110000000D03*
X150000000Y-110000000D03*
X155000000Y-100000000D03*
X95000000Y-90000000D03*
X134400000Y-137525000D03*
X80000000Y-110000000D03*
X120000000Y-105000000D03*
X145000000Y-95000000D03*
X152250000Y-126950000D03*
X80000000Y-105000000D03*
X80000000Y-90000000D03*
X155000000Y-110000000D03*
X130000000Y-90000000D03*
X160000000Y-75000000D03*
X125000000Y-90000000D03*
X80000000Y-95000000D03*
X135000000Y-95000000D03*
X110000000Y-75000000D03*
X115000000Y-75000000D03*
X152200000Y-136250000D03*
X95000000Y-125000000D03*
X140000000Y-85000000D03*
X140000000Y-90000000D03*
X80000000Y-100000000D03*
X135000000Y-70000000D03*
X147000000Y-133250000D03*
X90000000Y-100000000D03*
X85000000Y-90000000D03*
X105000000Y-85000000D03*
X145000000Y-80000000D03*
X134498000Y-115003415D03*
X95800000Y-87900000D03*
X145000000Y-90000000D03*
X144750000Y-114225000D03*
X120000000Y-79850000D03*
X150042224Y-95058090D03*
X160000000Y-95000000D03*
X95250000Y-79900000D03*
X80000000Y-85000000D03*
X152175000Y-120350000D03*
X143850000Y-122725000D03*
X140300000Y-111375000D03*
X133075000Y-126200000D03*
X150000000Y-75000000D03*
X85000000Y-105000000D03*
X101500000Y-116250000D03*
X120000000Y-95000000D03*
X125000000Y-105000000D03*
X114000000Y-135450000D03*
X140000000Y-75000000D03*
X90000000Y-70000000D03*
X155000000Y-80000000D03*
X90000000Y-90000000D03*
X130775000Y-114325000D03*
X108450000Y-95200000D03*
X130000000Y-70000000D03*
X80000000Y-70000000D03*
X85000000Y-75000000D03*
X145000000Y-75000000D03*
X150000000Y-85000000D03*
X80000000Y-115000000D03*
X110000000Y-80000000D03*
X89600000Y-103650000D03*
X126975000Y-122225000D03*
X88350000Y-135600000D03*
X156100000Y-129250000D03*
X100000000Y-70000000D03*
X85000000Y-110000000D03*
X96500000Y-92750000D03*
X141826106Y-124050000D03*
X110213936Y-69999999D03*
X105000000Y-110000000D03*
X115000000Y-90000000D03*
X85000000Y-85000000D03*
X155000000Y-105000000D03*
X122875000Y-114500000D03*
X105450000Y-93700000D03*
X140000000Y-70000000D03*
X115000000Y-85000000D03*
X101750000Y-95850000D03*
X150000000Y-105000000D03*
X113550000Y-78625000D03*
X120000000Y-100000000D03*
X148500000Y-129450000D03*
X150000000Y-90000000D03*
X90000000Y-85000000D03*
X100000000Y-85000000D03*
X90000000Y-95000000D03*
X95000000Y-70000000D03*
X130000000Y-85000000D03*
X110000000Y-115000000D03*
X106200000Y-91150000D03*
X115000000Y-70000000D03*
X140000000Y-80000000D03*
X130000000Y-75000000D03*
X150000000Y-70000000D03*
X95000000Y-135000000D03*
X125050000Y-79900000D03*
X145000000Y-70000000D03*
X110000000Y-85000000D03*
X100000000Y-135000000D03*
X138075000Y-132375000D03*
X140000000Y-100000000D03*
X130000000Y-110000000D03*
X143340605Y-118059396D03*
X153800000Y-127500000D03*
X130000000Y-105000000D03*
X110000000Y-95000000D03*
X125000000Y-100000000D03*
X89650000Y-88200000D03*
X135000000Y-80000000D03*
X153750000Y-113425000D03*
X80000000Y-75000000D03*
X109500000Y-135500000D03*
X109650000Y-130450000D03*
X128825000Y-135175000D03*
X110000000Y-105000000D03*
X103350000Y-87800000D03*
X90000000Y-80000000D03*
X125000000Y-85000000D03*
X120450000Y-90500000D03*
X160000000Y-90000000D03*
X95750000Y-102750000D03*
X102700000Y-135550000D03*
X149050000Y-136600000D03*
X155000000Y-75000000D03*
X128925000Y-120175000D03*
X123925000Y-78500000D03*
X130000000Y-80000000D03*
X155000000Y-90000000D03*
X114950000Y-127450000D03*
X103000000Y-74300000D03*
X85000000Y-95000000D03*
X140000000Y-95000000D03*
X120000000Y-85000000D03*
X105000000Y-70000000D03*
X145000000Y-85000000D03*
X146775000Y-130725000D03*
X130000000Y-95000000D03*
X90000000Y-135000000D03*
%TO.N,/rtc_ds3231/BAT_CELL+*%
X100500000Y-72350000D03*
%TO.N,/VCC_RAW*%
X126150000Y-120750000D03*
X126150000Y-123450000D03*
%TO.N,/VREF_TMP_3V3*%
X121625000Y-109475000D03*
X123725000Y-107375000D03*
%TO.N,/TMP_DATA*%
X91100000Y-120300000D03*
%TO.N,/ESP32_WROOM_32D/IO14*%
X150457298Y-136033194D03*
X109500000Y-117900000D03*
%TO.N,/VREF_3V3*%
X98800000Y-84650000D03*
X81375000Y-134450000D03*
X117050000Y-131850000D03*
X130825000Y-115575000D03*
X147250000Y-84600000D03*
X95625000Y-94925000D03*
X136575000Y-112775000D03*
X95050000Y-84650000D03*
X101975000Y-88075000D03*
X137700000Y-109500000D03*
X132148000Y-121492891D03*
%TO.N,/BATT*%
X147750000Y-138950000D03*
X141850000Y-133300000D03*
X143050000Y-137650000D03*
X151900000Y-123400000D03*
%TO.N,/IIC_SCL*%
X84350000Y-115350000D03*
X114037500Y-94287500D03*
%TO.N,/batery_module/VIN*%
X139078611Y-122221389D03*
X134643030Y-122205347D03*
X137800000Y-122100000D03*
%TO.N,/IIC_SDA*%
X115433889Y-93883889D03*
X82435000Y-116700000D03*
X84700000Y-128225000D03*
X83003000Y-127675000D03*
%TO.N,/SPI_MISO*%
X104980001Y-90641751D03*
X85118000Y-125832000D03*
%TO.N,/SPI_SCK*%
X105250000Y-99750000D03*
X92750000Y-112500000D03*
%TO.N,Net-(IC2-REGN)*%
X138225000Y-133925000D03*
X136675000Y-128500000D03*
%TO.N,/PRE_VCC*%
X140013820Y-133324528D03*
X127750000Y-131750000D03*
X131250000Y-133200000D03*
X136850000Y-135400000D03*
X127225000Y-128425000D03*
%TO.N,/EN*%
X108750000Y-119925000D03*
X106750000Y-126700000D03*
%TO.N,/IO0*%
X106750000Y-122950000D03*
X88375000Y-119225000D03*
%TO.N,/SPI_CS*%
X93950000Y-103950000D03*
X93950000Y-101100000D03*
%TO.N,/USBD+*%
X152200000Y-131825000D03*
X150950000Y-128200000D03*
X140077609Y-126655652D03*
X135200000Y-114225000D03*
%TO.N,/USBD-*%
X141124106Y-126599106D03*
X136325000Y-114150000D03*
X149700000Y-127350000D03*
%TO.N,/USB5V*%
X141826106Y-125625000D03*
X143550000Y-123850000D03*
X146700000Y-127200000D03*
X154850000Y-129150000D03*
X142450000Y-121000000D03*
X137737500Y-126337500D03*
X149750000Y-129250000D03*
X142400000Y-119800000D03*
%TO.N,/wireless_charging/~{CHG_PIN}*%
X149300000Y-123329948D03*
X142375000Y-113800000D03*
%TO.N,Net-(IC2-VSET)*%
X142897113Y-134916280D03*
X142275000Y-132325000D03*
%TO.N,/WRL_EN*%
X148125000Y-127300000D03*
X148253097Y-122971888D03*
%TO.N,Net-(J2-CC1)*%
X153075000Y-132525000D03*
%TO.N,Net-(J2-CC2)*%
X151325000Y-132800000D03*
%TO.N,/sd_card/CS_LLS*%
X99350000Y-97050000D03*
X102550000Y-93037000D03*
%TO.N,/GPS_RXD*%
X115150000Y-102325000D03*
%TO.N,/GPS_TXD*%
X114125000Y-100675000D03*
%TO.N,/RTS*%
X110600000Y-128200000D03*
X127600000Y-124650000D03*
X133000000Y-122200000D03*
X121000000Y-121250000D03*
%TO.N,/DTR*%
X115100000Y-116050000D03*
X133250000Y-115100000D03*
%TO.N,Net-(U6-FOD)*%
X143606457Y-119023413D03*
X148980602Y-117611340D03*
%TO.N,Net-(R26-Pad2)*%
X151250000Y-117000000D03*
X146428611Y-117721389D03*
%TO.N,Net-(U8-~{RST})*%
X139675000Y-115450000D03*
X139575000Y-117762000D03*
%TO.N,Net-(U8-~{SUSPEND})*%
X140775000Y-114425000D03*
X140550000Y-119950000D03*
%TO.N,/CTRL_GPIO*%
X93300000Y-121400000D03*
%TO.N,/STAT*%
X100100000Y-116150000D03*
X137025000Y-107100000D03*
X141917487Y-123018824D03*
%TO.N,/UART_PROG_TX*%
X89250000Y-125250000D03*
%TO.N,/UART_PROG_RX*%
X90300000Y-125250000D03*
%TD*%
D21*
%TO.N,/TMP_DATA*%
X103650000Y-117200000D02*
X109207222Y-117200000D01*
X115600000Y-118250000D02*
X117220000Y-118250000D01*
X91600000Y-119800000D02*
X101050000Y-119800000D01*
X109207222Y-117200000D02*
X109209222Y-117198000D01*
X114548000Y-117198000D02*
X115600000Y-118250000D01*
X101050000Y-119800000D02*
X103650000Y-117200000D01*
X91100000Y-120300000D02*
X91600000Y-119800000D01*
X109209222Y-117198000D02*
X114548000Y-117198000D01*
%TO.N,/ESP32_WROOM_32D/IO14*%
X129442778Y-134800000D02*
X126523000Y-131880222D01*
X126523000Y-131880222D02*
X126523000Y-125673000D01*
X134750000Y-136850000D02*
X132700000Y-134800000D01*
X150457298Y-136033194D02*
X150457298Y-136204431D01*
X148452000Y-137302000D02*
X147000000Y-135850000D01*
X110750000Y-117900000D02*
X109500000Y-117900000D01*
X132700000Y-134800000D02*
X129442778Y-134800000D01*
X149359729Y-137302000D02*
X148452000Y-137302000D01*
X126523000Y-125673000D02*
X121350000Y-120500000D01*
X150457298Y-136204431D02*
X149359729Y-137302000D01*
X121350000Y-120500000D02*
X113350000Y-120500000D01*
X113350000Y-120500000D02*
X110750000Y-117900000D01*
X147000000Y-135850000D02*
X137900000Y-135850000D01*
X136900000Y-136850000D02*
X134750000Y-136850000D01*
X137900000Y-135850000D02*
X136900000Y-136850000D01*
%TO.N,/IIC_SCL*%
X114037500Y-94287500D02*
X94321000Y-114004000D01*
X130990500Y-87402000D02*
X120923000Y-87402000D01*
X85696000Y-114004000D02*
X84350000Y-115350000D01*
X120923000Y-87402000D02*
X114037500Y-94287500D01*
X136537500Y-81855000D02*
X130990500Y-87402000D01*
X94321000Y-114004000D02*
X85696000Y-114004000D01*
%TO.N,/IIC_SDA*%
X133126500Y-87806000D02*
X121511778Y-87806000D01*
X121511778Y-87806000D02*
X92617778Y-116700000D01*
X84700000Y-128225000D02*
X83600000Y-128225000D01*
X83600000Y-128225000D02*
X83050000Y-127675000D01*
X92617778Y-116700000D02*
X82435000Y-116700000D01*
X83050000Y-127675000D02*
X83003000Y-127675000D01*
X139077500Y-81855000D02*
X133126500Y-87806000D01*
%TO.N,/SPI_MISO*%
X104748000Y-90873752D02*
X104748000Y-94744778D01*
X81733000Y-122447000D02*
X85118000Y-125832000D01*
X85892778Y-113600000D02*
X83950000Y-113600000D01*
X104980001Y-90641751D02*
X104748000Y-90873752D01*
X104748000Y-94744778D02*
X85892778Y-113600000D01*
X81733000Y-115817000D02*
X81733000Y-122447000D01*
X83950000Y-113600000D02*
X81733000Y-115817000D01*
%TO.N,/SPI_SCK*%
X105250000Y-100000000D02*
X105250000Y-99750000D01*
X92750000Y-112500000D02*
X105250000Y-100000000D01*
D22*
%TO.N,Net-(IC2-REGN)*%
X136675000Y-132375000D02*
X138225000Y-133925000D01*
X136675000Y-128500000D02*
X136675000Y-132375000D01*
D21*
%TO.N,/EN*%
X108725000Y-124725000D02*
X106750000Y-126700000D01*
X108750000Y-119925000D02*
X108725000Y-119950000D01*
X108725000Y-119950000D02*
X108725000Y-124725000D01*
%TO.N,/IO0*%
X92100000Y-122950000D02*
X88375000Y-119225000D01*
X106750000Y-122950000D02*
X92100000Y-122950000D01*
%TO.N,/SPI_CS*%
X93950000Y-101100000D02*
X93950000Y-103950000D01*
%TO.N,/USBD+*%
X152200000Y-129685050D02*
X152200000Y-131825000D01*
X135200000Y-121778043D02*
X135200000Y-114225000D01*
X150950000Y-128200000D02*
X150723000Y-128427000D01*
X150723000Y-128427000D02*
X141848957Y-128427000D01*
X150950000Y-128375000D02*
X152155025Y-129580025D01*
X140077609Y-126655652D02*
X135200000Y-121778043D01*
X150950000Y-128200000D02*
X150950000Y-128375000D01*
X141848957Y-128427000D02*
X140077609Y-126655652D01*
%TO.N,/USBD-*%
X141124106Y-126599106D02*
X141124106Y-123274106D01*
X141124106Y-123274106D02*
X136325000Y-118475000D01*
D23*
X141124106Y-126599106D02*
X142550000Y-128025000D01*
X142550000Y-128025000D02*
X149025000Y-128025000D01*
X149025000Y-128025000D02*
X149700000Y-127350000D01*
D21*
X136325000Y-118475000D02*
X136325000Y-114150000D01*
%TO.N,/wireless_charging/~{CHG_PIN}*%
X144042605Y-118092605D02*
X144042605Y-115467605D01*
X149300000Y-123329948D02*
X149300000Y-123026013D01*
X149300000Y-123026013D02*
X148543875Y-122269888D01*
X144042605Y-115467605D02*
X142375000Y-113800000D01*
X148543875Y-122269888D02*
X148219888Y-122269888D01*
X148219888Y-122269888D02*
X144042605Y-118092605D01*
D22*
%TO.N,Net-(IC2-VSET)*%
X142275000Y-132325000D02*
X142650000Y-132700000D01*
X142650000Y-132700000D02*
X142650000Y-134669167D01*
X142650000Y-134669167D02*
X142897113Y-134916280D01*
%TO.N,/WRL_EN*%
X148575000Y-126850000D02*
X148575000Y-123293791D01*
X148575000Y-123293791D02*
X148253097Y-122971888D01*
X148125000Y-127300000D02*
X148575000Y-126850000D01*
D21*
%TO.N,/sd_card/CS_LLS*%
X102550000Y-93037000D02*
X102550000Y-93850000D01*
X102550000Y-93850000D02*
X99350000Y-97050000D01*
%TO.N,/GPS_RXD*%
X115150000Y-102325000D02*
X115975000Y-101500000D01*
X115975000Y-101500000D02*
X145070000Y-101500000D01*
X115150000Y-102325000D02*
X115355000Y-102530000D01*
%TO.N,/GPS_TXD*%
X114125000Y-100675000D02*
X115840000Y-98960000D01*
X115840000Y-98960000D02*
X145070000Y-98960000D01*
%TO.N,/RTS*%
X127700000Y-124550000D02*
X127600000Y-124650000D01*
X119650000Y-122600000D02*
X121000000Y-121250000D01*
X131350000Y-124550000D02*
X127700000Y-124550000D01*
X112700000Y-128200000D02*
X118300000Y-122600000D01*
X118300000Y-122600000D02*
X119650000Y-122600000D01*
X110600000Y-128200000D02*
X112700000Y-128200000D01*
X132250000Y-122950000D02*
X132250000Y-123650000D01*
X133000000Y-122200000D02*
X132250000Y-122950000D01*
X132250000Y-123650000D02*
X131350000Y-124550000D01*
%TO.N,/DTR*%
X133250000Y-115100000D02*
X130250000Y-112100000D01*
X116150000Y-116050000D02*
X115100000Y-116050000D01*
X130250000Y-112100000D02*
X120100000Y-112100000D01*
X120100000Y-112100000D02*
X116150000Y-116050000D01*
%TO.N,Net-(R26-Pad2)*%
X151159340Y-116909340D02*
X151250000Y-117000000D01*
X146428611Y-117721389D02*
X147240660Y-116909340D01*
X147240660Y-116909340D02*
X151159340Y-116909340D01*
%TO.N,Net-(U8-~{RST})*%
X139675000Y-117662000D02*
X139575000Y-117762000D01*
X139675000Y-115450000D02*
X139675000Y-117662000D01*
%TO.N,Net-(U8-~{SUSPEND})*%
X140550000Y-119950000D02*
X141650000Y-118850000D01*
X141650000Y-118850000D02*
X141650000Y-114700000D01*
X141650000Y-114700000D02*
X141375000Y-114425000D01*
X141375000Y-114425000D02*
X140775000Y-114425000D01*
%TO.N,/STAT*%
X138873000Y-108948000D02*
X138873000Y-119974337D01*
D22*
X133975000Y-107100000D02*
X133075000Y-106200000D01*
D21*
X138873000Y-119974337D02*
X141917487Y-123018824D01*
D22*
X133075000Y-106200000D02*
X110050000Y-106200000D01*
D21*
X137025000Y-107100000D02*
X138873000Y-108948000D01*
D22*
X137025000Y-107100000D02*
X133975000Y-107100000D01*
X110050000Y-106200000D02*
X100100000Y-116150000D01*
%TD*%
M02*
