%TF.GenerationSoftware,KiCad,Pcbnew,8.0.5*%
%TF.CreationDate,2024-10-11T13:06:57+01:00*%
%TF.ProjectId,esquema_eletronico,65737175-656d-4615-9f65-6c6574726f6e,rev?*%
%TF.SameCoordinates,Original*%
%TF.FileFunction,Paste,Top*%
%TF.FilePolarity,Positive*%
%FSLAX46Y46*%
G04 Gerber Fmt 4.6, Leading zero omitted, Abs format (unit mm)*
G04 Created by KiCad (PCBNEW 8.0.5) date 2024-10-11 13:06:57*
%MOMM*%
%LPD*%
G01*
G04 APERTURE LIST*
G04 Aperture macros list*
%AMRoundRect*
0 Rectangle with rounded corners*
0 $1 Rounding radius*
0 $2 $3 $4 $5 $6 $7 $8 $9 X,Y pos of 4 corners*
0 Add a 4 corners polygon primitive as box body*
4,1,4,$2,$3,$4,$5,$6,$7,$8,$9,$2,$3,0*
0 Add four circle primitives for the rounded corners*
1,1,$1+$1,$2,$3*
1,1,$1+$1,$4,$5*
1,1,$1+$1,$6,$7*
1,1,$1+$1,$8,$9*
0 Add four rect primitives between the rounded corners*
20,1,$1+$1,$2,$3,$4,$5,0*
20,1,$1+$1,$4,$5,$6,$7,0*
20,1,$1+$1,$6,$7,$8,$9,0*
20,1,$1+$1,$8,$9,$2,$3,0*%
G04 Aperture macros list end*
%ADD10C,0.010000*%
%ADD11RoundRect,0.225000X-0.250000X0.225000X-0.250000X-0.225000X0.250000X-0.225000X0.250000X0.225000X0*%
%ADD12RoundRect,0.225000X-0.225000X-0.250000X0.225000X-0.250000X0.225000X0.250000X-0.225000X0.250000X0*%
%ADD13RoundRect,0.225000X0.250000X-0.225000X0.250000X0.225000X-0.250000X0.225000X-0.250000X-0.225000X0*%
%ADD14RoundRect,0.200000X-0.275000X0.200000X-0.275000X-0.200000X0.275000X-0.200000X0.275000X0.200000X0*%
%ADD15RoundRect,0.200000X0.275000X-0.200000X0.275000X0.200000X-0.275000X0.200000X-0.275000X-0.200000X0*%
%ADD16R,0.800000X0.600000*%
%ADD17RoundRect,0.150000X-0.200000X0.150000X-0.200000X-0.150000X0.200000X-0.150000X0.200000X0.150000X0*%
%ADD18RoundRect,0.200000X-0.200000X-0.275000X0.200000X-0.275000X0.200000X0.275000X-0.200000X0.275000X0*%
%ADD19RoundRect,0.225000X0.225000X0.250000X-0.225000X0.250000X-0.225000X-0.250000X0.225000X-0.250000X0*%
%ADD20RoundRect,0.200000X0.200000X0.275000X-0.200000X0.275000X-0.200000X-0.275000X0.200000X-0.275000X0*%
%ADD21RoundRect,0.073750X0.221250X-0.911250X0.221250X0.911250X-0.221250X0.911250X-0.221250X-0.911250X0*%
%ADD22R,1.500000X0.900000*%
%ADD23R,0.900000X1.500000*%
%ADD24R,0.900000X0.900000*%
%ADD25R,2.600000X1.500000*%
%ADD26R,2.000000X2.000000*%
%ADD27R,1.400000X0.700000*%
%ADD28R,1.400000X1.600000*%
%ADD29R,2.200000X1.200000*%
%ADD30RoundRect,0.250000X-1.000000X-0.650000X1.000000X-0.650000X1.000000X0.650000X-1.000000X0.650000X0*%
G04 APERTURE END LIST*
D10*
%TO.C,U5*%
X103330000Y-89895000D02*
X102830000Y-89895000D01*
X102830000Y-88645000D01*
X103330000Y-88645000D01*
X103330000Y-89895000D01*
G36*
X103330000Y-89895000D02*
G01*
X102830000Y-89895000D01*
X102830000Y-88645000D01*
X103330000Y-88645000D01*
X103330000Y-89895000D01*
G37*
X103330000Y-95745000D02*
X102830000Y-95745000D01*
X102830000Y-94495000D01*
X103330000Y-94495000D01*
X103330000Y-95745000D01*
G36*
X103330000Y-95745000D02*
G01*
X102830000Y-95745000D01*
X102830000Y-94495000D01*
X103330000Y-94495000D01*
X103330000Y-95745000D01*
G37*
X103980000Y-89895000D02*
X103680000Y-89895000D01*
X103680000Y-88645000D01*
X103980000Y-88645000D01*
X103980000Y-89895000D01*
G36*
X103980000Y-89895000D02*
G01*
X103680000Y-89895000D01*
X103680000Y-88645000D01*
X103980000Y-88645000D01*
X103980000Y-89895000D01*
G37*
X103980000Y-95745000D02*
X103680000Y-95745000D01*
X103680000Y-94495000D01*
X103980000Y-94495000D01*
X103980000Y-95745000D01*
G36*
X103980000Y-95745000D02*
G01*
X103680000Y-95745000D01*
X103680000Y-94495000D01*
X103980000Y-94495000D01*
X103980000Y-95745000D01*
G37*
X104630000Y-89895000D02*
X104330000Y-89895000D01*
X104330000Y-88645000D01*
X104630000Y-88645000D01*
X104630000Y-89895000D01*
G36*
X104630000Y-89895000D02*
G01*
X104330000Y-89895000D01*
X104330000Y-88645000D01*
X104630000Y-88645000D01*
X104630000Y-89895000D01*
G37*
X104630000Y-95745000D02*
X104330000Y-95745000D01*
X104330000Y-94495000D01*
X104630000Y-94495000D01*
X104630000Y-95745000D01*
G36*
X104630000Y-95745000D02*
G01*
X104330000Y-95745000D01*
X104330000Y-94495000D01*
X104630000Y-94495000D01*
X104630000Y-95745000D01*
G37*
X105280000Y-89895000D02*
X104980000Y-89895000D01*
X104980000Y-88645000D01*
X105280000Y-88645000D01*
X105280000Y-89895000D01*
G36*
X105280000Y-89895000D02*
G01*
X104980000Y-89895000D01*
X104980000Y-88645000D01*
X105280000Y-88645000D01*
X105280000Y-89895000D01*
G37*
X105280000Y-95745000D02*
X104980000Y-95745000D01*
X104980000Y-94495000D01*
X105280000Y-94495000D01*
X105280000Y-95745000D01*
G36*
X105280000Y-95745000D02*
G01*
X104980000Y-95745000D01*
X104980000Y-94495000D01*
X105280000Y-94495000D01*
X105280000Y-95745000D01*
G37*
X105930000Y-89895000D02*
X105630000Y-89895000D01*
X105630000Y-88645000D01*
X105930000Y-88645000D01*
X105930000Y-89895000D01*
G36*
X105930000Y-89895000D02*
G01*
X105630000Y-89895000D01*
X105630000Y-88645000D01*
X105930000Y-88645000D01*
X105930000Y-89895000D01*
G37*
X105930000Y-95745000D02*
X105630000Y-95745000D01*
X105630000Y-94495000D01*
X105930000Y-94495000D01*
X105930000Y-95745000D01*
G36*
X105930000Y-95745000D02*
G01*
X105630000Y-95745000D01*
X105630000Y-94495000D01*
X105930000Y-94495000D01*
X105930000Y-95745000D01*
G37*
X106580000Y-89895000D02*
X106280000Y-89895000D01*
X106280000Y-88645000D01*
X106580000Y-88645000D01*
X106580000Y-89895000D01*
G36*
X106580000Y-89895000D02*
G01*
X106280000Y-89895000D01*
X106280000Y-88645000D01*
X106580000Y-88645000D01*
X106580000Y-89895000D01*
G37*
X106580000Y-95745000D02*
X106280000Y-95745000D01*
X106280000Y-94495000D01*
X106580000Y-94495000D01*
X106580000Y-95745000D01*
G36*
X106580000Y-95745000D02*
G01*
X106280000Y-95745000D01*
X106280000Y-94495000D01*
X106580000Y-94495000D01*
X106580000Y-95745000D01*
G37*
X107430000Y-89895000D02*
X106930000Y-89895000D01*
X106930000Y-88645000D01*
X107430000Y-88645000D01*
X107430000Y-89895000D01*
G36*
X107430000Y-89895000D02*
G01*
X106930000Y-89895000D01*
X106930000Y-88645000D01*
X107430000Y-88645000D01*
X107430000Y-89895000D01*
G37*
X107430000Y-95745000D02*
X106930000Y-95745000D01*
X106930000Y-94495000D01*
X107430000Y-94495000D01*
X107430000Y-95745000D01*
G36*
X107430000Y-95745000D02*
G01*
X106930000Y-95745000D01*
X106930000Y-94495000D01*
X107430000Y-94495000D01*
X107430000Y-95745000D01*
G37*
%TD*%
D11*
%TO.C,C35*%
X106550000Y-134015000D03*
X106550000Y-135565000D03*
%TD*%
D12*
%TO.C,C32*%
X117295000Y-87510000D03*
X118845000Y-87510000D03*
%TD*%
%TO.C,C7*%
X81175000Y-131000000D03*
X82725000Y-131000000D03*
%TD*%
D13*
%TO.C,C34*%
X113300000Y-130175000D03*
X113300000Y-128625000D03*
%TD*%
D14*
%TO.C,R10*%
X150500000Y-137250000D03*
X150500000Y-138900000D03*
%TD*%
D15*
%TO.C,R3*%
X111900000Y-126937500D03*
X111900000Y-125287500D03*
%TD*%
D16*
%TO.C,Q2*%
X108785000Y-125087500D03*
X108785000Y-123187500D03*
X106765000Y-124137500D03*
%TD*%
D17*
%TO.C,D1*%
X149000000Y-139000000D03*
X149000000Y-137600000D03*
%TD*%
D15*
%TO.C,R18*%
X105305000Y-98570000D03*
X105305000Y-96920000D03*
%TD*%
D13*
%TO.C,C9*%
X114950000Y-130175000D03*
X114950000Y-128625000D03*
%TD*%
D18*
%TO.C,R12*%
X81185000Y-133030000D03*
X82835000Y-133030000D03*
%TD*%
D19*
%TO.C,C36*%
X121970000Y-87510000D03*
X120420000Y-87510000D03*
%TD*%
D16*
%TO.C,Q1*%
X108760000Y-128812500D03*
X108760000Y-126912500D03*
X106740000Y-127862500D03*
%TD*%
D12*
%TO.C,C3*%
X117695000Y-115325000D03*
X119245000Y-115325000D03*
%TD*%
D18*
%TO.C,R5*%
X117645000Y-113700000D03*
X119295000Y-113700000D03*
%TD*%
D12*
%TO.C,C8*%
X111025000Y-135400000D03*
X112575000Y-135400000D03*
%TD*%
D19*
%TO.C,C11*%
X98800000Y-81765000D03*
X97250000Y-81765000D03*
%TD*%
D20*
%TO.C,R21*%
X95060000Y-83065000D03*
X93410000Y-83065000D03*
%TD*%
D15*
%TO.C,R17*%
X103605000Y-98570000D03*
X103605000Y-96920000D03*
%TD*%
D21*
%TO.C,U10*%
X97510000Y-79400000D03*
X98780000Y-79400000D03*
X100050000Y-79400000D03*
X101320000Y-79400000D03*
X101320000Y-74450000D03*
X100050000Y-74450000D03*
X98780000Y-74450000D03*
X97510000Y-74450000D03*
%TD*%
D12*
%TO.C,C33*%
X106735000Y-130480000D03*
X108285000Y-130480000D03*
%TD*%
D20*
%TO.C,R35*%
X108145000Y-132460000D03*
X106495000Y-132460000D03*
%TD*%
D14*
%TO.C,R4*%
X110325000Y-125262500D03*
X110325000Y-126912500D03*
%TD*%
D22*
%TO.C,U7*%
X104410000Y-135560000D03*
X104410000Y-134290000D03*
X104410000Y-133020000D03*
X104410000Y-131750000D03*
X104410000Y-130480000D03*
X104410000Y-129210000D03*
X104410000Y-127940000D03*
X104410000Y-126670000D03*
X104410000Y-125400000D03*
X104410000Y-124130000D03*
X104410000Y-122860000D03*
X104410000Y-121590000D03*
X104410000Y-120320000D03*
X104410000Y-119050000D03*
D23*
X101370000Y-117800000D03*
X100100000Y-117800000D03*
X98830000Y-117800000D03*
X97560000Y-117800000D03*
X96290000Y-117800000D03*
X95020000Y-117800000D03*
X93750000Y-117800000D03*
X92480000Y-117800000D03*
X91210000Y-117800000D03*
X89940000Y-117800000D03*
D22*
X86910000Y-119050000D03*
X86910000Y-120320000D03*
X86910000Y-121590000D03*
X86910000Y-122860000D03*
X86910000Y-124130000D03*
X86910000Y-125400000D03*
X86910000Y-126670000D03*
X86910000Y-127940000D03*
X86910000Y-129210000D03*
X86910000Y-130480000D03*
X86910000Y-131750000D03*
X86910000Y-133020000D03*
X86910000Y-134290000D03*
X86910000Y-135560000D03*
D24*
X98560000Y-129240000D03*
X98560000Y-127840000D03*
X98560000Y-126440000D03*
X97160000Y-129240000D03*
X97160000Y-127840000D03*
X97160000Y-126440000D03*
X95760000Y-129240000D03*
X95760000Y-127840000D03*
X95760000Y-126440000D03*
%TD*%
D25*
%TO.C,D8*%
X85825000Y-69850000D03*
X85825000Y-72850000D03*
%TD*%
D14*
%TO.C,R11*%
X152075000Y-137275000D03*
X152075000Y-138925000D03*
%TD*%
D13*
%TO.C,C4*%
X153600000Y-138850000D03*
X153600000Y-137300000D03*
%TD*%
D15*
%TO.C,R1*%
X153025000Y-135400000D03*
X153025000Y-133750000D03*
%TD*%
%TO.C,R2*%
X151405000Y-135400000D03*
X151405000Y-133750000D03*
%TD*%
D26*
%TO.C,SW2*%
X125820000Y-81570000D03*
X119820000Y-81570000D03*
%TD*%
D18*
%TO.C,R13*%
X81185000Y-129140000D03*
X82835000Y-129140000D03*
%TD*%
D27*
%TO.C,J3*%
X97900000Y-98225000D03*
X97900000Y-97125000D03*
X97900000Y-96025000D03*
X97900000Y-94925000D03*
X97900000Y-93825000D03*
X97900000Y-92725000D03*
X97900000Y-91625000D03*
X97900000Y-90525000D03*
X97900000Y-89425000D03*
D28*
X97300000Y-87975000D03*
X97300000Y-102825000D03*
D29*
X87700000Y-88225000D03*
X87700000Y-103725000D03*
%TD*%
D18*
%TO.C,R19*%
X104755000Y-86845000D03*
X106405000Y-86845000D03*
%TD*%
D19*
%TO.C,C12*%
X98800000Y-83300000D03*
X97250000Y-83300000D03*
%TD*%
D26*
%TO.C,SW1*%
X114390000Y-81570000D03*
X108390000Y-81570000D03*
%TD*%
D15*
%TO.C,R20*%
X101115000Y-92350000D03*
X101115000Y-90700000D03*
%TD*%
D30*
%TO.C,D9*%
X110700000Y-132750000D03*
X114700000Y-132750000D03*
%TD*%
M02*
