%TF.GenerationSoftware,KiCad,Pcbnew,8.0.5*%
%TF.CreationDate,2024-10-11T13:06:57+01:00*%
%TF.ProjectId,esquema_eletronico,65737175-656d-4615-9f65-6c6574726f6e,rev?*%
%TF.SameCoordinates,Original*%
%TF.FileFunction,Soldermask,Bot*%
%TF.FilePolarity,Negative*%
%FSLAX46Y46*%
G04 Gerber Fmt 4.6, Leading zero omitted, Abs format (unit mm)*
G04 Created by KiCad (PCBNEW 8.0.5) date 2024-10-11 13:06:57*
%MOMM*%
%LPD*%
G01*
G04 APERTURE LIST*
G04 Aperture macros list*
%AMRoundRect*
0 Rectangle with rounded corners*
0 $1 Rounding radius*
0 $2 $3 $4 $5 $6 $7 $8 $9 X,Y pos of 4 corners*
0 Add a 4 corners polygon primitive as box body*
4,1,4,$2,$3,$4,$5,$6,$7,$8,$9,$2,$3,0*
0 Add four circle primitives for the rounded corners*
1,1,$1+$1,$2,$3*
1,1,$1+$1,$4,$5*
1,1,$1+$1,$6,$7*
1,1,$1+$1,$8,$9*
0 Add four rect primitives between the rounded corners*
20,1,$1+$1,$2,$3,$4,$5,0*
20,1,$1+$1,$4,$5,$6,$7,0*
20,1,$1+$1,$6,$7,$8,$9,0*
20,1,$1+$1,$8,$9,$2,$3,0*%
G04 Aperture macros list end*
%ADD10RoundRect,0.225000X0.250000X-0.225000X0.250000X0.225000X-0.250000X0.225000X-0.250000X-0.225000X0*%
%ADD11RoundRect,0.225000X-0.250000X0.225000X-0.250000X-0.225000X0.250000X-0.225000X0.250000X0.225000X0*%
%ADD12R,1.700000X1.700000*%
%ADD13O,1.700000X1.700000*%
%ADD14C,1.700000*%
%ADD15C,0.900000*%
%ADD16RoundRect,0.249900X-0.275100X-0.400100X0.275100X-0.400100X0.275100X0.400100X-0.275100X0.400100X0*%
%ADD17O,1.050000X1.300000*%
%ADD18RoundRect,0.225000X0.225000X0.250000X-0.225000X0.250000X-0.225000X-0.250000X0.225000X-0.250000X0*%
%ADD19R,3.000000X3.000000*%
%ADD20R,1.500000X2.600000*%
%ADD21R,4.200000X1.500000*%
%ADD22RoundRect,0.200000X0.200000X0.275000X-0.200000X0.275000X-0.200000X-0.275000X0.200000X-0.275000X0*%
%ADD23RoundRect,0.200000X-0.200000X-0.275000X0.200000X-0.275000X0.200000X0.275000X-0.200000X0.275000X0*%
%ADD24RoundRect,0.093750X0.093750X0.106250X-0.093750X0.106250X-0.093750X-0.106250X0.093750X-0.106250X0*%
%ADD25R,1.000000X1.600000*%
%ADD26R,0.300000X0.800000*%
%ADD27R,0.800000X0.300000*%
%ADD28R,2.800000X2.800000*%
%ADD29RoundRect,0.150000X0.150000X-0.587500X0.150000X0.587500X-0.150000X0.587500X-0.150000X-0.587500X0*%
%ADD30RoundRect,0.200000X0.275000X-0.200000X0.275000X0.200000X-0.275000X0.200000X-0.275000X-0.200000X0*%
%ADD31C,2.286000*%
%ADD32RoundRect,0.225000X-0.225000X-0.250000X0.225000X-0.250000X0.225000X0.250000X-0.225000X0.250000X0*%
%ADD33RoundRect,0.102000X0.295000X-0.875000X0.295000X0.875000X-0.295000X0.875000X-0.295000X-0.875000X0*%
%ADD34C,0.650000*%
%ADD35RoundRect,0.150000X0.150000X0.500000X-0.150000X0.500000X-0.150000X-0.500000X0.150000X-0.500000X0*%
%ADD36RoundRect,0.075000X0.075000X0.575000X-0.075000X0.575000X-0.075000X-0.575000X0.075000X-0.575000X0*%
%ADD37O,1.000000X1.600000*%
%ADD38O,1.000000X2.100000*%
%ADD39RoundRect,0.150000X-0.200000X0.150000X-0.200000X-0.150000X0.200000X-0.150000X0.200000X0.150000X0*%
%ADD40RoundRect,0.135000X0.185000X-0.135000X0.185000X0.135000X-0.185000X0.135000X-0.185000X-0.135000X0*%
%ADD41R,0.600000X0.240000*%
%ADD42R,0.240000X0.600000*%
%ADD43R,3.050000X2.050000*%
%ADD44RoundRect,0.102000X-0.135000X0.495000X-0.135000X-0.495000X0.135000X-0.495000X0.135000X0.495000X0*%
%ADD45RoundRect,0.102000X-0.495000X0.135000X-0.495000X-0.135000X0.495000X-0.135000X0.495000X0.135000X0*%
%ADD46RoundRect,0.102000X-1.625000X1.625000X-1.625000X-1.625000X1.625000X-1.625000X1.625000X1.625000X0*%
%ADD47RoundRect,0.200000X-0.275000X0.200000X-0.275000X-0.200000X0.275000X-0.200000X0.275000X0.200000X0*%
%ADD48RoundRect,0.135000X0.135000X0.185000X-0.135000X0.185000X-0.135000X-0.185000X0.135000X-0.185000X0*%
%ADD49RoundRect,0.102000X-0.240000X-0.200000X0.240000X-0.200000X0.240000X0.200000X-0.240000X0.200000X0*%
%ADD50RoundRect,0.150000X-0.587500X-0.150000X0.587500X-0.150000X0.587500X0.150000X-0.587500X0.150000X0*%
%ADD51RoundRect,0.102000X0.240000X0.200000X-0.240000X0.200000X-0.240000X-0.200000X0.240000X-0.200000X0*%
G04 APERTURE END LIST*
D10*
%TO.C,C39*%
X149000000Y-116075000D03*
X149000000Y-114525000D03*
%TD*%
D11*
%TO.C,C10*%
X150350000Y-124600000D03*
X150350000Y-126150000D03*
%TD*%
D12*
%TO.C,U9*%
X161850000Y-109130000D03*
D13*
X161850000Y-106590000D03*
X161850000Y-104050000D03*
X161850000Y-101510000D03*
X161850000Y-98970000D03*
X145070000Y-98960000D03*
X145070000Y-101500000D03*
X145070000Y-104040000D03*
X145070000Y-106580000D03*
D14*
X145070000Y-109120000D03*
%TD*%
D12*
%TO.C,J1_TMP1*%
X117220000Y-118250000D03*
D13*
X119760000Y-118250000D03*
X122300000Y-118250000D03*
%TD*%
D12*
%TO.C,U4*%
X131457500Y-81855000D03*
D13*
X133997500Y-81855000D03*
X136537500Y-81855000D03*
X139077500Y-81855000D03*
X141617500Y-81855000D03*
X144157500Y-81855000D03*
X146697500Y-81855000D03*
X149237500Y-81855000D03*
X151777500Y-81855000D03*
X154317500Y-81855000D03*
%TD*%
D15*
%TO.C,J3*%
X87300000Y-91025000D03*
X87300000Y-99025000D03*
%TD*%
D16*
%TO.C,U2*%
X127795000Y-130260000D03*
D17*
X129065000Y-130260000D03*
X130335000Y-130260000D03*
%TD*%
D18*
%TO.C,C31*%
X130375000Y-134060000D03*
X128825000Y-134060000D03*
%TD*%
D10*
%TO.C,C19*%
X147425000Y-116050000D03*
X147425000Y-114500000D03*
%TD*%
D19*
%TO.C,TP4*%
X137500000Y-124075000D03*
%TD*%
D20*
%TO.C,D7*%
X135700000Y-109450000D03*
X132700000Y-109450000D03*
%TD*%
D21*
%TO.C,L1*%
X134000000Y-131125000D03*
X134000000Y-133825000D03*
%TD*%
D12*
%TO.C,J1*%
X139000000Y-137625000D03*
D13*
X141540000Y-137625000D03*
%TD*%
D22*
%TO.C,R36*%
X142400000Y-118710000D03*
X140750000Y-118710000D03*
%TD*%
D23*
%TO.C,R32*%
X139280000Y-134200000D03*
X140930000Y-134200000D03*
%TD*%
D10*
%TO.C,C22*%
X150525000Y-116075000D03*
X150525000Y-114525000D03*
%TD*%
D24*
%TO.C,U3*%
X131457500Y-122400000D03*
X131457500Y-123050000D03*
X131457500Y-123700000D03*
X129682500Y-123700000D03*
X129682500Y-123050000D03*
X129682500Y-122400000D03*
D25*
X130570000Y-123050000D03*
%TD*%
D23*
%TO.C,R31*%
X144275000Y-129925000D03*
X145925000Y-129925000D03*
%TD*%
D11*
%TO.C,C1*%
X129275000Y-113325000D03*
X129275000Y-114875000D03*
%TD*%
D23*
%TO.C,R30*%
X143930000Y-134605000D03*
X145580000Y-134605000D03*
%TD*%
D26*
%TO.C,IC2*%
X138880000Y-128325000D03*
X139380000Y-128325000D03*
X139880000Y-128325000D03*
X140380000Y-128325000D03*
X140880000Y-128325000D03*
X141380000Y-128325000D03*
D27*
X142130000Y-129075000D03*
X142130000Y-129575000D03*
X142130000Y-130075000D03*
X142130000Y-130575000D03*
X142130000Y-131075000D03*
X142130000Y-131575000D03*
D26*
X141380000Y-132325000D03*
X140880000Y-132325000D03*
X140380000Y-132325000D03*
X139880000Y-132325000D03*
X139380000Y-132325000D03*
X138880000Y-132325000D03*
D27*
X138130000Y-131575000D03*
X138130000Y-131075000D03*
X138130000Y-130575000D03*
X138130000Y-130075000D03*
X138130000Y-129575000D03*
X138130000Y-129075000D03*
D28*
X140130000Y-130325000D03*
%TD*%
D18*
%TO.C,C6*%
X131225000Y-120775000D03*
X129675000Y-120775000D03*
%TD*%
D19*
%TO.C,TP3*%
X145675000Y-125050000D03*
%TD*%
D29*
%TO.C,Q4*%
X130405000Y-127765000D03*
X128505000Y-127765000D03*
X129455000Y-125890000D03*
%TD*%
D19*
%TO.C,TP7*%
X126425000Y-117950000D03*
%TD*%
D10*
%TO.C,C25*%
X152100000Y-116075000D03*
X152100000Y-114525000D03*
%TD*%
D30*
%TO.C,R6*%
X145850000Y-116050000D03*
X145850000Y-114400000D03*
%TD*%
D22*
%TO.C,R34*%
X145580000Y-133055000D03*
X143930000Y-133055000D03*
%TD*%
D31*
%TO.C,BT1*%
X105500000Y-75887500D03*
X90300000Y-75887500D03*
%TD*%
D32*
%TO.C,C15*%
X155125000Y-122850000D03*
X156675000Y-122850000D03*
%TD*%
%TO.C,C14*%
X153625000Y-121300000D03*
X155175000Y-121300000D03*
%TD*%
D33*
%TO.C,U1*%
X127600000Y-114500000D03*
X126330000Y-114500000D03*
X125060000Y-114500000D03*
X123790000Y-114500000D03*
X123790000Y-109330000D03*
X125060000Y-109330000D03*
X126330000Y-109330000D03*
X127600000Y-109330000D03*
%TD*%
D19*
%TO.C,TP5*%
X159675000Y-115700000D03*
%TD*%
D18*
%TO.C,C16*%
X156650000Y-124400000D03*
X155100000Y-124400000D03*
%TD*%
%TO.C,C18*%
X155175000Y-119700000D03*
X153625000Y-119700000D03*
%TD*%
D34*
%TO.C,J2*%
X155440000Y-131670000D03*
X149660000Y-131670000D03*
D35*
X155750000Y-130530000D03*
X154950000Y-130530000D03*
D36*
X153800000Y-130530000D03*
X152800000Y-130530000D03*
X152300000Y-130530000D03*
X151300000Y-130530000D03*
D35*
X150150000Y-130530000D03*
X149350000Y-130530000D03*
X149350000Y-130530000D03*
X150150000Y-130530000D03*
D36*
X150800000Y-130530000D03*
X151800000Y-130530000D03*
X153300000Y-130530000D03*
X154300000Y-130530000D03*
D35*
X154950000Y-130530000D03*
X155750000Y-130530000D03*
D37*
X156870000Y-135350000D03*
D38*
X156870000Y-131170000D03*
D37*
X148230000Y-135350000D03*
D38*
X148230000Y-131170000D03*
%TD*%
D22*
%TO.C,R22*%
X146350000Y-118900000D03*
X144700000Y-118900000D03*
%TD*%
D39*
%TO.C,D5*%
X140350000Y-125675000D03*
X140350000Y-124275000D03*
%TD*%
D40*
%TO.C,R25*%
X144575000Y-116135000D03*
X144575000Y-115115000D03*
%TD*%
D23*
%TO.C,R24*%
X144725000Y-121975000D03*
X146375000Y-121975000D03*
%TD*%
D22*
%TO.C,R8*%
X130435000Y-132370000D03*
X128785000Y-132370000D03*
%TD*%
D41*
%TO.C,U6*%
X152125000Y-121100000D03*
D42*
X151725000Y-122000000D03*
X151225000Y-122000000D03*
X150725000Y-122000000D03*
X150225000Y-122000000D03*
X149725000Y-122000000D03*
X149225000Y-122000000D03*
X148725000Y-122000000D03*
X148225000Y-122000000D03*
D41*
X147825000Y-121100000D03*
X147825000Y-119600000D03*
D42*
X148225000Y-118700000D03*
X148725000Y-118700000D03*
X149225000Y-118700000D03*
X149725000Y-118700000D03*
X150225000Y-118700000D03*
X150725000Y-118700000D03*
X151225000Y-118700000D03*
X151725000Y-118700000D03*
D41*
X152125000Y-119600000D03*
D43*
X149975000Y-120350000D03*
%TD*%
D20*
%TO.C,D6*%
X133150000Y-104075000D03*
X136150000Y-104075000D03*
%TD*%
D44*
%TO.C,U8*%
X134625000Y-116200000D03*
X135125000Y-116200000D03*
X135625000Y-116200000D03*
X136125000Y-116200000D03*
X136625000Y-116200000D03*
X137125000Y-116200000D03*
X137625000Y-116200000D03*
D45*
X138485000Y-117060000D03*
X138485000Y-117560000D03*
X138485000Y-118060000D03*
X138485000Y-118560000D03*
X138485000Y-119060000D03*
X138485000Y-119560000D03*
X138485000Y-120060000D03*
D44*
X137625000Y-120920000D03*
X137125000Y-120920000D03*
X136625000Y-120920000D03*
X136125000Y-120920000D03*
X135625000Y-120920000D03*
X135125000Y-120920000D03*
X134625000Y-120920000D03*
D45*
X133765000Y-120060000D03*
X133765000Y-119560000D03*
X133765000Y-119060000D03*
X133765000Y-118560000D03*
X133765000Y-118060000D03*
X133765000Y-117560000D03*
X133765000Y-117060000D03*
D46*
X136125000Y-118560000D03*
%TD*%
D18*
%TO.C,C27*%
X134580000Y-125100000D03*
X133030000Y-125100000D03*
%TD*%
%TO.C,C26*%
X134605000Y-123350000D03*
X133055000Y-123350000D03*
%TD*%
D19*
%TO.C,TP6*%
X159675000Y-119825000D03*
%TD*%
D11*
%TO.C,C13*%
X152000000Y-124325000D03*
X152000000Y-125875000D03*
%TD*%
D47*
%TO.C,R28*%
X142750000Y-124725000D03*
X142750000Y-126375000D03*
%TD*%
D23*
%TO.C,R39*%
X140775000Y-115585000D03*
X142425000Y-115585000D03*
%TD*%
D32*
%TO.C,C20*%
X154575000Y-118100000D03*
X156125000Y-118100000D03*
%TD*%
D48*
%TO.C,R27*%
X145525000Y-117575000D03*
X144505000Y-117575000D03*
%TD*%
D23*
%TO.C,R9*%
X133900000Y-112800000D03*
X135550000Y-112800000D03*
%TD*%
D49*
%TO.C,D4*%
X154842500Y-128300000D03*
X156162500Y-128300000D03*
%TD*%
D18*
%TO.C,C28*%
X135555000Y-129225000D03*
X134005000Y-129225000D03*
%TD*%
D22*
%TO.C,R23*%
X146350000Y-120425000D03*
X144700000Y-120425000D03*
%TD*%
D10*
%TO.C,C23*%
X155175000Y-116075000D03*
X155175000Y-114525000D03*
%TD*%
D32*
%TO.C,C38*%
X137675000Y-112960000D03*
X139225000Y-112960000D03*
%TD*%
D10*
%TO.C,C24*%
X153650000Y-116075000D03*
X153650000Y-114525000D03*
%TD*%
D23*
%TO.C,R38*%
X137625000Y-114510000D03*
X139275000Y-114510000D03*
%TD*%
D18*
%TO.C,C29*%
X135580000Y-127675000D03*
X134030000Y-127675000D03*
%TD*%
D10*
%TO.C,C5*%
X128100000Y-123475000D03*
X128100000Y-121925000D03*
%TD*%
D48*
%TO.C,R26*%
X153110000Y-117450000D03*
X152090000Y-117450000D03*
%TD*%
D11*
%TO.C,C30*%
X135575000Y-136650000D03*
X135575000Y-138200000D03*
%TD*%
D23*
%TO.C,R29*%
X143980000Y-128205000D03*
X145630000Y-128205000D03*
%TD*%
D50*
%TO.C,Q3*%
X140580000Y-122850000D03*
X140580000Y-120950000D03*
X142455000Y-121900000D03*
%TD*%
D51*
%TO.C,D3*%
X149825000Y-128300000D03*
X148505000Y-128300000D03*
%TD*%
D11*
%TO.C,C17*%
X148750000Y-124600000D03*
X148750000Y-126150000D03*
%TD*%
D23*
%TO.C,R37*%
X140750000Y-117160000D03*
X142400000Y-117160000D03*
%TD*%
D22*
%TO.C,R33*%
X145900000Y-131475000D03*
X144250000Y-131475000D03*
%TD*%
D49*
%TO.C,D2*%
X151942500Y-128300000D03*
X153262500Y-128300000D03*
%TD*%
D19*
%TO.C,TP8*%
X130575000Y-117725000D03*
%TD*%
D47*
%TO.C,R7*%
X139550000Y-107875000D03*
X139550000Y-109525000D03*
%TD*%
D32*
%TO.C,C2*%
X125100000Y-107325000D03*
X126650000Y-107325000D03*
%TD*%
%TO.C,C37*%
X137675000Y-111410000D03*
X139225000Y-111410000D03*
%TD*%
D11*
%TO.C,C21*%
X153525000Y-123925000D03*
X153525000Y-125475000D03*
%TD*%
M02*
