%TF.GenerationSoftware,KiCad,Pcbnew,8.0.5*%
%TF.CreationDate,2024-10-11T11:15:47+01:00*%
%TF.ProjectId,esquema_eletronico,65737175-656d-4615-9f65-6c6574726f6e,rev?*%
%TF.SameCoordinates,Original*%
%TF.FileFunction,Drillmap*%
%TF.FilePolarity,Positive*%
%FSLAX45Y45*%
G04 Gerber Fmt 4.5, Leading zero omitted, Abs format (unit mm)*
G04 Created by KiCad (PCBNEW 8.0.5) date 2024-10-11 11:15:47*
%MOMM*%
%LPD*%
G01*
G04 APERTURE LIST*
%ADD10C,0.100000*%
%ADD11C,0.050000*%
%ADD12C,0.200000*%
G04 APERTURE END LIST*
D10*
X12795000Y-14000000D02*
X16600000Y-14000000D01*
X16566839Y-8007500D02*
G75*
G02*
X15825000Y-8007500I-370920J0D01*
G01*
X15825000Y-8007500D02*
G75*
G02*
X16566839Y-8007500I370920J0D01*
G01*
X11637500Y-6700000D02*
X7800000Y-6700000D01*
X12801000Y-7025000D02*
G75*
G02*
X11637004Y-7022848I-582000J0D01*
G01*
X7800000Y-6700000D02*
X7803038Y-13655000D01*
X11637500Y-6700000D02*
X11637004Y-7022848D01*
X12795000Y-14000000D02*
X12796159Y-13647375D01*
X16600000Y-14000000D02*
X16600000Y-6700000D01*
X12801498Y-6700576D02*
X12801000Y-7025000D01*
X12590919Y-12749081D02*
G75*
G02*
X11849080Y-12749081I-370920J0D01*
G01*
X11849080Y-12749081D02*
G75*
G02*
X12590919Y-12749081I370920J0D01*
G01*
X16600000Y-6700000D02*
X12801498Y-6700576D01*
X7803038Y-13655000D02*
X11656458Y-13662672D01*
X8612500Y-8012500D02*
G75*
G02*
X7870661Y-8012500I-370920J0D01*
G01*
X7870661Y-8012500D02*
G75*
G02*
X8612500Y-8012500I370920J0D01*
G01*
X11656458Y-13662672D02*
G75*
G02*
X12796157Y-13647375I571332J-102778D01*
G01*
D11*
X13399750Y-7035500D02*
G75*
G02*
X13099750Y-7035500I-150000J0D01*
G01*
X13099750Y-7035500D02*
G75*
G02*
X13399750Y-7035500I150000J0D01*
G01*
X15499750Y-7035500D02*
G75*
G02*
X15199750Y-7035500I-150000J0D01*
G01*
X15199750Y-7035500D02*
G75*
G02*
X15499750Y-7035500I150000J0D01*
G01*
D12*
D10*
X14933500Y-13134500D02*
X14998500Y-13199500D01*
X14998500Y-13134500D02*
X14933500Y-13199500D01*
X15511500Y-13134500D02*
X15576500Y-13199500D01*
X15576500Y-13134500D02*
X15511500Y-13199500D01*
X8775000Y-9102500D02*
G75*
G02*
X8685000Y-9102500I-45000J0D01*
G01*
X8685000Y-9102500D02*
G75*
G02*
X8775000Y-9102500I45000J0D01*
G01*
X8775000Y-9902500D02*
G75*
G02*
X8685000Y-9902500I-45000J0D01*
G01*
X8685000Y-9902500D02*
G75*
G02*
X8775000Y-9902500I45000J0D01*
G01*
D12*
X8055777Y-14316484D02*
X8055777Y-14116484D01*
X8055777Y-14116484D02*
X8103396Y-14116484D01*
X8103396Y-14116484D02*
X8131967Y-14126008D01*
X8131967Y-14126008D02*
X8151015Y-14145055D01*
X8151015Y-14145055D02*
X8160539Y-14164103D01*
X8160539Y-14164103D02*
X8170062Y-14202198D01*
X8170062Y-14202198D02*
X8170062Y-14230769D01*
X8170062Y-14230769D02*
X8160539Y-14268865D01*
X8160539Y-14268865D02*
X8151015Y-14287912D01*
X8151015Y-14287912D02*
X8131967Y-14306960D01*
X8131967Y-14306960D02*
X8103396Y-14316484D01*
X8103396Y-14316484D02*
X8055777Y-14316484D01*
X8255777Y-14316484D02*
X8255777Y-14183150D01*
X8255777Y-14221246D02*
X8265301Y-14202198D01*
X8265301Y-14202198D02*
X8274824Y-14192674D01*
X8274824Y-14192674D02*
X8293872Y-14183150D01*
X8293872Y-14183150D02*
X8312920Y-14183150D01*
X8379586Y-14316484D02*
X8379586Y-14183150D01*
X8379586Y-14116484D02*
X8370062Y-14126008D01*
X8370062Y-14126008D02*
X8379586Y-14135531D01*
X8379586Y-14135531D02*
X8389110Y-14126008D01*
X8389110Y-14126008D02*
X8379586Y-14116484D01*
X8379586Y-14116484D02*
X8379586Y-14135531D01*
X8503396Y-14316484D02*
X8484348Y-14306960D01*
X8484348Y-14306960D02*
X8474824Y-14287912D01*
X8474824Y-14287912D02*
X8474824Y-14116484D01*
X8608158Y-14316484D02*
X8589110Y-14306960D01*
X8589110Y-14306960D02*
X8579586Y-14287912D01*
X8579586Y-14287912D02*
X8579586Y-14116484D01*
X8836729Y-14316484D02*
X8836729Y-14116484D01*
X8836729Y-14116484D02*
X8903396Y-14259341D01*
X8903396Y-14259341D02*
X8970063Y-14116484D01*
X8970063Y-14116484D02*
X8970063Y-14316484D01*
X9151015Y-14316484D02*
X9151015Y-14211722D01*
X9151015Y-14211722D02*
X9141491Y-14192674D01*
X9141491Y-14192674D02*
X9122444Y-14183150D01*
X9122444Y-14183150D02*
X9084348Y-14183150D01*
X9084348Y-14183150D02*
X9065301Y-14192674D01*
X9151015Y-14306960D02*
X9131967Y-14316484D01*
X9131967Y-14316484D02*
X9084348Y-14316484D01*
X9084348Y-14316484D02*
X9065301Y-14306960D01*
X9065301Y-14306960D02*
X9055777Y-14287912D01*
X9055777Y-14287912D02*
X9055777Y-14268865D01*
X9055777Y-14268865D02*
X9065301Y-14249817D01*
X9065301Y-14249817D02*
X9084348Y-14240293D01*
X9084348Y-14240293D02*
X9131967Y-14240293D01*
X9131967Y-14240293D02*
X9151015Y-14230769D01*
X9246253Y-14183150D02*
X9246253Y-14383150D01*
X9246253Y-14192674D02*
X9265301Y-14183150D01*
X9265301Y-14183150D02*
X9303396Y-14183150D01*
X9303396Y-14183150D02*
X9322444Y-14192674D01*
X9322444Y-14192674D02*
X9331967Y-14202198D01*
X9331967Y-14202198D02*
X9341491Y-14221246D01*
X9341491Y-14221246D02*
X9341491Y-14278388D01*
X9341491Y-14278388D02*
X9331967Y-14297436D01*
X9331967Y-14297436D02*
X9322444Y-14306960D01*
X9322444Y-14306960D02*
X9303396Y-14316484D01*
X9303396Y-14316484D02*
X9265301Y-14316484D01*
X9265301Y-14316484D02*
X9246253Y-14306960D01*
X9427205Y-14297436D02*
X9436729Y-14306960D01*
X9436729Y-14306960D02*
X9427205Y-14316484D01*
X9427205Y-14316484D02*
X9417682Y-14306960D01*
X9417682Y-14306960D02*
X9427205Y-14297436D01*
X9427205Y-14297436D02*
X9427205Y-14316484D01*
X9427205Y-14192674D02*
X9436729Y-14202198D01*
X9436729Y-14202198D02*
X9427205Y-14211722D01*
X9427205Y-14211722D02*
X9417682Y-14202198D01*
X9417682Y-14202198D02*
X9427205Y-14192674D01*
X9427205Y-14192674D02*
X9427205Y-14211722D01*
D10*
X7730000Y-14612500D02*
X7795000Y-14677500D01*
X7795000Y-14612500D02*
X7730000Y-14677500D01*
D12*
X8093872Y-14536484D02*
X8112920Y-14536484D01*
X8112920Y-14536484D02*
X8131967Y-14546008D01*
X8131967Y-14546008D02*
X8141491Y-14555531D01*
X8141491Y-14555531D02*
X8151015Y-14574579D01*
X8151015Y-14574579D02*
X8160539Y-14612674D01*
X8160539Y-14612674D02*
X8160539Y-14660293D01*
X8160539Y-14660293D02*
X8151015Y-14698388D01*
X8151015Y-14698388D02*
X8141491Y-14717436D01*
X8141491Y-14717436D02*
X8131967Y-14726960D01*
X8131967Y-14726960D02*
X8112920Y-14736484D01*
X8112920Y-14736484D02*
X8093872Y-14736484D01*
X8093872Y-14736484D02*
X8074824Y-14726960D01*
X8074824Y-14726960D02*
X8065301Y-14717436D01*
X8065301Y-14717436D02*
X8055777Y-14698388D01*
X8055777Y-14698388D02*
X8046253Y-14660293D01*
X8046253Y-14660293D02*
X8046253Y-14612674D01*
X8046253Y-14612674D02*
X8055777Y-14574579D01*
X8055777Y-14574579D02*
X8065301Y-14555531D01*
X8065301Y-14555531D02*
X8074824Y-14546008D01*
X8074824Y-14546008D02*
X8093872Y-14536484D01*
X8246253Y-14717436D02*
X8255777Y-14726960D01*
X8255777Y-14726960D02*
X8246253Y-14736484D01*
X8246253Y-14736484D02*
X8236729Y-14726960D01*
X8236729Y-14726960D02*
X8246253Y-14717436D01*
X8246253Y-14717436D02*
X8246253Y-14736484D01*
X8427205Y-14536484D02*
X8389110Y-14536484D01*
X8389110Y-14536484D02*
X8370062Y-14546008D01*
X8370062Y-14546008D02*
X8360539Y-14555531D01*
X8360539Y-14555531D02*
X8341491Y-14584103D01*
X8341491Y-14584103D02*
X8331967Y-14622198D01*
X8331967Y-14622198D02*
X8331967Y-14698388D01*
X8331967Y-14698388D02*
X8341491Y-14717436D01*
X8341491Y-14717436D02*
X8351015Y-14726960D01*
X8351015Y-14726960D02*
X8370062Y-14736484D01*
X8370062Y-14736484D02*
X8408158Y-14736484D01*
X8408158Y-14736484D02*
X8427205Y-14726960D01*
X8427205Y-14726960D02*
X8436729Y-14717436D01*
X8436729Y-14717436D02*
X8446253Y-14698388D01*
X8446253Y-14698388D02*
X8446253Y-14650769D01*
X8446253Y-14650769D02*
X8436729Y-14631722D01*
X8436729Y-14631722D02*
X8427205Y-14622198D01*
X8427205Y-14622198D02*
X8408158Y-14612674D01*
X8408158Y-14612674D02*
X8370062Y-14612674D01*
X8370062Y-14612674D02*
X8351015Y-14622198D01*
X8351015Y-14622198D02*
X8341491Y-14631722D01*
X8341491Y-14631722D02*
X8331967Y-14650769D01*
X8627205Y-14536484D02*
X8531967Y-14536484D01*
X8531967Y-14536484D02*
X8522444Y-14631722D01*
X8522444Y-14631722D02*
X8531967Y-14622198D01*
X8531967Y-14622198D02*
X8551015Y-14612674D01*
X8551015Y-14612674D02*
X8598634Y-14612674D01*
X8598634Y-14612674D02*
X8617682Y-14622198D01*
X8617682Y-14622198D02*
X8627205Y-14631722D01*
X8627205Y-14631722D02*
X8636729Y-14650769D01*
X8636729Y-14650769D02*
X8636729Y-14698388D01*
X8636729Y-14698388D02*
X8627205Y-14717436D01*
X8627205Y-14717436D02*
X8617682Y-14726960D01*
X8617682Y-14726960D02*
X8598634Y-14736484D01*
X8598634Y-14736484D02*
X8551015Y-14736484D01*
X8551015Y-14736484D02*
X8531967Y-14726960D01*
X8531967Y-14726960D02*
X8522444Y-14717436D01*
X8760539Y-14536484D02*
X8779586Y-14536484D01*
X8779586Y-14536484D02*
X8798634Y-14546008D01*
X8798634Y-14546008D02*
X8808158Y-14555531D01*
X8808158Y-14555531D02*
X8817682Y-14574579D01*
X8817682Y-14574579D02*
X8827205Y-14612674D01*
X8827205Y-14612674D02*
X8827205Y-14660293D01*
X8827205Y-14660293D02*
X8817682Y-14698388D01*
X8817682Y-14698388D02*
X8808158Y-14717436D01*
X8808158Y-14717436D02*
X8798634Y-14726960D01*
X8798634Y-14726960D02*
X8779586Y-14736484D01*
X8779586Y-14736484D02*
X8760539Y-14736484D01*
X8760539Y-14736484D02*
X8741491Y-14726960D01*
X8741491Y-14726960D02*
X8731967Y-14717436D01*
X8731967Y-14717436D02*
X8722444Y-14698388D01*
X8722444Y-14698388D02*
X8712920Y-14660293D01*
X8712920Y-14660293D02*
X8712920Y-14612674D01*
X8712920Y-14612674D02*
X8722444Y-14574579D01*
X8722444Y-14574579D02*
X8731967Y-14555531D01*
X8731967Y-14555531D02*
X8741491Y-14546008D01*
X8741491Y-14546008D02*
X8760539Y-14536484D01*
X8912920Y-14736484D02*
X8912920Y-14603150D01*
X8912920Y-14622198D02*
X8922444Y-14612674D01*
X8922444Y-14612674D02*
X8941491Y-14603150D01*
X8941491Y-14603150D02*
X8970063Y-14603150D01*
X8970063Y-14603150D02*
X8989110Y-14612674D01*
X8989110Y-14612674D02*
X8998634Y-14631722D01*
X8998634Y-14631722D02*
X8998634Y-14736484D01*
X8998634Y-14631722D02*
X9008158Y-14612674D01*
X9008158Y-14612674D02*
X9027205Y-14603150D01*
X9027205Y-14603150D02*
X9055777Y-14603150D01*
X9055777Y-14603150D02*
X9074825Y-14612674D01*
X9074825Y-14612674D02*
X9084348Y-14631722D01*
X9084348Y-14631722D02*
X9084348Y-14736484D01*
X9179586Y-14736484D02*
X9179586Y-14603150D01*
X9179586Y-14622198D02*
X9189110Y-14612674D01*
X9189110Y-14612674D02*
X9208158Y-14603150D01*
X9208158Y-14603150D02*
X9236729Y-14603150D01*
X9236729Y-14603150D02*
X9255777Y-14612674D01*
X9255777Y-14612674D02*
X9265301Y-14631722D01*
X9265301Y-14631722D02*
X9265301Y-14736484D01*
X9265301Y-14631722D02*
X9274825Y-14612674D01*
X9274825Y-14612674D02*
X9293872Y-14603150D01*
X9293872Y-14603150D02*
X9322444Y-14603150D01*
X9322444Y-14603150D02*
X9341491Y-14612674D01*
X9341491Y-14612674D02*
X9351015Y-14631722D01*
X9351015Y-14631722D02*
X9351015Y-14736484D01*
X9741491Y-14526960D02*
X9570063Y-14784103D01*
X9998634Y-14536484D02*
X10017682Y-14536484D01*
X10017682Y-14536484D02*
X10036729Y-14546008D01*
X10036729Y-14546008D02*
X10046253Y-14555531D01*
X10046253Y-14555531D02*
X10055777Y-14574579D01*
X10055777Y-14574579D02*
X10065301Y-14612674D01*
X10065301Y-14612674D02*
X10065301Y-14660293D01*
X10065301Y-14660293D02*
X10055777Y-14698388D01*
X10055777Y-14698388D02*
X10046253Y-14717436D01*
X10046253Y-14717436D02*
X10036729Y-14726960D01*
X10036729Y-14726960D02*
X10017682Y-14736484D01*
X10017682Y-14736484D02*
X9998634Y-14736484D01*
X9998634Y-14736484D02*
X9979587Y-14726960D01*
X9979587Y-14726960D02*
X9970063Y-14717436D01*
X9970063Y-14717436D02*
X9960539Y-14698388D01*
X9960539Y-14698388D02*
X9951015Y-14660293D01*
X9951015Y-14660293D02*
X9951015Y-14612674D01*
X9951015Y-14612674D02*
X9960539Y-14574579D01*
X9960539Y-14574579D02*
X9970063Y-14555531D01*
X9970063Y-14555531D02*
X9979587Y-14546008D01*
X9979587Y-14546008D02*
X9998634Y-14536484D01*
X10151015Y-14717436D02*
X10160539Y-14726960D01*
X10160539Y-14726960D02*
X10151015Y-14736484D01*
X10151015Y-14736484D02*
X10141491Y-14726960D01*
X10141491Y-14726960D02*
X10151015Y-14717436D01*
X10151015Y-14717436D02*
X10151015Y-14736484D01*
X10284348Y-14536484D02*
X10303396Y-14536484D01*
X10303396Y-14536484D02*
X10322444Y-14546008D01*
X10322444Y-14546008D02*
X10331968Y-14555531D01*
X10331968Y-14555531D02*
X10341491Y-14574579D01*
X10341491Y-14574579D02*
X10351015Y-14612674D01*
X10351015Y-14612674D02*
X10351015Y-14660293D01*
X10351015Y-14660293D02*
X10341491Y-14698388D01*
X10341491Y-14698388D02*
X10331968Y-14717436D01*
X10331968Y-14717436D02*
X10322444Y-14726960D01*
X10322444Y-14726960D02*
X10303396Y-14736484D01*
X10303396Y-14736484D02*
X10284348Y-14736484D01*
X10284348Y-14736484D02*
X10265301Y-14726960D01*
X10265301Y-14726960D02*
X10255777Y-14717436D01*
X10255777Y-14717436D02*
X10246253Y-14698388D01*
X10246253Y-14698388D02*
X10236729Y-14660293D01*
X10236729Y-14660293D02*
X10236729Y-14612674D01*
X10236729Y-14612674D02*
X10246253Y-14574579D01*
X10246253Y-14574579D02*
X10255777Y-14555531D01*
X10255777Y-14555531D02*
X10265301Y-14546008D01*
X10265301Y-14546008D02*
X10284348Y-14536484D01*
X10427206Y-14555531D02*
X10436729Y-14546008D01*
X10436729Y-14546008D02*
X10455777Y-14536484D01*
X10455777Y-14536484D02*
X10503396Y-14536484D01*
X10503396Y-14536484D02*
X10522444Y-14546008D01*
X10522444Y-14546008D02*
X10531968Y-14555531D01*
X10531968Y-14555531D02*
X10541491Y-14574579D01*
X10541491Y-14574579D02*
X10541491Y-14593627D01*
X10541491Y-14593627D02*
X10531968Y-14622198D01*
X10531968Y-14622198D02*
X10417682Y-14736484D01*
X10417682Y-14736484D02*
X10541491Y-14736484D01*
X10722444Y-14536484D02*
X10627206Y-14536484D01*
X10627206Y-14536484D02*
X10617682Y-14631722D01*
X10617682Y-14631722D02*
X10627206Y-14622198D01*
X10627206Y-14622198D02*
X10646253Y-14612674D01*
X10646253Y-14612674D02*
X10693872Y-14612674D01*
X10693872Y-14612674D02*
X10712920Y-14622198D01*
X10712920Y-14622198D02*
X10722444Y-14631722D01*
X10722444Y-14631722D02*
X10731968Y-14650769D01*
X10731968Y-14650769D02*
X10731968Y-14698388D01*
X10731968Y-14698388D02*
X10722444Y-14717436D01*
X10722444Y-14717436D02*
X10712920Y-14726960D01*
X10712920Y-14726960D02*
X10693872Y-14736484D01*
X10693872Y-14736484D02*
X10646253Y-14736484D01*
X10646253Y-14736484D02*
X10627206Y-14726960D01*
X10627206Y-14726960D02*
X10617682Y-14717436D01*
X10903396Y-14536484D02*
X10865301Y-14536484D01*
X10865301Y-14536484D02*
X10846253Y-14546008D01*
X10846253Y-14546008D02*
X10836729Y-14555531D01*
X10836729Y-14555531D02*
X10817682Y-14584103D01*
X10817682Y-14584103D02*
X10808158Y-14622198D01*
X10808158Y-14622198D02*
X10808158Y-14698388D01*
X10808158Y-14698388D02*
X10817682Y-14717436D01*
X10817682Y-14717436D02*
X10827206Y-14726960D01*
X10827206Y-14726960D02*
X10846253Y-14736484D01*
X10846253Y-14736484D02*
X10884349Y-14736484D01*
X10884349Y-14736484D02*
X10903396Y-14726960D01*
X10903396Y-14726960D02*
X10912920Y-14717436D01*
X10912920Y-14717436D02*
X10922444Y-14698388D01*
X10922444Y-14698388D02*
X10922444Y-14650769D01*
X10922444Y-14650769D02*
X10912920Y-14631722D01*
X10912920Y-14631722D02*
X10903396Y-14622198D01*
X10903396Y-14622198D02*
X10884349Y-14612674D01*
X10884349Y-14612674D02*
X10846253Y-14612674D01*
X10846253Y-14612674D02*
X10827206Y-14622198D01*
X10827206Y-14622198D02*
X10817682Y-14631722D01*
X10817682Y-14631722D02*
X10808158Y-14650769D01*
X10998634Y-14536484D02*
X10998634Y-14574579D01*
X11074825Y-14536484D02*
X11074825Y-14574579D01*
X11370063Y-14812674D02*
X11360539Y-14803150D01*
X11360539Y-14803150D02*
X11341491Y-14774579D01*
X11341491Y-14774579D02*
X11331968Y-14755531D01*
X11331968Y-14755531D02*
X11322444Y-14726960D01*
X11322444Y-14726960D02*
X11312920Y-14679341D01*
X11312920Y-14679341D02*
X11312920Y-14641246D01*
X11312920Y-14641246D02*
X11322444Y-14593627D01*
X11322444Y-14593627D02*
X11331968Y-14565055D01*
X11331968Y-14565055D02*
X11341491Y-14546008D01*
X11341491Y-14546008D02*
X11360539Y-14517436D01*
X11360539Y-14517436D02*
X11370063Y-14507912D01*
X11436729Y-14555531D02*
X11446253Y-14546008D01*
X11446253Y-14546008D02*
X11465301Y-14536484D01*
X11465301Y-14536484D02*
X11512920Y-14536484D01*
X11512920Y-14536484D02*
X11531968Y-14546008D01*
X11531968Y-14546008D02*
X11541491Y-14555531D01*
X11541491Y-14555531D02*
X11551015Y-14574579D01*
X11551015Y-14574579D02*
X11551015Y-14593627D01*
X11551015Y-14593627D02*
X11541491Y-14622198D01*
X11541491Y-14622198D02*
X11427206Y-14736484D01*
X11427206Y-14736484D02*
X11551015Y-14736484D01*
X11789110Y-14736484D02*
X11789110Y-14536484D01*
X11874825Y-14736484D02*
X11874825Y-14631722D01*
X11874825Y-14631722D02*
X11865301Y-14612674D01*
X11865301Y-14612674D02*
X11846253Y-14603150D01*
X11846253Y-14603150D02*
X11817682Y-14603150D01*
X11817682Y-14603150D02*
X11798634Y-14612674D01*
X11798634Y-14612674D02*
X11789110Y-14622198D01*
X11998634Y-14736484D02*
X11979587Y-14726960D01*
X11979587Y-14726960D02*
X11970063Y-14717436D01*
X11970063Y-14717436D02*
X11960539Y-14698388D01*
X11960539Y-14698388D02*
X11960539Y-14641246D01*
X11960539Y-14641246D02*
X11970063Y-14622198D01*
X11970063Y-14622198D02*
X11979587Y-14612674D01*
X11979587Y-14612674D02*
X11998634Y-14603150D01*
X11998634Y-14603150D02*
X12027206Y-14603150D01*
X12027206Y-14603150D02*
X12046253Y-14612674D01*
X12046253Y-14612674D02*
X12055777Y-14622198D01*
X12055777Y-14622198D02*
X12065301Y-14641246D01*
X12065301Y-14641246D02*
X12065301Y-14698388D01*
X12065301Y-14698388D02*
X12055777Y-14717436D01*
X12055777Y-14717436D02*
X12046253Y-14726960D01*
X12046253Y-14726960D02*
X12027206Y-14736484D01*
X12027206Y-14736484D02*
X11998634Y-14736484D01*
X12179587Y-14736484D02*
X12160539Y-14726960D01*
X12160539Y-14726960D02*
X12151015Y-14707912D01*
X12151015Y-14707912D02*
X12151015Y-14536484D01*
X12331968Y-14726960D02*
X12312920Y-14736484D01*
X12312920Y-14736484D02*
X12274825Y-14736484D01*
X12274825Y-14736484D02*
X12255777Y-14726960D01*
X12255777Y-14726960D02*
X12246253Y-14707912D01*
X12246253Y-14707912D02*
X12246253Y-14631722D01*
X12246253Y-14631722D02*
X12255777Y-14612674D01*
X12255777Y-14612674D02*
X12274825Y-14603150D01*
X12274825Y-14603150D02*
X12312920Y-14603150D01*
X12312920Y-14603150D02*
X12331968Y-14612674D01*
X12331968Y-14612674D02*
X12341491Y-14631722D01*
X12341491Y-14631722D02*
X12341491Y-14650769D01*
X12341491Y-14650769D02*
X12246253Y-14669817D01*
X12417682Y-14726960D02*
X12436730Y-14736484D01*
X12436730Y-14736484D02*
X12474825Y-14736484D01*
X12474825Y-14736484D02*
X12493872Y-14726960D01*
X12493872Y-14726960D02*
X12503396Y-14707912D01*
X12503396Y-14707912D02*
X12503396Y-14698388D01*
X12503396Y-14698388D02*
X12493872Y-14679341D01*
X12493872Y-14679341D02*
X12474825Y-14669817D01*
X12474825Y-14669817D02*
X12446253Y-14669817D01*
X12446253Y-14669817D02*
X12427206Y-14660293D01*
X12427206Y-14660293D02*
X12417682Y-14641246D01*
X12417682Y-14641246D02*
X12417682Y-14631722D01*
X12417682Y-14631722D02*
X12427206Y-14612674D01*
X12427206Y-14612674D02*
X12446253Y-14603150D01*
X12446253Y-14603150D02*
X12474825Y-14603150D01*
X12474825Y-14603150D02*
X12493872Y-14612674D01*
X12570063Y-14812674D02*
X12579587Y-14803150D01*
X12579587Y-14803150D02*
X12598634Y-14774579D01*
X12598634Y-14774579D02*
X12608158Y-14755531D01*
X12608158Y-14755531D02*
X12617682Y-14726960D01*
X12617682Y-14726960D02*
X12627206Y-14679341D01*
X12627206Y-14679341D02*
X12627206Y-14641246D01*
X12627206Y-14641246D02*
X12617682Y-14593627D01*
X12617682Y-14593627D02*
X12608158Y-14565055D01*
X12608158Y-14565055D02*
X12598634Y-14546008D01*
X12598634Y-14546008D02*
X12579587Y-14517436D01*
X12579587Y-14517436D02*
X12570063Y-14507912D01*
X12931968Y-14812674D02*
X12922444Y-14803150D01*
X12922444Y-14803150D02*
X12903396Y-14774579D01*
X12903396Y-14774579D02*
X12893872Y-14755531D01*
X12893872Y-14755531D02*
X12884349Y-14726960D01*
X12884349Y-14726960D02*
X12874825Y-14679341D01*
X12874825Y-14679341D02*
X12874825Y-14641246D01*
X12874825Y-14641246D02*
X12884349Y-14593627D01*
X12884349Y-14593627D02*
X12893872Y-14565055D01*
X12893872Y-14565055D02*
X12903396Y-14546008D01*
X12903396Y-14546008D02*
X12922444Y-14517436D01*
X12922444Y-14517436D02*
X12931968Y-14507912D01*
X13008158Y-14603150D02*
X13008158Y-14736484D01*
X13008158Y-14622198D02*
X13017682Y-14612674D01*
X13017682Y-14612674D02*
X13036730Y-14603150D01*
X13036730Y-14603150D02*
X13065301Y-14603150D01*
X13065301Y-14603150D02*
X13084349Y-14612674D01*
X13084349Y-14612674D02*
X13093872Y-14631722D01*
X13093872Y-14631722D02*
X13093872Y-14736484D01*
X13217682Y-14736484D02*
X13198634Y-14726960D01*
X13198634Y-14726960D02*
X13189111Y-14717436D01*
X13189111Y-14717436D02*
X13179587Y-14698388D01*
X13179587Y-14698388D02*
X13179587Y-14641246D01*
X13179587Y-14641246D02*
X13189111Y-14622198D01*
X13189111Y-14622198D02*
X13198634Y-14612674D01*
X13198634Y-14612674D02*
X13217682Y-14603150D01*
X13217682Y-14603150D02*
X13246253Y-14603150D01*
X13246253Y-14603150D02*
X13265301Y-14612674D01*
X13265301Y-14612674D02*
X13274825Y-14622198D01*
X13274825Y-14622198D02*
X13284349Y-14641246D01*
X13284349Y-14641246D02*
X13284349Y-14698388D01*
X13284349Y-14698388D02*
X13274825Y-14717436D01*
X13274825Y-14717436D02*
X13265301Y-14726960D01*
X13265301Y-14726960D02*
X13246253Y-14736484D01*
X13246253Y-14736484D02*
X13217682Y-14736484D01*
X13341492Y-14603150D02*
X13417682Y-14603150D01*
X13370063Y-14536484D02*
X13370063Y-14707912D01*
X13370063Y-14707912D02*
X13379587Y-14726960D01*
X13379587Y-14726960D02*
X13398634Y-14736484D01*
X13398634Y-14736484D02*
X13417682Y-14736484D01*
X13636730Y-14603150D02*
X13636730Y-14803150D01*
X13636730Y-14612674D02*
X13655777Y-14603150D01*
X13655777Y-14603150D02*
X13693873Y-14603150D01*
X13693873Y-14603150D02*
X13712920Y-14612674D01*
X13712920Y-14612674D02*
X13722444Y-14622198D01*
X13722444Y-14622198D02*
X13731968Y-14641246D01*
X13731968Y-14641246D02*
X13731968Y-14698388D01*
X13731968Y-14698388D02*
X13722444Y-14717436D01*
X13722444Y-14717436D02*
X13712920Y-14726960D01*
X13712920Y-14726960D02*
X13693873Y-14736484D01*
X13693873Y-14736484D02*
X13655777Y-14736484D01*
X13655777Y-14736484D02*
X13636730Y-14726960D01*
X13846253Y-14736484D02*
X13827206Y-14726960D01*
X13827206Y-14726960D02*
X13817682Y-14707912D01*
X13817682Y-14707912D02*
X13817682Y-14536484D01*
X14008158Y-14736484D02*
X14008158Y-14631722D01*
X14008158Y-14631722D02*
X13998634Y-14612674D01*
X13998634Y-14612674D02*
X13979587Y-14603150D01*
X13979587Y-14603150D02*
X13941492Y-14603150D01*
X13941492Y-14603150D02*
X13922444Y-14612674D01*
X14008158Y-14726960D02*
X13989111Y-14736484D01*
X13989111Y-14736484D02*
X13941492Y-14736484D01*
X13941492Y-14736484D02*
X13922444Y-14726960D01*
X13922444Y-14726960D02*
X13912920Y-14707912D01*
X13912920Y-14707912D02*
X13912920Y-14688865D01*
X13912920Y-14688865D02*
X13922444Y-14669817D01*
X13922444Y-14669817D02*
X13941492Y-14660293D01*
X13941492Y-14660293D02*
X13989111Y-14660293D01*
X13989111Y-14660293D02*
X14008158Y-14650769D01*
X14074825Y-14603150D02*
X14151015Y-14603150D01*
X14103396Y-14536484D02*
X14103396Y-14707912D01*
X14103396Y-14707912D02*
X14112920Y-14726960D01*
X14112920Y-14726960D02*
X14131968Y-14736484D01*
X14131968Y-14736484D02*
X14151015Y-14736484D01*
X14293873Y-14726960D02*
X14274825Y-14736484D01*
X14274825Y-14736484D02*
X14236730Y-14736484D01*
X14236730Y-14736484D02*
X14217682Y-14726960D01*
X14217682Y-14726960D02*
X14208158Y-14707912D01*
X14208158Y-14707912D02*
X14208158Y-14631722D01*
X14208158Y-14631722D02*
X14217682Y-14612674D01*
X14217682Y-14612674D02*
X14236730Y-14603150D01*
X14236730Y-14603150D02*
X14274825Y-14603150D01*
X14274825Y-14603150D02*
X14293873Y-14612674D01*
X14293873Y-14612674D02*
X14303396Y-14631722D01*
X14303396Y-14631722D02*
X14303396Y-14650769D01*
X14303396Y-14650769D02*
X14208158Y-14669817D01*
X14474825Y-14736484D02*
X14474825Y-14536484D01*
X14474825Y-14726960D02*
X14455777Y-14736484D01*
X14455777Y-14736484D02*
X14417682Y-14736484D01*
X14417682Y-14736484D02*
X14398634Y-14726960D01*
X14398634Y-14726960D02*
X14389111Y-14717436D01*
X14389111Y-14717436D02*
X14379587Y-14698388D01*
X14379587Y-14698388D02*
X14379587Y-14641246D01*
X14379587Y-14641246D02*
X14389111Y-14622198D01*
X14389111Y-14622198D02*
X14398634Y-14612674D01*
X14398634Y-14612674D02*
X14417682Y-14603150D01*
X14417682Y-14603150D02*
X14455777Y-14603150D01*
X14455777Y-14603150D02*
X14474825Y-14612674D01*
X14551015Y-14812674D02*
X14560539Y-14803150D01*
X14560539Y-14803150D02*
X14579587Y-14774579D01*
X14579587Y-14774579D02*
X14589111Y-14755531D01*
X14589111Y-14755531D02*
X14598634Y-14726960D01*
X14598634Y-14726960D02*
X14608158Y-14679341D01*
X14608158Y-14679341D02*
X14608158Y-14641246D01*
X14608158Y-14641246D02*
X14598634Y-14593627D01*
X14598634Y-14593627D02*
X14589111Y-14565055D01*
X14589111Y-14565055D02*
X14579587Y-14546008D01*
X14579587Y-14546008D02*
X14560539Y-14517436D01*
X14560539Y-14517436D02*
X14551015Y-14507912D01*
D10*
X7795000Y-14909000D02*
G75*
G02*
X7705000Y-14909000I-45000J0D01*
G01*
X7705000Y-14909000D02*
G75*
G02*
X7795000Y-14909000I45000J0D01*
G01*
D12*
X8093872Y-14800484D02*
X8112920Y-14800484D01*
X8112920Y-14800484D02*
X8131967Y-14810008D01*
X8131967Y-14810008D02*
X8141491Y-14819531D01*
X8141491Y-14819531D02*
X8151015Y-14838579D01*
X8151015Y-14838579D02*
X8160539Y-14876674D01*
X8160539Y-14876674D02*
X8160539Y-14924293D01*
X8160539Y-14924293D02*
X8151015Y-14962388D01*
X8151015Y-14962388D02*
X8141491Y-14981436D01*
X8141491Y-14981436D02*
X8131967Y-14990960D01*
X8131967Y-14990960D02*
X8112920Y-15000484D01*
X8112920Y-15000484D02*
X8093872Y-15000484D01*
X8093872Y-15000484D02*
X8074824Y-14990960D01*
X8074824Y-14990960D02*
X8065301Y-14981436D01*
X8065301Y-14981436D02*
X8055777Y-14962388D01*
X8055777Y-14962388D02*
X8046253Y-14924293D01*
X8046253Y-14924293D02*
X8046253Y-14876674D01*
X8046253Y-14876674D02*
X8055777Y-14838579D01*
X8055777Y-14838579D02*
X8065301Y-14819531D01*
X8065301Y-14819531D02*
X8074824Y-14810008D01*
X8074824Y-14810008D02*
X8093872Y-14800484D01*
X8246253Y-14981436D02*
X8255777Y-14990960D01*
X8255777Y-14990960D02*
X8246253Y-15000484D01*
X8246253Y-15000484D02*
X8236729Y-14990960D01*
X8236729Y-14990960D02*
X8246253Y-14981436D01*
X8246253Y-14981436D02*
X8246253Y-15000484D01*
X8351015Y-15000484D02*
X8389110Y-15000484D01*
X8389110Y-15000484D02*
X8408158Y-14990960D01*
X8408158Y-14990960D02*
X8417682Y-14981436D01*
X8417682Y-14981436D02*
X8436729Y-14952865D01*
X8436729Y-14952865D02*
X8446253Y-14914769D01*
X8446253Y-14914769D02*
X8446253Y-14838579D01*
X8446253Y-14838579D02*
X8436729Y-14819531D01*
X8436729Y-14819531D02*
X8427205Y-14810008D01*
X8427205Y-14810008D02*
X8408158Y-14800484D01*
X8408158Y-14800484D02*
X8370062Y-14800484D01*
X8370062Y-14800484D02*
X8351015Y-14810008D01*
X8351015Y-14810008D02*
X8341491Y-14819531D01*
X8341491Y-14819531D02*
X8331967Y-14838579D01*
X8331967Y-14838579D02*
X8331967Y-14886198D01*
X8331967Y-14886198D02*
X8341491Y-14905246D01*
X8341491Y-14905246D02*
X8351015Y-14914769D01*
X8351015Y-14914769D02*
X8370062Y-14924293D01*
X8370062Y-14924293D02*
X8408158Y-14924293D01*
X8408158Y-14924293D02*
X8427205Y-14914769D01*
X8427205Y-14914769D02*
X8436729Y-14905246D01*
X8436729Y-14905246D02*
X8446253Y-14886198D01*
X8570063Y-14800484D02*
X8589110Y-14800484D01*
X8589110Y-14800484D02*
X8608158Y-14810008D01*
X8608158Y-14810008D02*
X8617682Y-14819531D01*
X8617682Y-14819531D02*
X8627205Y-14838579D01*
X8627205Y-14838579D02*
X8636729Y-14876674D01*
X8636729Y-14876674D02*
X8636729Y-14924293D01*
X8636729Y-14924293D02*
X8627205Y-14962388D01*
X8627205Y-14962388D02*
X8617682Y-14981436D01*
X8617682Y-14981436D02*
X8608158Y-14990960D01*
X8608158Y-14990960D02*
X8589110Y-15000484D01*
X8589110Y-15000484D02*
X8570063Y-15000484D01*
X8570063Y-15000484D02*
X8551015Y-14990960D01*
X8551015Y-14990960D02*
X8541491Y-14981436D01*
X8541491Y-14981436D02*
X8531967Y-14962388D01*
X8531967Y-14962388D02*
X8522444Y-14924293D01*
X8522444Y-14924293D02*
X8522444Y-14876674D01*
X8522444Y-14876674D02*
X8531967Y-14838579D01*
X8531967Y-14838579D02*
X8541491Y-14819531D01*
X8541491Y-14819531D02*
X8551015Y-14810008D01*
X8551015Y-14810008D02*
X8570063Y-14800484D01*
X8760539Y-14800484D02*
X8779586Y-14800484D01*
X8779586Y-14800484D02*
X8798634Y-14810008D01*
X8798634Y-14810008D02*
X8808158Y-14819531D01*
X8808158Y-14819531D02*
X8817682Y-14838579D01*
X8817682Y-14838579D02*
X8827205Y-14876674D01*
X8827205Y-14876674D02*
X8827205Y-14924293D01*
X8827205Y-14924293D02*
X8817682Y-14962388D01*
X8817682Y-14962388D02*
X8808158Y-14981436D01*
X8808158Y-14981436D02*
X8798634Y-14990960D01*
X8798634Y-14990960D02*
X8779586Y-15000484D01*
X8779586Y-15000484D02*
X8760539Y-15000484D01*
X8760539Y-15000484D02*
X8741491Y-14990960D01*
X8741491Y-14990960D02*
X8731967Y-14981436D01*
X8731967Y-14981436D02*
X8722444Y-14962388D01*
X8722444Y-14962388D02*
X8712920Y-14924293D01*
X8712920Y-14924293D02*
X8712920Y-14876674D01*
X8712920Y-14876674D02*
X8722444Y-14838579D01*
X8722444Y-14838579D02*
X8731967Y-14819531D01*
X8731967Y-14819531D02*
X8741491Y-14810008D01*
X8741491Y-14810008D02*
X8760539Y-14800484D01*
X8912920Y-15000484D02*
X8912920Y-14867150D01*
X8912920Y-14886198D02*
X8922444Y-14876674D01*
X8922444Y-14876674D02*
X8941491Y-14867150D01*
X8941491Y-14867150D02*
X8970063Y-14867150D01*
X8970063Y-14867150D02*
X8989110Y-14876674D01*
X8989110Y-14876674D02*
X8998634Y-14895722D01*
X8998634Y-14895722D02*
X8998634Y-15000484D01*
X8998634Y-14895722D02*
X9008158Y-14876674D01*
X9008158Y-14876674D02*
X9027205Y-14867150D01*
X9027205Y-14867150D02*
X9055777Y-14867150D01*
X9055777Y-14867150D02*
X9074825Y-14876674D01*
X9074825Y-14876674D02*
X9084348Y-14895722D01*
X9084348Y-14895722D02*
X9084348Y-15000484D01*
X9179586Y-15000484D02*
X9179586Y-14867150D01*
X9179586Y-14886198D02*
X9189110Y-14876674D01*
X9189110Y-14876674D02*
X9208158Y-14867150D01*
X9208158Y-14867150D02*
X9236729Y-14867150D01*
X9236729Y-14867150D02*
X9255777Y-14876674D01*
X9255777Y-14876674D02*
X9265301Y-14895722D01*
X9265301Y-14895722D02*
X9265301Y-15000484D01*
X9265301Y-14895722D02*
X9274825Y-14876674D01*
X9274825Y-14876674D02*
X9293872Y-14867150D01*
X9293872Y-14867150D02*
X9322444Y-14867150D01*
X9322444Y-14867150D02*
X9341491Y-14876674D01*
X9341491Y-14876674D02*
X9351015Y-14895722D01*
X9351015Y-14895722D02*
X9351015Y-15000484D01*
X9741491Y-14790960D02*
X9570063Y-15048103D01*
X9998634Y-14800484D02*
X10017682Y-14800484D01*
X10017682Y-14800484D02*
X10036729Y-14810008D01*
X10036729Y-14810008D02*
X10046253Y-14819531D01*
X10046253Y-14819531D02*
X10055777Y-14838579D01*
X10055777Y-14838579D02*
X10065301Y-14876674D01*
X10065301Y-14876674D02*
X10065301Y-14924293D01*
X10065301Y-14924293D02*
X10055777Y-14962388D01*
X10055777Y-14962388D02*
X10046253Y-14981436D01*
X10046253Y-14981436D02*
X10036729Y-14990960D01*
X10036729Y-14990960D02*
X10017682Y-15000484D01*
X10017682Y-15000484D02*
X9998634Y-15000484D01*
X9998634Y-15000484D02*
X9979587Y-14990960D01*
X9979587Y-14990960D02*
X9970063Y-14981436D01*
X9970063Y-14981436D02*
X9960539Y-14962388D01*
X9960539Y-14962388D02*
X9951015Y-14924293D01*
X9951015Y-14924293D02*
X9951015Y-14876674D01*
X9951015Y-14876674D02*
X9960539Y-14838579D01*
X9960539Y-14838579D02*
X9970063Y-14819531D01*
X9970063Y-14819531D02*
X9979587Y-14810008D01*
X9979587Y-14810008D02*
X9998634Y-14800484D01*
X10151015Y-14981436D02*
X10160539Y-14990960D01*
X10160539Y-14990960D02*
X10151015Y-15000484D01*
X10151015Y-15000484D02*
X10141491Y-14990960D01*
X10141491Y-14990960D02*
X10151015Y-14981436D01*
X10151015Y-14981436D02*
X10151015Y-15000484D01*
X10284348Y-14800484D02*
X10303396Y-14800484D01*
X10303396Y-14800484D02*
X10322444Y-14810008D01*
X10322444Y-14810008D02*
X10331968Y-14819531D01*
X10331968Y-14819531D02*
X10341491Y-14838579D01*
X10341491Y-14838579D02*
X10351015Y-14876674D01*
X10351015Y-14876674D02*
X10351015Y-14924293D01*
X10351015Y-14924293D02*
X10341491Y-14962388D01*
X10341491Y-14962388D02*
X10331968Y-14981436D01*
X10331968Y-14981436D02*
X10322444Y-14990960D01*
X10322444Y-14990960D02*
X10303396Y-15000484D01*
X10303396Y-15000484D02*
X10284348Y-15000484D01*
X10284348Y-15000484D02*
X10265301Y-14990960D01*
X10265301Y-14990960D02*
X10255777Y-14981436D01*
X10255777Y-14981436D02*
X10246253Y-14962388D01*
X10246253Y-14962388D02*
X10236729Y-14924293D01*
X10236729Y-14924293D02*
X10236729Y-14876674D01*
X10236729Y-14876674D02*
X10246253Y-14838579D01*
X10246253Y-14838579D02*
X10255777Y-14819531D01*
X10255777Y-14819531D02*
X10265301Y-14810008D01*
X10265301Y-14810008D02*
X10284348Y-14800484D01*
X10417682Y-14800484D02*
X10541491Y-14800484D01*
X10541491Y-14800484D02*
X10474825Y-14876674D01*
X10474825Y-14876674D02*
X10503396Y-14876674D01*
X10503396Y-14876674D02*
X10522444Y-14886198D01*
X10522444Y-14886198D02*
X10531968Y-14895722D01*
X10531968Y-14895722D02*
X10541491Y-14914769D01*
X10541491Y-14914769D02*
X10541491Y-14962388D01*
X10541491Y-14962388D02*
X10531968Y-14981436D01*
X10531968Y-14981436D02*
X10522444Y-14990960D01*
X10522444Y-14990960D02*
X10503396Y-15000484D01*
X10503396Y-15000484D02*
X10446253Y-15000484D01*
X10446253Y-15000484D02*
X10427206Y-14990960D01*
X10427206Y-14990960D02*
X10417682Y-14981436D01*
X10722444Y-14800484D02*
X10627206Y-14800484D01*
X10627206Y-14800484D02*
X10617682Y-14895722D01*
X10617682Y-14895722D02*
X10627206Y-14886198D01*
X10627206Y-14886198D02*
X10646253Y-14876674D01*
X10646253Y-14876674D02*
X10693872Y-14876674D01*
X10693872Y-14876674D02*
X10712920Y-14886198D01*
X10712920Y-14886198D02*
X10722444Y-14895722D01*
X10722444Y-14895722D02*
X10731968Y-14914769D01*
X10731968Y-14914769D02*
X10731968Y-14962388D01*
X10731968Y-14962388D02*
X10722444Y-14981436D01*
X10722444Y-14981436D02*
X10712920Y-14990960D01*
X10712920Y-14990960D02*
X10693872Y-15000484D01*
X10693872Y-15000484D02*
X10646253Y-15000484D01*
X10646253Y-15000484D02*
X10627206Y-14990960D01*
X10627206Y-14990960D02*
X10617682Y-14981436D01*
X10903396Y-14867150D02*
X10903396Y-15000484D01*
X10855777Y-14790960D02*
X10808158Y-14933817D01*
X10808158Y-14933817D02*
X10931968Y-14933817D01*
X10998634Y-14800484D02*
X10998634Y-14838579D01*
X11074825Y-14800484D02*
X11074825Y-14838579D01*
X11370063Y-15076674D02*
X11360539Y-15067150D01*
X11360539Y-15067150D02*
X11341491Y-15038579D01*
X11341491Y-15038579D02*
X11331968Y-15019531D01*
X11331968Y-15019531D02*
X11322444Y-14990960D01*
X11322444Y-14990960D02*
X11312920Y-14943341D01*
X11312920Y-14943341D02*
X11312920Y-14905246D01*
X11312920Y-14905246D02*
X11322444Y-14857627D01*
X11322444Y-14857627D02*
X11331968Y-14829055D01*
X11331968Y-14829055D02*
X11341491Y-14810008D01*
X11341491Y-14810008D02*
X11360539Y-14781436D01*
X11360539Y-14781436D02*
X11370063Y-14771912D01*
X11436729Y-14819531D02*
X11446253Y-14810008D01*
X11446253Y-14810008D02*
X11465301Y-14800484D01*
X11465301Y-14800484D02*
X11512920Y-14800484D01*
X11512920Y-14800484D02*
X11531968Y-14810008D01*
X11531968Y-14810008D02*
X11541491Y-14819531D01*
X11541491Y-14819531D02*
X11551015Y-14838579D01*
X11551015Y-14838579D02*
X11551015Y-14857627D01*
X11551015Y-14857627D02*
X11541491Y-14886198D01*
X11541491Y-14886198D02*
X11427206Y-15000484D01*
X11427206Y-15000484D02*
X11551015Y-15000484D01*
X11789110Y-15000484D02*
X11789110Y-14800484D01*
X11874825Y-15000484D02*
X11874825Y-14895722D01*
X11874825Y-14895722D02*
X11865301Y-14876674D01*
X11865301Y-14876674D02*
X11846253Y-14867150D01*
X11846253Y-14867150D02*
X11817682Y-14867150D01*
X11817682Y-14867150D02*
X11798634Y-14876674D01*
X11798634Y-14876674D02*
X11789110Y-14886198D01*
X11998634Y-15000484D02*
X11979587Y-14990960D01*
X11979587Y-14990960D02*
X11970063Y-14981436D01*
X11970063Y-14981436D02*
X11960539Y-14962388D01*
X11960539Y-14962388D02*
X11960539Y-14905246D01*
X11960539Y-14905246D02*
X11970063Y-14886198D01*
X11970063Y-14886198D02*
X11979587Y-14876674D01*
X11979587Y-14876674D02*
X11998634Y-14867150D01*
X11998634Y-14867150D02*
X12027206Y-14867150D01*
X12027206Y-14867150D02*
X12046253Y-14876674D01*
X12046253Y-14876674D02*
X12055777Y-14886198D01*
X12055777Y-14886198D02*
X12065301Y-14905246D01*
X12065301Y-14905246D02*
X12065301Y-14962388D01*
X12065301Y-14962388D02*
X12055777Y-14981436D01*
X12055777Y-14981436D02*
X12046253Y-14990960D01*
X12046253Y-14990960D02*
X12027206Y-15000484D01*
X12027206Y-15000484D02*
X11998634Y-15000484D01*
X12179587Y-15000484D02*
X12160539Y-14990960D01*
X12160539Y-14990960D02*
X12151015Y-14971912D01*
X12151015Y-14971912D02*
X12151015Y-14800484D01*
X12331968Y-14990960D02*
X12312920Y-15000484D01*
X12312920Y-15000484D02*
X12274825Y-15000484D01*
X12274825Y-15000484D02*
X12255777Y-14990960D01*
X12255777Y-14990960D02*
X12246253Y-14971912D01*
X12246253Y-14971912D02*
X12246253Y-14895722D01*
X12246253Y-14895722D02*
X12255777Y-14876674D01*
X12255777Y-14876674D02*
X12274825Y-14867150D01*
X12274825Y-14867150D02*
X12312920Y-14867150D01*
X12312920Y-14867150D02*
X12331968Y-14876674D01*
X12331968Y-14876674D02*
X12341491Y-14895722D01*
X12341491Y-14895722D02*
X12341491Y-14914769D01*
X12341491Y-14914769D02*
X12246253Y-14933817D01*
X12417682Y-14990960D02*
X12436730Y-15000484D01*
X12436730Y-15000484D02*
X12474825Y-15000484D01*
X12474825Y-15000484D02*
X12493872Y-14990960D01*
X12493872Y-14990960D02*
X12503396Y-14971912D01*
X12503396Y-14971912D02*
X12503396Y-14962388D01*
X12503396Y-14962388D02*
X12493872Y-14943341D01*
X12493872Y-14943341D02*
X12474825Y-14933817D01*
X12474825Y-14933817D02*
X12446253Y-14933817D01*
X12446253Y-14933817D02*
X12427206Y-14924293D01*
X12427206Y-14924293D02*
X12417682Y-14905246D01*
X12417682Y-14905246D02*
X12417682Y-14895722D01*
X12417682Y-14895722D02*
X12427206Y-14876674D01*
X12427206Y-14876674D02*
X12446253Y-14867150D01*
X12446253Y-14867150D02*
X12474825Y-14867150D01*
X12474825Y-14867150D02*
X12493872Y-14876674D01*
X12570063Y-15076674D02*
X12579587Y-15067150D01*
X12579587Y-15067150D02*
X12598634Y-15038579D01*
X12598634Y-15038579D02*
X12608158Y-15019531D01*
X12608158Y-15019531D02*
X12617682Y-14990960D01*
X12617682Y-14990960D02*
X12627206Y-14943341D01*
X12627206Y-14943341D02*
X12627206Y-14905246D01*
X12627206Y-14905246D02*
X12617682Y-14857627D01*
X12617682Y-14857627D02*
X12608158Y-14829055D01*
X12608158Y-14829055D02*
X12598634Y-14810008D01*
X12598634Y-14810008D02*
X12579587Y-14781436D01*
X12579587Y-14781436D02*
X12570063Y-14771912D01*
X12931968Y-15076674D02*
X12922444Y-15067150D01*
X12922444Y-15067150D02*
X12903396Y-15038579D01*
X12903396Y-15038579D02*
X12893872Y-15019531D01*
X12893872Y-15019531D02*
X12884349Y-14990960D01*
X12884349Y-14990960D02*
X12874825Y-14943341D01*
X12874825Y-14943341D02*
X12874825Y-14905246D01*
X12874825Y-14905246D02*
X12884349Y-14857627D01*
X12884349Y-14857627D02*
X12893872Y-14829055D01*
X12893872Y-14829055D02*
X12903396Y-14810008D01*
X12903396Y-14810008D02*
X12922444Y-14781436D01*
X12922444Y-14781436D02*
X12931968Y-14771912D01*
X13008158Y-14867150D02*
X13008158Y-15000484D01*
X13008158Y-14886198D02*
X13017682Y-14876674D01*
X13017682Y-14876674D02*
X13036730Y-14867150D01*
X13036730Y-14867150D02*
X13065301Y-14867150D01*
X13065301Y-14867150D02*
X13084349Y-14876674D01*
X13084349Y-14876674D02*
X13093872Y-14895722D01*
X13093872Y-14895722D02*
X13093872Y-15000484D01*
X13217682Y-15000484D02*
X13198634Y-14990960D01*
X13198634Y-14990960D02*
X13189111Y-14981436D01*
X13189111Y-14981436D02*
X13179587Y-14962388D01*
X13179587Y-14962388D02*
X13179587Y-14905246D01*
X13179587Y-14905246D02*
X13189111Y-14886198D01*
X13189111Y-14886198D02*
X13198634Y-14876674D01*
X13198634Y-14876674D02*
X13217682Y-14867150D01*
X13217682Y-14867150D02*
X13246253Y-14867150D01*
X13246253Y-14867150D02*
X13265301Y-14876674D01*
X13265301Y-14876674D02*
X13274825Y-14886198D01*
X13274825Y-14886198D02*
X13284349Y-14905246D01*
X13284349Y-14905246D02*
X13284349Y-14962388D01*
X13284349Y-14962388D02*
X13274825Y-14981436D01*
X13274825Y-14981436D02*
X13265301Y-14990960D01*
X13265301Y-14990960D02*
X13246253Y-15000484D01*
X13246253Y-15000484D02*
X13217682Y-15000484D01*
X13341492Y-14867150D02*
X13417682Y-14867150D01*
X13370063Y-14800484D02*
X13370063Y-14971912D01*
X13370063Y-14971912D02*
X13379587Y-14990960D01*
X13379587Y-14990960D02*
X13398634Y-15000484D01*
X13398634Y-15000484D02*
X13417682Y-15000484D01*
X13636730Y-14867150D02*
X13636730Y-15067150D01*
X13636730Y-14876674D02*
X13655777Y-14867150D01*
X13655777Y-14867150D02*
X13693873Y-14867150D01*
X13693873Y-14867150D02*
X13712920Y-14876674D01*
X13712920Y-14876674D02*
X13722444Y-14886198D01*
X13722444Y-14886198D02*
X13731968Y-14905246D01*
X13731968Y-14905246D02*
X13731968Y-14962388D01*
X13731968Y-14962388D02*
X13722444Y-14981436D01*
X13722444Y-14981436D02*
X13712920Y-14990960D01*
X13712920Y-14990960D02*
X13693873Y-15000484D01*
X13693873Y-15000484D02*
X13655777Y-15000484D01*
X13655777Y-15000484D02*
X13636730Y-14990960D01*
X13846253Y-15000484D02*
X13827206Y-14990960D01*
X13827206Y-14990960D02*
X13817682Y-14971912D01*
X13817682Y-14971912D02*
X13817682Y-14800484D01*
X14008158Y-15000484D02*
X14008158Y-14895722D01*
X14008158Y-14895722D02*
X13998634Y-14876674D01*
X13998634Y-14876674D02*
X13979587Y-14867150D01*
X13979587Y-14867150D02*
X13941492Y-14867150D01*
X13941492Y-14867150D02*
X13922444Y-14876674D01*
X14008158Y-14990960D02*
X13989111Y-15000484D01*
X13989111Y-15000484D02*
X13941492Y-15000484D01*
X13941492Y-15000484D02*
X13922444Y-14990960D01*
X13922444Y-14990960D02*
X13912920Y-14971912D01*
X13912920Y-14971912D02*
X13912920Y-14952865D01*
X13912920Y-14952865D02*
X13922444Y-14933817D01*
X13922444Y-14933817D02*
X13941492Y-14924293D01*
X13941492Y-14924293D02*
X13989111Y-14924293D01*
X13989111Y-14924293D02*
X14008158Y-14914769D01*
X14074825Y-14867150D02*
X14151015Y-14867150D01*
X14103396Y-14800484D02*
X14103396Y-14971912D01*
X14103396Y-14971912D02*
X14112920Y-14990960D01*
X14112920Y-14990960D02*
X14131968Y-15000484D01*
X14131968Y-15000484D02*
X14151015Y-15000484D01*
X14293873Y-14990960D02*
X14274825Y-15000484D01*
X14274825Y-15000484D02*
X14236730Y-15000484D01*
X14236730Y-15000484D02*
X14217682Y-14990960D01*
X14217682Y-14990960D02*
X14208158Y-14971912D01*
X14208158Y-14971912D02*
X14208158Y-14895722D01*
X14208158Y-14895722D02*
X14217682Y-14876674D01*
X14217682Y-14876674D02*
X14236730Y-14867150D01*
X14236730Y-14867150D02*
X14274825Y-14867150D01*
X14274825Y-14867150D02*
X14293873Y-14876674D01*
X14293873Y-14876674D02*
X14303396Y-14895722D01*
X14303396Y-14895722D02*
X14303396Y-14914769D01*
X14303396Y-14914769D02*
X14208158Y-14933817D01*
X14474825Y-15000484D02*
X14474825Y-14800484D01*
X14474825Y-14990960D02*
X14455777Y-15000484D01*
X14455777Y-15000484D02*
X14417682Y-15000484D01*
X14417682Y-15000484D02*
X14398634Y-14990960D01*
X14398634Y-14990960D02*
X14389111Y-14981436D01*
X14389111Y-14981436D02*
X14379587Y-14962388D01*
X14379587Y-14962388D02*
X14379587Y-14905246D01*
X14379587Y-14905246D02*
X14389111Y-14886198D01*
X14389111Y-14886198D02*
X14398634Y-14876674D01*
X14398634Y-14876674D02*
X14417682Y-14867150D01*
X14417682Y-14867150D02*
X14455777Y-14867150D01*
X14455777Y-14867150D02*
X14474825Y-14876674D01*
X14551015Y-15076674D02*
X14560539Y-15067150D01*
X14560539Y-15067150D02*
X14579587Y-15038579D01*
X14579587Y-15038579D02*
X14589111Y-15019531D01*
X14589111Y-15019531D02*
X14598634Y-14990960D01*
X14598634Y-14990960D02*
X14608158Y-14943341D01*
X14608158Y-14943341D02*
X14608158Y-14905246D01*
X14608158Y-14905246D02*
X14598634Y-14857627D01*
X14598634Y-14857627D02*
X14589111Y-14829055D01*
X14589111Y-14829055D02*
X14579587Y-14810008D01*
X14579587Y-14810008D02*
X14560539Y-14781436D01*
X14560539Y-14781436D02*
X14551015Y-14771912D01*
M02*
