%TF.GenerationSoftware,KiCad,Pcbnew,8.0.5*%
%TF.CreationDate,2024-10-11T11:15:47+01:00*%
%TF.ProjectId,esquema_eletronico,65737175-656d-4615-9f65-6c6574726f6e,rev?*%
%TF.SameCoordinates,Original*%
%TF.FileFunction,Drillmap*%
%TF.FilePolarity,Positive*%
%FSLAX45Y45*%
G04 Gerber Fmt 4.5, Leading zero omitted, Abs format (unit mm)*
G04 Created by KiCad (PCBNEW 8.0.5) date 2024-10-11 11:15:47*
%MOMM*%
%LPD*%
G01*
G04 APERTURE LIST*
%ADD10C,0.100000*%
%ADD11C,0.050000*%
%ADD12C,0.200000*%
G04 APERTURE END LIST*
D10*
X12795000Y-14000000D02*
X16600000Y-14000000D01*
X16566839Y-8007500D02*
G75*
G02*
X15825000Y-8007500I-370920J0D01*
G01*
X15825000Y-8007500D02*
G75*
G02*
X16566839Y-8007500I370920J0D01*
G01*
X11637500Y-6700000D02*
X7800000Y-6700000D01*
X12801000Y-7025000D02*
G75*
G02*
X11637004Y-7022848I-582000J0D01*
G01*
X7800000Y-6700000D02*
X7803038Y-13655000D01*
X11637500Y-6700000D02*
X11637004Y-7022848D01*
X12795000Y-14000000D02*
X12796159Y-13647375D01*
X16600000Y-14000000D02*
X16600000Y-6700000D01*
X12801498Y-6700576D02*
X12801000Y-7025000D01*
X12590919Y-12749081D02*
G75*
G02*
X11849080Y-12749081I-370920J0D01*
G01*
X11849080Y-12749081D02*
G75*
G02*
X12590919Y-12749081I370920J0D01*
G01*
X16600000Y-6700000D02*
X12801498Y-6700576D01*
X7803038Y-13655000D02*
X11656458Y-13662672D01*
X8612500Y-8012500D02*
G75*
G02*
X7870661Y-8012500I-370920J0D01*
G01*
X7870661Y-8012500D02*
G75*
G02*
X8612500Y-8012500I370920J0D01*
G01*
X11656458Y-13662672D02*
G75*
G02*
X12796157Y-13647375I571332J-102778D01*
G01*
D11*
X13399750Y-7035500D02*
G75*
G02*
X13099750Y-7035500I-150000J0D01*
G01*
X13099750Y-7035500D02*
G75*
G02*
X13399750Y-7035500I150000J0D01*
G01*
X15499750Y-7035500D02*
G75*
G02*
X15199750Y-7035500I-150000J0D01*
G01*
X15199750Y-7035500D02*
G75*
G02*
X15499750Y-7035500I150000J0D01*
G01*
D12*
D10*
X9566000Y-12704000D02*
X9586000Y-12724000D01*
X9586000Y-12704000D02*
X9566000Y-12724000D01*
X9566000Y-12844000D02*
X9586000Y-12864000D01*
X9586000Y-12844000D02*
X9566000Y-12864000D01*
X9636000Y-12634000D02*
X9656000Y-12654000D01*
X9656000Y-12634000D02*
X9636000Y-12654000D01*
X9636000Y-12774000D02*
X9656000Y-12794000D01*
X9656000Y-12774000D02*
X9636000Y-12794000D01*
X9636000Y-12914000D02*
X9656000Y-12934000D01*
X9656000Y-12914000D02*
X9636000Y-12934000D01*
X9708500Y-12704000D02*
X9728500Y-12724000D01*
X9728500Y-12704000D02*
X9708500Y-12724000D01*
X9708500Y-12844000D02*
X9728500Y-12864000D01*
X9728500Y-12844000D02*
X9708500Y-12864000D01*
X9776000Y-12634000D02*
X9796000Y-12654000D01*
X9796000Y-12634000D02*
X9776000Y-12654000D01*
X9776000Y-12774000D02*
X9796000Y-12794000D01*
X9796000Y-12774000D02*
X9776000Y-12794000D01*
X9776000Y-12914000D02*
X9796000Y-12934000D01*
X9796000Y-12914000D02*
X9776000Y-12934000D01*
X9846000Y-12704000D02*
X9866000Y-12724000D01*
X9866000Y-12704000D02*
X9846000Y-12724000D01*
X9846000Y-12844000D02*
X9866000Y-12864000D01*
X9866000Y-12844000D02*
X9846000Y-12864000D01*
X13072000Y-12250000D02*
G75*
G02*
X13042000Y-12250000I-15000J0D01*
G01*
X13042000Y-12250000D02*
G75*
G02*
X13072000Y-12250000I15000J0D01*
G01*
X13072000Y-12360000D02*
G75*
G02*
X13042000Y-12360000I-15000J0D01*
G01*
X13042000Y-12360000D02*
G75*
G02*
X13072000Y-12360000I15000J0D01*
G01*
X8000000Y-6980000D02*
X8000000Y-7020000D01*
X7980000Y-7000000D02*
X8020000Y-7000000D01*
X8000000Y-7480000D02*
X8000000Y-7520000D01*
X7980000Y-7500000D02*
X8020000Y-7500000D01*
X8000000Y-8480000D02*
X8000000Y-8520000D01*
X7980000Y-8500000D02*
X8020000Y-8500000D01*
X8000000Y-8980000D02*
X8000000Y-9020000D01*
X7980000Y-9000000D02*
X8020000Y-9000000D01*
X8000000Y-9480000D02*
X8000000Y-9520000D01*
X7980000Y-9500000D02*
X8020000Y-9500000D01*
X8000000Y-9980000D02*
X8000000Y-10020000D01*
X7980000Y-10000000D02*
X8020000Y-10000000D01*
X8000000Y-10480000D02*
X8000000Y-10520000D01*
X7980000Y-10500000D02*
X8020000Y-10500000D01*
X8000000Y-10980000D02*
X8000000Y-11020000D01*
X7980000Y-11000000D02*
X8020000Y-11000000D01*
X8000000Y-11480000D02*
X8000000Y-11520000D01*
X7980000Y-11500000D02*
X8020000Y-11500000D01*
X8137500Y-13425000D02*
X8137500Y-13465000D01*
X8117500Y-13445000D02*
X8157500Y-13445000D01*
X8243500Y-11650000D02*
X8243500Y-11690000D01*
X8223500Y-11670000D02*
X8263500Y-11670000D01*
X8300300Y-12747500D02*
X8300300Y-12787500D01*
X8280300Y-12767500D02*
X8320300Y-12767500D01*
X8380000Y-13065000D02*
X8380000Y-13105000D01*
X8360000Y-13085000D02*
X8400000Y-13085000D01*
X8435000Y-11515000D02*
X8435000Y-11555000D01*
X8415000Y-11535000D02*
X8455000Y-11535000D01*
X8470000Y-12802500D02*
X8470000Y-12842500D01*
X8450000Y-12822500D02*
X8490000Y-12822500D01*
X8500000Y-7480000D02*
X8500000Y-7520000D01*
X8480000Y-7500000D02*
X8520000Y-7500000D01*
X8500000Y-8480000D02*
X8500000Y-8520000D01*
X8480000Y-8500000D02*
X8520000Y-8500000D01*
X8500000Y-8980000D02*
X8500000Y-9020000D01*
X8480000Y-9000000D02*
X8520000Y-9000000D01*
X8500000Y-9480000D02*
X8500000Y-9520000D01*
X8480000Y-9500000D02*
X8520000Y-9500000D01*
X8500000Y-9980000D02*
X8500000Y-10020000D01*
X8480000Y-10000000D02*
X8520000Y-10000000D01*
X8500000Y-10480000D02*
X8500000Y-10520000D01*
X8480000Y-10500000D02*
X8520000Y-10500000D01*
X8500000Y-10980000D02*
X8500000Y-11020000D01*
X8480000Y-11000000D02*
X8520000Y-11000000D01*
X8511800Y-12563200D02*
X8511800Y-12603200D01*
X8491800Y-12583200D02*
X8531800Y-12583200D01*
X8835000Y-13540000D02*
X8835000Y-13580000D01*
X8815000Y-13560000D02*
X8855000Y-13560000D01*
X8837500Y-11902500D02*
X8837500Y-11942500D01*
X8817500Y-11922500D02*
X8857500Y-11922500D01*
X8925000Y-12505000D02*
X8925000Y-12545000D01*
X8905000Y-12525000D02*
X8945000Y-12525000D01*
X8960000Y-10345000D02*
X8960000Y-10385000D01*
X8940000Y-10365000D02*
X8980000Y-10365000D01*
X8965000Y-8800000D02*
X8965000Y-8840000D01*
X8945000Y-8820000D02*
X8985000Y-8820000D01*
X9000000Y-6980000D02*
X9000000Y-7020000D01*
X8980000Y-7000000D02*
X9020000Y-7000000D01*
X9000000Y-7980000D02*
X9000000Y-8020000D01*
X8980000Y-8000000D02*
X9020000Y-8000000D01*
X9000000Y-8480000D02*
X9000000Y-8520000D01*
X8980000Y-8500000D02*
X9020000Y-8500000D01*
X9000000Y-8980000D02*
X9000000Y-9020000D01*
X8980000Y-9000000D02*
X9020000Y-9000000D01*
X9000000Y-9480000D02*
X9000000Y-9520000D01*
X8980000Y-9500000D02*
X9020000Y-9500000D01*
X9000000Y-9980000D02*
X9000000Y-10020000D01*
X8980000Y-10000000D02*
X9020000Y-10000000D01*
X9000000Y-13480000D02*
X9000000Y-13520000D01*
X8980000Y-13500000D02*
X9020000Y-13500000D01*
X9030000Y-12505000D02*
X9030000Y-12545000D01*
X9010000Y-12525000D02*
X9050000Y-12525000D01*
X9110000Y-12010000D02*
X9110000Y-12050000D01*
X9090000Y-12030000D02*
X9130000Y-12030000D01*
X9275000Y-11230000D02*
X9275000Y-11270000D01*
X9255000Y-11250000D02*
X9295000Y-11250000D01*
X9330000Y-12120000D02*
X9330000Y-12160000D01*
X9310000Y-12140000D02*
X9350000Y-12140000D01*
X9395000Y-10090000D02*
X9395000Y-10130000D01*
X9375000Y-10110000D02*
X9415000Y-10110000D01*
X9395000Y-10375000D02*
X9395000Y-10415000D01*
X9375000Y-10395000D02*
X9415000Y-10395000D01*
X9500000Y-6980000D02*
X9500000Y-7020000D01*
X9480000Y-7000000D02*
X9520000Y-7000000D01*
X9500000Y-7480000D02*
X9500000Y-7520000D01*
X9480000Y-7500000D02*
X9520000Y-7500000D01*
X9500000Y-8980000D02*
X9500000Y-9020000D01*
X9480000Y-9000000D02*
X9520000Y-9000000D01*
X9500000Y-9980000D02*
X9500000Y-10020000D01*
X9480000Y-10000000D02*
X9520000Y-10000000D01*
X9500000Y-12480000D02*
X9500000Y-12520000D01*
X9480000Y-12500000D02*
X9520000Y-12500000D01*
X9500000Y-13480000D02*
X9500000Y-13520000D01*
X9480000Y-13500000D02*
X9520000Y-13500000D01*
X9505000Y-8445000D02*
X9505000Y-8485000D01*
X9485000Y-8465000D02*
X9525000Y-8465000D01*
X9525000Y-7970000D02*
X9525000Y-8010000D01*
X9505000Y-7990000D02*
X9545000Y-7990000D01*
X9562500Y-9472500D02*
X9562500Y-9512500D01*
X9542500Y-9492500D02*
X9582500Y-9492500D01*
X9575000Y-10255000D02*
X9575000Y-10295000D01*
X9555000Y-10275000D02*
X9595000Y-10275000D01*
X9580000Y-8770000D02*
X9580000Y-8810000D01*
X9560000Y-8790000D02*
X9600000Y-8790000D01*
X9650000Y-9255000D02*
X9650000Y-9295000D01*
X9630000Y-9275000D02*
X9670000Y-9275000D01*
X9880000Y-8445000D02*
X9880000Y-8485000D01*
X9860000Y-8465000D02*
X9900000Y-8465000D01*
X9935000Y-9685000D02*
X9935000Y-9725000D01*
X9915000Y-9705000D02*
X9955000Y-9705000D01*
X10000000Y-6980000D02*
X10000000Y-7020000D01*
X9980000Y-7000000D02*
X10020000Y-7000000D01*
X10000000Y-8480000D02*
X10000000Y-8520000D01*
X9980000Y-8500000D02*
X10020000Y-8500000D01*
X10000000Y-12480000D02*
X10000000Y-12520000D01*
X9980000Y-12500000D02*
X10020000Y-12500000D01*
X10000000Y-13480000D02*
X10000000Y-13520000D01*
X9980000Y-13500000D02*
X10020000Y-13500000D01*
X10010000Y-11595000D02*
X10010000Y-11635000D01*
X9990000Y-11615000D02*
X10030000Y-11615000D01*
X10050000Y-7215000D02*
X10050000Y-7255000D01*
X10030000Y-7235000D02*
X10070000Y-7235000D01*
X10150000Y-11605000D02*
X10150000Y-11645000D01*
X10130000Y-11625000D02*
X10170000Y-11625000D01*
X10175000Y-9565000D02*
X10175000Y-9605000D01*
X10155000Y-9585000D02*
X10195000Y-9585000D01*
X10197500Y-8787500D02*
X10197500Y-8827500D01*
X10177500Y-8807500D02*
X10217500Y-8807500D01*
X10255000Y-9283700D02*
X10255000Y-9323700D01*
X10235000Y-9303700D02*
X10275000Y-9303700D01*
X10270000Y-13535000D02*
X10270000Y-13575000D01*
X10250000Y-13555000D02*
X10290000Y-13555000D01*
X10300000Y-7410000D02*
X10300000Y-7450000D01*
X10280000Y-7430000D02*
X10320000Y-7430000D01*
X10335000Y-8760000D02*
X10335000Y-8800000D01*
X10315000Y-8780000D02*
X10355000Y-8780000D01*
X10498000Y-9044175D02*
X10498000Y-9084175D01*
X10478000Y-9064175D02*
X10518000Y-9064175D01*
X10500000Y-6980000D02*
X10500000Y-7020000D01*
X10480000Y-7000000D02*
X10520000Y-7000000D01*
X10500000Y-8480000D02*
X10500000Y-8520000D01*
X10480000Y-8500000D02*
X10520000Y-8500000D01*
X10500000Y-10980000D02*
X10500000Y-11020000D01*
X10480000Y-11000000D02*
X10520000Y-11000000D01*
X10525000Y-9955000D02*
X10525000Y-9995000D01*
X10505000Y-9975000D02*
X10545000Y-9975000D01*
X10545000Y-9350000D02*
X10545000Y-9390000D01*
X10525000Y-9370000D02*
X10565000Y-9370000D01*
X10620000Y-9095000D02*
X10620000Y-9135000D01*
X10600000Y-9115000D02*
X10640000Y-9115000D01*
X10675000Y-12275000D02*
X10675000Y-12315000D01*
X10655000Y-12295000D02*
X10695000Y-12295000D01*
X10675000Y-12650000D02*
X10675000Y-12690000D01*
X10655000Y-12670000D02*
X10695000Y-12670000D01*
X10845000Y-9500000D02*
X10845000Y-9540000D01*
X10825000Y-9520000D02*
X10865000Y-9520000D01*
X10875000Y-11972500D02*
X10875000Y-12012500D01*
X10855000Y-11992500D02*
X10895000Y-11992500D01*
X10950000Y-11770000D02*
X10950000Y-11810000D01*
X10930000Y-11790000D02*
X10970000Y-11790000D01*
X10950000Y-13530000D02*
X10950000Y-13570000D01*
X10930000Y-13550000D02*
X10970000Y-13550000D01*
X10965000Y-13025000D02*
X10965000Y-13065000D01*
X10945000Y-13045000D02*
X10985000Y-13045000D01*
X11000000Y-7480000D02*
X11000000Y-7520000D01*
X10980000Y-7500000D02*
X11020000Y-7500000D01*
X11000000Y-7980000D02*
X11000000Y-8020000D01*
X10980000Y-8000000D02*
X11020000Y-8000000D01*
X11000000Y-8480000D02*
X11000000Y-8520000D01*
X10980000Y-8500000D02*
X11020000Y-8500000D01*
X11000000Y-9480000D02*
X11000000Y-9520000D01*
X10980000Y-9500000D02*
X11020000Y-9500000D01*
X11000000Y-10480000D02*
X11000000Y-10520000D01*
X10980000Y-10500000D02*
X11020000Y-10500000D01*
X11000000Y-11480000D02*
X11000000Y-11520000D01*
X10980000Y-11500000D02*
X11020000Y-11500000D01*
X11021394Y-6980000D02*
X11021394Y-7020000D01*
X11001394Y-7000000D02*
X11041394Y-7000000D01*
X11060000Y-12800000D02*
X11060000Y-12840000D01*
X11040000Y-12820000D02*
X11080000Y-12820000D01*
X11355000Y-7842500D02*
X11355000Y-7882500D01*
X11335000Y-7862500D02*
X11375000Y-7862500D01*
X11400000Y-13525000D02*
X11400000Y-13565000D01*
X11380000Y-13545000D02*
X11420000Y-13545000D01*
X11403750Y-9408750D02*
X11403750Y-9448750D01*
X11383750Y-9428750D02*
X11423750Y-9428750D01*
X11412500Y-10047500D02*
X11412500Y-10087500D01*
X11392500Y-10067500D02*
X11432500Y-10067500D01*
X11495000Y-7970000D02*
X11495000Y-8010000D01*
X11475000Y-7990000D02*
X11515000Y-7990000D01*
X11495000Y-12725000D02*
X11495000Y-12765000D01*
X11475000Y-12745000D02*
X11515000Y-12745000D01*
X11500000Y-6980000D02*
X11500000Y-7020000D01*
X11480000Y-7000000D02*
X11520000Y-7000000D01*
X11500000Y-7480000D02*
X11500000Y-7520000D01*
X11480000Y-7500000D02*
X11520000Y-7500000D01*
X11500000Y-8480000D02*
X11500000Y-8520000D01*
X11480000Y-8500000D02*
X11520000Y-8500000D01*
X11500000Y-8980000D02*
X11500000Y-9020000D01*
X11480000Y-9000000D02*
X11520000Y-9000000D01*
X11500000Y-10980000D02*
X11500000Y-11020000D01*
X11480000Y-11000000D02*
X11520000Y-11000000D01*
X11510000Y-11585000D02*
X11510000Y-11625000D01*
X11490000Y-11605000D02*
X11530000Y-11605000D01*
X11515000Y-10212500D02*
X11515000Y-10252500D01*
X11495000Y-10232500D02*
X11535000Y-10232500D01*
X11543389Y-9368389D02*
X11543389Y-9408389D01*
X11523389Y-9388389D02*
X11563389Y-9388389D01*
X11705000Y-13165000D02*
X11705000Y-13205000D01*
X11685000Y-13185000D02*
X11725000Y-13185000D01*
X12000000Y-7965000D02*
X12000000Y-8005000D01*
X11980000Y-7985000D02*
X12020000Y-7985000D01*
X12000000Y-8480000D02*
X12000000Y-8520000D01*
X11980000Y-8500000D02*
X12020000Y-8500000D01*
X12000000Y-9480000D02*
X12000000Y-9520000D01*
X11980000Y-9500000D02*
X12020000Y-9500000D01*
X12000000Y-9980000D02*
X12000000Y-10020000D01*
X11980000Y-10000000D02*
X12020000Y-10000000D01*
X12000000Y-10480000D02*
X12000000Y-10520000D01*
X11980000Y-10500000D02*
X12020000Y-10500000D01*
X12045000Y-9030000D02*
X12045000Y-9070000D01*
X12025000Y-9050000D02*
X12065000Y-9050000D01*
X12100000Y-12105000D02*
X12100000Y-12145000D01*
X12080000Y-12125000D02*
X12120000Y-12125000D01*
X12162500Y-10927500D02*
X12162500Y-10967500D01*
X12142500Y-10947500D02*
X12182500Y-10947500D01*
X12287500Y-11430000D02*
X12287500Y-11470000D01*
X12267500Y-11450000D02*
X12307500Y-11450000D01*
X12372500Y-10717500D02*
X12372500Y-10757500D01*
X12352500Y-10737500D02*
X12392500Y-10737500D01*
X12392500Y-7830000D02*
X12392500Y-7870000D01*
X12372500Y-7850000D02*
X12412500Y-7850000D01*
X12500000Y-8480000D02*
X12500000Y-8520000D01*
X12480000Y-8500000D02*
X12520000Y-8500000D01*
X12500000Y-8980000D02*
X12500000Y-9020000D01*
X12480000Y-9000000D02*
X12520000Y-9000000D01*
X12500000Y-9480000D02*
X12500000Y-9520000D01*
X12480000Y-9500000D02*
X12520000Y-9500000D01*
X12500000Y-9980000D02*
X12500000Y-10020000D01*
X12480000Y-10000000D02*
X12520000Y-10000000D01*
X12500000Y-10480000D02*
X12500000Y-10520000D01*
X12480000Y-10500000D02*
X12520000Y-10500000D01*
X12505000Y-7970000D02*
X12505000Y-8010000D01*
X12485000Y-7990000D02*
X12525000Y-7990000D01*
X12615000Y-12055000D02*
X12615000Y-12095000D01*
X12595000Y-12075000D02*
X12635000Y-12075000D01*
X12615000Y-12325000D02*
X12615000Y-12365000D01*
X12595000Y-12345000D02*
X12635000Y-12345000D01*
X12697500Y-12202500D02*
X12697500Y-12242500D01*
X12677500Y-12222500D02*
X12717500Y-12222500D01*
X12722500Y-12822500D02*
X12722500Y-12862500D01*
X12702500Y-12842500D02*
X12742500Y-12842500D01*
X12760000Y-12445000D02*
X12760000Y-12485000D01*
X12740000Y-12465000D02*
X12780000Y-12465000D01*
X12775000Y-13155000D02*
X12775000Y-13195000D01*
X12755000Y-13175000D02*
X12795000Y-13175000D01*
X12790000Y-10702500D02*
X12790000Y-10742500D01*
X12770000Y-10722500D02*
X12810000Y-10722500D01*
X12882500Y-13497500D02*
X12882500Y-13537500D01*
X12862500Y-13517500D02*
X12902500Y-13517500D01*
X12892500Y-11997500D02*
X12892500Y-12037500D01*
X12872500Y-12017500D02*
X12912500Y-12017500D01*
X13000000Y-6980000D02*
X13000000Y-7020000D01*
X12980000Y-7000000D02*
X13020000Y-7000000D01*
X13000000Y-7480000D02*
X13000000Y-7520000D01*
X12980000Y-7500000D02*
X13020000Y-7500000D01*
X13000000Y-7980000D02*
X13000000Y-8020000D01*
X12980000Y-8000000D02*
X13020000Y-8000000D01*
X13000000Y-8480000D02*
X13000000Y-8520000D01*
X12980000Y-8500000D02*
X13020000Y-8500000D01*
X13000000Y-8980000D02*
X13000000Y-9020000D01*
X12980000Y-9000000D02*
X13020000Y-9000000D01*
X13000000Y-9480000D02*
X13000000Y-9520000D01*
X12980000Y-9500000D02*
X13020000Y-9500000D01*
X13000000Y-9980000D02*
X13000000Y-10020000D01*
X12980000Y-10000000D02*
X13020000Y-10000000D01*
X13000000Y-10480000D02*
X13000000Y-10520000D01*
X12980000Y-10500000D02*
X13020000Y-10500000D01*
X13000000Y-10980000D02*
X13000000Y-11020000D01*
X12980000Y-11000000D02*
X13020000Y-11000000D01*
X13077500Y-11412500D02*
X13077500Y-11452500D01*
X13057500Y-11432500D02*
X13097500Y-11432500D01*
X13082500Y-11537500D02*
X13082500Y-11577500D01*
X13062500Y-11557500D02*
X13102500Y-11557500D01*
X13125000Y-13300000D02*
X13125000Y-13340000D01*
X13105000Y-13320000D02*
X13145000Y-13320000D01*
X13214800Y-12129289D02*
X13214800Y-12169289D01*
X13194800Y-12149289D02*
X13234800Y-12149289D01*
X13300000Y-12200000D02*
X13300000Y-12240000D01*
X13280000Y-12220000D02*
X13320000Y-12220000D01*
X13307500Y-12600000D02*
X13307500Y-12640000D01*
X13287500Y-12620000D02*
X13327500Y-12620000D01*
X13325000Y-11490000D02*
X13325000Y-11530000D01*
X13305000Y-11510000D02*
X13345000Y-11510000D01*
X13440000Y-13732500D02*
X13440000Y-13772500D01*
X13420000Y-13752500D02*
X13460000Y-13752500D01*
X13449800Y-11480341D02*
X13449800Y-11520341D01*
X13429800Y-11500341D02*
X13469800Y-11500341D01*
X13464303Y-12200535D02*
X13464303Y-12240535D01*
X13444303Y-12220535D02*
X13484303Y-12220535D01*
X13500000Y-6980000D02*
X13500000Y-7020000D01*
X13480000Y-7000000D02*
X13520000Y-7000000D01*
X13500000Y-7480000D02*
X13500000Y-7520000D01*
X13480000Y-7500000D02*
X13520000Y-7500000D01*
X13500000Y-7980000D02*
X13500000Y-8020000D01*
X13480000Y-8000000D02*
X13520000Y-8000000D01*
X13500000Y-8980000D02*
X13500000Y-9020000D01*
X13480000Y-9000000D02*
X13520000Y-9000000D01*
X13500000Y-9480000D02*
X13500000Y-9520000D01*
X13480000Y-9500000D02*
X13520000Y-9500000D01*
X13520000Y-11402500D02*
X13520000Y-11442500D01*
X13500000Y-11422500D02*
X13540000Y-11422500D01*
X13632500Y-11395000D02*
X13632500Y-11435000D01*
X13612500Y-11415000D02*
X13652500Y-11415000D01*
X13657500Y-11257500D02*
X13657500Y-11297500D01*
X13637500Y-11277500D02*
X13677500Y-11277500D01*
X13667500Y-12830000D02*
X13667500Y-12870000D01*
X13647500Y-12850000D02*
X13687500Y-12850000D01*
X13685000Y-13520000D02*
X13685000Y-13560000D01*
X13665000Y-13540000D02*
X13705000Y-13540000D01*
X13702500Y-10690000D02*
X13702500Y-10730000D01*
X13682500Y-10710000D02*
X13722500Y-10710000D01*
X13770000Y-10930000D02*
X13770000Y-10970000D01*
X13750000Y-10950000D02*
X13790000Y-10950000D01*
X13773750Y-12613750D02*
X13773750Y-12653750D01*
X13753750Y-12633750D02*
X13793750Y-12633750D01*
X13780000Y-12190000D02*
X13780000Y-12230000D01*
X13760000Y-12210000D02*
X13800000Y-12210000D01*
X13807500Y-13217500D02*
X13807500Y-13257500D01*
X13787500Y-13237500D02*
X13827500Y-13237500D01*
X13822500Y-13372500D02*
X13822500Y-13412500D01*
X13802500Y-13392500D02*
X13842500Y-13392500D01*
X13907861Y-12202139D02*
X13907861Y-12242139D01*
X13887861Y-12222139D02*
X13927861Y-12222139D01*
X13957500Y-11756200D02*
X13957500Y-11796200D01*
X13937500Y-11776200D02*
X13977500Y-11776200D01*
X13967500Y-11525000D02*
X13967500Y-11565000D01*
X13947500Y-11545000D02*
X13987500Y-11545000D01*
X14000000Y-6980000D02*
X14000000Y-7020000D01*
X13980000Y-7000000D02*
X14020000Y-7000000D01*
X14000000Y-7480000D02*
X14000000Y-7520000D01*
X13980000Y-7500000D02*
X14020000Y-7500000D01*
X14000000Y-7980000D02*
X14000000Y-8020000D01*
X13980000Y-8000000D02*
X14020000Y-8000000D01*
X14000000Y-8480000D02*
X14000000Y-8520000D01*
X13980000Y-8500000D02*
X14020000Y-8500000D01*
X14000000Y-8980000D02*
X14000000Y-9020000D01*
X13980000Y-9000000D02*
X14020000Y-9000000D01*
X14000000Y-9480000D02*
X14000000Y-9520000D01*
X13980000Y-9500000D02*
X14020000Y-9500000D01*
X14000000Y-9980000D02*
X14000000Y-10020000D01*
X13980000Y-10000000D02*
X14020000Y-10000000D01*
X14001382Y-13312453D02*
X14001382Y-13352453D01*
X13981382Y-13332453D02*
X14021382Y-13332453D01*
X14007761Y-12645565D02*
X14007761Y-12685565D01*
X13987761Y-12665565D02*
X14027761Y-12665565D01*
X14030000Y-11117500D02*
X14030000Y-11157500D01*
X14010000Y-11137500D02*
X14050000Y-11137500D01*
X14055000Y-11975000D02*
X14055000Y-12015000D01*
X14035000Y-11995000D02*
X14075000Y-11995000D01*
X14077500Y-11422500D02*
X14077500Y-11462500D01*
X14057500Y-11442500D02*
X14097500Y-11442500D01*
X14112411Y-12639911D02*
X14112411Y-12679911D01*
X14092411Y-12659911D02*
X14132411Y-12659911D01*
X14182611Y-12385000D02*
X14182611Y-12425000D01*
X14162611Y-12405000D02*
X14202611Y-12405000D01*
X14182611Y-12542500D02*
X14182611Y-12582500D01*
X14162611Y-12562500D02*
X14202611Y-12562500D01*
X14185000Y-13310000D02*
X14185000Y-13350000D01*
X14165000Y-13330000D02*
X14205000Y-13330000D01*
X14191749Y-12281882D02*
X14191749Y-12321882D01*
X14171749Y-12301882D02*
X14211749Y-12301882D01*
X14227500Y-13212500D02*
X14227500Y-13252500D01*
X14207500Y-13232500D02*
X14247500Y-13232500D01*
X14237500Y-11360000D02*
X14237500Y-11400000D01*
X14217500Y-11380000D02*
X14257500Y-11380000D01*
X14240000Y-11960000D02*
X14240000Y-12000000D01*
X14220000Y-11980000D02*
X14260000Y-11980000D01*
X14245000Y-12080000D02*
X14245000Y-12120000D01*
X14225000Y-12100000D02*
X14265000Y-12100000D01*
X14289711Y-13471628D02*
X14289711Y-13511628D01*
X14269711Y-13491628D02*
X14309711Y-13491628D01*
X14305000Y-13745000D02*
X14305000Y-13785000D01*
X14285000Y-13765000D02*
X14325000Y-13765000D01*
X14334060Y-11785940D02*
X14334060Y-11825940D01*
X14314060Y-11805940D02*
X14354060Y-11805940D01*
X14355000Y-12365000D02*
X14355000Y-12405000D01*
X14335000Y-12385000D02*
X14375000Y-12385000D01*
X14360646Y-11882341D02*
X14360646Y-11922341D01*
X14340646Y-11902341D02*
X14380646Y-11902341D01*
X14385000Y-12252500D02*
X14385000Y-12292500D01*
X14365000Y-12272500D02*
X14405000Y-12272500D01*
X14475000Y-11402500D02*
X14475000Y-11442500D01*
X14455000Y-11422500D02*
X14495000Y-11422500D01*
X14482500Y-12712500D02*
X14482500Y-12752500D01*
X14462500Y-12732500D02*
X14502500Y-12732500D01*
X14500000Y-6980000D02*
X14500000Y-7020000D01*
X14480000Y-7000000D02*
X14520000Y-7000000D01*
X14500000Y-7480000D02*
X14500000Y-7520000D01*
X14480000Y-7500000D02*
X14520000Y-7500000D01*
X14500000Y-7980000D02*
X14500000Y-8020000D01*
X14480000Y-8000000D02*
X14520000Y-8000000D01*
X14500000Y-8480000D02*
X14500000Y-8520000D01*
X14480000Y-8500000D02*
X14520000Y-8500000D01*
X14500000Y-8980000D02*
X14500000Y-9020000D01*
X14480000Y-9000000D02*
X14520000Y-9000000D01*
X14500000Y-9480000D02*
X14500000Y-9520000D01*
X14480000Y-9500000D02*
X14520000Y-9500000D01*
X14642861Y-11752139D02*
X14642861Y-11792139D01*
X14622861Y-11772139D02*
X14662861Y-11772139D01*
X14670000Y-12700000D02*
X14670000Y-12740000D01*
X14650000Y-12720000D02*
X14690000Y-12720000D01*
X14677500Y-13052500D02*
X14677500Y-13092500D01*
X14657500Y-13072500D02*
X14697500Y-13072500D01*
X14700000Y-13305000D02*
X14700000Y-13345000D01*
X14680000Y-13325000D02*
X14720000Y-13325000D01*
X14725000Y-8440000D02*
X14725000Y-8480000D01*
X14705000Y-8460000D02*
X14745000Y-8460000D01*
X14775000Y-13875000D02*
X14775000Y-13915000D01*
X14755000Y-13895000D02*
X14795000Y-13895000D01*
X14812500Y-12710000D02*
X14812500Y-12750000D01*
X14792500Y-12730000D02*
X14832500Y-12730000D01*
X14825310Y-12277189D02*
X14825310Y-12317189D01*
X14805310Y-12297189D02*
X14845310Y-12297189D01*
X14850000Y-12925000D02*
X14850000Y-12965000D01*
X14830000Y-12945000D02*
X14870000Y-12945000D01*
X14898060Y-11741134D02*
X14898060Y-11781134D01*
X14878060Y-11761134D02*
X14918060Y-11761134D01*
X14905000Y-13640000D02*
X14905000Y-13680000D01*
X14885000Y-13660000D02*
X14925000Y-13660000D01*
X14930000Y-12312995D02*
X14930000Y-12352995D01*
X14910000Y-12332995D02*
X14950000Y-12332995D01*
X14970000Y-12715000D02*
X14970000Y-12755000D01*
X14950000Y-12735000D02*
X14990000Y-12735000D01*
X14975000Y-12905000D02*
X14975000Y-12945000D01*
X14955000Y-12925000D02*
X14995000Y-12925000D01*
X15000000Y-6980000D02*
X15000000Y-7020000D01*
X14980000Y-7000000D02*
X15020000Y-7000000D01*
X15000000Y-7480000D02*
X15000000Y-7520000D01*
X14980000Y-7500000D02*
X15020000Y-7500000D01*
X15000000Y-7980000D02*
X15000000Y-8020000D01*
X14980000Y-8000000D02*
X15020000Y-8000000D01*
X15000000Y-8480000D02*
X15000000Y-8520000D01*
X14980000Y-8500000D02*
X15020000Y-8500000D01*
X15000000Y-8980000D02*
X15000000Y-9020000D01*
X14980000Y-9000000D02*
X15020000Y-9000000D01*
X15000000Y-9980000D02*
X15000000Y-10020000D01*
X14980000Y-10000000D02*
X15020000Y-10000000D01*
X15000000Y-10480000D02*
X15000000Y-10520000D01*
X14980000Y-10500000D02*
X15020000Y-10500000D01*
X15000000Y-10980000D02*
X15000000Y-11020000D01*
X14980000Y-11000000D02*
X15020000Y-11000000D01*
X15004222Y-9485809D02*
X15004222Y-9525809D01*
X14984222Y-9505809D02*
X15024222Y-9505809D01*
X15045730Y-13583319D02*
X15045730Y-13623319D01*
X15025730Y-13603319D02*
X15065730Y-13603319D01*
X15095000Y-12800000D02*
X15095000Y-12840000D01*
X15075000Y-12820000D02*
X15115000Y-12820000D01*
X15125000Y-11680000D02*
X15125000Y-11720000D01*
X15105000Y-11700000D02*
X15145000Y-11700000D01*
X15132500Y-13260000D02*
X15132500Y-13300000D01*
X15112500Y-13280000D02*
X15152500Y-13280000D01*
X15190000Y-12320000D02*
X15190000Y-12360000D01*
X15170000Y-12340000D02*
X15210000Y-12340000D01*
X15217500Y-12015000D02*
X15217500Y-12055000D01*
X15197500Y-12035000D02*
X15237500Y-12035000D01*
X15220000Y-13162500D02*
X15220000Y-13202500D01*
X15200000Y-13182500D02*
X15240000Y-13182500D01*
X15220000Y-13605000D02*
X15220000Y-13645000D01*
X15200000Y-13625000D02*
X15240000Y-13625000D01*
X15225000Y-12675000D02*
X15225000Y-12715000D01*
X15205000Y-12695000D02*
X15245000Y-12695000D01*
X15307500Y-13232500D02*
X15307500Y-13272500D01*
X15287500Y-13252500D02*
X15327500Y-13252500D01*
X15375000Y-11322500D02*
X15375000Y-11362500D01*
X15355000Y-11342500D02*
X15395000Y-11342500D01*
X15380000Y-12730000D02*
X15380000Y-12770000D01*
X15360000Y-12750000D02*
X15400000Y-12750000D01*
X15485000Y-12895000D02*
X15485000Y-12935000D01*
X15465000Y-12915000D02*
X15505000Y-12915000D01*
X15500000Y-7480000D02*
X15500000Y-7520000D01*
X15480000Y-7500000D02*
X15520000Y-7500000D01*
X15500000Y-7980000D02*
X15500000Y-8020000D01*
X15480000Y-8000000D02*
X15520000Y-8000000D01*
X15500000Y-8480000D02*
X15500000Y-8520000D01*
X15480000Y-8500000D02*
X15520000Y-8500000D01*
X15500000Y-8980000D02*
X15500000Y-9020000D01*
X15480000Y-9000000D02*
X15520000Y-9000000D01*
X15500000Y-9980000D02*
X15500000Y-10020000D01*
X15480000Y-10000000D02*
X15520000Y-10000000D01*
X15500000Y-10480000D02*
X15500000Y-10520000D01*
X15480000Y-10500000D02*
X15520000Y-10500000D01*
X15500000Y-10980000D02*
X15500000Y-11020000D01*
X15480000Y-11000000D02*
X15520000Y-11000000D01*
X15514522Y-9478413D02*
X15514522Y-9518413D01*
X15494522Y-9498413D02*
X15534522Y-9498413D01*
X15610000Y-12905000D02*
X15610000Y-12945000D01*
X15590000Y-12925000D02*
X15630000Y-12925000D01*
X16000000Y-6980000D02*
X16000000Y-7020000D01*
X15980000Y-7000000D02*
X16020000Y-7000000D01*
X16000000Y-7480000D02*
X16000000Y-7520000D01*
X15980000Y-7500000D02*
X16020000Y-7500000D01*
X16000000Y-8480000D02*
X16000000Y-8520000D01*
X15980000Y-8500000D02*
X16020000Y-8500000D01*
X16000000Y-8980000D02*
X16000000Y-9020000D01*
X15980000Y-9000000D02*
X16020000Y-9000000D01*
X16000000Y-9480000D02*
X16000000Y-9520000D01*
X15980000Y-9500000D02*
X16020000Y-9500000D01*
X14844213Y-13138213D02*
X14844213Y-13095787D01*
X14801787Y-13095787D01*
X14801787Y-13138213D01*
X14844213Y-13138213D01*
X14853000Y-13172000D02*
X14853000Y-13062000D01*
X14793000Y-13062000D02*
G75*
G02*
X14853000Y-13062000I30000J0D01*
G01*
X14793000Y-13062000D02*
X14793000Y-13172000D01*
X14793000Y-13172000D02*
G75*
G03*
X14853000Y-13172000I30000J0D01*
G01*
X14844213Y-13556213D02*
X14844213Y-13513787D01*
X14801787Y-13513787D01*
X14801787Y-13556213D01*
X14844213Y-13556213D01*
X14853000Y-13565000D02*
X14853000Y-13505000D01*
X14793000Y-13505000D02*
G75*
G02*
X14853000Y-13505000I30000J0D01*
G01*
X14793000Y-13505000D02*
X14793000Y-13565000D01*
X14793000Y-13565000D02*
G75*
G03*
X14853000Y-13565000I30000J0D01*
G01*
X15708213Y-13138213D02*
X15708213Y-13095787D01*
X15665787Y-13095787D01*
X15665787Y-13138213D01*
X15708213Y-13138213D01*
X15717000Y-13172000D02*
X15717000Y-13062000D01*
X15657000Y-13062000D02*
G75*
G02*
X15717000Y-13062000I30000J0D01*
G01*
X15657000Y-13062000D02*
X15657000Y-13172000D01*
X15657000Y-13172000D02*
G75*
G03*
X15717000Y-13172000I30000J0D01*
G01*
X15708213Y-13556213D02*
X15708213Y-13513787D01*
X15665787Y-13513787D01*
X15665787Y-13556213D01*
X15708213Y-13556213D01*
X15717000Y-13565000D02*
X15717000Y-13505000D01*
X15657000Y-13505000D02*
G75*
G02*
X15717000Y-13505000I30000J0D01*
G01*
X15657000Y-13505000D02*
X15657000Y-13565000D01*
X15657000Y-13565000D02*
G75*
G03*
X15717000Y-13565000I30000J0D01*
G01*
X12779500Y-13063500D02*
X12817000Y-13026000D01*
X12779500Y-12988500D01*
X12742000Y-13026000D01*
X12779500Y-13063500D01*
X12906500Y-13063500D02*
X12944000Y-13026000D01*
X12906500Y-12988500D01*
X12869000Y-13026000D01*
X12906500Y-13063500D01*
X13033500Y-13063500D02*
X13071000Y-13026000D01*
X13033500Y-12988500D01*
X12996000Y-13026000D01*
X13033500Y-13063500D01*
X8985000Y-7543750D02*
X9075000Y-7633750D01*
X9075000Y-7543750D02*
X8985000Y-7633750D01*
X9075000Y-7588750D02*
G75*
G02*
X8985000Y-7588750I-45000J0D01*
G01*
X8985000Y-7588750D02*
G75*
G02*
X9075000Y-7588750I45000J0D01*
G01*
X10505000Y-7543750D02*
X10595000Y-7633750D01*
X10595000Y-7543750D02*
X10505000Y-7633750D01*
X10595000Y-7588750D02*
G75*
G02*
X10505000Y-7588750I-45000J0D01*
G01*
X10505000Y-7588750D02*
G75*
G02*
X10595000Y-7588750I45000J0D01*
G01*
X11672000Y-11775000D02*
X11772000Y-11875000D01*
X11772000Y-11775000D02*
X11672000Y-11875000D01*
X11722000Y-11775000D02*
X11722000Y-11875000D01*
X11672000Y-11825000D02*
X11772000Y-11825000D01*
X11926000Y-11775000D02*
X12026000Y-11875000D01*
X12026000Y-11775000D02*
X11926000Y-11875000D01*
X11976000Y-11775000D02*
X11976000Y-11875000D01*
X11926000Y-11825000D02*
X12026000Y-11825000D01*
X12180000Y-11775000D02*
X12280000Y-11875000D01*
X12280000Y-11775000D02*
X12180000Y-11875000D01*
X12230000Y-11775000D02*
X12230000Y-11875000D01*
X12180000Y-11825000D02*
X12280000Y-11825000D01*
X13095750Y-8135500D02*
X13195750Y-8235500D01*
X13195750Y-8135500D02*
X13095750Y-8235500D01*
X13145750Y-8135500D02*
X13145750Y-8235500D01*
X13095750Y-8185500D02*
X13195750Y-8185500D01*
X13349750Y-8135500D02*
X13449750Y-8235500D01*
X13449750Y-8135500D02*
X13349750Y-8235500D01*
X13399750Y-8135500D02*
X13399750Y-8235500D01*
X13349750Y-8185500D02*
X13449750Y-8185500D01*
X13603750Y-8135500D02*
X13703750Y-8235500D01*
X13703750Y-8135500D02*
X13603750Y-8235500D01*
X13653750Y-8135500D02*
X13653750Y-8235500D01*
X13603750Y-8185500D02*
X13703750Y-8185500D01*
X13850000Y-13712500D02*
X13950000Y-13812500D01*
X13950000Y-13712500D02*
X13850000Y-13812500D01*
X13900000Y-13712500D02*
X13900000Y-13812500D01*
X13850000Y-13762500D02*
X13950000Y-13762500D01*
X13857750Y-8135500D02*
X13957750Y-8235500D01*
X13957750Y-8135500D02*
X13857750Y-8235500D01*
X13907750Y-8135500D02*
X13907750Y-8235500D01*
X13857750Y-8185500D02*
X13957750Y-8185500D01*
X14104000Y-13712500D02*
X14204000Y-13812500D01*
X14204000Y-13712500D02*
X14104000Y-13812500D01*
X14154000Y-13712500D02*
X14154000Y-13812500D01*
X14104000Y-13762500D02*
X14204000Y-13762500D01*
X14111750Y-8135500D02*
X14211750Y-8235500D01*
X14211750Y-8135500D02*
X14111750Y-8235500D01*
X14161750Y-8135500D02*
X14161750Y-8235500D01*
X14111750Y-8185500D02*
X14211750Y-8185500D01*
X14365750Y-8135500D02*
X14465750Y-8235500D01*
X14465750Y-8135500D02*
X14365750Y-8235500D01*
X14415750Y-8135500D02*
X14415750Y-8235500D01*
X14365750Y-8185500D02*
X14465750Y-8185500D01*
X14457000Y-9846000D02*
X14557000Y-9946000D01*
X14557000Y-9846000D02*
X14457000Y-9946000D01*
X14507000Y-9846000D02*
X14507000Y-9946000D01*
X14457000Y-9896000D02*
X14557000Y-9896000D01*
X14457000Y-10100000D02*
X14557000Y-10200000D01*
X14557000Y-10100000D02*
X14457000Y-10200000D01*
X14507000Y-10100000D02*
X14507000Y-10200000D01*
X14457000Y-10150000D02*
X14557000Y-10150000D01*
X14457000Y-10354000D02*
X14557000Y-10454000D01*
X14557000Y-10354000D02*
X14457000Y-10454000D01*
X14507000Y-10354000D02*
X14507000Y-10454000D01*
X14457000Y-10404000D02*
X14557000Y-10404000D01*
X14457000Y-10608000D02*
X14557000Y-10708000D01*
X14557000Y-10608000D02*
X14457000Y-10708000D01*
X14507000Y-10608000D02*
X14507000Y-10708000D01*
X14457000Y-10658000D02*
X14557000Y-10658000D01*
X14457000Y-10862000D02*
X14557000Y-10962000D01*
X14557000Y-10862000D02*
X14457000Y-10962000D01*
X14507000Y-10862000D02*
X14507000Y-10962000D01*
X14457000Y-10912000D02*
X14557000Y-10912000D01*
X14619750Y-8135500D02*
X14719750Y-8235500D01*
X14719750Y-8135500D02*
X14619750Y-8235500D01*
X14669750Y-8135500D02*
X14669750Y-8235500D01*
X14619750Y-8185500D02*
X14719750Y-8185500D01*
X14873750Y-8135500D02*
X14973750Y-8235500D01*
X14973750Y-8135500D02*
X14873750Y-8235500D01*
X14923750Y-8135500D02*
X14923750Y-8235500D01*
X14873750Y-8185500D02*
X14973750Y-8185500D01*
X15127750Y-8135500D02*
X15227750Y-8235500D01*
X15227750Y-8135500D02*
X15127750Y-8235500D01*
X15177750Y-8135500D02*
X15177750Y-8235500D01*
X15127750Y-8185500D02*
X15227750Y-8185500D01*
X15381750Y-8135500D02*
X15481750Y-8235500D01*
X15481750Y-8135500D02*
X15381750Y-8235500D01*
X15431750Y-8135500D02*
X15431750Y-8235500D01*
X15381750Y-8185500D02*
X15481750Y-8185500D01*
X16135000Y-9847000D02*
X16235000Y-9947000D01*
X16235000Y-9847000D02*
X16135000Y-9947000D01*
X16185000Y-9847000D02*
X16185000Y-9947000D01*
X16135000Y-9897000D02*
X16235000Y-9897000D01*
X16135000Y-10101000D02*
X16235000Y-10201000D01*
X16235000Y-10101000D02*
X16135000Y-10201000D01*
X16185000Y-10101000D02*
X16185000Y-10201000D01*
X16135000Y-10151000D02*
X16235000Y-10151000D01*
X16135000Y-10355000D02*
X16235000Y-10455000D01*
X16235000Y-10355000D02*
X16135000Y-10455000D01*
X16185000Y-10355000D02*
X16185000Y-10455000D01*
X16135000Y-10405000D02*
X16235000Y-10405000D01*
X16135000Y-10609000D02*
X16235000Y-10709000D01*
X16235000Y-10609000D02*
X16135000Y-10709000D01*
X16185000Y-10609000D02*
X16185000Y-10709000D01*
X16135000Y-10659000D02*
X16235000Y-10659000D01*
X16135000Y-10863000D02*
X16235000Y-10963000D01*
X16235000Y-10863000D02*
X16135000Y-10963000D01*
X16185000Y-10863000D02*
X16185000Y-10963000D01*
X16135000Y-10913000D02*
X16235000Y-10913000D01*
D12*
X8055777Y-14316484D02*
X8055777Y-14116484D01*
X8055777Y-14116484D02*
X8103396Y-14116484D01*
X8103396Y-14116484D02*
X8131967Y-14126008D01*
X8131967Y-14126008D02*
X8151015Y-14145055D01*
X8151015Y-14145055D02*
X8160539Y-14164103D01*
X8160539Y-14164103D02*
X8170062Y-14202198D01*
X8170062Y-14202198D02*
X8170062Y-14230769D01*
X8170062Y-14230769D02*
X8160539Y-14268865D01*
X8160539Y-14268865D02*
X8151015Y-14287912D01*
X8151015Y-14287912D02*
X8131967Y-14306960D01*
X8131967Y-14306960D02*
X8103396Y-14316484D01*
X8103396Y-14316484D02*
X8055777Y-14316484D01*
X8255777Y-14316484D02*
X8255777Y-14183150D01*
X8255777Y-14221246D02*
X8265301Y-14202198D01*
X8265301Y-14202198D02*
X8274824Y-14192674D01*
X8274824Y-14192674D02*
X8293872Y-14183150D01*
X8293872Y-14183150D02*
X8312920Y-14183150D01*
X8379586Y-14316484D02*
X8379586Y-14183150D01*
X8379586Y-14116484D02*
X8370062Y-14126008D01*
X8370062Y-14126008D02*
X8379586Y-14135531D01*
X8379586Y-14135531D02*
X8389110Y-14126008D01*
X8389110Y-14126008D02*
X8379586Y-14116484D01*
X8379586Y-14116484D02*
X8379586Y-14135531D01*
X8503396Y-14316484D02*
X8484348Y-14306960D01*
X8484348Y-14306960D02*
X8474824Y-14287912D01*
X8474824Y-14287912D02*
X8474824Y-14116484D01*
X8608158Y-14316484D02*
X8589110Y-14306960D01*
X8589110Y-14306960D02*
X8579586Y-14287912D01*
X8579586Y-14287912D02*
X8579586Y-14116484D01*
X8836729Y-14316484D02*
X8836729Y-14116484D01*
X8836729Y-14116484D02*
X8903396Y-14259341D01*
X8903396Y-14259341D02*
X8970063Y-14116484D01*
X8970063Y-14116484D02*
X8970063Y-14316484D01*
X9151015Y-14316484D02*
X9151015Y-14211722D01*
X9151015Y-14211722D02*
X9141491Y-14192674D01*
X9141491Y-14192674D02*
X9122444Y-14183150D01*
X9122444Y-14183150D02*
X9084348Y-14183150D01*
X9084348Y-14183150D02*
X9065301Y-14192674D01*
X9151015Y-14306960D02*
X9131967Y-14316484D01*
X9131967Y-14316484D02*
X9084348Y-14316484D01*
X9084348Y-14316484D02*
X9065301Y-14306960D01*
X9065301Y-14306960D02*
X9055777Y-14287912D01*
X9055777Y-14287912D02*
X9055777Y-14268865D01*
X9055777Y-14268865D02*
X9065301Y-14249817D01*
X9065301Y-14249817D02*
X9084348Y-14240293D01*
X9084348Y-14240293D02*
X9131967Y-14240293D01*
X9131967Y-14240293D02*
X9151015Y-14230769D01*
X9246253Y-14183150D02*
X9246253Y-14383150D01*
X9246253Y-14192674D02*
X9265301Y-14183150D01*
X9265301Y-14183150D02*
X9303396Y-14183150D01*
X9303396Y-14183150D02*
X9322444Y-14192674D01*
X9322444Y-14192674D02*
X9331967Y-14202198D01*
X9331967Y-14202198D02*
X9341491Y-14221246D01*
X9341491Y-14221246D02*
X9341491Y-14278388D01*
X9341491Y-14278388D02*
X9331967Y-14297436D01*
X9331967Y-14297436D02*
X9322444Y-14306960D01*
X9322444Y-14306960D02*
X9303396Y-14316484D01*
X9303396Y-14316484D02*
X9265301Y-14316484D01*
X9265301Y-14316484D02*
X9246253Y-14306960D01*
X9427205Y-14297436D02*
X9436729Y-14306960D01*
X9436729Y-14306960D02*
X9427205Y-14316484D01*
X9427205Y-14316484D02*
X9417682Y-14306960D01*
X9417682Y-14306960D02*
X9427205Y-14297436D01*
X9427205Y-14297436D02*
X9427205Y-14316484D01*
X9427205Y-14192674D02*
X9436729Y-14202198D01*
X9436729Y-14202198D02*
X9427205Y-14211722D01*
X9427205Y-14211722D02*
X9417682Y-14202198D01*
X9417682Y-14202198D02*
X9427205Y-14192674D01*
X9427205Y-14192674D02*
X9427205Y-14211722D01*
D10*
X7775000Y-14635000D02*
X7795000Y-14655000D01*
X7795000Y-14635000D02*
X7775000Y-14655000D01*
D12*
X8093872Y-14536484D02*
X8112920Y-14536484D01*
X8112920Y-14536484D02*
X8131967Y-14546008D01*
X8131967Y-14546008D02*
X8141491Y-14555531D01*
X8141491Y-14555531D02*
X8151015Y-14574579D01*
X8151015Y-14574579D02*
X8160539Y-14612674D01*
X8160539Y-14612674D02*
X8160539Y-14660293D01*
X8160539Y-14660293D02*
X8151015Y-14698388D01*
X8151015Y-14698388D02*
X8141491Y-14717436D01*
X8141491Y-14717436D02*
X8131967Y-14726960D01*
X8131967Y-14726960D02*
X8112920Y-14736484D01*
X8112920Y-14736484D02*
X8093872Y-14736484D01*
X8093872Y-14736484D02*
X8074824Y-14726960D01*
X8074824Y-14726960D02*
X8065301Y-14717436D01*
X8065301Y-14717436D02*
X8055777Y-14698388D01*
X8055777Y-14698388D02*
X8046253Y-14660293D01*
X8046253Y-14660293D02*
X8046253Y-14612674D01*
X8046253Y-14612674D02*
X8055777Y-14574579D01*
X8055777Y-14574579D02*
X8065301Y-14555531D01*
X8065301Y-14555531D02*
X8074824Y-14546008D01*
X8074824Y-14546008D02*
X8093872Y-14536484D01*
X8246253Y-14717436D02*
X8255777Y-14726960D01*
X8255777Y-14726960D02*
X8246253Y-14736484D01*
X8246253Y-14736484D02*
X8236729Y-14726960D01*
X8236729Y-14726960D02*
X8246253Y-14717436D01*
X8246253Y-14717436D02*
X8246253Y-14736484D01*
X8331967Y-14555531D02*
X8341491Y-14546008D01*
X8341491Y-14546008D02*
X8360539Y-14536484D01*
X8360539Y-14536484D02*
X8408158Y-14536484D01*
X8408158Y-14536484D02*
X8427205Y-14546008D01*
X8427205Y-14546008D02*
X8436729Y-14555531D01*
X8436729Y-14555531D02*
X8446253Y-14574579D01*
X8446253Y-14574579D02*
X8446253Y-14593627D01*
X8446253Y-14593627D02*
X8436729Y-14622198D01*
X8436729Y-14622198D02*
X8322443Y-14736484D01*
X8322443Y-14736484D02*
X8446253Y-14736484D01*
X8570063Y-14536484D02*
X8589110Y-14536484D01*
X8589110Y-14536484D02*
X8608158Y-14546008D01*
X8608158Y-14546008D02*
X8617682Y-14555531D01*
X8617682Y-14555531D02*
X8627205Y-14574579D01*
X8627205Y-14574579D02*
X8636729Y-14612674D01*
X8636729Y-14612674D02*
X8636729Y-14660293D01*
X8636729Y-14660293D02*
X8627205Y-14698388D01*
X8627205Y-14698388D02*
X8617682Y-14717436D01*
X8617682Y-14717436D02*
X8608158Y-14726960D01*
X8608158Y-14726960D02*
X8589110Y-14736484D01*
X8589110Y-14736484D02*
X8570063Y-14736484D01*
X8570063Y-14736484D02*
X8551015Y-14726960D01*
X8551015Y-14726960D02*
X8541491Y-14717436D01*
X8541491Y-14717436D02*
X8531967Y-14698388D01*
X8531967Y-14698388D02*
X8522444Y-14660293D01*
X8522444Y-14660293D02*
X8522444Y-14612674D01*
X8522444Y-14612674D02*
X8531967Y-14574579D01*
X8531967Y-14574579D02*
X8541491Y-14555531D01*
X8541491Y-14555531D02*
X8551015Y-14546008D01*
X8551015Y-14546008D02*
X8570063Y-14536484D01*
X8760539Y-14536484D02*
X8779586Y-14536484D01*
X8779586Y-14536484D02*
X8798634Y-14546008D01*
X8798634Y-14546008D02*
X8808158Y-14555531D01*
X8808158Y-14555531D02*
X8817682Y-14574579D01*
X8817682Y-14574579D02*
X8827205Y-14612674D01*
X8827205Y-14612674D02*
X8827205Y-14660293D01*
X8827205Y-14660293D02*
X8817682Y-14698388D01*
X8817682Y-14698388D02*
X8808158Y-14717436D01*
X8808158Y-14717436D02*
X8798634Y-14726960D01*
X8798634Y-14726960D02*
X8779586Y-14736484D01*
X8779586Y-14736484D02*
X8760539Y-14736484D01*
X8760539Y-14736484D02*
X8741491Y-14726960D01*
X8741491Y-14726960D02*
X8731967Y-14717436D01*
X8731967Y-14717436D02*
X8722444Y-14698388D01*
X8722444Y-14698388D02*
X8712920Y-14660293D01*
X8712920Y-14660293D02*
X8712920Y-14612674D01*
X8712920Y-14612674D02*
X8722444Y-14574579D01*
X8722444Y-14574579D02*
X8731967Y-14555531D01*
X8731967Y-14555531D02*
X8741491Y-14546008D01*
X8741491Y-14546008D02*
X8760539Y-14536484D01*
X8912920Y-14736484D02*
X8912920Y-14603150D01*
X8912920Y-14622198D02*
X8922444Y-14612674D01*
X8922444Y-14612674D02*
X8941491Y-14603150D01*
X8941491Y-14603150D02*
X8970063Y-14603150D01*
X8970063Y-14603150D02*
X8989110Y-14612674D01*
X8989110Y-14612674D02*
X8998634Y-14631722D01*
X8998634Y-14631722D02*
X8998634Y-14736484D01*
X8998634Y-14631722D02*
X9008158Y-14612674D01*
X9008158Y-14612674D02*
X9027205Y-14603150D01*
X9027205Y-14603150D02*
X9055777Y-14603150D01*
X9055777Y-14603150D02*
X9074825Y-14612674D01*
X9074825Y-14612674D02*
X9084348Y-14631722D01*
X9084348Y-14631722D02*
X9084348Y-14736484D01*
X9179586Y-14736484D02*
X9179586Y-14603150D01*
X9179586Y-14622198D02*
X9189110Y-14612674D01*
X9189110Y-14612674D02*
X9208158Y-14603150D01*
X9208158Y-14603150D02*
X9236729Y-14603150D01*
X9236729Y-14603150D02*
X9255777Y-14612674D01*
X9255777Y-14612674D02*
X9265301Y-14631722D01*
X9265301Y-14631722D02*
X9265301Y-14736484D01*
X9265301Y-14631722D02*
X9274825Y-14612674D01*
X9274825Y-14612674D02*
X9293872Y-14603150D01*
X9293872Y-14603150D02*
X9322444Y-14603150D01*
X9322444Y-14603150D02*
X9341491Y-14612674D01*
X9341491Y-14612674D02*
X9351015Y-14631722D01*
X9351015Y-14631722D02*
X9351015Y-14736484D01*
X9741491Y-14526960D02*
X9570063Y-14784103D01*
X9998634Y-14536484D02*
X10017682Y-14536484D01*
X10017682Y-14536484D02*
X10036729Y-14546008D01*
X10036729Y-14546008D02*
X10046253Y-14555531D01*
X10046253Y-14555531D02*
X10055777Y-14574579D01*
X10055777Y-14574579D02*
X10065301Y-14612674D01*
X10065301Y-14612674D02*
X10065301Y-14660293D01*
X10065301Y-14660293D02*
X10055777Y-14698388D01*
X10055777Y-14698388D02*
X10046253Y-14717436D01*
X10046253Y-14717436D02*
X10036729Y-14726960D01*
X10036729Y-14726960D02*
X10017682Y-14736484D01*
X10017682Y-14736484D02*
X9998634Y-14736484D01*
X9998634Y-14736484D02*
X9979587Y-14726960D01*
X9979587Y-14726960D02*
X9970063Y-14717436D01*
X9970063Y-14717436D02*
X9960539Y-14698388D01*
X9960539Y-14698388D02*
X9951015Y-14660293D01*
X9951015Y-14660293D02*
X9951015Y-14612674D01*
X9951015Y-14612674D02*
X9960539Y-14574579D01*
X9960539Y-14574579D02*
X9970063Y-14555531D01*
X9970063Y-14555531D02*
X9979587Y-14546008D01*
X9979587Y-14546008D02*
X9998634Y-14536484D01*
X10151015Y-14717436D02*
X10160539Y-14726960D01*
X10160539Y-14726960D02*
X10151015Y-14736484D01*
X10151015Y-14736484D02*
X10141491Y-14726960D01*
X10141491Y-14726960D02*
X10151015Y-14717436D01*
X10151015Y-14717436D02*
X10151015Y-14736484D01*
X10284348Y-14536484D02*
X10303396Y-14536484D01*
X10303396Y-14536484D02*
X10322444Y-14546008D01*
X10322444Y-14546008D02*
X10331968Y-14555531D01*
X10331968Y-14555531D02*
X10341491Y-14574579D01*
X10341491Y-14574579D02*
X10351015Y-14612674D01*
X10351015Y-14612674D02*
X10351015Y-14660293D01*
X10351015Y-14660293D02*
X10341491Y-14698388D01*
X10341491Y-14698388D02*
X10331968Y-14717436D01*
X10331968Y-14717436D02*
X10322444Y-14726960D01*
X10322444Y-14726960D02*
X10303396Y-14736484D01*
X10303396Y-14736484D02*
X10284348Y-14736484D01*
X10284348Y-14736484D02*
X10265301Y-14726960D01*
X10265301Y-14726960D02*
X10255777Y-14717436D01*
X10255777Y-14717436D02*
X10246253Y-14698388D01*
X10246253Y-14698388D02*
X10236729Y-14660293D01*
X10236729Y-14660293D02*
X10236729Y-14612674D01*
X10236729Y-14612674D02*
X10246253Y-14574579D01*
X10246253Y-14574579D02*
X10255777Y-14555531D01*
X10255777Y-14555531D02*
X10265301Y-14546008D01*
X10265301Y-14546008D02*
X10284348Y-14536484D01*
X10474825Y-14536484D02*
X10493872Y-14536484D01*
X10493872Y-14536484D02*
X10512920Y-14546008D01*
X10512920Y-14546008D02*
X10522444Y-14555531D01*
X10522444Y-14555531D02*
X10531968Y-14574579D01*
X10531968Y-14574579D02*
X10541491Y-14612674D01*
X10541491Y-14612674D02*
X10541491Y-14660293D01*
X10541491Y-14660293D02*
X10531968Y-14698388D01*
X10531968Y-14698388D02*
X10522444Y-14717436D01*
X10522444Y-14717436D02*
X10512920Y-14726960D01*
X10512920Y-14726960D02*
X10493872Y-14736484D01*
X10493872Y-14736484D02*
X10474825Y-14736484D01*
X10474825Y-14736484D02*
X10455777Y-14726960D01*
X10455777Y-14726960D02*
X10446253Y-14717436D01*
X10446253Y-14717436D02*
X10436729Y-14698388D01*
X10436729Y-14698388D02*
X10427206Y-14660293D01*
X10427206Y-14660293D02*
X10427206Y-14612674D01*
X10427206Y-14612674D02*
X10436729Y-14574579D01*
X10436729Y-14574579D02*
X10446253Y-14555531D01*
X10446253Y-14555531D02*
X10455777Y-14546008D01*
X10455777Y-14546008D02*
X10474825Y-14536484D01*
X10608158Y-14536484D02*
X10741491Y-14536484D01*
X10741491Y-14536484D02*
X10655777Y-14736484D01*
X10827206Y-14736484D02*
X10865301Y-14736484D01*
X10865301Y-14736484D02*
X10884349Y-14726960D01*
X10884349Y-14726960D02*
X10893872Y-14717436D01*
X10893872Y-14717436D02*
X10912920Y-14688865D01*
X10912920Y-14688865D02*
X10922444Y-14650769D01*
X10922444Y-14650769D02*
X10922444Y-14574579D01*
X10922444Y-14574579D02*
X10912920Y-14555531D01*
X10912920Y-14555531D02*
X10903396Y-14546008D01*
X10903396Y-14546008D02*
X10884349Y-14536484D01*
X10884349Y-14536484D02*
X10846253Y-14536484D01*
X10846253Y-14536484D02*
X10827206Y-14546008D01*
X10827206Y-14546008D02*
X10817682Y-14555531D01*
X10817682Y-14555531D02*
X10808158Y-14574579D01*
X10808158Y-14574579D02*
X10808158Y-14622198D01*
X10808158Y-14622198D02*
X10817682Y-14641246D01*
X10817682Y-14641246D02*
X10827206Y-14650769D01*
X10827206Y-14650769D02*
X10846253Y-14660293D01*
X10846253Y-14660293D02*
X10884349Y-14660293D01*
X10884349Y-14660293D02*
X10903396Y-14650769D01*
X10903396Y-14650769D02*
X10912920Y-14641246D01*
X10912920Y-14641246D02*
X10922444Y-14622198D01*
X10998634Y-14536484D02*
X10998634Y-14574579D01*
X11074825Y-14536484D02*
X11074825Y-14574579D01*
X11370063Y-14812674D02*
X11360539Y-14803150D01*
X11360539Y-14803150D02*
X11341491Y-14774579D01*
X11341491Y-14774579D02*
X11331968Y-14755531D01*
X11331968Y-14755531D02*
X11322444Y-14726960D01*
X11322444Y-14726960D02*
X11312920Y-14679341D01*
X11312920Y-14679341D02*
X11312920Y-14641246D01*
X11312920Y-14641246D02*
X11322444Y-14593627D01*
X11322444Y-14593627D02*
X11331968Y-14565055D01*
X11331968Y-14565055D02*
X11341491Y-14546008D01*
X11341491Y-14546008D02*
X11360539Y-14517436D01*
X11360539Y-14517436D02*
X11370063Y-14507912D01*
X11551015Y-14736484D02*
X11436729Y-14736484D01*
X11493872Y-14736484D02*
X11493872Y-14536484D01*
X11493872Y-14536484D02*
X11474825Y-14565055D01*
X11474825Y-14565055D02*
X11455777Y-14584103D01*
X11455777Y-14584103D02*
X11436729Y-14593627D01*
X11627206Y-14555531D02*
X11636729Y-14546008D01*
X11636729Y-14546008D02*
X11655777Y-14536484D01*
X11655777Y-14536484D02*
X11703396Y-14536484D01*
X11703396Y-14536484D02*
X11722444Y-14546008D01*
X11722444Y-14546008D02*
X11731968Y-14555531D01*
X11731968Y-14555531D02*
X11741491Y-14574579D01*
X11741491Y-14574579D02*
X11741491Y-14593627D01*
X11741491Y-14593627D02*
X11731968Y-14622198D01*
X11731968Y-14622198D02*
X11617682Y-14736484D01*
X11617682Y-14736484D02*
X11741491Y-14736484D01*
X11979587Y-14736484D02*
X11979587Y-14536484D01*
X12065301Y-14736484D02*
X12065301Y-14631722D01*
X12065301Y-14631722D02*
X12055777Y-14612674D01*
X12055777Y-14612674D02*
X12036730Y-14603150D01*
X12036730Y-14603150D02*
X12008158Y-14603150D01*
X12008158Y-14603150D02*
X11989110Y-14612674D01*
X11989110Y-14612674D02*
X11979587Y-14622198D01*
X12189110Y-14736484D02*
X12170063Y-14726960D01*
X12170063Y-14726960D02*
X12160539Y-14717436D01*
X12160539Y-14717436D02*
X12151015Y-14698388D01*
X12151015Y-14698388D02*
X12151015Y-14641246D01*
X12151015Y-14641246D02*
X12160539Y-14622198D01*
X12160539Y-14622198D02*
X12170063Y-14612674D01*
X12170063Y-14612674D02*
X12189110Y-14603150D01*
X12189110Y-14603150D02*
X12217682Y-14603150D01*
X12217682Y-14603150D02*
X12236730Y-14612674D01*
X12236730Y-14612674D02*
X12246253Y-14622198D01*
X12246253Y-14622198D02*
X12255777Y-14641246D01*
X12255777Y-14641246D02*
X12255777Y-14698388D01*
X12255777Y-14698388D02*
X12246253Y-14717436D01*
X12246253Y-14717436D02*
X12236730Y-14726960D01*
X12236730Y-14726960D02*
X12217682Y-14736484D01*
X12217682Y-14736484D02*
X12189110Y-14736484D01*
X12370063Y-14736484D02*
X12351015Y-14726960D01*
X12351015Y-14726960D02*
X12341491Y-14707912D01*
X12341491Y-14707912D02*
X12341491Y-14536484D01*
X12522444Y-14726960D02*
X12503396Y-14736484D01*
X12503396Y-14736484D02*
X12465301Y-14736484D01*
X12465301Y-14736484D02*
X12446253Y-14726960D01*
X12446253Y-14726960D02*
X12436730Y-14707912D01*
X12436730Y-14707912D02*
X12436730Y-14631722D01*
X12436730Y-14631722D02*
X12446253Y-14612674D01*
X12446253Y-14612674D02*
X12465301Y-14603150D01*
X12465301Y-14603150D02*
X12503396Y-14603150D01*
X12503396Y-14603150D02*
X12522444Y-14612674D01*
X12522444Y-14612674D02*
X12531968Y-14631722D01*
X12531968Y-14631722D02*
X12531968Y-14650769D01*
X12531968Y-14650769D02*
X12436730Y-14669817D01*
X12608158Y-14726960D02*
X12627206Y-14736484D01*
X12627206Y-14736484D02*
X12665301Y-14736484D01*
X12665301Y-14736484D02*
X12684349Y-14726960D01*
X12684349Y-14726960D02*
X12693872Y-14707912D01*
X12693872Y-14707912D02*
X12693872Y-14698388D01*
X12693872Y-14698388D02*
X12684349Y-14679341D01*
X12684349Y-14679341D02*
X12665301Y-14669817D01*
X12665301Y-14669817D02*
X12636730Y-14669817D01*
X12636730Y-14669817D02*
X12617682Y-14660293D01*
X12617682Y-14660293D02*
X12608158Y-14641246D01*
X12608158Y-14641246D02*
X12608158Y-14631722D01*
X12608158Y-14631722D02*
X12617682Y-14612674D01*
X12617682Y-14612674D02*
X12636730Y-14603150D01*
X12636730Y-14603150D02*
X12665301Y-14603150D01*
X12665301Y-14603150D02*
X12684349Y-14612674D01*
X12760539Y-14812674D02*
X12770063Y-14803150D01*
X12770063Y-14803150D02*
X12789111Y-14774579D01*
X12789111Y-14774579D02*
X12798634Y-14755531D01*
X12798634Y-14755531D02*
X12808158Y-14726960D01*
X12808158Y-14726960D02*
X12817682Y-14679341D01*
X12817682Y-14679341D02*
X12817682Y-14641246D01*
X12817682Y-14641246D02*
X12808158Y-14593627D01*
X12808158Y-14593627D02*
X12798634Y-14565055D01*
X12798634Y-14565055D02*
X12789111Y-14546008D01*
X12789111Y-14546008D02*
X12770063Y-14517436D01*
X12770063Y-14517436D02*
X12760539Y-14507912D01*
D10*
X7795000Y-14909000D02*
G75*
G02*
X7765000Y-14909000I-15000J0D01*
G01*
X7765000Y-14909000D02*
G75*
G02*
X7795000Y-14909000I15000J0D01*
G01*
D12*
X8093872Y-14800484D02*
X8112920Y-14800484D01*
X8112920Y-14800484D02*
X8131967Y-14810008D01*
X8131967Y-14810008D02*
X8141491Y-14819531D01*
X8141491Y-14819531D02*
X8151015Y-14838579D01*
X8151015Y-14838579D02*
X8160539Y-14876674D01*
X8160539Y-14876674D02*
X8160539Y-14924293D01*
X8160539Y-14924293D02*
X8151015Y-14962388D01*
X8151015Y-14962388D02*
X8141491Y-14981436D01*
X8141491Y-14981436D02*
X8131967Y-14990960D01*
X8131967Y-14990960D02*
X8112920Y-15000484D01*
X8112920Y-15000484D02*
X8093872Y-15000484D01*
X8093872Y-15000484D02*
X8074824Y-14990960D01*
X8074824Y-14990960D02*
X8065301Y-14981436D01*
X8065301Y-14981436D02*
X8055777Y-14962388D01*
X8055777Y-14962388D02*
X8046253Y-14924293D01*
X8046253Y-14924293D02*
X8046253Y-14876674D01*
X8046253Y-14876674D02*
X8055777Y-14838579D01*
X8055777Y-14838579D02*
X8065301Y-14819531D01*
X8065301Y-14819531D02*
X8074824Y-14810008D01*
X8074824Y-14810008D02*
X8093872Y-14800484D01*
X8246253Y-14981436D02*
X8255777Y-14990960D01*
X8255777Y-14990960D02*
X8246253Y-15000484D01*
X8246253Y-15000484D02*
X8236729Y-14990960D01*
X8236729Y-14990960D02*
X8246253Y-14981436D01*
X8246253Y-14981436D02*
X8246253Y-15000484D01*
X8322443Y-14800484D02*
X8446253Y-14800484D01*
X8446253Y-14800484D02*
X8379586Y-14876674D01*
X8379586Y-14876674D02*
X8408158Y-14876674D01*
X8408158Y-14876674D02*
X8427205Y-14886198D01*
X8427205Y-14886198D02*
X8436729Y-14895722D01*
X8436729Y-14895722D02*
X8446253Y-14914769D01*
X8446253Y-14914769D02*
X8446253Y-14962388D01*
X8446253Y-14962388D02*
X8436729Y-14981436D01*
X8436729Y-14981436D02*
X8427205Y-14990960D01*
X8427205Y-14990960D02*
X8408158Y-15000484D01*
X8408158Y-15000484D02*
X8351015Y-15000484D01*
X8351015Y-15000484D02*
X8331967Y-14990960D01*
X8331967Y-14990960D02*
X8322443Y-14981436D01*
X8570063Y-14800484D02*
X8589110Y-14800484D01*
X8589110Y-14800484D02*
X8608158Y-14810008D01*
X8608158Y-14810008D02*
X8617682Y-14819531D01*
X8617682Y-14819531D02*
X8627205Y-14838579D01*
X8627205Y-14838579D02*
X8636729Y-14876674D01*
X8636729Y-14876674D02*
X8636729Y-14924293D01*
X8636729Y-14924293D02*
X8627205Y-14962388D01*
X8627205Y-14962388D02*
X8617682Y-14981436D01*
X8617682Y-14981436D02*
X8608158Y-14990960D01*
X8608158Y-14990960D02*
X8589110Y-15000484D01*
X8589110Y-15000484D02*
X8570063Y-15000484D01*
X8570063Y-15000484D02*
X8551015Y-14990960D01*
X8551015Y-14990960D02*
X8541491Y-14981436D01*
X8541491Y-14981436D02*
X8531967Y-14962388D01*
X8531967Y-14962388D02*
X8522444Y-14924293D01*
X8522444Y-14924293D02*
X8522444Y-14876674D01*
X8522444Y-14876674D02*
X8531967Y-14838579D01*
X8531967Y-14838579D02*
X8541491Y-14819531D01*
X8541491Y-14819531D02*
X8551015Y-14810008D01*
X8551015Y-14810008D02*
X8570063Y-14800484D01*
X8760539Y-14800484D02*
X8779586Y-14800484D01*
X8779586Y-14800484D02*
X8798634Y-14810008D01*
X8798634Y-14810008D02*
X8808158Y-14819531D01*
X8808158Y-14819531D02*
X8817682Y-14838579D01*
X8817682Y-14838579D02*
X8827205Y-14876674D01*
X8827205Y-14876674D02*
X8827205Y-14924293D01*
X8827205Y-14924293D02*
X8817682Y-14962388D01*
X8817682Y-14962388D02*
X8808158Y-14981436D01*
X8808158Y-14981436D02*
X8798634Y-14990960D01*
X8798634Y-14990960D02*
X8779586Y-15000484D01*
X8779586Y-15000484D02*
X8760539Y-15000484D01*
X8760539Y-15000484D02*
X8741491Y-14990960D01*
X8741491Y-14990960D02*
X8731967Y-14981436D01*
X8731967Y-14981436D02*
X8722444Y-14962388D01*
X8722444Y-14962388D02*
X8712920Y-14924293D01*
X8712920Y-14924293D02*
X8712920Y-14876674D01*
X8712920Y-14876674D02*
X8722444Y-14838579D01*
X8722444Y-14838579D02*
X8731967Y-14819531D01*
X8731967Y-14819531D02*
X8741491Y-14810008D01*
X8741491Y-14810008D02*
X8760539Y-14800484D01*
X8912920Y-15000484D02*
X8912920Y-14867150D01*
X8912920Y-14886198D02*
X8922444Y-14876674D01*
X8922444Y-14876674D02*
X8941491Y-14867150D01*
X8941491Y-14867150D02*
X8970063Y-14867150D01*
X8970063Y-14867150D02*
X8989110Y-14876674D01*
X8989110Y-14876674D02*
X8998634Y-14895722D01*
X8998634Y-14895722D02*
X8998634Y-15000484D01*
X8998634Y-14895722D02*
X9008158Y-14876674D01*
X9008158Y-14876674D02*
X9027205Y-14867150D01*
X9027205Y-14867150D02*
X9055777Y-14867150D01*
X9055777Y-14867150D02*
X9074825Y-14876674D01*
X9074825Y-14876674D02*
X9084348Y-14895722D01*
X9084348Y-14895722D02*
X9084348Y-15000484D01*
X9179586Y-15000484D02*
X9179586Y-14867150D01*
X9179586Y-14886198D02*
X9189110Y-14876674D01*
X9189110Y-14876674D02*
X9208158Y-14867150D01*
X9208158Y-14867150D02*
X9236729Y-14867150D01*
X9236729Y-14867150D02*
X9255777Y-14876674D01*
X9255777Y-14876674D02*
X9265301Y-14895722D01*
X9265301Y-14895722D02*
X9265301Y-15000484D01*
X9265301Y-14895722D02*
X9274825Y-14876674D01*
X9274825Y-14876674D02*
X9293872Y-14867150D01*
X9293872Y-14867150D02*
X9322444Y-14867150D01*
X9322444Y-14867150D02*
X9341491Y-14876674D01*
X9341491Y-14876674D02*
X9351015Y-14895722D01*
X9351015Y-14895722D02*
X9351015Y-15000484D01*
X9741491Y-14790960D02*
X9570063Y-15048103D01*
X9998634Y-14800484D02*
X10017682Y-14800484D01*
X10017682Y-14800484D02*
X10036729Y-14810008D01*
X10036729Y-14810008D02*
X10046253Y-14819531D01*
X10046253Y-14819531D02*
X10055777Y-14838579D01*
X10055777Y-14838579D02*
X10065301Y-14876674D01*
X10065301Y-14876674D02*
X10065301Y-14924293D01*
X10065301Y-14924293D02*
X10055777Y-14962388D01*
X10055777Y-14962388D02*
X10046253Y-14981436D01*
X10046253Y-14981436D02*
X10036729Y-14990960D01*
X10036729Y-14990960D02*
X10017682Y-15000484D01*
X10017682Y-15000484D02*
X9998634Y-15000484D01*
X9998634Y-15000484D02*
X9979587Y-14990960D01*
X9979587Y-14990960D02*
X9970063Y-14981436D01*
X9970063Y-14981436D02*
X9960539Y-14962388D01*
X9960539Y-14962388D02*
X9951015Y-14924293D01*
X9951015Y-14924293D02*
X9951015Y-14876674D01*
X9951015Y-14876674D02*
X9960539Y-14838579D01*
X9960539Y-14838579D02*
X9970063Y-14819531D01*
X9970063Y-14819531D02*
X9979587Y-14810008D01*
X9979587Y-14810008D02*
X9998634Y-14800484D01*
X10151015Y-14981436D02*
X10160539Y-14990960D01*
X10160539Y-14990960D02*
X10151015Y-15000484D01*
X10151015Y-15000484D02*
X10141491Y-14990960D01*
X10141491Y-14990960D02*
X10151015Y-14981436D01*
X10151015Y-14981436D02*
X10151015Y-15000484D01*
X10284348Y-14800484D02*
X10303396Y-14800484D01*
X10303396Y-14800484D02*
X10322444Y-14810008D01*
X10322444Y-14810008D02*
X10331968Y-14819531D01*
X10331968Y-14819531D02*
X10341491Y-14838579D01*
X10341491Y-14838579D02*
X10351015Y-14876674D01*
X10351015Y-14876674D02*
X10351015Y-14924293D01*
X10351015Y-14924293D02*
X10341491Y-14962388D01*
X10341491Y-14962388D02*
X10331968Y-14981436D01*
X10331968Y-14981436D02*
X10322444Y-14990960D01*
X10322444Y-14990960D02*
X10303396Y-15000484D01*
X10303396Y-15000484D02*
X10284348Y-15000484D01*
X10284348Y-15000484D02*
X10265301Y-14990960D01*
X10265301Y-14990960D02*
X10255777Y-14981436D01*
X10255777Y-14981436D02*
X10246253Y-14962388D01*
X10246253Y-14962388D02*
X10236729Y-14924293D01*
X10236729Y-14924293D02*
X10236729Y-14876674D01*
X10236729Y-14876674D02*
X10246253Y-14838579D01*
X10246253Y-14838579D02*
X10255777Y-14819531D01*
X10255777Y-14819531D02*
X10265301Y-14810008D01*
X10265301Y-14810008D02*
X10284348Y-14800484D01*
X10541491Y-15000484D02*
X10427206Y-15000484D01*
X10484348Y-15000484D02*
X10484348Y-14800484D01*
X10484348Y-14800484D02*
X10465301Y-14829055D01*
X10465301Y-14829055D02*
X10446253Y-14848103D01*
X10446253Y-14848103D02*
X10427206Y-14857627D01*
X10731968Y-15000484D02*
X10617682Y-15000484D01*
X10674825Y-15000484D02*
X10674825Y-14800484D01*
X10674825Y-14800484D02*
X10655777Y-14829055D01*
X10655777Y-14829055D02*
X10636729Y-14848103D01*
X10636729Y-14848103D02*
X10617682Y-14857627D01*
X10846253Y-14886198D02*
X10827206Y-14876674D01*
X10827206Y-14876674D02*
X10817682Y-14867150D01*
X10817682Y-14867150D02*
X10808158Y-14848103D01*
X10808158Y-14848103D02*
X10808158Y-14838579D01*
X10808158Y-14838579D02*
X10817682Y-14819531D01*
X10817682Y-14819531D02*
X10827206Y-14810008D01*
X10827206Y-14810008D02*
X10846253Y-14800484D01*
X10846253Y-14800484D02*
X10884349Y-14800484D01*
X10884349Y-14800484D02*
X10903396Y-14810008D01*
X10903396Y-14810008D02*
X10912920Y-14819531D01*
X10912920Y-14819531D02*
X10922444Y-14838579D01*
X10922444Y-14838579D02*
X10922444Y-14848103D01*
X10922444Y-14848103D02*
X10912920Y-14867150D01*
X10912920Y-14867150D02*
X10903396Y-14876674D01*
X10903396Y-14876674D02*
X10884349Y-14886198D01*
X10884349Y-14886198D02*
X10846253Y-14886198D01*
X10846253Y-14886198D02*
X10827206Y-14895722D01*
X10827206Y-14895722D02*
X10817682Y-14905246D01*
X10817682Y-14905246D02*
X10808158Y-14924293D01*
X10808158Y-14924293D02*
X10808158Y-14962388D01*
X10808158Y-14962388D02*
X10817682Y-14981436D01*
X10817682Y-14981436D02*
X10827206Y-14990960D01*
X10827206Y-14990960D02*
X10846253Y-15000484D01*
X10846253Y-15000484D02*
X10884349Y-15000484D01*
X10884349Y-15000484D02*
X10903396Y-14990960D01*
X10903396Y-14990960D02*
X10912920Y-14981436D01*
X10912920Y-14981436D02*
X10922444Y-14962388D01*
X10922444Y-14962388D02*
X10922444Y-14924293D01*
X10922444Y-14924293D02*
X10912920Y-14905246D01*
X10912920Y-14905246D02*
X10903396Y-14895722D01*
X10903396Y-14895722D02*
X10884349Y-14886198D01*
X10998634Y-14800484D02*
X10998634Y-14838579D01*
X11074825Y-14800484D02*
X11074825Y-14838579D01*
X11370063Y-15076674D02*
X11360539Y-15067150D01*
X11360539Y-15067150D02*
X11341491Y-15038579D01*
X11341491Y-15038579D02*
X11331968Y-15019531D01*
X11331968Y-15019531D02*
X11322444Y-14990960D01*
X11322444Y-14990960D02*
X11312920Y-14943341D01*
X11312920Y-14943341D02*
X11312920Y-14905246D01*
X11312920Y-14905246D02*
X11322444Y-14857627D01*
X11322444Y-14857627D02*
X11331968Y-14829055D01*
X11331968Y-14829055D02*
X11341491Y-14810008D01*
X11341491Y-14810008D02*
X11360539Y-14781436D01*
X11360539Y-14781436D02*
X11370063Y-14771912D01*
X11436729Y-14819531D02*
X11446253Y-14810008D01*
X11446253Y-14810008D02*
X11465301Y-14800484D01*
X11465301Y-14800484D02*
X11512920Y-14800484D01*
X11512920Y-14800484D02*
X11531968Y-14810008D01*
X11531968Y-14810008D02*
X11541491Y-14819531D01*
X11541491Y-14819531D02*
X11551015Y-14838579D01*
X11551015Y-14838579D02*
X11551015Y-14857627D01*
X11551015Y-14857627D02*
X11541491Y-14886198D01*
X11541491Y-14886198D02*
X11427206Y-15000484D01*
X11427206Y-15000484D02*
X11551015Y-15000484D01*
X11789110Y-15000484D02*
X11789110Y-14800484D01*
X11874825Y-15000484D02*
X11874825Y-14895722D01*
X11874825Y-14895722D02*
X11865301Y-14876674D01*
X11865301Y-14876674D02*
X11846253Y-14867150D01*
X11846253Y-14867150D02*
X11817682Y-14867150D01*
X11817682Y-14867150D02*
X11798634Y-14876674D01*
X11798634Y-14876674D02*
X11789110Y-14886198D01*
X11998634Y-15000484D02*
X11979587Y-14990960D01*
X11979587Y-14990960D02*
X11970063Y-14981436D01*
X11970063Y-14981436D02*
X11960539Y-14962388D01*
X11960539Y-14962388D02*
X11960539Y-14905246D01*
X11960539Y-14905246D02*
X11970063Y-14886198D01*
X11970063Y-14886198D02*
X11979587Y-14876674D01*
X11979587Y-14876674D02*
X11998634Y-14867150D01*
X11998634Y-14867150D02*
X12027206Y-14867150D01*
X12027206Y-14867150D02*
X12046253Y-14876674D01*
X12046253Y-14876674D02*
X12055777Y-14886198D01*
X12055777Y-14886198D02*
X12065301Y-14905246D01*
X12065301Y-14905246D02*
X12065301Y-14962388D01*
X12065301Y-14962388D02*
X12055777Y-14981436D01*
X12055777Y-14981436D02*
X12046253Y-14990960D01*
X12046253Y-14990960D02*
X12027206Y-15000484D01*
X12027206Y-15000484D02*
X11998634Y-15000484D01*
X12179587Y-15000484D02*
X12160539Y-14990960D01*
X12160539Y-14990960D02*
X12151015Y-14971912D01*
X12151015Y-14971912D02*
X12151015Y-14800484D01*
X12331968Y-14990960D02*
X12312920Y-15000484D01*
X12312920Y-15000484D02*
X12274825Y-15000484D01*
X12274825Y-15000484D02*
X12255777Y-14990960D01*
X12255777Y-14990960D02*
X12246253Y-14971912D01*
X12246253Y-14971912D02*
X12246253Y-14895722D01*
X12246253Y-14895722D02*
X12255777Y-14876674D01*
X12255777Y-14876674D02*
X12274825Y-14867150D01*
X12274825Y-14867150D02*
X12312920Y-14867150D01*
X12312920Y-14867150D02*
X12331968Y-14876674D01*
X12331968Y-14876674D02*
X12341491Y-14895722D01*
X12341491Y-14895722D02*
X12341491Y-14914769D01*
X12341491Y-14914769D02*
X12246253Y-14933817D01*
X12417682Y-14990960D02*
X12436730Y-15000484D01*
X12436730Y-15000484D02*
X12474825Y-15000484D01*
X12474825Y-15000484D02*
X12493872Y-14990960D01*
X12493872Y-14990960D02*
X12503396Y-14971912D01*
X12503396Y-14971912D02*
X12503396Y-14962388D01*
X12503396Y-14962388D02*
X12493872Y-14943341D01*
X12493872Y-14943341D02*
X12474825Y-14933817D01*
X12474825Y-14933817D02*
X12446253Y-14933817D01*
X12446253Y-14933817D02*
X12427206Y-14924293D01*
X12427206Y-14924293D02*
X12417682Y-14905246D01*
X12417682Y-14905246D02*
X12417682Y-14895722D01*
X12417682Y-14895722D02*
X12427206Y-14876674D01*
X12427206Y-14876674D02*
X12446253Y-14867150D01*
X12446253Y-14867150D02*
X12474825Y-14867150D01*
X12474825Y-14867150D02*
X12493872Y-14876674D01*
X12570063Y-15076674D02*
X12579587Y-15067150D01*
X12579587Y-15067150D02*
X12598634Y-15038579D01*
X12598634Y-15038579D02*
X12608158Y-15019531D01*
X12608158Y-15019531D02*
X12617682Y-14990960D01*
X12617682Y-14990960D02*
X12627206Y-14943341D01*
X12627206Y-14943341D02*
X12627206Y-14905246D01*
X12627206Y-14905246D02*
X12617682Y-14857627D01*
X12617682Y-14857627D02*
X12608158Y-14829055D01*
X12608158Y-14829055D02*
X12598634Y-14810008D01*
X12598634Y-14810008D02*
X12579587Y-14781436D01*
X12579587Y-14781436D02*
X12570063Y-14771912D01*
D10*
X7775000Y-15153000D02*
X7775000Y-15193000D01*
X7755000Y-15173000D02*
X7795000Y-15173000D01*
D12*
X8093872Y-15064484D02*
X8112920Y-15064484D01*
X8112920Y-15064484D02*
X8131967Y-15074008D01*
X8131967Y-15074008D02*
X8141491Y-15083531D01*
X8141491Y-15083531D02*
X8151015Y-15102579D01*
X8151015Y-15102579D02*
X8160539Y-15140674D01*
X8160539Y-15140674D02*
X8160539Y-15188293D01*
X8160539Y-15188293D02*
X8151015Y-15226388D01*
X8151015Y-15226388D02*
X8141491Y-15245436D01*
X8141491Y-15245436D02*
X8131967Y-15254960D01*
X8131967Y-15254960D02*
X8112920Y-15264484D01*
X8112920Y-15264484D02*
X8093872Y-15264484D01*
X8093872Y-15264484D02*
X8074824Y-15254960D01*
X8074824Y-15254960D02*
X8065301Y-15245436D01*
X8065301Y-15245436D02*
X8055777Y-15226388D01*
X8055777Y-15226388D02*
X8046253Y-15188293D01*
X8046253Y-15188293D02*
X8046253Y-15140674D01*
X8046253Y-15140674D02*
X8055777Y-15102579D01*
X8055777Y-15102579D02*
X8065301Y-15083531D01*
X8065301Y-15083531D02*
X8074824Y-15074008D01*
X8074824Y-15074008D02*
X8093872Y-15064484D01*
X8246253Y-15245436D02*
X8255777Y-15254960D01*
X8255777Y-15254960D02*
X8246253Y-15264484D01*
X8246253Y-15264484D02*
X8236729Y-15254960D01*
X8236729Y-15254960D02*
X8246253Y-15245436D01*
X8246253Y-15245436D02*
X8246253Y-15264484D01*
X8427205Y-15131150D02*
X8427205Y-15264484D01*
X8379586Y-15054960D02*
X8331967Y-15197817D01*
X8331967Y-15197817D02*
X8455777Y-15197817D01*
X8570063Y-15064484D02*
X8589110Y-15064484D01*
X8589110Y-15064484D02*
X8608158Y-15074008D01*
X8608158Y-15074008D02*
X8617682Y-15083531D01*
X8617682Y-15083531D02*
X8627205Y-15102579D01*
X8627205Y-15102579D02*
X8636729Y-15140674D01*
X8636729Y-15140674D02*
X8636729Y-15188293D01*
X8636729Y-15188293D02*
X8627205Y-15226388D01*
X8627205Y-15226388D02*
X8617682Y-15245436D01*
X8617682Y-15245436D02*
X8608158Y-15254960D01*
X8608158Y-15254960D02*
X8589110Y-15264484D01*
X8589110Y-15264484D02*
X8570063Y-15264484D01*
X8570063Y-15264484D02*
X8551015Y-15254960D01*
X8551015Y-15254960D02*
X8541491Y-15245436D01*
X8541491Y-15245436D02*
X8531967Y-15226388D01*
X8531967Y-15226388D02*
X8522444Y-15188293D01*
X8522444Y-15188293D02*
X8522444Y-15140674D01*
X8522444Y-15140674D02*
X8531967Y-15102579D01*
X8531967Y-15102579D02*
X8541491Y-15083531D01*
X8541491Y-15083531D02*
X8551015Y-15074008D01*
X8551015Y-15074008D02*
X8570063Y-15064484D01*
X8760539Y-15064484D02*
X8779586Y-15064484D01*
X8779586Y-15064484D02*
X8798634Y-15074008D01*
X8798634Y-15074008D02*
X8808158Y-15083531D01*
X8808158Y-15083531D02*
X8817682Y-15102579D01*
X8817682Y-15102579D02*
X8827205Y-15140674D01*
X8827205Y-15140674D02*
X8827205Y-15188293D01*
X8827205Y-15188293D02*
X8817682Y-15226388D01*
X8817682Y-15226388D02*
X8808158Y-15245436D01*
X8808158Y-15245436D02*
X8798634Y-15254960D01*
X8798634Y-15254960D02*
X8779586Y-15264484D01*
X8779586Y-15264484D02*
X8760539Y-15264484D01*
X8760539Y-15264484D02*
X8741491Y-15254960D01*
X8741491Y-15254960D02*
X8731967Y-15245436D01*
X8731967Y-15245436D02*
X8722444Y-15226388D01*
X8722444Y-15226388D02*
X8712920Y-15188293D01*
X8712920Y-15188293D02*
X8712920Y-15140674D01*
X8712920Y-15140674D02*
X8722444Y-15102579D01*
X8722444Y-15102579D02*
X8731967Y-15083531D01*
X8731967Y-15083531D02*
X8741491Y-15074008D01*
X8741491Y-15074008D02*
X8760539Y-15064484D01*
X8912920Y-15264484D02*
X8912920Y-15131150D01*
X8912920Y-15150198D02*
X8922444Y-15140674D01*
X8922444Y-15140674D02*
X8941491Y-15131150D01*
X8941491Y-15131150D02*
X8970063Y-15131150D01*
X8970063Y-15131150D02*
X8989110Y-15140674D01*
X8989110Y-15140674D02*
X8998634Y-15159722D01*
X8998634Y-15159722D02*
X8998634Y-15264484D01*
X8998634Y-15159722D02*
X9008158Y-15140674D01*
X9008158Y-15140674D02*
X9027205Y-15131150D01*
X9027205Y-15131150D02*
X9055777Y-15131150D01*
X9055777Y-15131150D02*
X9074825Y-15140674D01*
X9074825Y-15140674D02*
X9084348Y-15159722D01*
X9084348Y-15159722D02*
X9084348Y-15264484D01*
X9179586Y-15264484D02*
X9179586Y-15131150D01*
X9179586Y-15150198D02*
X9189110Y-15140674D01*
X9189110Y-15140674D02*
X9208158Y-15131150D01*
X9208158Y-15131150D02*
X9236729Y-15131150D01*
X9236729Y-15131150D02*
X9255777Y-15140674D01*
X9255777Y-15140674D02*
X9265301Y-15159722D01*
X9265301Y-15159722D02*
X9265301Y-15264484D01*
X9265301Y-15159722D02*
X9274825Y-15140674D01*
X9274825Y-15140674D02*
X9293872Y-15131150D01*
X9293872Y-15131150D02*
X9322444Y-15131150D01*
X9322444Y-15131150D02*
X9341491Y-15140674D01*
X9341491Y-15140674D02*
X9351015Y-15159722D01*
X9351015Y-15159722D02*
X9351015Y-15264484D01*
X9741491Y-15054960D02*
X9570063Y-15312103D01*
X9998634Y-15064484D02*
X10017682Y-15064484D01*
X10017682Y-15064484D02*
X10036729Y-15074008D01*
X10036729Y-15074008D02*
X10046253Y-15083531D01*
X10046253Y-15083531D02*
X10055777Y-15102579D01*
X10055777Y-15102579D02*
X10065301Y-15140674D01*
X10065301Y-15140674D02*
X10065301Y-15188293D01*
X10065301Y-15188293D02*
X10055777Y-15226388D01*
X10055777Y-15226388D02*
X10046253Y-15245436D01*
X10046253Y-15245436D02*
X10036729Y-15254960D01*
X10036729Y-15254960D02*
X10017682Y-15264484D01*
X10017682Y-15264484D02*
X9998634Y-15264484D01*
X9998634Y-15264484D02*
X9979587Y-15254960D01*
X9979587Y-15254960D02*
X9970063Y-15245436D01*
X9970063Y-15245436D02*
X9960539Y-15226388D01*
X9960539Y-15226388D02*
X9951015Y-15188293D01*
X9951015Y-15188293D02*
X9951015Y-15140674D01*
X9951015Y-15140674D02*
X9960539Y-15102579D01*
X9960539Y-15102579D02*
X9970063Y-15083531D01*
X9970063Y-15083531D02*
X9979587Y-15074008D01*
X9979587Y-15074008D02*
X9998634Y-15064484D01*
X10151015Y-15245436D02*
X10160539Y-15254960D01*
X10160539Y-15254960D02*
X10151015Y-15264484D01*
X10151015Y-15264484D02*
X10141491Y-15254960D01*
X10141491Y-15254960D02*
X10151015Y-15245436D01*
X10151015Y-15245436D02*
X10151015Y-15264484D01*
X10284348Y-15064484D02*
X10303396Y-15064484D01*
X10303396Y-15064484D02*
X10322444Y-15074008D01*
X10322444Y-15074008D02*
X10331968Y-15083531D01*
X10331968Y-15083531D02*
X10341491Y-15102579D01*
X10341491Y-15102579D02*
X10351015Y-15140674D01*
X10351015Y-15140674D02*
X10351015Y-15188293D01*
X10351015Y-15188293D02*
X10341491Y-15226388D01*
X10341491Y-15226388D02*
X10331968Y-15245436D01*
X10331968Y-15245436D02*
X10322444Y-15254960D01*
X10322444Y-15254960D02*
X10303396Y-15264484D01*
X10303396Y-15264484D02*
X10284348Y-15264484D01*
X10284348Y-15264484D02*
X10265301Y-15254960D01*
X10265301Y-15254960D02*
X10255777Y-15245436D01*
X10255777Y-15245436D02*
X10246253Y-15226388D01*
X10246253Y-15226388D02*
X10236729Y-15188293D01*
X10236729Y-15188293D02*
X10236729Y-15140674D01*
X10236729Y-15140674D02*
X10246253Y-15102579D01*
X10246253Y-15102579D02*
X10255777Y-15083531D01*
X10255777Y-15083531D02*
X10265301Y-15074008D01*
X10265301Y-15074008D02*
X10284348Y-15064484D01*
X10541491Y-15264484D02*
X10427206Y-15264484D01*
X10484348Y-15264484D02*
X10484348Y-15064484D01*
X10484348Y-15064484D02*
X10465301Y-15093055D01*
X10465301Y-15093055D02*
X10446253Y-15112103D01*
X10446253Y-15112103D02*
X10427206Y-15121627D01*
X10722444Y-15064484D02*
X10627206Y-15064484D01*
X10627206Y-15064484D02*
X10617682Y-15159722D01*
X10617682Y-15159722D02*
X10627206Y-15150198D01*
X10627206Y-15150198D02*
X10646253Y-15140674D01*
X10646253Y-15140674D02*
X10693872Y-15140674D01*
X10693872Y-15140674D02*
X10712920Y-15150198D01*
X10712920Y-15150198D02*
X10722444Y-15159722D01*
X10722444Y-15159722D02*
X10731968Y-15178769D01*
X10731968Y-15178769D02*
X10731968Y-15226388D01*
X10731968Y-15226388D02*
X10722444Y-15245436D01*
X10722444Y-15245436D02*
X10712920Y-15254960D01*
X10712920Y-15254960D02*
X10693872Y-15264484D01*
X10693872Y-15264484D02*
X10646253Y-15264484D01*
X10646253Y-15264484D02*
X10627206Y-15254960D01*
X10627206Y-15254960D02*
X10617682Y-15245436D01*
X10798634Y-15064484D02*
X10931968Y-15064484D01*
X10931968Y-15064484D02*
X10846253Y-15264484D01*
X10998634Y-15064484D02*
X10998634Y-15102579D01*
X11074825Y-15064484D02*
X11074825Y-15102579D01*
X11370063Y-15340674D02*
X11360539Y-15331150D01*
X11360539Y-15331150D02*
X11341491Y-15302579D01*
X11341491Y-15302579D02*
X11331968Y-15283531D01*
X11331968Y-15283531D02*
X11322444Y-15254960D01*
X11322444Y-15254960D02*
X11312920Y-15207341D01*
X11312920Y-15207341D02*
X11312920Y-15169246D01*
X11312920Y-15169246D02*
X11322444Y-15121627D01*
X11322444Y-15121627D02*
X11331968Y-15093055D01*
X11331968Y-15093055D02*
X11341491Y-15074008D01*
X11341491Y-15074008D02*
X11360539Y-15045436D01*
X11360539Y-15045436D02*
X11370063Y-15035912D01*
X11436729Y-15083531D02*
X11446253Y-15074008D01*
X11446253Y-15074008D02*
X11465301Y-15064484D01*
X11465301Y-15064484D02*
X11512920Y-15064484D01*
X11512920Y-15064484D02*
X11531968Y-15074008D01*
X11531968Y-15074008D02*
X11541491Y-15083531D01*
X11541491Y-15083531D02*
X11551015Y-15102579D01*
X11551015Y-15102579D02*
X11551015Y-15121627D01*
X11551015Y-15121627D02*
X11541491Y-15150198D01*
X11541491Y-15150198D02*
X11427206Y-15264484D01*
X11427206Y-15264484D02*
X11551015Y-15264484D01*
X11731968Y-15064484D02*
X11636729Y-15064484D01*
X11636729Y-15064484D02*
X11627206Y-15159722D01*
X11627206Y-15159722D02*
X11636729Y-15150198D01*
X11636729Y-15150198D02*
X11655777Y-15140674D01*
X11655777Y-15140674D02*
X11703396Y-15140674D01*
X11703396Y-15140674D02*
X11722444Y-15150198D01*
X11722444Y-15150198D02*
X11731968Y-15159722D01*
X11731968Y-15159722D02*
X11741491Y-15178769D01*
X11741491Y-15178769D02*
X11741491Y-15226388D01*
X11741491Y-15226388D02*
X11731968Y-15245436D01*
X11731968Y-15245436D02*
X11722444Y-15254960D01*
X11722444Y-15254960D02*
X11703396Y-15264484D01*
X11703396Y-15264484D02*
X11655777Y-15264484D01*
X11655777Y-15264484D02*
X11636729Y-15254960D01*
X11636729Y-15254960D02*
X11627206Y-15245436D01*
X11912920Y-15131150D02*
X11912920Y-15264484D01*
X11865301Y-15054960D02*
X11817682Y-15197817D01*
X11817682Y-15197817D02*
X11941491Y-15197817D01*
X12170063Y-15264484D02*
X12170063Y-15064484D01*
X12255777Y-15264484D02*
X12255777Y-15159722D01*
X12255777Y-15159722D02*
X12246253Y-15140674D01*
X12246253Y-15140674D02*
X12227206Y-15131150D01*
X12227206Y-15131150D02*
X12198634Y-15131150D01*
X12198634Y-15131150D02*
X12179587Y-15140674D01*
X12179587Y-15140674D02*
X12170063Y-15150198D01*
X12379587Y-15264484D02*
X12360539Y-15254960D01*
X12360539Y-15254960D02*
X12351015Y-15245436D01*
X12351015Y-15245436D02*
X12341491Y-15226388D01*
X12341491Y-15226388D02*
X12341491Y-15169246D01*
X12341491Y-15169246D02*
X12351015Y-15150198D01*
X12351015Y-15150198D02*
X12360539Y-15140674D01*
X12360539Y-15140674D02*
X12379587Y-15131150D01*
X12379587Y-15131150D02*
X12408158Y-15131150D01*
X12408158Y-15131150D02*
X12427206Y-15140674D01*
X12427206Y-15140674D02*
X12436730Y-15150198D01*
X12436730Y-15150198D02*
X12446253Y-15169246D01*
X12446253Y-15169246D02*
X12446253Y-15226388D01*
X12446253Y-15226388D02*
X12436730Y-15245436D01*
X12436730Y-15245436D02*
X12427206Y-15254960D01*
X12427206Y-15254960D02*
X12408158Y-15264484D01*
X12408158Y-15264484D02*
X12379587Y-15264484D01*
X12560539Y-15264484D02*
X12541491Y-15254960D01*
X12541491Y-15254960D02*
X12531968Y-15235912D01*
X12531968Y-15235912D02*
X12531968Y-15064484D01*
X12712920Y-15254960D02*
X12693872Y-15264484D01*
X12693872Y-15264484D02*
X12655777Y-15264484D01*
X12655777Y-15264484D02*
X12636730Y-15254960D01*
X12636730Y-15254960D02*
X12627206Y-15235912D01*
X12627206Y-15235912D02*
X12627206Y-15159722D01*
X12627206Y-15159722D02*
X12636730Y-15140674D01*
X12636730Y-15140674D02*
X12655777Y-15131150D01*
X12655777Y-15131150D02*
X12693872Y-15131150D01*
X12693872Y-15131150D02*
X12712920Y-15140674D01*
X12712920Y-15140674D02*
X12722444Y-15159722D01*
X12722444Y-15159722D02*
X12722444Y-15178769D01*
X12722444Y-15178769D02*
X12627206Y-15197817D01*
X12798634Y-15254960D02*
X12817682Y-15264484D01*
X12817682Y-15264484D02*
X12855777Y-15264484D01*
X12855777Y-15264484D02*
X12874825Y-15254960D01*
X12874825Y-15254960D02*
X12884349Y-15235912D01*
X12884349Y-15235912D02*
X12884349Y-15226388D01*
X12884349Y-15226388D02*
X12874825Y-15207341D01*
X12874825Y-15207341D02*
X12855777Y-15197817D01*
X12855777Y-15197817D02*
X12827206Y-15197817D01*
X12827206Y-15197817D02*
X12808158Y-15188293D01*
X12808158Y-15188293D02*
X12798634Y-15169246D01*
X12798634Y-15169246D02*
X12798634Y-15159722D01*
X12798634Y-15159722D02*
X12808158Y-15140674D01*
X12808158Y-15140674D02*
X12827206Y-15131150D01*
X12827206Y-15131150D02*
X12855777Y-15131150D01*
X12855777Y-15131150D02*
X12874825Y-15140674D01*
X12951015Y-15340674D02*
X12960539Y-15331150D01*
X12960539Y-15331150D02*
X12979587Y-15302579D01*
X12979587Y-15302579D02*
X12989111Y-15283531D01*
X12989111Y-15283531D02*
X12998634Y-15254960D01*
X12998634Y-15254960D02*
X13008158Y-15207341D01*
X13008158Y-15207341D02*
X13008158Y-15169246D01*
X13008158Y-15169246D02*
X12998634Y-15121627D01*
X12998634Y-15121627D02*
X12989111Y-15093055D01*
X12989111Y-15093055D02*
X12979587Y-15074008D01*
X12979587Y-15074008D02*
X12960539Y-15045436D01*
X12960539Y-15045436D02*
X12951015Y-15035912D01*
D10*
X7786213Y-15458213D02*
X7786213Y-15415787D01*
X7743787Y-15415787D01*
X7743787Y-15458213D01*
X7786213Y-15458213D01*
D12*
X8093872Y-15328484D02*
X8112920Y-15328484D01*
X8112920Y-15328484D02*
X8131967Y-15338008D01*
X8131967Y-15338008D02*
X8141491Y-15347531D01*
X8141491Y-15347531D02*
X8151015Y-15366579D01*
X8151015Y-15366579D02*
X8160539Y-15404674D01*
X8160539Y-15404674D02*
X8160539Y-15452293D01*
X8160539Y-15452293D02*
X8151015Y-15490388D01*
X8151015Y-15490388D02*
X8141491Y-15509436D01*
X8141491Y-15509436D02*
X8131967Y-15518960D01*
X8131967Y-15518960D02*
X8112920Y-15528484D01*
X8112920Y-15528484D02*
X8093872Y-15528484D01*
X8093872Y-15528484D02*
X8074824Y-15518960D01*
X8074824Y-15518960D02*
X8065301Y-15509436D01*
X8065301Y-15509436D02*
X8055777Y-15490388D01*
X8055777Y-15490388D02*
X8046253Y-15452293D01*
X8046253Y-15452293D02*
X8046253Y-15404674D01*
X8046253Y-15404674D02*
X8055777Y-15366579D01*
X8055777Y-15366579D02*
X8065301Y-15347531D01*
X8065301Y-15347531D02*
X8074824Y-15338008D01*
X8074824Y-15338008D02*
X8093872Y-15328484D01*
X8246253Y-15509436D02*
X8255777Y-15518960D01*
X8255777Y-15518960D02*
X8246253Y-15528484D01*
X8246253Y-15528484D02*
X8236729Y-15518960D01*
X8236729Y-15518960D02*
X8246253Y-15509436D01*
X8246253Y-15509436D02*
X8246253Y-15528484D01*
X8427205Y-15328484D02*
X8389110Y-15328484D01*
X8389110Y-15328484D02*
X8370062Y-15338008D01*
X8370062Y-15338008D02*
X8360539Y-15347531D01*
X8360539Y-15347531D02*
X8341491Y-15376103D01*
X8341491Y-15376103D02*
X8331967Y-15414198D01*
X8331967Y-15414198D02*
X8331967Y-15490388D01*
X8331967Y-15490388D02*
X8341491Y-15509436D01*
X8341491Y-15509436D02*
X8351015Y-15518960D01*
X8351015Y-15518960D02*
X8370062Y-15528484D01*
X8370062Y-15528484D02*
X8408158Y-15528484D01*
X8408158Y-15528484D02*
X8427205Y-15518960D01*
X8427205Y-15518960D02*
X8436729Y-15509436D01*
X8436729Y-15509436D02*
X8446253Y-15490388D01*
X8446253Y-15490388D02*
X8446253Y-15442769D01*
X8446253Y-15442769D02*
X8436729Y-15423722D01*
X8436729Y-15423722D02*
X8427205Y-15414198D01*
X8427205Y-15414198D02*
X8408158Y-15404674D01*
X8408158Y-15404674D02*
X8370062Y-15404674D01*
X8370062Y-15404674D02*
X8351015Y-15414198D01*
X8351015Y-15414198D02*
X8341491Y-15423722D01*
X8341491Y-15423722D02*
X8331967Y-15442769D01*
X8570063Y-15328484D02*
X8589110Y-15328484D01*
X8589110Y-15328484D02*
X8608158Y-15338008D01*
X8608158Y-15338008D02*
X8617682Y-15347531D01*
X8617682Y-15347531D02*
X8627205Y-15366579D01*
X8627205Y-15366579D02*
X8636729Y-15404674D01*
X8636729Y-15404674D02*
X8636729Y-15452293D01*
X8636729Y-15452293D02*
X8627205Y-15490388D01*
X8627205Y-15490388D02*
X8617682Y-15509436D01*
X8617682Y-15509436D02*
X8608158Y-15518960D01*
X8608158Y-15518960D02*
X8589110Y-15528484D01*
X8589110Y-15528484D02*
X8570063Y-15528484D01*
X8570063Y-15528484D02*
X8551015Y-15518960D01*
X8551015Y-15518960D02*
X8541491Y-15509436D01*
X8541491Y-15509436D02*
X8531967Y-15490388D01*
X8531967Y-15490388D02*
X8522444Y-15452293D01*
X8522444Y-15452293D02*
X8522444Y-15404674D01*
X8522444Y-15404674D02*
X8531967Y-15366579D01*
X8531967Y-15366579D02*
X8541491Y-15347531D01*
X8541491Y-15347531D02*
X8551015Y-15338008D01*
X8551015Y-15338008D02*
X8570063Y-15328484D01*
X8760539Y-15328484D02*
X8779586Y-15328484D01*
X8779586Y-15328484D02*
X8798634Y-15338008D01*
X8798634Y-15338008D02*
X8808158Y-15347531D01*
X8808158Y-15347531D02*
X8817682Y-15366579D01*
X8817682Y-15366579D02*
X8827205Y-15404674D01*
X8827205Y-15404674D02*
X8827205Y-15452293D01*
X8827205Y-15452293D02*
X8817682Y-15490388D01*
X8817682Y-15490388D02*
X8808158Y-15509436D01*
X8808158Y-15509436D02*
X8798634Y-15518960D01*
X8798634Y-15518960D02*
X8779586Y-15528484D01*
X8779586Y-15528484D02*
X8760539Y-15528484D01*
X8760539Y-15528484D02*
X8741491Y-15518960D01*
X8741491Y-15518960D02*
X8731967Y-15509436D01*
X8731967Y-15509436D02*
X8722444Y-15490388D01*
X8722444Y-15490388D02*
X8712920Y-15452293D01*
X8712920Y-15452293D02*
X8712920Y-15404674D01*
X8712920Y-15404674D02*
X8722444Y-15366579D01*
X8722444Y-15366579D02*
X8731967Y-15347531D01*
X8731967Y-15347531D02*
X8741491Y-15338008D01*
X8741491Y-15338008D02*
X8760539Y-15328484D01*
X8912920Y-15528484D02*
X8912920Y-15395150D01*
X8912920Y-15414198D02*
X8922444Y-15404674D01*
X8922444Y-15404674D02*
X8941491Y-15395150D01*
X8941491Y-15395150D02*
X8970063Y-15395150D01*
X8970063Y-15395150D02*
X8989110Y-15404674D01*
X8989110Y-15404674D02*
X8998634Y-15423722D01*
X8998634Y-15423722D02*
X8998634Y-15528484D01*
X8998634Y-15423722D02*
X9008158Y-15404674D01*
X9008158Y-15404674D02*
X9027205Y-15395150D01*
X9027205Y-15395150D02*
X9055777Y-15395150D01*
X9055777Y-15395150D02*
X9074825Y-15404674D01*
X9074825Y-15404674D02*
X9084348Y-15423722D01*
X9084348Y-15423722D02*
X9084348Y-15528484D01*
X9179586Y-15528484D02*
X9179586Y-15395150D01*
X9179586Y-15414198D02*
X9189110Y-15404674D01*
X9189110Y-15404674D02*
X9208158Y-15395150D01*
X9208158Y-15395150D02*
X9236729Y-15395150D01*
X9236729Y-15395150D02*
X9255777Y-15404674D01*
X9255777Y-15404674D02*
X9265301Y-15423722D01*
X9265301Y-15423722D02*
X9265301Y-15528484D01*
X9265301Y-15423722D02*
X9274825Y-15404674D01*
X9274825Y-15404674D02*
X9293872Y-15395150D01*
X9293872Y-15395150D02*
X9322444Y-15395150D01*
X9322444Y-15395150D02*
X9341491Y-15404674D01*
X9341491Y-15404674D02*
X9351015Y-15423722D01*
X9351015Y-15423722D02*
X9351015Y-15528484D01*
X9741491Y-15318960D02*
X9570063Y-15576103D01*
X9998634Y-15328484D02*
X10017682Y-15328484D01*
X10017682Y-15328484D02*
X10036729Y-15338008D01*
X10036729Y-15338008D02*
X10046253Y-15347531D01*
X10046253Y-15347531D02*
X10055777Y-15366579D01*
X10055777Y-15366579D02*
X10065301Y-15404674D01*
X10065301Y-15404674D02*
X10065301Y-15452293D01*
X10065301Y-15452293D02*
X10055777Y-15490388D01*
X10055777Y-15490388D02*
X10046253Y-15509436D01*
X10046253Y-15509436D02*
X10036729Y-15518960D01*
X10036729Y-15518960D02*
X10017682Y-15528484D01*
X10017682Y-15528484D02*
X9998634Y-15528484D01*
X9998634Y-15528484D02*
X9979587Y-15518960D01*
X9979587Y-15518960D02*
X9970063Y-15509436D01*
X9970063Y-15509436D02*
X9960539Y-15490388D01*
X9960539Y-15490388D02*
X9951015Y-15452293D01*
X9951015Y-15452293D02*
X9951015Y-15404674D01*
X9951015Y-15404674D02*
X9960539Y-15366579D01*
X9960539Y-15366579D02*
X9970063Y-15347531D01*
X9970063Y-15347531D02*
X9979587Y-15338008D01*
X9979587Y-15338008D02*
X9998634Y-15328484D01*
X10151015Y-15509436D02*
X10160539Y-15518960D01*
X10160539Y-15518960D02*
X10151015Y-15528484D01*
X10151015Y-15528484D02*
X10141491Y-15518960D01*
X10141491Y-15518960D02*
X10151015Y-15509436D01*
X10151015Y-15509436D02*
X10151015Y-15528484D01*
X10284348Y-15328484D02*
X10303396Y-15328484D01*
X10303396Y-15328484D02*
X10322444Y-15338008D01*
X10322444Y-15338008D02*
X10331968Y-15347531D01*
X10331968Y-15347531D02*
X10341491Y-15366579D01*
X10341491Y-15366579D02*
X10351015Y-15404674D01*
X10351015Y-15404674D02*
X10351015Y-15452293D01*
X10351015Y-15452293D02*
X10341491Y-15490388D01*
X10341491Y-15490388D02*
X10331968Y-15509436D01*
X10331968Y-15509436D02*
X10322444Y-15518960D01*
X10322444Y-15518960D02*
X10303396Y-15528484D01*
X10303396Y-15528484D02*
X10284348Y-15528484D01*
X10284348Y-15528484D02*
X10265301Y-15518960D01*
X10265301Y-15518960D02*
X10255777Y-15509436D01*
X10255777Y-15509436D02*
X10246253Y-15490388D01*
X10246253Y-15490388D02*
X10236729Y-15452293D01*
X10236729Y-15452293D02*
X10236729Y-15404674D01*
X10236729Y-15404674D02*
X10246253Y-15366579D01*
X10246253Y-15366579D02*
X10255777Y-15347531D01*
X10255777Y-15347531D02*
X10265301Y-15338008D01*
X10265301Y-15338008D02*
X10284348Y-15328484D01*
X10427206Y-15347531D02*
X10436729Y-15338008D01*
X10436729Y-15338008D02*
X10455777Y-15328484D01*
X10455777Y-15328484D02*
X10503396Y-15328484D01*
X10503396Y-15328484D02*
X10522444Y-15338008D01*
X10522444Y-15338008D02*
X10531968Y-15347531D01*
X10531968Y-15347531D02*
X10541491Y-15366579D01*
X10541491Y-15366579D02*
X10541491Y-15385627D01*
X10541491Y-15385627D02*
X10531968Y-15414198D01*
X10531968Y-15414198D02*
X10417682Y-15528484D01*
X10417682Y-15528484D02*
X10541491Y-15528484D01*
X10608158Y-15328484D02*
X10731968Y-15328484D01*
X10731968Y-15328484D02*
X10665301Y-15404674D01*
X10665301Y-15404674D02*
X10693872Y-15404674D01*
X10693872Y-15404674D02*
X10712920Y-15414198D01*
X10712920Y-15414198D02*
X10722444Y-15423722D01*
X10722444Y-15423722D02*
X10731968Y-15442769D01*
X10731968Y-15442769D02*
X10731968Y-15490388D01*
X10731968Y-15490388D02*
X10722444Y-15509436D01*
X10722444Y-15509436D02*
X10712920Y-15518960D01*
X10712920Y-15518960D02*
X10693872Y-15528484D01*
X10693872Y-15528484D02*
X10636729Y-15528484D01*
X10636729Y-15528484D02*
X10617682Y-15518960D01*
X10617682Y-15518960D02*
X10608158Y-15509436D01*
X10903396Y-15328484D02*
X10865301Y-15328484D01*
X10865301Y-15328484D02*
X10846253Y-15338008D01*
X10846253Y-15338008D02*
X10836729Y-15347531D01*
X10836729Y-15347531D02*
X10817682Y-15376103D01*
X10817682Y-15376103D02*
X10808158Y-15414198D01*
X10808158Y-15414198D02*
X10808158Y-15490388D01*
X10808158Y-15490388D02*
X10817682Y-15509436D01*
X10817682Y-15509436D02*
X10827206Y-15518960D01*
X10827206Y-15518960D02*
X10846253Y-15528484D01*
X10846253Y-15528484D02*
X10884349Y-15528484D01*
X10884349Y-15528484D02*
X10903396Y-15518960D01*
X10903396Y-15518960D02*
X10912920Y-15509436D01*
X10912920Y-15509436D02*
X10922444Y-15490388D01*
X10922444Y-15490388D02*
X10922444Y-15442769D01*
X10922444Y-15442769D02*
X10912920Y-15423722D01*
X10912920Y-15423722D02*
X10903396Y-15414198D01*
X10903396Y-15414198D02*
X10884349Y-15404674D01*
X10884349Y-15404674D02*
X10846253Y-15404674D01*
X10846253Y-15404674D02*
X10827206Y-15414198D01*
X10827206Y-15414198D02*
X10817682Y-15423722D01*
X10817682Y-15423722D02*
X10808158Y-15442769D01*
X10998634Y-15328484D02*
X10998634Y-15366579D01*
X11074825Y-15328484D02*
X11074825Y-15366579D01*
X11370063Y-15604674D02*
X11360539Y-15595150D01*
X11360539Y-15595150D02*
X11341491Y-15566579D01*
X11341491Y-15566579D02*
X11331968Y-15547531D01*
X11331968Y-15547531D02*
X11322444Y-15518960D01*
X11322444Y-15518960D02*
X11312920Y-15471341D01*
X11312920Y-15471341D02*
X11312920Y-15433246D01*
X11312920Y-15433246D02*
X11322444Y-15385627D01*
X11322444Y-15385627D02*
X11331968Y-15357055D01*
X11331968Y-15357055D02*
X11341491Y-15338008D01*
X11341491Y-15338008D02*
X11360539Y-15309436D01*
X11360539Y-15309436D02*
X11370063Y-15299912D01*
X11484348Y-15328484D02*
X11503396Y-15328484D01*
X11503396Y-15328484D02*
X11522444Y-15338008D01*
X11522444Y-15338008D02*
X11531968Y-15347531D01*
X11531968Y-15347531D02*
X11541491Y-15366579D01*
X11541491Y-15366579D02*
X11551015Y-15404674D01*
X11551015Y-15404674D02*
X11551015Y-15452293D01*
X11551015Y-15452293D02*
X11541491Y-15490388D01*
X11541491Y-15490388D02*
X11531968Y-15509436D01*
X11531968Y-15509436D02*
X11522444Y-15518960D01*
X11522444Y-15518960D02*
X11503396Y-15528484D01*
X11503396Y-15528484D02*
X11484348Y-15528484D01*
X11484348Y-15528484D02*
X11465301Y-15518960D01*
X11465301Y-15518960D02*
X11455777Y-15509436D01*
X11455777Y-15509436D02*
X11446253Y-15490388D01*
X11446253Y-15490388D02*
X11436729Y-15452293D01*
X11436729Y-15452293D02*
X11436729Y-15404674D01*
X11436729Y-15404674D02*
X11446253Y-15366579D01*
X11446253Y-15366579D02*
X11455777Y-15347531D01*
X11455777Y-15347531D02*
X11465301Y-15338008D01*
X11465301Y-15338008D02*
X11484348Y-15328484D01*
X11789110Y-15528484D02*
X11789110Y-15328484D01*
X11874825Y-15528484D02*
X11874825Y-15423722D01*
X11874825Y-15423722D02*
X11865301Y-15404674D01*
X11865301Y-15404674D02*
X11846253Y-15395150D01*
X11846253Y-15395150D02*
X11817682Y-15395150D01*
X11817682Y-15395150D02*
X11798634Y-15404674D01*
X11798634Y-15404674D02*
X11789110Y-15414198D01*
X11998634Y-15528484D02*
X11979587Y-15518960D01*
X11979587Y-15518960D02*
X11970063Y-15509436D01*
X11970063Y-15509436D02*
X11960539Y-15490388D01*
X11960539Y-15490388D02*
X11960539Y-15433246D01*
X11960539Y-15433246D02*
X11970063Y-15414198D01*
X11970063Y-15414198D02*
X11979587Y-15404674D01*
X11979587Y-15404674D02*
X11998634Y-15395150D01*
X11998634Y-15395150D02*
X12027206Y-15395150D01*
X12027206Y-15395150D02*
X12046253Y-15404674D01*
X12046253Y-15404674D02*
X12055777Y-15414198D01*
X12055777Y-15414198D02*
X12065301Y-15433246D01*
X12065301Y-15433246D02*
X12065301Y-15490388D01*
X12065301Y-15490388D02*
X12055777Y-15509436D01*
X12055777Y-15509436D02*
X12046253Y-15518960D01*
X12046253Y-15518960D02*
X12027206Y-15528484D01*
X12027206Y-15528484D02*
X11998634Y-15528484D01*
X12179587Y-15528484D02*
X12160539Y-15518960D01*
X12160539Y-15518960D02*
X12151015Y-15499912D01*
X12151015Y-15499912D02*
X12151015Y-15328484D01*
X12331968Y-15518960D02*
X12312920Y-15528484D01*
X12312920Y-15528484D02*
X12274825Y-15528484D01*
X12274825Y-15528484D02*
X12255777Y-15518960D01*
X12255777Y-15518960D02*
X12246253Y-15499912D01*
X12246253Y-15499912D02*
X12246253Y-15423722D01*
X12246253Y-15423722D02*
X12255777Y-15404674D01*
X12255777Y-15404674D02*
X12274825Y-15395150D01*
X12274825Y-15395150D02*
X12312920Y-15395150D01*
X12312920Y-15395150D02*
X12331968Y-15404674D01*
X12331968Y-15404674D02*
X12341491Y-15423722D01*
X12341491Y-15423722D02*
X12341491Y-15442769D01*
X12341491Y-15442769D02*
X12246253Y-15461817D01*
X12417682Y-15518960D02*
X12436730Y-15528484D01*
X12436730Y-15528484D02*
X12474825Y-15528484D01*
X12474825Y-15528484D02*
X12493872Y-15518960D01*
X12493872Y-15518960D02*
X12503396Y-15499912D01*
X12503396Y-15499912D02*
X12503396Y-15490388D01*
X12503396Y-15490388D02*
X12493872Y-15471341D01*
X12493872Y-15471341D02*
X12474825Y-15461817D01*
X12474825Y-15461817D02*
X12446253Y-15461817D01*
X12446253Y-15461817D02*
X12427206Y-15452293D01*
X12427206Y-15452293D02*
X12417682Y-15433246D01*
X12417682Y-15433246D02*
X12417682Y-15423722D01*
X12417682Y-15423722D02*
X12427206Y-15404674D01*
X12427206Y-15404674D02*
X12446253Y-15395150D01*
X12446253Y-15395150D02*
X12474825Y-15395150D01*
X12474825Y-15395150D02*
X12493872Y-15404674D01*
X12741492Y-15452293D02*
X12893873Y-15452293D01*
X12817682Y-15528484D02*
X12817682Y-15376103D01*
X13227206Y-15395150D02*
X13227206Y-15528484D01*
X13179587Y-15318960D02*
X13131968Y-15461817D01*
X13131968Y-15461817D02*
X13255777Y-15461817D01*
X13474825Y-15518960D02*
X13493873Y-15528484D01*
X13493873Y-15528484D02*
X13531968Y-15528484D01*
X13531968Y-15528484D02*
X13551015Y-15518960D01*
X13551015Y-15518960D02*
X13560539Y-15499912D01*
X13560539Y-15499912D02*
X13560539Y-15490388D01*
X13560539Y-15490388D02*
X13551015Y-15471341D01*
X13551015Y-15471341D02*
X13531968Y-15461817D01*
X13531968Y-15461817D02*
X13503396Y-15461817D01*
X13503396Y-15461817D02*
X13484349Y-15452293D01*
X13484349Y-15452293D02*
X13474825Y-15433246D01*
X13474825Y-15433246D02*
X13474825Y-15423722D01*
X13474825Y-15423722D02*
X13484349Y-15404674D01*
X13484349Y-15404674D02*
X13503396Y-15395150D01*
X13503396Y-15395150D02*
X13531968Y-15395150D01*
X13531968Y-15395150D02*
X13551015Y-15404674D01*
X13674825Y-15528484D02*
X13655777Y-15518960D01*
X13655777Y-15518960D02*
X13646254Y-15499912D01*
X13646254Y-15499912D02*
X13646254Y-15328484D01*
X13779587Y-15528484D02*
X13760539Y-15518960D01*
X13760539Y-15518960D02*
X13751015Y-15509436D01*
X13751015Y-15509436D02*
X13741492Y-15490388D01*
X13741492Y-15490388D02*
X13741492Y-15433246D01*
X13741492Y-15433246D02*
X13751015Y-15414198D01*
X13751015Y-15414198D02*
X13760539Y-15404674D01*
X13760539Y-15404674D02*
X13779587Y-15395150D01*
X13779587Y-15395150D02*
X13808158Y-15395150D01*
X13808158Y-15395150D02*
X13827206Y-15404674D01*
X13827206Y-15404674D02*
X13836730Y-15414198D01*
X13836730Y-15414198D02*
X13846254Y-15433246D01*
X13846254Y-15433246D02*
X13846254Y-15490388D01*
X13846254Y-15490388D02*
X13836730Y-15509436D01*
X13836730Y-15509436D02*
X13827206Y-15518960D01*
X13827206Y-15518960D02*
X13808158Y-15528484D01*
X13808158Y-15528484D02*
X13779587Y-15528484D01*
X13903396Y-15395150D02*
X13979587Y-15395150D01*
X13931968Y-15328484D02*
X13931968Y-15499912D01*
X13931968Y-15499912D02*
X13941492Y-15518960D01*
X13941492Y-15518960D02*
X13960539Y-15528484D01*
X13960539Y-15528484D02*
X13979587Y-15528484D01*
X14036730Y-15518960D02*
X14055777Y-15528484D01*
X14055777Y-15528484D02*
X14093873Y-15528484D01*
X14093873Y-15528484D02*
X14112920Y-15518960D01*
X14112920Y-15518960D02*
X14122444Y-15499912D01*
X14122444Y-15499912D02*
X14122444Y-15490388D01*
X14122444Y-15490388D02*
X14112920Y-15471341D01*
X14112920Y-15471341D02*
X14093873Y-15461817D01*
X14093873Y-15461817D02*
X14065301Y-15461817D01*
X14065301Y-15461817D02*
X14046254Y-15452293D01*
X14046254Y-15452293D02*
X14036730Y-15433246D01*
X14036730Y-15433246D02*
X14036730Y-15423722D01*
X14036730Y-15423722D02*
X14046254Y-15404674D01*
X14046254Y-15404674D02*
X14065301Y-15395150D01*
X14065301Y-15395150D02*
X14093873Y-15395150D01*
X14093873Y-15395150D02*
X14112920Y-15404674D01*
X14189111Y-15604674D02*
X14198635Y-15595150D01*
X14198635Y-15595150D02*
X14217682Y-15566579D01*
X14217682Y-15566579D02*
X14227206Y-15547531D01*
X14227206Y-15547531D02*
X14236730Y-15518960D01*
X14236730Y-15518960D02*
X14246254Y-15471341D01*
X14246254Y-15471341D02*
X14246254Y-15433246D01*
X14246254Y-15433246D02*
X14236730Y-15385627D01*
X14236730Y-15385627D02*
X14227206Y-15357055D01*
X14227206Y-15357055D02*
X14217682Y-15338008D01*
X14217682Y-15338008D02*
X14198635Y-15309436D01*
X14198635Y-15309436D02*
X14189111Y-15299912D01*
D10*
X7757500Y-15738500D02*
X7795000Y-15701000D01*
X7757500Y-15663500D01*
X7720000Y-15701000D01*
X7757500Y-15738500D01*
D12*
X8093872Y-15592484D02*
X8112920Y-15592484D01*
X8112920Y-15592484D02*
X8131967Y-15602008D01*
X8131967Y-15602008D02*
X8141491Y-15611531D01*
X8141491Y-15611531D02*
X8151015Y-15630579D01*
X8151015Y-15630579D02*
X8160539Y-15668674D01*
X8160539Y-15668674D02*
X8160539Y-15716293D01*
X8160539Y-15716293D02*
X8151015Y-15754388D01*
X8151015Y-15754388D02*
X8141491Y-15773436D01*
X8141491Y-15773436D02*
X8131967Y-15782960D01*
X8131967Y-15782960D02*
X8112920Y-15792484D01*
X8112920Y-15792484D02*
X8093872Y-15792484D01*
X8093872Y-15792484D02*
X8074824Y-15782960D01*
X8074824Y-15782960D02*
X8065301Y-15773436D01*
X8065301Y-15773436D02*
X8055777Y-15754388D01*
X8055777Y-15754388D02*
X8046253Y-15716293D01*
X8046253Y-15716293D02*
X8046253Y-15668674D01*
X8046253Y-15668674D02*
X8055777Y-15630579D01*
X8055777Y-15630579D02*
X8065301Y-15611531D01*
X8065301Y-15611531D02*
X8074824Y-15602008D01*
X8074824Y-15602008D02*
X8093872Y-15592484D01*
X8246253Y-15773436D02*
X8255777Y-15782960D01*
X8255777Y-15782960D02*
X8246253Y-15792484D01*
X8246253Y-15792484D02*
X8236729Y-15782960D01*
X8236729Y-15782960D02*
X8246253Y-15773436D01*
X8246253Y-15773436D02*
X8246253Y-15792484D01*
X8322443Y-15592484D02*
X8455777Y-15592484D01*
X8455777Y-15592484D02*
X8370062Y-15792484D01*
X8627205Y-15592484D02*
X8531967Y-15592484D01*
X8531967Y-15592484D02*
X8522444Y-15687722D01*
X8522444Y-15687722D02*
X8531967Y-15678198D01*
X8531967Y-15678198D02*
X8551015Y-15668674D01*
X8551015Y-15668674D02*
X8598634Y-15668674D01*
X8598634Y-15668674D02*
X8617682Y-15678198D01*
X8617682Y-15678198D02*
X8627205Y-15687722D01*
X8627205Y-15687722D02*
X8636729Y-15706769D01*
X8636729Y-15706769D02*
X8636729Y-15754388D01*
X8636729Y-15754388D02*
X8627205Y-15773436D01*
X8627205Y-15773436D02*
X8617682Y-15782960D01*
X8617682Y-15782960D02*
X8598634Y-15792484D01*
X8598634Y-15792484D02*
X8551015Y-15792484D01*
X8551015Y-15792484D02*
X8531967Y-15782960D01*
X8531967Y-15782960D02*
X8522444Y-15773436D01*
X8760539Y-15592484D02*
X8779586Y-15592484D01*
X8779586Y-15592484D02*
X8798634Y-15602008D01*
X8798634Y-15602008D02*
X8808158Y-15611531D01*
X8808158Y-15611531D02*
X8817682Y-15630579D01*
X8817682Y-15630579D02*
X8827205Y-15668674D01*
X8827205Y-15668674D02*
X8827205Y-15716293D01*
X8827205Y-15716293D02*
X8817682Y-15754388D01*
X8817682Y-15754388D02*
X8808158Y-15773436D01*
X8808158Y-15773436D02*
X8798634Y-15782960D01*
X8798634Y-15782960D02*
X8779586Y-15792484D01*
X8779586Y-15792484D02*
X8760539Y-15792484D01*
X8760539Y-15792484D02*
X8741491Y-15782960D01*
X8741491Y-15782960D02*
X8731967Y-15773436D01*
X8731967Y-15773436D02*
X8722444Y-15754388D01*
X8722444Y-15754388D02*
X8712920Y-15716293D01*
X8712920Y-15716293D02*
X8712920Y-15668674D01*
X8712920Y-15668674D02*
X8722444Y-15630579D01*
X8722444Y-15630579D02*
X8731967Y-15611531D01*
X8731967Y-15611531D02*
X8741491Y-15602008D01*
X8741491Y-15602008D02*
X8760539Y-15592484D01*
X8912920Y-15792484D02*
X8912920Y-15659150D01*
X8912920Y-15678198D02*
X8922444Y-15668674D01*
X8922444Y-15668674D02*
X8941491Y-15659150D01*
X8941491Y-15659150D02*
X8970063Y-15659150D01*
X8970063Y-15659150D02*
X8989110Y-15668674D01*
X8989110Y-15668674D02*
X8998634Y-15687722D01*
X8998634Y-15687722D02*
X8998634Y-15792484D01*
X8998634Y-15687722D02*
X9008158Y-15668674D01*
X9008158Y-15668674D02*
X9027205Y-15659150D01*
X9027205Y-15659150D02*
X9055777Y-15659150D01*
X9055777Y-15659150D02*
X9074825Y-15668674D01*
X9074825Y-15668674D02*
X9084348Y-15687722D01*
X9084348Y-15687722D02*
X9084348Y-15792484D01*
X9179586Y-15792484D02*
X9179586Y-15659150D01*
X9179586Y-15678198D02*
X9189110Y-15668674D01*
X9189110Y-15668674D02*
X9208158Y-15659150D01*
X9208158Y-15659150D02*
X9236729Y-15659150D01*
X9236729Y-15659150D02*
X9255777Y-15668674D01*
X9255777Y-15668674D02*
X9265301Y-15687722D01*
X9265301Y-15687722D02*
X9265301Y-15792484D01*
X9265301Y-15687722D02*
X9274825Y-15668674D01*
X9274825Y-15668674D02*
X9293872Y-15659150D01*
X9293872Y-15659150D02*
X9322444Y-15659150D01*
X9322444Y-15659150D02*
X9341491Y-15668674D01*
X9341491Y-15668674D02*
X9351015Y-15687722D01*
X9351015Y-15687722D02*
X9351015Y-15792484D01*
X9741491Y-15582960D02*
X9570063Y-15840103D01*
X9998634Y-15592484D02*
X10017682Y-15592484D01*
X10017682Y-15592484D02*
X10036729Y-15602008D01*
X10036729Y-15602008D02*
X10046253Y-15611531D01*
X10046253Y-15611531D02*
X10055777Y-15630579D01*
X10055777Y-15630579D02*
X10065301Y-15668674D01*
X10065301Y-15668674D02*
X10065301Y-15716293D01*
X10065301Y-15716293D02*
X10055777Y-15754388D01*
X10055777Y-15754388D02*
X10046253Y-15773436D01*
X10046253Y-15773436D02*
X10036729Y-15782960D01*
X10036729Y-15782960D02*
X10017682Y-15792484D01*
X10017682Y-15792484D02*
X9998634Y-15792484D01*
X9998634Y-15792484D02*
X9979587Y-15782960D01*
X9979587Y-15782960D02*
X9970063Y-15773436D01*
X9970063Y-15773436D02*
X9960539Y-15754388D01*
X9960539Y-15754388D02*
X9951015Y-15716293D01*
X9951015Y-15716293D02*
X9951015Y-15668674D01*
X9951015Y-15668674D02*
X9960539Y-15630579D01*
X9960539Y-15630579D02*
X9970063Y-15611531D01*
X9970063Y-15611531D02*
X9979587Y-15602008D01*
X9979587Y-15602008D02*
X9998634Y-15592484D01*
X10151015Y-15773436D02*
X10160539Y-15782960D01*
X10160539Y-15782960D02*
X10151015Y-15792484D01*
X10151015Y-15792484D02*
X10141491Y-15782960D01*
X10141491Y-15782960D02*
X10151015Y-15773436D01*
X10151015Y-15773436D02*
X10151015Y-15792484D01*
X10284348Y-15592484D02*
X10303396Y-15592484D01*
X10303396Y-15592484D02*
X10322444Y-15602008D01*
X10322444Y-15602008D02*
X10331968Y-15611531D01*
X10331968Y-15611531D02*
X10341491Y-15630579D01*
X10341491Y-15630579D02*
X10351015Y-15668674D01*
X10351015Y-15668674D02*
X10351015Y-15716293D01*
X10351015Y-15716293D02*
X10341491Y-15754388D01*
X10341491Y-15754388D02*
X10331968Y-15773436D01*
X10331968Y-15773436D02*
X10322444Y-15782960D01*
X10322444Y-15782960D02*
X10303396Y-15792484D01*
X10303396Y-15792484D02*
X10284348Y-15792484D01*
X10284348Y-15792484D02*
X10265301Y-15782960D01*
X10265301Y-15782960D02*
X10255777Y-15773436D01*
X10255777Y-15773436D02*
X10246253Y-15754388D01*
X10246253Y-15754388D02*
X10236729Y-15716293D01*
X10236729Y-15716293D02*
X10236729Y-15668674D01*
X10236729Y-15668674D02*
X10246253Y-15630579D01*
X10246253Y-15630579D02*
X10255777Y-15611531D01*
X10255777Y-15611531D02*
X10265301Y-15602008D01*
X10265301Y-15602008D02*
X10284348Y-15592484D01*
X10427206Y-15611531D02*
X10436729Y-15602008D01*
X10436729Y-15602008D02*
X10455777Y-15592484D01*
X10455777Y-15592484D02*
X10503396Y-15592484D01*
X10503396Y-15592484D02*
X10522444Y-15602008D01*
X10522444Y-15602008D02*
X10531968Y-15611531D01*
X10531968Y-15611531D02*
X10541491Y-15630579D01*
X10541491Y-15630579D02*
X10541491Y-15649627D01*
X10541491Y-15649627D02*
X10531968Y-15678198D01*
X10531968Y-15678198D02*
X10417682Y-15792484D01*
X10417682Y-15792484D02*
X10541491Y-15792484D01*
X10636729Y-15792484D02*
X10674825Y-15792484D01*
X10674825Y-15792484D02*
X10693872Y-15782960D01*
X10693872Y-15782960D02*
X10703396Y-15773436D01*
X10703396Y-15773436D02*
X10722444Y-15744865D01*
X10722444Y-15744865D02*
X10731968Y-15706769D01*
X10731968Y-15706769D02*
X10731968Y-15630579D01*
X10731968Y-15630579D02*
X10722444Y-15611531D01*
X10722444Y-15611531D02*
X10712920Y-15602008D01*
X10712920Y-15602008D02*
X10693872Y-15592484D01*
X10693872Y-15592484D02*
X10655777Y-15592484D01*
X10655777Y-15592484D02*
X10636729Y-15602008D01*
X10636729Y-15602008D02*
X10627206Y-15611531D01*
X10627206Y-15611531D02*
X10617682Y-15630579D01*
X10617682Y-15630579D02*
X10617682Y-15678198D01*
X10617682Y-15678198D02*
X10627206Y-15697246D01*
X10627206Y-15697246D02*
X10636729Y-15706769D01*
X10636729Y-15706769D02*
X10655777Y-15716293D01*
X10655777Y-15716293D02*
X10693872Y-15716293D01*
X10693872Y-15716293D02*
X10712920Y-15706769D01*
X10712920Y-15706769D02*
X10722444Y-15697246D01*
X10722444Y-15697246D02*
X10731968Y-15678198D01*
X10912920Y-15592484D02*
X10817682Y-15592484D01*
X10817682Y-15592484D02*
X10808158Y-15687722D01*
X10808158Y-15687722D02*
X10817682Y-15678198D01*
X10817682Y-15678198D02*
X10836729Y-15668674D01*
X10836729Y-15668674D02*
X10884349Y-15668674D01*
X10884349Y-15668674D02*
X10903396Y-15678198D01*
X10903396Y-15678198D02*
X10912920Y-15687722D01*
X10912920Y-15687722D02*
X10922444Y-15706769D01*
X10922444Y-15706769D02*
X10922444Y-15754388D01*
X10922444Y-15754388D02*
X10912920Y-15773436D01*
X10912920Y-15773436D02*
X10903396Y-15782960D01*
X10903396Y-15782960D02*
X10884349Y-15792484D01*
X10884349Y-15792484D02*
X10836729Y-15792484D01*
X10836729Y-15792484D02*
X10817682Y-15782960D01*
X10817682Y-15782960D02*
X10808158Y-15773436D01*
X10998634Y-15592484D02*
X10998634Y-15630579D01*
X11074825Y-15592484D02*
X11074825Y-15630579D01*
X11370063Y-15868674D02*
X11360539Y-15859150D01*
X11360539Y-15859150D02*
X11341491Y-15830579D01*
X11341491Y-15830579D02*
X11331968Y-15811531D01*
X11331968Y-15811531D02*
X11322444Y-15782960D01*
X11322444Y-15782960D02*
X11312920Y-15735341D01*
X11312920Y-15735341D02*
X11312920Y-15697246D01*
X11312920Y-15697246D02*
X11322444Y-15649627D01*
X11322444Y-15649627D02*
X11331968Y-15621055D01*
X11331968Y-15621055D02*
X11341491Y-15602008D01*
X11341491Y-15602008D02*
X11360539Y-15573436D01*
X11360539Y-15573436D02*
X11370063Y-15563912D01*
X11427206Y-15592484D02*
X11551015Y-15592484D01*
X11551015Y-15592484D02*
X11484348Y-15668674D01*
X11484348Y-15668674D02*
X11512920Y-15668674D01*
X11512920Y-15668674D02*
X11531968Y-15678198D01*
X11531968Y-15678198D02*
X11541491Y-15687722D01*
X11541491Y-15687722D02*
X11551015Y-15706769D01*
X11551015Y-15706769D02*
X11551015Y-15754388D01*
X11551015Y-15754388D02*
X11541491Y-15773436D01*
X11541491Y-15773436D02*
X11531968Y-15782960D01*
X11531968Y-15782960D02*
X11512920Y-15792484D01*
X11512920Y-15792484D02*
X11455777Y-15792484D01*
X11455777Y-15792484D02*
X11436729Y-15782960D01*
X11436729Y-15782960D02*
X11427206Y-15773436D01*
X11789110Y-15792484D02*
X11789110Y-15592484D01*
X11874825Y-15792484D02*
X11874825Y-15687722D01*
X11874825Y-15687722D02*
X11865301Y-15668674D01*
X11865301Y-15668674D02*
X11846253Y-15659150D01*
X11846253Y-15659150D02*
X11817682Y-15659150D01*
X11817682Y-15659150D02*
X11798634Y-15668674D01*
X11798634Y-15668674D02*
X11789110Y-15678198D01*
X11998634Y-15792484D02*
X11979587Y-15782960D01*
X11979587Y-15782960D02*
X11970063Y-15773436D01*
X11970063Y-15773436D02*
X11960539Y-15754388D01*
X11960539Y-15754388D02*
X11960539Y-15697246D01*
X11960539Y-15697246D02*
X11970063Y-15678198D01*
X11970063Y-15678198D02*
X11979587Y-15668674D01*
X11979587Y-15668674D02*
X11998634Y-15659150D01*
X11998634Y-15659150D02*
X12027206Y-15659150D01*
X12027206Y-15659150D02*
X12046253Y-15668674D01*
X12046253Y-15668674D02*
X12055777Y-15678198D01*
X12055777Y-15678198D02*
X12065301Y-15697246D01*
X12065301Y-15697246D02*
X12065301Y-15754388D01*
X12065301Y-15754388D02*
X12055777Y-15773436D01*
X12055777Y-15773436D02*
X12046253Y-15782960D01*
X12046253Y-15782960D02*
X12027206Y-15792484D01*
X12027206Y-15792484D02*
X11998634Y-15792484D01*
X12179587Y-15792484D02*
X12160539Y-15782960D01*
X12160539Y-15782960D02*
X12151015Y-15763912D01*
X12151015Y-15763912D02*
X12151015Y-15592484D01*
X12331968Y-15782960D02*
X12312920Y-15792484D01*
X12312920Y-15792484D02*
X12274825Y-15792484D01*
X12274825Y-15792484D02*
X12255777Y-15782960D01*
X12255777Y-15782960D02*
X12246253Y-15763912D01*
X12246253Y-15763912D02*
X12246253Y-15687722D01*
X12246253Y-15687722D02*
X12255777Y-15668674D01*
X12255777Y-15668674D02*
X12274825Y-15659150D01*
X12274825Y-15659150D02*
X12312920Y-15659150D01*
X12312920Y-15659150D02*
X12331968Y-15668674D01*
X12331968Y-15668674D02*
X12341491Y-15687722D01*
X12341491Y-15687722D02*
X12341491Y-15706769D01*
X12341491Y-15706769D02*
X12246253Y-15725817D01*
X12417682Y-15782960D02*
X12436730Y-15792484D01*
X12436730Y-15792484D02*
X12474825Y-15792484D01*
X12474825Y-15792484D02*
X12493872Y-15782960D01*
X12493872Y-15782960D02*
X12503396Y-15763912D01*
X12503396Y-15763912D02*
X12503396Y-15754388D01*
X12503396Y-15754388D02*
X12493872Y-15735341D01*
X12493872Y-15735341D02*
X12474825Y-15725817D01*
X12474825Y-15725817D02*
X12446253Y-15725817D01*
X12446253Y-15725817D02*
X12427206Y-15716293D01*
X12427206Y-15716293D02*
X12417682Y-15697246D01*
X12417682Y-15697246D02*
X12417682Y-15687722D01*
X12417682Y-15687722D02*
X12427206Y-15668674D01*
X12427206Y-15668674D02*
X12446253Y-15659150D01*
X12446253Y-15659150D02*
X12474825Y-15659150D01*
X12474825Y-15659150D02*
X12493872Y-15668674D01*
X12570063Y-15868674D02*
X12579587Y-15859150D01*
X12579587Y-15859150D02*
X12598634Y-15830579D01*
X12598634Y-15830579D02*
X12608158Y-15811531D01*
X12608158Y-15811531D02*
X12617682Y-15782960D01*
X12617682Y-15782960D02*
X12627206Y-15735341D01*
X12627206Y-15735341D02*
X12627206Y-15697246D01*
X12627206Y-15697246D02*
X12617682Y-15649627D01*
X12617682Y-15649627D02*
X12608158Y-15621055D01*
X12608158Y-15621055D02*
X12598634Y-15602008D01*
X12598634Y-15602008D02*
X12579587Y-15573436D01*
X12579587Y-15573436D02*
X12570063Y-15563912D01*
D10*
X7705000Y-15920000D02*
X7795000Y-16010000D01*
X7795000Y-15920000D02*
X7705000Y-16010000D01*
X7795000Y-15965000D02*
G75*
G02*
X7705000Y-15965000I-45000J0D01*
G01*
X7705000Y-15965000D02*
G75*
G02*
X7795000Y-15965000I45000J0D01*
G01*
D12*
X8093872Y-15856484D02*
X8112920Y-15856484D01*
X8112920Y-15856484D02*
X8131967Y-15866008D01*
X8131967Y-15866008D02*
X8141491Y-15875531D01*
X8141491Y-15875531D02*
X8151015Y-15894579D01*
X8151015Y-15894579D02*
X8160539Y-15932674D01*
X8160539Y-15932674D02*
X8160539Y-15980293D01*
X8160539Y-15980293D02*
X8151015Y-16018388D01*
X8151015Y-16018388D02*
X8141491Y-16037436D01*
X8141491Y-16037436D02*
X8131967Y-16046960D01*
X8131967Y-16046960D02*
X8112920Y-16056484D01*
X8112920Y-16056484D02*
X8093872Y-16056484D01*
X8093872Y-16056484D02*
X8074824Y-16046960D01*
X8074824Y-16046960D02*
X8065301Y-16037436D01*
X8065301Y-16037436D02*
X8055777Y-16018388D01*
X8055777Y-16018388D02*
X8046253Y-15980293D01*
X8046253Y-15980293D02*
X8046253Y-15932674D01*
X8046253Y-15932674D02*
X8055777Y-15894579D01*
X8055777Y-15894579D02*
X8065301Y-15875531D01*
X8065301Y-15875531D02*
X8074824Y-15866008D01*
X8074824Y-15866008D02*
X8093872Y-15856484D01*
X8246253Y-16037436D02*
X8255777Y-16046960D01*
X8255777Y-16046960D02*
X8246253Y-16056484D01*
X8246253Y-16056484D02*
X8236729Y-16046960D01*
X8236729Y-16046960D02*
X8246253Y-16037436D01*
X8246253Y-16037436D02*
X8246253Y-16056484D01*
X8351015Y-16056484D02*
X8389110Y-16056484D01*
X8389110Y-16056484D02*
X8408158Y-16046960D01*
X8408158Y-16046960D02*
X8417682Y-16037436D01*
X8417682Y-16037436D02*
X8436729Y-16008865D01*
X8436729Y-16008865D02*
X8446253Y-15970769D01*
X8446253Y-15970769D02*
X8446253Y-15894579D01*
X8446253Y-15894579D02*
X8436729Y-15875531D01*
X8436729Y-15875531D02*
X8427205Y-15866008D01*
X8427205Y-15866008D02*
X8408158Y-15856484D01*
X8408158Y-15856484D02*
X8370062Y-15856484D01*
X8370062Y-15856484D02*
X8351015Y-15866008D01*
X8351015Y-15866008D02*
X8341491Y-15875531D01*
X8341491Y-15875531D02*
X8331967Y-15894579D01*
X8331967Y-15894579D02*
X8331967Y-15942198D01*
X8331967Y-15942198D02*
X8341491Y-15961246D01*
X8341491Y-15961246D02*
X8351015Y-15970769D01*
X8351015Y-15970769D02*
X8370062Y-15980293D01*
X8370062Y-15980293D02*
X8408158Y-15980293D01*
X8408158Y-15980293D02*
X8427205Y-15970769D01*
X8427205Y-15970769D02*
X8436729Y-15961246D01*
X8436729Y-15961246D02*
X8446253Y-15942198D01*
X8570063Y-15856484D02*
X8589110Y-15856484D01*
X8589110Y-15856484D02*
X8608158Y-15866008D01*
X8608158Y-15866008D02*
X8617682Y-15875531D01*
X8617682Y-15875531D02*
X8627205Y-15894579D01*
X8627205Y-15894579D02*
X8636729Y-15932674D01*
X8636729Y-15932674D02*
X8636729Y-15980293D01*
X8636729Y-15980293D02*
X8627205Y-16018388D01*
X8627205Y-16018388D02*
X8617682Y-16037436D01*
X8617682Y-16037436D02*
X8608158Y-16046960D01*
X8608158Y-16046960D02*
X8589110Y-16056484D01*
X8589110Y-16056484D02*
X8570063Y-16056484D01*
X8570063Y-16056484D02*
X8551015Y-16046960D01*
X8551015Y-16046960D02*
X8541491Y-16037436D01*
X8541491Y-16037436D02*
X8531967Y-16018388D01*
X8531967Y-16018388D02*
X8522444Y-15980293D01*
X8522444Y-15980293D02*
X8522444Y-15932674D01*
X8522444Y-15932674D02*
X8531967Y-15894579D01*
X8531967Y-15894579D02*
X8541491Y-15875531D01*
X8541491Y-15875531D02*
X8551015Y-15866008D01*
X8551015Y-15866008D02*
X8570063Y-15856484D01*
X8760539Y-15856484D02*
X8779586Y-15856484D01*
X8779586Y-15856484D02*
X8798634Y-15866008D01*
X8798634Y-15866008D02*
X8808158Y-15875531D01*
X8808158Y-15875531D02*
X8817682Y-15894579D01*
X8817682Y-15894579D02*
X8827205Y-15932674D01*
X8827205Y-15932674D02*
X8827205Y-15980293D01*
X8827205Y-15980293D02*
X8817682Y-16018388D01*
X8817682Y-16018388D02*
X8808158Y-16037436D01*
X8808158Y-16037436D02*
X8798634Y-16046960D01*
X8798634Y-16046960D02*
X8779586Y-16056484D01*
X8779586Y-16056484D02*
X8760539Y-16056484D01*
X8760539Y-16056484D02*
X8741491Y-16046960D01*
X8741491Y-16046960D02*
X8731967Y-16037436D01*
X8731967Y-16037436D02*
X8722444Y-16018388D01*
X8722444Y-16018388D02*
X8712920Y-15980293D01*
X8712920Y-15980293D02*
X8712920Y-15932674D01*
X8712920Y-15932674D02*
X8722444Y-15894579D01*
X8722444Y-15894579D02*
X8731967Y-15875531D01*
X8731967Y-15875531D02*
X8741491Y-15866008D01*
X8741491Y-15866008D02*
X8760539Y-15856484D01*
X8912920Y-16056484D02*
X8912920Y-15923150D01*
X8912920Y-15942198D02*
X8922444Y-15932674D01*
X8922444Y-15932674D02*
X8941491Y-15923150D01*
X8941491Y-15923150D02*
X8970063Y-15923150D01*
X8970063Y-15923150D02*
X8989110Y-15932674D01*
X8989110Y-15932674D02*
X8998634Y-15951722D01*
X8998634Y-15951722D02*
X8998634Y-16056484D01*
X8998634Y-15951722D02*
X9008158Y-15932674D01*
X9008158Y-15932674D02*
X9027205Y-15923150D01*
X9027205Y-15923150D02*
X9055777Y-15923150D01*
X9055777Y-15923150D02*
X9074825Y-15932674D01*
X9074825Y-15932674D02*
X9084348Y-15951722D01*
X9084348Y-15951722D02*
X9084348Y-16056484D01*
X9179586Y-16056484D02*
X9179586Y-15923150D01*
X9179586Y-15942198D02*
X9189110Y-15932674D01*
X9189110Y-15932674D02*
X9208158Y-15923150D01*
X9208158Y-15923150D02*
X9236729Y-15923150D01*
X9236729Y-15923150D02*
X9255777Y-15932674D01*
X9255777Y-15932674D02*
X9265301Y-15951722D01*
X9265301Y-15951722D02*
X9265301Y-16056484D01*
X9265301Y-15951722D02*
X9274825Y-15932674D01*
X9274825Y-15932674D02*
X9293872Y-15923150D01*
X9293872Y-15923150D02*
X9322444Y-15923150D01*
X9322444Y-15923150D02*
X9341491Y-15932674D01*
X9341491Y-15932674D02*
X9351015Y-15951722D01*
X9351015Y-15951722D02*
X9351015Y-16056484D01*
X9741491Y-15846960D02*
X9570063Y-16104103D01*
X9998634Y-15856484D02*
X10017682Y-15856484D01*
X10017682Y-15856484D02*
X10036729Y-15866008D01*
X10036729Y-15866008D02*
X10046253Y-15875531D01*
X10046253Y-15875531D02*
X10055777Y-15894579D01*
X10055777Y-15894579D02*
X10065301Y-15932674D01*
X10065301Y-15932674D02*
X10065301Y-15980293D01*
X10065301Y-15980293D02*
X10055777Y-16018388D01*
X10055777Y-16018388D02*
X10046253Y-16037436D01*
X10046253Y-16037436D02*
X10036729Y-16046960D01*
X10036729Y-16046960D02*
X10017682Y-16056484D01*
X10017682Y-16056484D02*
X9998634Y-16056484D01*
X9998634Y-16056484D02*
X9979587Y-16046960D01*
X9979587Y-16046960D02*
X9970063Y-16037436D01*
X9970063Y-16037436D02*
X9960539Y-16018388D01*
X9960539Y-16018388D02*
X9951015Y-15980293D01*
X9951015Y-15980293D02*
X9951015Y-15932674D01*
X9951015Y-15932674D02*
X9960539Y-15894579D01*
X9960539Y-15894579D02*
X9970063Y-15875531D01*
X9970063Y-15875531D02*
X9979587Y-15866008D01*
X9979587Y-15866008D02*
X9998634Y-15856484D01*
X10151015Y-16037436D02*
X10160539Y-16046960D01*
X10160539Y-16046960D02*
X10151015Y-16056484D01*
X10151015Y-16056484D02*
X10141491Y-16046960D01*
X10141491Y-16046960D02*
X10151015Y-16037436D01*
X10151015Y-16037436D02*
X10151015Y-16056484D01*
X10284348Y-15856484D02*
X10303396Y-15856484D01*
X10303396Y-15856484D02*
X10322444Y-15866008D01*
X10322444Y-15866008D02*
X10331968Y-15875531D01*
X10331968Y-15875531D02*
X10341491Y-15894579D01*
X10341491Y-15894579D02*
X10351015Y-15932674D01*
X10351015Y-15932674D02*
X10351015Y-15980293D01*
X10351015Y-15980293D02*
X10341491Y-16018388D01*
X10341491Y-16018388D02*
X10331968Y-16037436D01*
X10331968Y-16037436D02*
X10322444Y-16046960D01*
X10322444Y-16046960D02*
X10303396Y-16056484D01*
X10303396Y-16056484D02*
X10284348Y-16056484D01*
X10284348Y-16056484D02*
X10265301Y-16046960D01*
X10265301Y-16046960D02*
X10255777Y-16037436D01*
X10255777Y-16037436D02*
X10246253Y-16018388D01*
X10246253Y-16018388D02*
X10236729Y-15980293D01*
X10236729Y-15980293D02*
X10236729Y-15932674D01*
X10236729Y-15932674D02*
X10246253Y-15894579D01*
X10246253Y-15894579D02*
X10255777Y-15875531D01*
X10255777Y-15875531D02*
X10265301Y-15866008D01*
X10265301Y-15866008D02*
X10284348Y-15856484D01*
X10417682Y-15856484D02*
X10541491Y-15856484D01*
X10541491Y-15856484D02*
X10474825Y-15932674D01*
X10474825Y-15932674D02*
X10503396Y-15932674D01*
X10503396Y-15932674D02*
X10522444Y-15942198D01*
X10522444Y-15942198D02*
X10531968Y-15951722D01*
X10531968Y-15951722D02*
X10541491Y-15970769D01*
X10541491Y-15970769D02*
X10541491Y-16018388D01*
X10541491Y-16018388D02*
X10531968Y-16037436D01*
X10531968Y-16037436D02*
X10522444Y-16046960D01*
X10522444Y-16046960D02*
X10503396Y-16056484D01*
X10503396Y-16056484D02*
X10446253Y-16056484D01*
X10446253Y-16056484D02*
X10427206Y-16046960D01*
X10427206Y-16046960D02*
X10417682Y-16037436D01*
X10722444Y-15856484D02*
X10627206Y-15856484D01*
X10627206Y-15856484D02*
X10617682Y-15951722D01*
X10617682Y-15951722D02*
X10627206Y-15942198D01*
X10627206Y-15942198D02*
X10646253Y-15932674D01*
X10646253Y-15932674D02*
X10693872Y-15932674D01*
X10693872Y-15932674D02*
X10712920Y-15942198D01*
X10712920Y-15942198D02*
X10722444Y-15951722D01*
X10722444Y-15951722D02*
X10731968Y-15970769D01*
X10731968Y-15970769D02*
X10731968Y-16018388D01*
X10731968Y-16018388D02*
X10722444Y-16037436D01*
X10722444Y-16037436D02*
X10712920Y-16046960D01*
X10712920Y-16046960D02*
X10693872Y-16056484D01*
X10693872Y-16056484D02*
X10646253Y-16056484D01*
X10646253Y-16056484D02*
X10627206Y-16046960D01*
X10627206Y-16046960D02*
X10617682Y-16037436D01*
X10903396Y-15923150D02*
X10903396Y-16056484D01*
X10855777Y-15846960D02*
X10808158Y-15989817D01*
X10808158Y-15989817D02*
X10931968Y-15989817D01*
X10998634Y-15856484D02*
X10998634Y-15894579D01*
X11074825Y-15856484D02*
X11074825Y-15894579D01*
X11370063Y-16132674D02*
X11360539Y-16123150D01*
X11360539Y-16123150D02*
X11341491Y-16094579D01*
X11341491Y-16094579D02*
X11331968Y-16075531D01*
X11331968Y-16075531D02*
X11322444Y-16046960D01*
X11322444Y-16046960D02*
X11312920Y-15999341D01*
X11312920Y-15999341D02*
X11312920Y-15961246D01*
X11312920Y-15961246D02*
X11322444Y-15913627D01*
X11322444Y-15913627D02*
X11331968Y-15885055D01*
X11331968Y-15885055D02*
X11341491Y-15866008D01*
X11341491Y-15866008D02*
X11360539Y-15837436D01*
X11360539Y-15837436D02*
X11370063Y-15827912D01*
X11436729Y-15875531D02*
X11446253Y-15866008D01*
X11446253Y-15866008D02*
X11465301Y-15856484D01*
X11465301Y-15856484D02*
X11512920Y-15856484D01*
X11512920Y-15856484D02*
X11531968Y-15866008D01*
X11531968Y-15866008D02*
X11541491Y-15875531D01*
X11541491Y-15875531D02*
X11551015Y-15894579D01*
X11551015Y-15894579D02*
X11551015Y-15913627D01*
X11551015Y-15913627D02*
X11541491Y-15942198D01*
X11541491Y-15942198D02*
X11427206Y-16056484D01*
X11427206Y-16056484D02*
X11551015Y-16056484D01*
X11789110Y-16056484D02*
X11789110Y-15856484D01*
X11874825Y-16056484D02*
X11874825Y-15951722D01*
X11874825Y-15951722D02*
X11865301Y-15932674D01*
X11865301Y-15932674D02*
X11846253Y-15923150D01*
X11846253Y-15923150D02*
X11817682Y-15923150D01*
X11817682Y-15923150D02*
X11798634Y-15932674D01*
X11798634Y-15932674D02*
X11789110Y-15942198D01*
X11998634Y-16056484D02*
X11979587Y-16046960D01*
X11979587Y-16046960D02*
X11970063Y-16037436D01*
X11970063Y-16037436D02*
X11960539Y-16018388D01*
X11960539Y-16018388D02*
X11960539Y-15961246D01*
X11960539Y-15961246D02*
X11970063Y-15942198D01*
X11970063Y-15942198D02*
X11979587Y-15932674D01*
X11979587Y-15932674D02*
X11998634Y-15923150D01*
X11998634Y-15923150D02*
X12027206Y-15923150D01*
X12027206Y-15923150D02*
X12046253Y-15932674D01*
X12046253Y-15932674D02*
X12055777Y-15942198D01*
X12055777Y-15942198D02*
X12065301Y-15961246D01*
X12065301Y-15961246D02*
X12065301Y-16018388D01*
X12065301Y-16018388D02*
X12055777Y-16037436D01*
X12055777Y-16037436D02*
X12046253Y-16046960D01*
X12046253Y-16046960D02*
X12027206Y-16056484D01*
X12027206Y-16056484D02*
X11998634Y-16056484D01*
X12179587Y-16056484D02*
X12160539Y-16046960D01*
X12160539Y-16046960D02*
X12151015Y-16027912D01*
X12151015Y-16027912D02*
X12151015Y-15856484D01*
X12331968Y-16046960D02*
X12312920Y-16056484D01*
X12312920Y-16056484D02*
X12274825Y-16056484D01*
X12274825Y-16056484D02*
X12255777Y-16046960D01*
X12255777Y-16046960D02*
X12246253Y-16027912D01*
X12246253Y-16027912D02*
X12246253Y-15951722D01*
X12246253Y-15951722D02*
X12255777Y-15932674D01*
X12255777Y-15932674D02*
X12274825Y-15923150D01*
X12274825Y-15923150D02*
X12312920Y-15923150D01*
X12312920Y-15923150D02*
X12331968Y-15932674D01*
X12331968Y-15932674D02*
X12341491Y-15951722D01*
X12341491Y-15951722D02*
X12341491Y-15970769D01*
X12341491Y-15970769D02*
X12246253Y-15989817D01*
X12417682Y-16046960D02*
X12436730Y-16056484D01*
X12436730Y-16056484D02*
X12474825Y-16056484D01*
X12474825Y-16056484D02*
X12493872Y-16046960D01*
X12493872Y-16046960D02*
X12503396Y-16027912D01*
X12503396Y-16027912D02*
X12503396Y-16018388D01*
X12503396Y-16018388D02*
X12493872Y-15999341D01*
X12493872Y-15999341D02*
X12474825Y-15989817D01*
X12474825Y-15989817D02*
X12446253Y-15989817D01*
X12446253Y-15989817D02*
X12427206Y-15980293D01*
X12427206Y-15980293D02*
X12417682Y-15961246D01*
X12417682Y-15961246D02*
X12417682Y-15951722D01*
X12417682Y-15951722D02*
X12427206Y-15932674D01*
X12427206Y-15932674D02*
X12446253Y-15923150D01*
X12446253Y-15923150D02*
X12474825Y-15923150D01*
X12474825Y-15923150D02*
X12493872Y-15932674D01*
X12570063Y-16132674D02*
X12579587Y-16123150D01*
X12579587Y-16123150D02*
X12598634Y-16094579D01*
X12598634Y-16094579D02*
X12608158Y-16075531D01*
X12608158Y-16075531D02*
X12617682Y-16046960D01*
X12617682Y-16046960D02*
X12627206Y-15999341D01*
X12627206Y-15999341D02*
X12627206Y-15961246D01*
X12627206Y-15961246D02*
X12617682Y-15913627D01*
X12617682Y-15913627D02*
X12608158Y-15885055D01*
X12608158Y-15885055D02*
X12598634Y-15866008D01*
X12598634Y-15866008D02*
X12579587Y-15837436D01*
X12579587Y-15837436D02*
X12570063Y-15827912D01*
D10*
X7695000Y-16179000D02*
X7795000Y-16279000D01*
X7795000Y-16179000D02*
X7695000Y-16279000D01*
X7745000Y-16179000D02*
X7745000Y-16279000D01*
X7695000Y-16229000D02*
X7795000Y-16229000D01*
D12*
X8160539Y-16320484D02*
X8046253Y-16320484D01*
X8103396Y-16320484D02*
X8103396Y-16120484D01*
X8103396Y-16120484D02*
X8084348Y-16149055D01*
X8084348Y-16149055D02*
X8065301Y-16168103D01*
X8065301Y-16168103D02*
X8046253Y-16177627D01*
X8246253Y-16301436D02*
X8255777Y-16310960D01*
X8255777Y-16310960D02*
X8246253Y-16320484D01*
X8246253Y-16320484D02*
X8236729Y-16310960D01*
X8236729Y-16310960D02*
X8246253Y-16301436D01*
X8246253Y-16301436D02*
X8246253Y-16320484D01*
X8379586Y-16120484D02*
X8398634Y-16120484D01*
X8398634Y-16120484D02*
X8417682Y-16130008D01*
X8417682Y-16130008D02*
X8427205Y-16139531D01*
X8427205Y-16139531D02*
X8436729Y-16158579D01*
X8436729Y-16158579D02*
X8446253Y-16196674D01*
X8446253Y-16196674D02*
X8446253Y-16244293D01*
X8446253Y-16244293D02*
X8436729Y-16282388D01*
X8436729Y-16282388D02*
X8427205Y-16301436D01*
X8427205Y-16301436D02*
X8417682Y-16310960D01*
X8417682Y-16310960D02*
X8398634Y-16320484D01*
X8398634Y-16320484D02*
X8379586Y-16320484D01*
X8379586Y-16320484D02*
X8360539Y-16310960D01*
X8360539Y-16310960D02*
X8351015Y-16301436D01*
X8351015Y-16301436D02*
X8341491Y-16282388D01*
X8341491Y-16282388D02*
X8331967Y-16244293D01*
X8331967Y-16244293D02*
X8331967Y-16196674D01*
X8331967Y-16196674D02*
X8341491Y-16158579D01*
X8341491Y-16158579D02*
X8351015Y-16139531D01*
X8351015Y-16139531D02*
X8360539Y-16130008D01*
X8360539Y-16130008D02*
X8379586Y-16120484D01*
X8570063Y-16120484D02*
X8589110Y-16120484D01*
X8589110Y-16120484D02*
X8608158Y-16130008D01*
X8608158Y-16130008D02*
X8617682Y-16139531D01*
X8617682Y-16139531D02*
X8627205Y-16158579D01*
X8627205Y-16158579D02*
X8636729Y-16196674D01*
X8636729Y-16196674D02*
X8636729Y-16244293D01*
X8636729Y-16244293D02*
X8627205Y-16282388D01*
X8627205Y-16282388D02*
X8617682Y-16301436D01*
X8617682Y-16301436D02*
X8608158Y-16310960D01*
X8608158Y-16310960D02*
X8589110Y-16320484D01*
X8589110Y-16320484D02*
X8570063Y-16320484D01*
X8570063Y-16320484D02*
X8551015Y-16310960D01*
X8551015Y-16310960D02*
X8541491Y-16301436D01*
X8541491Y-16301436D02*
X8531967Y-16282388D01*
X8531967Y-16282388D02*
X8522444Y-16244293D01*
X8522444Y-16244293D02*
X8522444Y-16196674D01*
X8522444Y-16196674D02*
X8531967Y-16158579D01*
X8531967Y-16158579D02*
X8541491Y-16139531D01*
X8541491Y-16139531D02*
X8551015Y-16130008D01*
X8551015Y-16130008D02*
X8570063Y-16120484D01*
X8760539Y-16120484D02*
X8779586Y-16120484D01*
X8779586Y-16120484D02*
X8798634Y-16130008D01*
X8798634Y-16130008D02*
X8808158Y-16139531D01*
X8808158Y-16139531D02*
X8817682Y-16158579D01*
X8817682Y-16158579D02*
X8827205Y-16196674D01*
X8827205Y-16196674D02*
X8827205Y-16244293D01*
X8827205Y-16244293D02*
X8817682Y-16282388D01*
X8817682Y-16282388D02*
X8808158Y-16301436D01*
X8808158Y-16301436D02*
X8798634Y-16310960D01*
X8798634Y-16310960D02*
X8779586Y-16320484D01*
X8779586Y-16320484D02*
X8760539Y-16320484D01*
X8760539Y-16320484D02*
X8741491Y-16310960D01*
X8741491Y-16310960D02*
X8731967Y-16301436D01*
X8731967Y-16301436D02*
X8722444Y-16282388D01*
X8722444Y-16282388D02*
X8712920Y-16244293D01*
X8712920Y-16244293D02*
X8712920Y-16196674D01*
X8712920Y-16196674D02*
X8722444Y-16158579D01*
X8722444Y-16158579D02*
X8731967Y-16139531D01*
X8731967Y-16139531D02*
X8741491Y-16130008D01*
X8741491Y-16130008D02*
X8760539Y-16120484D01*
X8912920Y-16320484D02*
X8912920Y-16187150D01*
X8912920Y-16206198D02*
X8922444Y-16196674D01*
X8922444Y-16196674D02*
X8941491Y-16187150D01*
X8941491Y-16187150D02*
X8970063Y-16187150D01*
X8970063Y-16187150D02*
X8989110Y-16196674D01*
X8989110Y-16196674D02*
X8998634Y-16215722D01*
X8998634Y-16215722D02*
X8998634Y-16320484D01*
X8998634Y-16215722D02*
X9008158Y-16196674D01*
X9008158Y-16196674D02*
X9027205Y-16187150D01*
X9027205Y-16187150D02*
X9055777Y-16187150D01*
X9055777Y-16187150D02*
X9074825Y-16196674D01*
X9074825Y-16196674D02*
X9084348Y-16215722D01*
X9084348Y-16215722D02*
X9084348Y-16320484D01*
X9179586Y-16320484D02*
X9179586Y-16187150D01*
X9179586Y-16206198D02*
X9189110Y-16196674D01*
X9189110Y-16196674D02*
X9208158Y-16187150D01*
X9208158Y-16187150D02*
X9236729Y-16187150D01*
X9236729Y-16187150D02*
X9255777Y-16196674D01*
X9255777Y-16196674D02*
X9265301Y-16215722D01*
X9265301Y-16215722D02*
X9265301Y-16320484D01*
X9265301Y-16215722D02*
X9274825Y-16196674D01*
X9274825Y-16196674D02*
X9293872Y-16187150D01*
X9293872Y-16187150D02*
X9322444Y-16187150D01*
X9322444Y-16187150D02*
X9341491Y-16196674D01*
X9341491Y-16196674D02*
X9351015Y-16215722D01*
X9351015Y-16215722D02*
X9351015Y-16320484D01*
X9741491Y-16110960D02*
X9570063Y-16368103D01*
X9998634Y-16120484D02*
X10017682Y-16120484D01*
X10017682Y-16120484D02*
X10036729Y-16130008D01*
X10036729Y-16130008D02*
X10046253Y-16139531D01*
X10046253Y-16139531D02*
X10055777Y-16158579D01*
X10055777Y-16158579D02*
X10065301Y-16196674D01*
X10065301Y-16196674D02*
X10065301Y-16244293D01*
X10065301Y-16244293D02*
X10055777Y-16282388D01*
X10055777Y-16282388D02*
X10046253Y-16301436D01*
X10046253Y-16301436D02*
X10036729Y-16310960D01*
X10036729Y-16310960D02*
X10017682Y-16320484D01*
X10017682Y-16320484D02*
X9998634Y-16320484D01*
X9998634Y-16320484D02*
X9979587Y-16310960D01*
X9979587Y-16310960D02*
X9970063Y-16301436D01*
X9970063Y-16301436D02*
X9960539Y-16282388D01*
X9960539Y-16282388D02*
X9951015Y-16244293D01*
X9951015Y-16244293D02*
X9951015Y-16196674D01*
X9951015Y-16196674D02*
X9960539Y-16158579D01*
X9960539Y-16158579D02*
X9970063Y-16139531D01*
X9970063Y-16139531D02*
X9979587Y-16130008D01*
X9979587Y-16130008D02*
X9998634Y-16120484D01*
X10151015Y-16301436D02*
X10160539Y-16310960D01*
X10160539Y-16310960D02*
X10151015Y-16320484D01*
X10151015Y-16320484D02*
X10141491Y-16310960D01*
X10141491Y-16310960D02*
X10151015Y-16301436D01*
X10151015Y-16301436D02*
X10151015Y-16320484D01*
X10284348Y-16120484D02*
X10303396Y-16120484D01*
X10303396Y-16120484D02*
X10322444Y-16130008D01*
X10322444Y-16130008D02*
X10331968Y-16139531D01*
X10331968Y-16139531D02*
X10341491Y-16158579D01*
X10341491Y-16158579D02*
X10351015Y-16196674D01*
X10351015Y-16196674D02*
X10351015Y-16244293D01*
X10351015Y-16244293D02*
X10341491Y-16282388D01*
X10341491Y-16282388D02*
X10331968Y-16301436D01*
X10331968Y-16301436D02*
X10322444Y-16310960D01*
X10322444Y-16310960D02*
X10303396Y-16320484D01*
X10303396Y-16320484D02*
X10284348Y-16320484D01*
X10284348Y-16320484D02*
X10265301Y-16310960D01*
X10265301Y-16310960D02*
X10255777Y-16301436D01*
X10255777Y-16301436D02*
X10246253Y-16282388D01*
X10246253Y-16282388D02*
X10236729Y-16244293D01*
X10236729Y-16244293D02*
X10236729Y-16196674D01*
X10236729Y-16196674D02*
X10246253Y-16158579D01*
X10246253Y-16158579D02*
X10255777Y-16139531D01*
X10255777Y-16139531D02*
X10265301Y-16130008D01*
X10265301Y-16130008D02*
X10284348Y-16120484D01*
X10417682Y-16120484D02*
X10541491Y-16120484D01*
X10541491Y-16120484D02*
X10474825Y-16196674D01*
X10474825Y-16196674D02*
X10503396Y-16196674D01*
X10503396Y-16196674D02*
X10522444Y-16206198D01*
X10522444Y-16206198D02*
X10531968Y-16215722D01*
X10531968Y-16215722D02*
X10541491Y-16234769D01*
X10541491Y-16234769D02*
X10541491Y-16282388D01*
X10541491Y-16282388D02*
X10531968Y-16301436D01*
X10531968Y-16301436D02*
X10522444Y-16310960D01*
X10522444Y-16310960D02*
X10503396Y-16320484D01*
X10503396Y-16320484D02*
X10446253Y-16320484D01*
X10446253Y-16320484D02*
X10427206Y-16310960D01*
X10427206Y-16310960D02*
X10417682Y-16301436D01*
X10636729Y-16320484D02*
X10674825Y-16320484D01*
X10674825Y-16320484D02*
X10693872Y-16310960D01*
X10693872Y-16310960D02*
X10703396Y-16301436D01*
X10703396Y-16301436D02*
X10722444Y-16272865D01*
X10722444Y-16272865D02*
X10731968Y-16234769D01*
X10731968Y-16234769D02*
X10731968Y-16158579D01*
X10731968Y-16158579D02*
X10722444Y-16139531D01*
X10722444Y-16139531D02*
X10712920Y-16130008D01*
X10712920Y-16130008D02*
X10693872Y-16120484D01*
X10693872Y-16120484D02*
X10655777Y-16120484D01*
X10655777Y-16120484D02*
X10636729Y-16130008D01*
X10636729Y-16130008D02*
X10627206Y-16139531D01*
X10627206Y-16139531D02*
X10617682Y-16158579D01*
X10617682Y-16158579D02*
X10617682Y-16206198D01*
X10617682Y-16206198D02*
X10627206Y-16225246D01*
X10627206Y-16225246D02*
X10636729Y-16234769D01*
X10636729Y-16234769D02*
X10655777Y-16244293D01*
X10655777Y-16244293D02*
X10693872Y-16244293D01*
X10693872Y-16244293D02*
X10712920Y-16234769D01*
X10712920Y-16234769D02*
X10722444Y-16225246D01*
X10722444Y-16225246D02*
X10731968Y-16206198D01*
X10903396Y-16187150D02*
X10903396Y-16320484D01*
X10855777Y-16110960D02*
X10808158Y-16253817D01*
X10808158Y-16253817D02*
X10931968Y-16253817D01*
X10998634Y-16120484D02*
X10998634Y-16158579D01*
X11074825Y-16120484D02*
X11074825Y-16158579D01*
X11370063Y-16396674D02*
X11360539Y-16387150D01*
X11360539Y-16387150D02*
X11341491Y-16358579D01*
X11341491Y-16358579D02*
X11331968Y-16339531D01*
X11331968Y-16339531D02*
X11322444Y-16310960D01*
X11322444Y-16310960D02*
X11312920Y-16263341D01*
X11312920Y-16263341D02*
X11312920Y-16225246D01*
X11312920Y-16225246D02*
X11322444Y-16177627D01*
X11322444Y-16177627D02*
X11331968Y-16149055D01*
X11331968Y-16149055D02*
X11341491Y-16130008D01*
X11341491Y-16130008D02*
X11360539Y-16101436D01*
X11360539Y-16101436D02*
X11370063Y-16091912D01*
X11436729Y-16139531D02*
X11446253Y-16130008D01*
X11446253Y-16130008D02*
X11465301Y-16120484D01*
X11465301Y-16120484D02*
X11512920Y-16120484D01*
X11512920Y-16120484D02*
X11531968Y-16130008D01*
X11531968Y-16130008D02*
X11541491Y-16139531D01*
X11541491Y-16139531D02*
X11551015Y-16158579D01*
X11551015Y-16158579D02*
X11551015Y-16177627D01*
X11551015Y-16177627D02*
X11541491Y-16206198D01*
X11541491Y-16206198D02*
X11427206Y-16320484D01*
X11427206Y-16320484D02*
X11551015Y-16320484D01*
X11731968Y-16120484D02*
X11636729Y-16120484D01*
X11636729Y-16120484D02*
X11627206Y-16215722D01*
X11627206Y-16215722D02*
X11636729Y-16206198D01*
X11636729Y-16206198D02*
X11655777Y-16196674D01*
X11655777Y-16196674D02*
X11703396Y-16196674D01*
X11703396Y-16196674D02*
X11722444Y-16206198D01*
X11722444Y-16206198D02*
X11731968Y-16215722D01*
X11731968Y-16215722D02*
X11741491Y-16234769D01*
X11741491Y-16234769D02*
X11741491Y-16282388D01*
X11741491Y-16282388D02*
X11731968Y-16301436D01*
X11731968Y-16301436D02*
X11722444Y-16310960D01*
X11722444Y-16310960D02*
X11703396Y-16320484D01*
X11703396Y-16320484D02*
X11655777Y-16320484D01*
X11655777Y-16320484D02*
X11636729Y-16310960D01*
X11636729Y-16310960D02*
X11627206Y-16301436D01*
X11979587Y-16320484D02*
X11979587Y-16120484D01*
X12065301Y-16320484D02*
X12065301Y-16215722D01*
X12065301Y-16215722D02*
X12055777Y-16196674D01*
X12055777Y-16196674D02*
X12036730Y-16187150D01*
X12036730Y-16187150D02*
X12008158Y-16187150D01*
X12008158Y-16187150D02*
X11989110Y-16196674D01*
X11989110Y-16196674D02*
X11979587Y-16206198D01*
X12189110Y-16320484D02*
X12170063Y-16310960D01*
X12170063Y-16310960D02*
X12160539Y-16301436D01*
X12160539Y-16301436D02*
X12151015Y-16282388D01*
X12151015Y-16282388D02*
X12151015Y-16225246D01*
X12151015Y-16225246D02*
X12160539Y-16206198D01*
X12160539Y-16206198D02*
X12170063Y-16196674D01*
X12170063Y-16196674D02*
X12189110Y-16187150D01*
X12189110Y-16187150D02*
X12217682Y-16187150D01*
X12217682Y-16187150D02*
X12236730Y-16196674D01*
X12236730Y-16196674D02*
X12246253Y-16206198D01*
X12246253Y-16206198D02*
X12255777Y-16225246D01*
X12255777Y-16225246D02*
X12255777Y-16282388D01*
X12255777Y-16282388D02*
X12246253Y-16301436D01*
X12246253Y-16301436D02*
X12236730Y-16310960D01*
X12236730Y-16310960D02*
X12217682Y-16320484D01*
X12217682Y-16320484D02*
X12189110Y-16320484D01*
X12370063Y-16320484D02*
X12351015Y-16310960D01*
X12351015Y-16310960D02*
X12341491Y-16291912D01*
X12341491Y-16291912D02*
X12341491Y-16120484D01*
X12522444Y-16310960D02*
X12503396Y-16320484D01*
X12503396Y-16320484D02*
X12465301Y-16320484D01*
X12465301Y-16320484D02*
X12446253Y-16310960D01*
X12446253Y-16310960D02*
X12436730Y-16291912D01*
X12436730Y-16291912D02*
X12436730Y-16215722D01*
X12436730Y-16215722D02*
X12446253Y-16196674D01*
X12446253Y-16196674D02*
X12465301Y-16187150D01*
X12465301Y-16187150D02*
X12503396Y-16187150D01*
X12503396Y-16187150D02*
X12522444Y-16196674D01*
X12522444Y-16196674D02*
X12531968Y-16215722D01*
X12531968Y-16215722D02*
X12531968Y-16234769D01*
X12531968Y-16234769D02*
X12436730Y-16253817D01*
X12608158Y-16310960D02*
X12627206Y-16320484D01*
X12627206Y-16320484D02*
X12665301Y-16320484D01*
X12665301Y-16320484D02*
X12684349Y-16310960D01*
X12684349Y-16310960D02*
X12693872Y-16291912D01*
X12693872Y-16291912D02*
X12693872Y-16282388D01*
X12693872Y-16282388D02*
X12684349Y-16263341D01*
X12684349Y-16263341D02*
X12665301Y-16253817D01*
X12665301Y-16253817D02*
X12636730Y-16253817D01*
X12636730Y-16253817D02*
X12617682Y-16244293D01*
X12617682Y-16244293D02*
X12608158Y-16225246D01*
X12608158Y-16225246D02*
X12608158Y-16215722D01*
X12608158Y-16215722D02*
X12617682Y-16196674D01*
X12617682Y-16196674D02*
X12636730Y-16187150D01*
X12636730Y-16187150D02*
X12665301Y-16187150D01*
X12665301Y-16187150D02*
X12684349Y-16196674D01*
X12760539Y-16396674D02*
X12770063Y-16387150D01*
X12770063Y-16387150D02*
X12789111Y-16358579D01*
X12789111Y-16358579D02*
X12798634Y-16339531D01*
X12798634Y-16339531D02*
X12808158Y-16310960D01*
X12808158Y-16310960D02*
X12817682Y-16263341D01*
X12817682Y-16263341D02*
X12817682Y-16225246D01*
X12817682Y-16225246D02*
X12808158Y-16177627D01*
X12808158Y-16177627D02*
X12798634Y-16149055D01*
X12798634Y-16149055D02*
X12789111Y-16130008D01*
X12789111Y-16130008D02*
X12770063Y-16101436D01*
X12770063Y-16101436D02*
X12760539Y-16091912D01*
M02*
