M48
; DRILL file {KiCad 8.0.5} date 2024-10-11T11:15:46+0100
; FORMAT={-:-/ absolute / inch / decimal}
; #@! TF.CreationDate,2024-10-11T11:15:46+01:00
; #@! TF.GenerationSoftware,Kicad,Pcbnew,8.0.5
; #@! TF.FileFunction,Plated,1,6,PTH
FMAT,2
INCH
; #@! TA.AperFunction,Plated,PTH,ComponentDrill
T1C0.0079
; #@! TA.AperFunction,Plated,PTH,ComponentDrill
T2C0.0118
; #@! TA.AperFunction,Plated,PTH,ViaDrill
T3C0.0157
; #@! TA.AperFunction,Plated,PTH,ComponentDrill
T4C0.0236
; #@! TA.AperFunction,Plated,PTH,ComponentDrill
T5C0.0295
; #@! TA.AperFunction,Plated,PTH,ComponentDrill
T6C0.0354
; #@! TA.AperFunction,Plated,PTH,ComponentDrill
T7C0.0394
%
G90
G05
T1
X3.7701Y-5.0055
X3.7701Y-5.0606
X3.7976Y-4.978
X3.7976Y-5.0331
X3.7976Y-5.0882
X3.8262Y-5.0055
X3.8262Y-5.0606
X3.8528Y-4.978
X3.8528Y-5.0331
X3.8528Y-5.0882
X3.8803Y-5.0055
X3.8803Y-5.0606
T2
X5.1406Y-4.8228
X5.1406Y-4.8661
T3
X3.1496Y-2.7559
X3.1496Y-2.9528
X3.1496Y-3.3465
X3.1496Y-3.5433
X3.1496Y-3.7402
X3.1496Y-3.937
X3.1496Y-4.1339
X3.1496Y-4.3307
X3.1496Y-4.5276
X3.2037Y-5.2933
X3.2455Y-4.5945
X3.2678Y-5.0266
X3.2992Y-5.1516
X3.3209Y-4.5413
X3.3346Y-5.0482
X3.3465Y-2.9528
X3.3465Y-3.3465
X3.3465Y-3.5433
X3.3465Y-3.7402
X3.3465Y-3.937
X3.3465Y-4.1339
X3.3465Y-4.3307
X3.3511Y-4.954
X3.4783Y-5.3386
X3.4793Y-4.6939
X3.5138Y-4.9311
X3.5276Y-4.0807
X3.5295Y-3.4724
X3.5433Y-2.7559
X3.5433Y-3.1496
X3.5433Y-3.3465
X3.5433Y-3.5433
X3.5433Y-3.7402
X3.5433Y-3.937
X3.5433Y-5.315
X3.5551Y-4.9311
X3.5866Y-4.7362
X3.6516Y-4.4291
X3.6732Y-4.7795
X3.6988Y-3.9803
X3.6988Y-4.0925
X3.7402Y-2.7559
X3.7402Y-2.9528
X3.7402Y-3.5433
X3.7402Y-3.937
X3.7402Y-4.9213
X3.7402Y-5.315
X3.7421Y-3.3327
X3.75Y-3.1457
X3.7648Y-3.7372
X3.7697Y-4.0453
X3.7717Y-3.4606
X3.7992Y-3.6516
X3.8898Y-3.3327
X3.9114Y-3.8209
X3.937Y-2.7559
X3.937Y-3.3465
X3.937Y-4.9213
X3.937Y-5.315
X3.9409Y-4.5728
X3.9567Y-2.8484
X3.9961Y-4.5768
X4.0059Y-3.7736
X4.0148Y-3.4675
X4.0374Y-3.6629
X4.0433Y-5.3366
X4.0551Y-2.9252
X4.0689Y-3.4567
X4.1331Y-3.5686
X4.1339Y-2.7559
X4.1339Y-3.3465
X4.1339Y-4.3307
X4.1437Y-3.9272
X4.1516Y-3.689
X4.1811Y-3.5886
X4.2028Y-4.8406
X4.2028Y-4.9882
X4.2697Y-3.748
X4.2815Y-4.7215
X4.311Y-4.6417
X4.311Y-5.3346
X4.3169Y-5.1358
X4.3307Y-2.9528
X4.3307Y-3.1496
X4.3307Y-3.3465
X4.3307Y-3.7402
X4.3307Y-4.1339
X4.3307Y-4.5276
X4.3391Y-2.7559
X4.3543Y-5.0472
X4.4705Y-3.0955
X4.4882Y-5.3327
X4.4897Y-3.7121
X4.4931Y-3.9636
X4.5256Y-3.1457
X4.5256Y-5.0177
X4.5276Y-2.7559
X4.5276Y-2.9528
X4.5276Y-3.3465
X4.5276Y-3.5433
X4.5276Y-4.3307
X4.5315Y-4.5689
X4.5335Y-4.0285
X4.5446Y-3.6962
X4.6083Y-5.1909
X4.7244Y-3.1437
X4.7244Y-3.3465
X4.7244Y-3.7402
X4.7244Y-3.937
X4.7244Y-4.1339
X4.7421Y-3.563
X4.7638Y-4.7736
X4.7884Y-4.31
X4.8376Y-4.5079
X4.8711Y-4.2274
X4.8789Y-3.0906
X4.9213Y-3.3465
X4.9213Y-3.5433
X4.9213Y-3.7402
X4.9213Y-3.937
X4.9213Y-4.1339
X4.9232Y-3.1457
X4.9665Y-4.7539
X4.9665Y-4.8602
X4.999Y-4.812
X5.0089Y-5.0561
X5.0236Y-4.9075
X5.0295Y-5.187
X5.0354Y-4.2215
X5.0719Y-5.3219
X5.0758Y-4.7313
X5.1181Y-2.7559
X5.1181Y-2.9528
X5.1181Y-3.1496
X5.1181Y-3.3465
X5.1181Y-3.5433
X5.1181Y-3.7402
X5.1181Y-3.937
X5.1181Y-4.1339
X5.1181Y-4.3307
X5.1486Y-4.501
X5.1506Y-4.5502
X5.1673Y-5.2441
X5.2027Y-4.7832
X5.2362Y-4.811
X5.2392Y-4.9685
X5.2461Y-4.5315
X5.2913Y-5.4144
X5.2952Y-4.5277
X5.3009Y-4.8112
X5.315Y-2.7559
X5.315Y-2.9528
X5.315Y-3.1496
X5.315Y-3.5433
X5.315Y-3.7402
X5.3228Y-4.497
X5.3671Y-4.4941
X5.377Y-4.44
X5.3809Y-5.0591
X5.3878Y-5.3307
X5.3947Y-4.2165
X5.4213Y-4.311
X5.4227Y-4.9739
X5.4252Y-4.8071
X5.436Y-5.2116
X5.4419Y-5.2726
X5.4755Y-4.8119
X5.4951Y-4.6363
X5.499Y-4.5453
X5.5118Y-2.7559
X5.5118Y-2.9528
X5.5118Y-3.1496
X5.5118Y-3.3465
X5.5118Y-3.5433
X5.5118Y-3.7402
X5.5118Y-3.937
X5.5124Y-5.249
X5.5149Y-4.9864
X5.5236Y-4.3848
X5.5335Y-4.7224
X5.5423Y-4.5049
X5.5561Y-4.9842
X5.5837Y-4.8839
X5.5837Y-4.9459
X5.5846Y-5.248
X5.5873Y-4.8433
X5.6014Y-5.2096
X5.6053Y-4.4803
X5.6063Y-4.7165
X5.6083Y-4.7638
X5.6259Y-5.3117
X5.6319Y-5.4193
X5.6433Y-4.648
X5.6516Y-4.876
X5.6538Y-4.686
X5.6634Y-4.8317
X5.6988Y-4.497
X5.7018Y-5.0128
X5.7087Y-2.7559
X5.7087Y-2.9528
X5.7087Y-3.1496
X5.7087Y-3.3465
X5.7087Y-3.5433
X5.7087Y-3.7402
X5.7649Y-4.6347
X5.7756Y-5.0079
X5.7785Y-5.1467
X5.7874Y-5.2461
X5.7972Y-3.3307
X5.8169Y-5.4705
X5.8317Y-5.0118
X5.8367Y-4.8414
X5.8465Y-5.0965
X5.8654Y-4.6304
X5.8681Y-5.378
X5.878Y-4.8555
X5.8937Y-5.0138
X5.8957Y-5.0886
X5.9055Y-2.7559
X5.9055Y-2.9528
X5.9055Y-3.1496
X5.9055Y-3.3465
X5.9055Y-3.5433
X5.9055Y-3.937
X5.9055Y-4.1339
X5.9055Y-4.3307
X5.9072Y-3.7424
X5.9235Y-5.3556
X5.9429Y-5.0472
X5.9547Y-4.6063
X5.9577Y-5.2283
X5.9803Y-4.8583
X5.9911Y-4.7382
X5.9921Y-5.19
X5.9921Y-5.3642
X5.9941Y-4.998
X6.0266Y-5.2175
X6.0531Y-4.4656
X6.0551Y-5.0197
X6.0965Y-5.0846
X6.1024Y-2.9528
X6.1024Y-3.1496
X6.1024Y-3.3465
X6.1024Y-3.5433
X6.1024Y-3.937
X6.1024Y-4.1339
X6.1024Y-4.3307
X6.1081Y-3.7395
X6.1457Y-5.0886
X6.2992Y-2.7559
X6.2992Y-2.9528
X6.2992Y-3.3465
X6.2992Y-3.5433
X6.2992Y-3.7402
T5
X5.0313Y-5.1283
X5.0813Y-5.1283
X5.1313Y-5.1283
T6
X3.5551Y-2.9877
X4.1535Y-2.9877
T7
X4.615Y-4.6555
X4.715Y-4.6555
X4.815Y-4.6555
X5.1755Y-3.2226
X5.2755Y-3.2226
X5.3755Y-3.2226
X5.4724Y-5.4183
X5.4755Y-3.2226
X5.5724Y-5.4183
X5.5755Y-3.2226
X5.6755Y-3.2226
X5.7114Y-3.8961
X5.7114Y-3.9961
X5.7114Y-4.0961
X5.7114Y-4.1961
X5.7114Y-4.2961
X5.7755Y-3.2226
X5.8755Y-3.2226
X5.9755Y-3.2226
X6.0755Y-3.2226
X6.372Y-3.8965
X6.372Y-3.9965
X6.372Y-4.0965
X6.372Y-4.1965
X6.372Y-4.2965
T4
G00X5.8358Y-5.1858
M15
G01X5.8358Y-5.1425
M16
G05
G00X5.8358Y-5.3406
M15
G01X5.8358Y-5.3169
M16
G05
G00X6.176Y-5.1858
M15
G01X6.176Y-5.1425
M16
G05
G00X6.176Y-5.3406
M15
G01X6.176Y-5.3169
M16
G05
M30
